<svg width="1018" height="541" viewBox="0 0 1018 541" fill="none" xmlns="http://www.w3.org/2000/svg">
<path fill-rule="evenodd" clip-rule="evenodd" d="M32.6814 3.13397L26.6531 9.4256H9.3578V26.8541L3.11426 33.0011V3.13397H32.6814Z" fill="#00DDFF"/>
<path fill-rule="evenodd" clip-rule="evenodd" d="M1014.73 33.0009L1008.49 26.8539V9.42541H991.19L985.162 3.13379H1014.73V33.0009Z" fill="#00DDFF"/>
<path fill-rule="evenodd" clip-rule="evenodd" d="M985.163 536.475L991.191 530.24H1008.49V512.697L1014.73 506.607V536.475H985.163Z" fill="#00DDFF"/>
<path fill-rule="evenodd" clip-rule="evenodd" d="M3.1123 506.607L9.35584 512.697V530.24H26.6512L32.6794 536.475H3.1123V506.607Z" fill="#00DDFF"/>
<path d="M139.632 534.599H136.036V538.543H139.632V534.599Z" fill="#0057A9"/>
<path d="M113.332 534.6H109.736V538.544H113.332V534.6Z" fill="#0057A9"/>
<path d="M165.928 534.599H162.333V538.543H165.928V534.599Z" fill="#0057A9"/>
<path d="M192.224 534.599H188.628V538.543H192.224V534.599Z" fill="#0057A9"/>
<path d="M218.52 534.599H214.924V538.543H218.52V534.599Z" fill="#0057A9"/>
<path d="M244.816 534.599H241.221V538.543H244.816V534.599Z" fill="#0057A9"/>
<path d="M271.112 534.599H267.517V538.543H271.112V534.599Z" fill="#0057A9"/>
<path d="M297.408 534.599H293.812V538.543H297.408V534.599Z" fill="#0057A9"/>
<path d="M323.709 534.599H320.113V538.543H323.709V534.599Z" fill="#0057A9"/>
<path d="M350.005 534.599H346.409V538.543H350.005V534.599Z" fill="#0057A9"/>
<path d="M376.301 534.599H372.705V538.543H376.301V534.599Z" fill="#0057A9"/>
<path d="M402.596 534.599H399V538.543H402.596V534.599Z" fill="#0057A9"/>
<path d="M428.892 534.599H425.296V538.543H428.892V534.599Z" fill="#0057A9"/>
<path d="M455.188 534.599H451.592V538.543H455.188V534.599Z" fill="#0057A9"/>
<path d="M512.155 534.599H475.917V538.543H512.155V534.599Z" fill="#0057A9"/>
<path d="M537.888 534.599H534.293V538.543H537.888V534.599Z" fill="#0057A9"/>
<path d="M564.185 534.599H560.59V538.543H564.185V534.599Z" fill="#0057A9"/>
<path d="M590.481 534.599H586.886V538.543H590.481V534.599Z" fill="#0057A9"/>
<path d="M616.85 534.599H613.255V538.543H616.85V534.599Z" fill="#0057A9"/>
<path d="M643.142 534.599H639.547V538.543H643.142V534.599Z" fill="#0057A9"/>
<path d="M669.443 534.599H665.848V538.543H669.443V534.599Z" fill="#0057A9"/>
<path d="M695.738 534.599H692.143V538.543H695.738V534.599Z" fill="#0057A9"/>
<path d="M722.035 534.599H718.439V538.543H722.035V534.599Z" fill="#0057A9"/>
<path d="M748.33 534.599H744.734V538.543H748.33V534.599Z" fill="#0057A9"/>
<path d="M774.631 534.599H771.035V538.543H774.631V534.599Z" fill="#0057A9"/>
<path d="M800.927 534.599H797.331V538.543H800.927V534.599Z" fill="#0057A9"/>
<path d="M827.224 534.599H823.628V538.543H827.224V534.599Z" fill="#0057A9"/>
<path d="M853.52 534.599H849.925V538.543H853.52V534.599Z" fill="#0057A9"/>
<path d="M879.814 534.599H876.219V538.543H879.814V534.599Z" fill="#0057A9"/>
<path d="M906.11 534.599H902.515V538.543H906.11V534.599Z" fill="#0057A9"/>
<path fill-rule="evenodd" clip-rule="evenodd" d="M827.22 532.465H800.925V532.466H774.629V541H800.926V540.999H827.22H827.222H853.515H853.516H879.812V532.465H853.516H853.515H827.222H827.22ZM879.812 532.465H906.108V540.999H879.812V532.465Z" fill="url(#paint0_linear)"/>
<path fill-rule="evenodd" clip-rule="evenodd" d="M162.332 532.465H136.036V540.999H162.332H162.333H188.628H188.629H214.924H214.925H241.221V532.465H214.925H214.924H188.629H188.628H162.333H162.332ZM136.033 532.466H109.736V541H136.033V532.466Z" fill="url(#paint1_linear)"/>
<path d="M1 60.7343V1H60.1342" stroke="#0057A9" stroke-width="2" stroke-miterlimit="10"/>
<path d="M957.707 1H1016.84V60.7343" stroke="#0057A9" stroke-width="2" stroke-miterlimit="10"/>
<path d="M1016.84 478.764V538.498H957.705" stroke="#0057A9" stroke-width="2" stroke-miterlimit="10"/>
<path d="M60.1342 538.609H1V478.874" stroke="#0057A9" stroke-width="2" stroke-miterlimit="10"/>
<path d="M897.032 1H764.421H737.912H278.389H251.881H119.269" stroke="#0057A9" stroke-width="2" stroke-miterlimit="10"/>
<path d="M1 79.9344V150.308L13.8311 164.383V378.441L1 392.439V462.89" stroke="#0057A9" stroke-width="2" stroke-miterlimit="10"/>
<path d="M1017 80.1108V150.484L1004.17 164.559V378.618L1017 392.615V463.066" stroke="#0057A9" stroke-width="2" stroke-miterlimit="10"/>
<defs>
<linearGradient id="paint0_linear" x1="905.742" y1="532.857" x2="774.797" y2="532.857" gradientUnits="userSpaceOnUse">
<stop stop-color="#00DDFF"/>
<stop offset="1" stop-color="#00DDFF" stop-opacity="0"/>
</linearGradient>
<linearGradient id="paint1_linear" x1="109.819" y1="537.263" x2="240.769" y2="537.263" gradientUnits="userSpaceOnUse">
<stop stop-color="#00DDFF"/>
<stop offset="1" stop-color="#00DDFF" stop-opacity="0"/>
</linearGradient>
</defs>
</svg>
