<svg width="56" height="56" viewBox="0 0 56 56" fill="none" xmlns="http://www.w3.org/2000/svg">
<mask id="path-1-inside-1" fill="white">
<path fill-rule="evenodd" clip-rule="evenodd" d="M45.259 15C44.7663 15 44.3731 15.4335 44.3731 15.9727V16.6472H51.466V15.9727C51.466 15.4335 51.0722 15 50.5801 15H45.259ZM32.9425 32.9472H51.2609C55.033 32.9472 56 29.5798 56 25.8266V24.2184C56 20.4652 55.033 17.0896 51.2609 17.0896H26.334C22.5701 17.0896 21.5949 20.4652 21.5949 24.2108V25.8184C21.5949 29.5716 22.5626 32.9391 26.334 32.9391H27.7768L32.9425 32.9472ZM35.2548 15.9727C35.2548 15.4335 35.6486 15 36.1407 15H41.4624C41.9545 15 42.3477 15.4335 42.3477 15.9727V16.6472H35.2548V15.9727ZM27.0148 15C26.5228 15 26.1289 15.4335 26.1289 15.9727V16.6472H33.2218V15.9727C33.2218 15.4335 32.828 15 32.3366 15H27.0148ZM32.0817 33.6463H55.951V40.0144H54.0086C54.0325 40.1855 54.0489 40.3592 54.0489 40.5366C54.0489 42.6828 52.2777 44.4181 50.0881 44.4181C47.8991 44.4181 46.1279 42.6828 46.1279 40.5366C46.1286 40.3618 46.1414 40.1873 46.1663 40.0144H45.2747C45.2993 40.188 45.3156 40.3642 45.3156 40.5448C45.3156 42.691 43.5369 44.4263 41.3555 44.4263C39.1665 44.4263 37.3953 42.691 37.3953 40.5448C37.3953 40.3642 37.4123 40.188 37.4362 40.0144H18.1016L11.3283 40.0062C11.3528 40.1798 11.3698 40.356 11.3698 40.5366C11.3698 42.6425 9.65587 44.3703 7.49961 44.4181H7.43417C5.24519 44.4181 3.47337 42.6828 3.47337 40.5366C3.47337 40.356 3.49036 40.1798 3.5149 40.0062H0.959728C0.959728 40.0062 0.0329201 35.9535 0.00020185 34.6511C-0.00375448 34.4569 0.140079 34.2776 0.288664 34.0924C0.447273 33.8947 0.611296 33.6902 0.606748 33.4537C0.603709 33.0534 0.593891 32.5477 0.582914 31.9822C0.534817 29.5046 0.464471 25.8809 0.844585 24.9583C1.18939 24.1385 1.81732 23.3425 1.81732 23.3425L8.41824 15.8198H20.4221V33.6463H32.0817ZM12.7282 18.7752H17.183V26.3256H10.1831V21.292C10.1831 19.9021 11.3226 18.7752 12.7282 18.7752Z"/>
</mask>
<path fill-rule="evenodd" clip-rule="evenodd" d="M45.259 15C44.7663 15 44.3731 15.4335 44.3731 15.9727V16.6472H51.466V15.9727C51.466 15.4335 51.0722 15 50.5801 15H45.259ZM32.9425 32.9472H51.2609C55.033 32.9472 56 29.5798 56 25.8266V24.2184C56 20.4652 55.033 17.0896 51.2609 17.0896H26.334C22.5701 17.0896 21.5949 20.4652 21.5949 24.2108V25.8184C21.5949 29.5716 22.5626 32.9391 26.334 32.9391H27.7768L32.9425 32.9472ZM35.2548 15.9727C35.2548 15.4335 35.6486 15 36.1407 15H41.4624C41.9545 15 42.3477 15.4335 42.3477 15.9727V16.6472H35.2548V15.9727ZM27.0148 15C26.5228 15 26.1289 15.4335 26.1289 15.9727V16.6472H33.2218V15.9727C33.2218 15.4335 32.828 15 32.3366 15H27.0148ZM32.0817 33.6463H55.951V40.0144H54.0086C54.0325 40.1855 54.0489 40.3592 54.0489 40.5366C54.0489 42.6828 52.2777 44.4181 50.0881 44.4181C47.8991 44.4181 46.1279 42.6828 46.1279 40.5366C46.1286 40.3618 46.1414 40.1873 46.1663 40.0144H45.2747C45.2993 40.188 45.3156 40.3642 45.3156 40.5448C45.3156 42.691 43.5369 44.4263 41.3555 44.4263C39.1665 44.4263 37.3953 42.691 37.3953 40.5448C37.3953 40.3642 37.4123 40.188 37.4362 40.0144H18.1016L11.3283 40.0062C11.3528 40.1798 11.3698 40.356 11.3698 40.5366C11.3698 42.6425 9.65587 44.3703 7.49961 44.4181H7.43417C5.24519 44.4181 3.47337 42.6828 3.47337 40.5366C3.47337 40.356 3.49036 40.1798 3.5149 40.0062H0.959728C0.959728 40.0062 0.0329201 35.9535 0.00020185 34.6511C-0.00375448 34.4569 0.140079 34.2776 0.288664 34.0924C0.447273 33.8947 0.611296 33.6902 0.606748 33.4537C0.603709 33.0534 0.593891 32.5477 0.582914 31.9822C0.534817 29.5046 0.464471 25.8809 0.844585 24.9583C1.18939 24.1385 1.81732 23.3425 1.81732 23.3425L8.41824 15.8198H20.4221V33.6463H32.0817ZM12.7282 18.7752H17.183V26.3256H10.1831V21.292C10.1831 19.9021 11.3226 18.7752 12.7282 18.7752Z" fill="#00529E"/>
<path d="M44.3731 16.6472H43.3731V17.6472H44.3731V16.6472ZM51.466 16.6472V17.6472H52.466V16.6472H51.466ZM32.9425 32.9472L32.9409 33.9472H32.9425V32.9472ZM27.7768 32.9391L27.7783 31.9391H27.7768V32.9391ZM42.3477 16.6472V17.6472H43.3477V16.6472H42.3477ZM35.2548 16.6472H34.2548V17.6472H35.2548V16.6472ZM26.1289 16.6472H25.1289V17.6472H26.1289V16.6472ZM33.2218 16.6472V17.6472H34.2218V16.6472H33.2218ZM55.951 33.6463H56.951V32.6463H55.951V33.6463ZM55.951 40.0144V41.0144H56.951V40.0144H55.951ZM54.0086 40.0144V39.0144H52.8592L53.0183 40.1527L54.0086 40.0144ZM46.1279 40.5366L45.1279 40.5328V40.5366H46.1279ZM46.1663 40.0144L47.1561 40.1569L47.3206 39.0144H46.1663V40.0144ZM45.2747 40.0144V39.0144H44.1235L44.2846 40.1543L45.2747 40.0144ZM37.4362 40.0144L38.4269 40.1508L38.5833 39.0144H37.4362V40.0144ZM18.1016 40.0144L18.1004 41.0144H18.1016V40.0144ZM11.3283 40.0062L11.3295 39.0062L10.1768 39.0048L10.3381 40.1461L11.3283 40.0062ZM7.49961 44.4181V45.4181H7.51069L7.52178 45.4179L7.49961 44.4181ZM3.5149 40.0062L4.50506 40.1461L4.66614 39.0062H3.5149V40.0062ZM0.959728 40.0062L-0.0151048 40.2291L0.162603 41.0062H0.959728V40.0062ZM0.00020185 34.6511L-0.999602 34.6715L-0.999483 34.6762L0.00020185 34.6511ZM0.288664 34.0924L-0.491364 33.4667H-0.491364L0.288664 34.0924ZM0.606748 33.4537L-0.393291 33.4613L-0.393067 33.473L0.606748 33.4537ZM0.582914 31.9822L1.58273 31.9628L0.582914 31.9822ZM0.844585 24.9583L-0.0772348 24.5706L-0.0800187 24.5774L0.844585 24.9583ZM1.81732 23.3425L1.06567 22.683L1.04843 22.7026L1.03224 22.7231L1.81732 23.3425ZM8.41824 15.8198V14.8198H7.96531L7.66658 15.1603L8.41824 15.8198ZM20.4221 15.8198H21.4221V14.8198H20.4221V15.8198ZM20.4221 33.6463H19.4221V34.6463H20.4221V33.6463ZM17.183 18.7752H18.183V17.7752H17.183V18.7752ZM17.183 26.3256V27.3256H18.183V26.3256H17.183ZM10.1831 26.3256H9.18314V27.3256H10.1831V26.3256ZM45.3731 15.9727C45.3731 15.9468 45.3821 15.9449 45.3711 15.957C45.3653 15.9634 45.3532 15.9743 45.3323 15.9839C45.3105 15.994 45.2846 16 45.259 16V14C44.127 14 43.3731 14.9725 43.3731 15.9727H45.3731ZM45.3731 16.6472V15.9727H43.3731V16.6472H45.3731ZM51.466 15.6472H44.3731V17.6472H51.466V15.6472ZM50.466 15.9727V16.6472H52.466V15.9727H50.466ZM50.5801 16C50.5542 16 50.5282 15.9939 50.5064 15.9838C50.4857 15.9742 50.4737 15.9634 50.468 15.9572C50.4572 15.9454 50.466 15.9472 50.466 15.9727H52.466C52.466 14.972 51.711 14 50.5801 14V16ZM45.259 16H50.5801V14H45.259V16ZM51.2609 31.9472H32.9425V33.9472H51.2609V31.9472ZM55 25.8266C55 27.652 54.7587 29.2281 54.1666 30.3164C53.8795 30.8441 53.52 31.2387 53.0765 31.506C52.6341 31.7726 52.0508 31.9472 51.2609 31.9472V33.9472C52.3571 33.9472 53.3091 33.7009 54.1089 33.2189C54.9077 32.7375 55.4972 32.0556 55.9234 31.2723C56.7578 29.7386 57 27.7543 57 25.8266H55ZM55 24.2184V25.8266H57V24.2184H55ZM51.2609 18.0896C52.0503 18.0896 52.6334 18.2645 53.0758 18.5317C53.5192 18.7995 53.879 19.195 54.1663 19.7239C54.7588 20.8145 55 22.393 55 24.2184H57C57 22.2906 56.7578 20.3046 55.9237 18.7692C55.4978 17.9851 54.9085 17.302 54.1097 16.8197C53.3098 16.3366 52.3576 16.0896 51.2609 16.0896V18.0896ZM26.334 18.0896H51.2609V16.0896H26.334V18.0896ZM22.5949 24.2108C22.5949 22.3904 22.8379 20.8137 23.4313 19.7237C23.7191 19.1949 24.0793 18.7994 24.5227 18.5315C24.9649 18.2643 25.5471 18.0896 26.334 18.0896V16.0896C25.239 16.0896 24.2878 16.3368 23.4886 16.8196C22.6906 17.3017 22.1012 17.9841 21.6747 18.7675C20.8395 20.3017 20.5949 22.2856 20.5949 24.2108H22.5949ZM22.5949 25.8184V24.2108H20.5949V25.8184H22.5949ZM26.334 31.9391C25.5444 31.9391 24.9611 31.7644 24.5187 31.4978C24.0752 31.2305 23.7157 30.8359 23.4286 30.3082C22.8364 29.2199 22.5949 27.6438 22.5949 25.8184H20.5949C20.5949 27.7462 20.8373 29.7305 21.6718 31.2641C22.098 32.0474 22.6875 32.7293 23.4862 33.2107C24.286 33.6927 25.2379 33.9391 26.334 33.9391V31.9391ZM27.7768 31.9391H26.334V33.9391H27.7768V31.9391ZM32.9441 31.9472L27.7783 31.9391L27.7752 33.939L32.9409 33.9472L32.9441 31.9472ZM36.1407 14C35.0098 14 34.2548 14.972 34.2548 15.9727H36.2548C36.2548 15.9472 36.2636 15.9454 36.2528 15.9572C36.2472 15.9634 36.2351 15.9742 36.2144 15.9838C36.1926 15.9939 36.1666 16 36.1407 16V14ZM41.4624 14H36.1407V16H41.4624V14ZM43.3477 15.9727C43.3477 14.973 42.5942 14 41.4624 14V16C41.4365 16 41.4104 15.9939 41.3884 15.9837C41.3676 15.9741 41.3554 15.9631 41.3497 15.9569C41.3387 15.9448 41.3477 15.9468 41.3477 15.9727H43.3477ZM43.3477 16.6472V15.9727H41.3477V16.6472H43.3477ZM35.2548 17.6472H42.3477V15.6472H35.2548V17.6472ZM34.2548 15.9727V16.6472H36.2548V15.9727H34.2548ZM27.1289 15.9727C27.1289 15.9472 27.1377 15.9453 27.1269 15.9572C27.1213 15.9634 27.1092 15.9742 27.0885 15.9838C27.0667 15.9939 27.0407 16 27.0148 16V14C25.8839 14 25.1289 14.972 25.1289 15.9727H27.1289ZM27.1289 16.6472V15.9727H25.1289V16.6472H27.1289ZM33.2218 15.6472H26.1289V17.6472H33.2218V15.6472ZM32.2218 15.9727V16.6472H34.2218V15.9727H32.2218ZM32.3366 16C32.3103 16 32.2841 15.9938 32.2622 15.9837C32.2414 15.9741 32.2293 15.9632 32.2237 15.957C32.213 15.9452 32.2218 15.9472 32.2218 15.9727H34.2218C34.2218 14.9725 33.4673 14 32.3366 14V16ZM27.0148 16H32.3366V14H27.0148V16ZM55.951 32.6463H32.0817V34.6463H55.951V32.6463ZM56.951 40.0144V33.6463H54.951V40.0144H56.951ZM54.0086 41.0144H55.951V39.0144H54.0086V41.0144ZM55.0489 40.5366C55.0489 40.2984 55.027 40.076 54.999 39.876L53.0183 40.1527C53.0381 40.295 53.0489 40.4199 53.0489 40.5366H55.0489ZM50.0881 45.4181C52.8108 45.4181 55.0489 43.2541 55.0489 40.5366H53.0489C53.0489 42.1115 51.7447 43.4181 50.0881 43.4181V45.4181ZM45.1279 40.5366C45.1279 43.254 47.366 45.4181 50.0881 45.4181V43.4181C48.4323 43.4181 47.1279 42.1116 47.1279 40.5366H45.1279ZM45.1765 39.8719C45.145 40.0908 45.1288 40.3117 45.1279 40.5328L47.1279 40.5404C47.1284 40.412 47.1378 40.2839 47.1561 40.1569L45.1765 39.8719ZM45.2747 41.0144H46.1663V39.0144H45.2747V41.0144ZM46.3156 40.5448C46.3156 40.3042 46.2938 40.0793 46.2649 39.8745L44.2846 40.1543C44.3047 40.2968 44.3156 40.4242 44.3156 40.5448H46.3156ZM41.3555 45.4263C44.0688 45.4263 46.3156 43.2634 46.3156 40.5448H44.3156C44.3156 42.1185 43.005 43.4263 41.3555 43.4263V45.4263ZM36.3953 40.5448C36.3953 43.2622 38.6333 45.4263 41.3555 45.4263V43.4263C39.6997 43.4263 38.3953 42.1198 38.3953 40.5448H36.3953ZM36.4455 39.878C36.4181 40.0775 36.3953 40.3025 36.3953 40.5448H38.3953C38.3953 40.4259 38.4065 40.2986 38.4269 40.1508L36.4455 39.878ZM18.1016 41.0144H37.4362V39.0144H18.1016V41.0144ZM11.3271 41.0062L18.1004 41.0144L18.1028 39.0144L11.3295 39.0062L11.3271 41.0062ZM12.3698 40.5366C12.3698 40.2941 12.347 40.0684 12.3184 39.8663L10.3381 40.1461C10.3586 40.2913 10.3698 40.418 10.3698 40.5366H12.3698ZM7.52178 45.4179C10.205 45.3584 12.3698 43.2026 12.3698 40.5366H10.3698C10.3698 42.0825 9.10674 43.3822 7.47744 43.4184L7.52178 45.4179ZM7.43417 45.4181H7.49961V43.4181H7.43417V45.4181ZM2.47337 40.5366C2.47337 43.2542 4.71224 45.4181 7.43417 45.4181V43.4181C5.77815 43.4181 4.47337 42.1114 4.47337 40.5366H2.47337ZM2.52474 39.8663C2.49618 40.0684 2.47337 40.2941 2.47337 40.5366H4.47337C4.47337 40.418 4.48454 40.2913 4.50506 40.1461L2.52474 39.8663ZM0.959728 41.0062H3.5149V39.0062H0.959728V41.0062ZM-0.999483 34.6762C-0.980488 35.4324 -0.718602 36.8648 -0.48825 38.0137C-0.368915 38.6088 -0.250789 39.1619 -0.16258 39.5659C-0.118441 39.7681 -0.0817081 39.9333 -0.0559521 40.0482C-0.0430722 40.1057 -0.0329318 40.1506 -0.0259766 40.1813C-0.0224988 40.1966 -0.0198169 40.2084 -0.0179865 40.2165C-0.0170713 40.2205 -0.0163689 40.2236 -0.0158863 40.2257C-0.015645 40.2268 -0.0154587 40.2276 -0.0153281 40.2281C-0.0152629 40.2284 -0.0152116 40.2287 -0.0151743 40.2288C-0.0151557 40.2289 -0.0151383 40.229 -0.015129 40.229C-0.0151152 40.2291 -0.0151048 40.2291 0.959728 40.0062C1.93456 39.7832 1.93456 39.7833 1.93456 39.7833C1.93456 39.7832 1.93456 39.7832 1.93455 39.7832C1.93453 39.7831 1.93449 39.783 1.93445 39.7827C1.93435 39.7823 1.9342 39.7817 1.934 39.7808C1.93359 39.779 1.93296 39.7762 1.93212 39.7726C1.93044 39.7652 1.92792 39.7541 1.9246 39.7394C1.91796 39.7101 1.90816 39.6667 1.89563 39.6108C1.87058 39.499 1.83465 39.3374 1.79139 39.1393C1.7048 38.7427 1.58918 38.2013 1.47272 37.6205C1.23149 36.4174 1.01361 35.1723 0.999886 34.626L-0.999483 34.6762ZM-0.491364 33.4667C-0.55471 33.5456 -0.677585 33.6956 -0.775628 33.863C-0.877413 34.0367 -1.00682 34.3168 -0.999591 34.6715L0.999994 34.6307C1.00163 34.7109 0.987387 34.775 0.973909 34.8165C0.961181 34.8558 0.948792 34.8761 0.950088 34.8739C0.951427 34.8716 0.959489 34.8584 0.981187 34.8294C1.00356 34.7995 1.02954 34.767 1.06869 34.7182L-0.491364 33.4667ZM-0.393067 33.473C-0.395488 33.3471 -0.350705 33.2764 -0.359216 33.2912C-0.362911 33.2977 -0.373368 33.3145 -0.397041 33.3464C-0.421573 33.3795 -0.449665 33.4147 -0.491364 33.4667L1.06869 34.7182C1.13768 34.6322 1.27076 34.4698 1.377 34.284C1.48901 34.0881 1.61353 33.7969 1.60656 33.4345L-0.393067 33.473ZM-0.416898 32.0016C-0.405879 32.5692 -0.396208 33.0682 -0.393223 33.4613L1.60672 33.4461C1.60362 33.0386 1.59366 32.5261 1.58273 31.9628L-0.416898 32.0016ZM-0.0800187 24.5774C-0.239083 24.9635 -0.313565 25.5018 -0.359334 26.0063C-0.408584 26.5491 -0.434521 27.1932 -0.446668 27.8692C-0.470981 29.2223 -0.440866 30.767 -0.416898 32.0016L1.58273 31.9628C1.5586 30.7199 1.52949 29.214 1.55301 27.9051C1.56478 27.2502 1.58952 26.6605 1.63248 26.187C1.67893 25.6751 1.7382 25.4145 1.76919 25.3392L-0.0800187 24.5774ZM1.81732 23.3425C1.03224 22.7231 1.03216 22.7232 1.03209 22.7233C1.03206 22.7234 1.03198 22.7235 1.03192 22.7235C1.03181 22.7237 1.03169 22.7238 1.03155 22.724C1.03129 22.7244 1.03098 22.7247 1.03064 22.7252C1.02995 22.726 1.02911 22.7271 1.02812 22.7284C1.02615 22.7309 1.02357 22.7342 1.02043 22.7383C1.01414 22.7464 1.00556 22.7575 0.994921 22.7714C0.973661 22.7992 0.944089 22.8384 0.908042 22.8875C0.83613 22.9853 0.737461 23.1237 0.627069 23.29C0.410973 23.6156 0.129762 24.0785 -0.0772101 24.5706L1.76638 25.346C1.90421 25.0183 2.10937 24.6733 2.29344 24.396C2.38313 24.2608 2.463 24.1489 2.5196 24.0719C2.54781 24.0335 2.56999 24.0042 2.58442 23.9853C2.59162 23.9758 2.59687 23.969 2.59995 23.9651C2.60149 23.9631 2.60248 23.9618 2.6029 23.9613C2.60311 23.961 2.60318 23.9609 2.6031 23.961C2.60306 23.9611 2.60298 23.9612 2.60287 23.9613C2.60281 23.9614 2.60274 23.9615 2.60267 23.9616C2.60263 23.9616 2.60257 23.9617 2.60255 23.9617C2.60248 23.9618 2.60241 23.9619 1.81732 23.3425ZM7.66658 15.1603L1.06567 22.683L2.56898 24.0021L9.16989 16.4794L7.66658 15.1603ZM20.4221 14.8198H8.41824V16.8198H20.4221V14.8198ZM21.4221 33.6463V15.8198H19.4221V33.6463H21.4221ZM32.0817 32.6463H20.4221V34.6463H32.0817V32.6463ZM17.183 17.7752H12.7282V19.7752H17.183V17.7752ZM18.183 26.3256V18.7752H16.183V26.3256H18.183ZM10.1831 27.3256H17.183V25.3256H10.1831V27.3256ZM9.18314 21.292V26.3256H11.1831V21.292H9.18314ZM12.7282 17.7752C10.7809 17.7752 9.18314 19.3393 9.18314 21.292H11.1831C11.1831 20.4649 11.8643 19.7752 12.7282 19.7752V17.7752Z" fill="#00B6D2" mask="url(#path-1-inside-1)"/>
</svg>
