<svg width="56" height="56" viewBox="0 0 56 56" fill="none" xmlns="http://www.w3.org/2000/svg">
<mask id="path-1-inside-1" fill="white">
<path fill-rule="evenodd" clip-rule="evenodd" d="M4 8V14.5585H6.10404V36.0982C6.10404 39.5539 7.48231 42.7965 9.98585 45.2268C12.4694 47.6438 15.7786 48.9754 19.3075 48.9754C22.8031 48.9885 26.1697 47.6557 28.7091 45.2534C31.2992 42.8098 32.7174 39.5539 32.7174 36.0982V25.2717C32.7174 23.9534 33.0903 22.7682 33.7561 21.9226C34.2755 21.2701 34.9213 20.9105 35.5805 20.9105H45.4415V23.0479H52V8.68581H45.4415V17.5008L45.4282 10.6833H35.5739C32.1115 10.6833 28.8356 11.9817 26.3587 14.3454C23.8552 16.7224 22.4436 19.9051 22.377 23.2942V36.1848C22.377 37.5697 21.4715 39.181 19.1943 39.1744C17.3899 39.2742 16.4378 37.6696 16.4378 36.1848V14.5585H18.362V8H4ZM45.4415 17.5008V20.9105H45.4482L45.4415 17.5008ZM16.4378 14.5585H6.10404V14.4586H16.4378V14.5585Z"/>
</mask>
<path fill-rule="evenodd" clip-rule="evenodd" d="M4 8V14.5585H6.10404V36.0982C6.10404 39.5539 7.48231 42.7965 9.98585 45.2268C12.4694 47.6438 15.7786 48.9754 19.3075 48.9754C22.8031 48.9885 26.1697 47.6557 28.7091 45.2534C31.2992 42.8098 32.7174 39.5539 32.7174 36.0982V25.2717C32.7174 23.9534 33.0903 22.7682 33.7561 21.9226C34.2755 21.2701 34.9213 20.9105 35.5805 20.9105H45.4415V23.0479H52V8.68581H45.4415V17.5008L45.4282 10.6833H35.5739C32.1115 10.6833 28.8356 11.9817 26.3587 14.3454C23.8552 16.7224 22.4436 19.9051 22.377 23.2942V36.1848C22.377 37.5697 21.4715 39.181 19.1943 39.1744C17.3899 39.2742 16.4378 37.6696 16.4378 36.1848V14.5585H18.362V8H4ZM45.4415 17.5008V20.9105H45.4482L45.4415 17.5008ZM16.4378 14.5585H6.10404V14.4586H16.4378V14.5585Z" fill="#00529E"/>
<path d="M4 14.5585H3V15.5585H4V14.5585ZM4 8V7H3V8H4ZM9.98585 45.2268L10.6833 44.5102L10.6824 44.5093L9.98585 45.2268ZM19.3075 48.9754L19.3113 47.9754H19.3075V48.9754ZM28.7091 45.2534L28.0229 44.5261L28.0219 44.527L28.7091 45.2534ZM33.7561 21.9226L32.9737 21.2998L32.9705 21.304L33.7561 21.9226ZM45.4415 23.0479H44.4415V24.0479H45.4415V23.0479ZM52 23.0479V24.0479H53V23.0479H52ZM52 8.68581H53V7.68581H52V8.68581ZM45.4415 8.68581V7.68581H44.4415V8.68581H45.4415ZM45.4282 10.6833L46.4282 10.6814L46.4263 9.68331H45.4282V10.6833ZM26.3587 14.3454L27.0473 15.0706L27.0491 15.0688L26.3587 14.3454ZM22.377 23.2942L21.3772 23.2746L21.377 23.2844V23.2942H22.377ZM19.1943 39.1744L19.1973 38.1744L19.1681 38.1743L19.1391 38.1759L19.1943 39.1744ZM18.362 14.5585V15.5585H19.362V14.5585H18.362ZM18.362 8H19.362V7H18.362V8ZM45.4482 20.9105V21.9105H46.4501L46.4482 20.9086L45.4482 20.9105ZM6.10404 14.4586V13.4586H5.10404V14.4586H6.10404ZM16.4378 14.4586H17.4378V13.4586H16.4378V14.4586ZM5 14.5585V8H3V14.5585H5ZM6.10404 13.5585H4V15.5585H6.10404V13.5585ZM5.10404 14.5585V36.0982H7.10404V14.5585H5.10404ZM5.10404 36.0982C5.10404 39.827 6.59378 43.3276 9.28932 45.9443L10.6824 44.5093C8.37085 42.2654 7.10404 39.2808 7.10404 36.0982H5.10404ZM9.28842 45.9434C11.9623 48.5456 15.5231 49.9754 19.3075 49.9754V47.9754C16.0341 47.9754 12.9766 46.742 10.6833 44.5102L9.28842 45.9434ZM19.3038 49.9754C23.0563 49.9894 26.6703 48.5587 29.3963 45.9799L28.0219 44.527C25.6691 46.7527 22.55 47.9875 19.3113 47.9755L19.3038 49.9754ZM29.3954 45.9808C32.1805 43.3532 33.7174 39.8363 33.7174 36.0982H31.7174C31.7174 39.2714 30.418 42.2664 28.0229 44.5261L29.3954 45.9808ZM33.7174 36.0982V25.2717H31.7174V36.0982H33.7174ZM33.7174 25.2717C33.7174 24.131 34.0412 23.177 34.5418 22.5412L32.9705 21.304C32.1394 22.3594 31.7174 23.7758 31.7174 25.2717H33.7174ZM34.5386 22.5453C34.9244 22.0605 35.3061 21.9105 35.5805 21.9105V19.9105C34.5366 19.9105 33.6266 20.4796 32.9737 21.2999L34.5386 22.5453ZM35.5805 21.9105H45.4415V19.9105H35.5805V21.9105ZM46.4415 23.0479V20.9105H44.4415V23.0479H46.4415ZM52 22.0479H45.4415V24.0479H52V22.0479ZM51 8.68581V23.0479H53V8.68581H51ZM45.4415 9.68581H52V7.68581H45.4415V9.68581ZM46.4415 17.5008V8.68581H44.4415V17.5008H46.4415ZM46.4415 17.4989L46.4282 10.6814L44.4282 10.6853L44.4415 17.5028L46.4415 17.4989ZM45.4282 9.68331H35.5739V11.6833H45.4282V9.68331ZM35.5739 9.68331C31.8587 9.68331 28.3343 11.0778 25.6683 13.622L27.0491 15.0688C29.3369 12.8856 32.3643 11.6833 35.5739 11.6833V9.68331ZM25.6702 13.6202C22.9757 16.1785 21.4491 19.614 21.3772 23.2746L23.3768 23.3139C23.4381 20.1962 24.7346 17.2664 27.0473 15.0706L25.6702 13.6202ZM21.377 23.2942V36.1848H23.377V23.2942H21.377ZM21.377 36.1848C21.377 36.6737 21.215 37.1738 20.8921 37.5372C20.5902 37.8769 20.0786 38.1769 19.1973 38.1744L19.1914 40.1744C20.5873 40.1784 21.667 39.6762 22.3871 38.8656C23.0863 38.0788 23.377 37.0808 23.377 36.1848H21.377ZM19.1391 38.1759C18.5835 38.2066 18.1956 37.9902 17.9175 37.6457C17.6167 37.273 17.4378 36.7311 17.4378 36.1848H15.4378C15.4378 37.1233 15.735 38.1261 16.3613 38.902C17.0104 39.706 18.0008 40.242 19.2496 40.1728L19.1391 38.1759ZM17.4378 36.1848V14.5585H15.4378V36.1848H17.4378ZM18.362 13.5585H16.4378V15.5585H18.362V13.5585ZM17.362 8V14.5585H19.362V8H17.362ZM4 9H18.362V7H4V9ZM46.4415 20.9105V17.5008H44.4415V20.9105H46.4415ZM45.4415 21.9105H45.4482V19.9105H45.4415V21.9105ZM46.4482 20.9086L46.4415 17.4989L44.4415 17.5028L44.4482 20.9125L46.4482 20.9086ZM16.4378 13.5585H6.10404V15.5585H16.4378V13.5585ZM5.10404 14.4586V14.5585H7.10404V14.4586H5.10404ZM16.4378 13.4586H6.10404V15.4586H16.4378V13.4586ZM17.4378 14.5585V14.4586H15.4378V14.5585H17.4378Z" fill="#00B6D2" mask="url(#path-1-inside-1)"/>
</svg>
