<svg width="44" height="44" viewBox="0 0 44 44" fill="none" xmlns="http://www.w3.org/2000/svg">
<path d="M17.7586 41.421C16.4111 40.0908 15.6553 38.288 15.6553 36.4096C15.6553 34.5312 16.4111 32.7284 17.7586 31.3982C19.1062 30.0678 20.9354 29.3192 22.844 29.3192C24.7526 29.3192 26.5818 30.0678 27.9294 31.3982C29.2769 32.7284 30.0327 34.5312 30.0327 36.4096C30.0327 38.288 29.2769 40.0908 27.9294 41.421C26.5818 42.7514 24.7526 43.5 22.844 43.5C20.9354 43.5 19.1062 42.7514 17.7586 41.421Z" fill="#0057A9" stroke="#00DDFF"/>
<path d="M31.4459 17.8858L29.1885 20.1143L28.374 20.9185L28.3375 19.7745C28.3272 19.4522 28.2869 19.1257 28.2289 18.792L28.1841 18.5343L28.3702 18.3506L34.4135 12.3845L34.649 12.1041C36.9872 9.31994 36.8377 5.18663 34.1949 2.57759C31.5491 -0.0342636 27.352 -0.183238 24.5268 2.12913L24.2426 2.36177L15.1218 11.3659C16.6464 11.286 18.1863 11.5625 19.6048 12.1927L19.6053 12.193C19.8318 12.2939 20.0544 12.4035 20.2724 12.5214L20.2727 12.5216C20.2749 12.5228 20.2814 12.5262 20.2902 12.5309C20.3128 12.5428 20.3503 12.5628 20.3687 12.5729M31.4459 17.8858L21.5416 13.9822L21.862 13.5984C21.8099 13.5548 21.7576 13.513 21.7098 13.4746L21.7084 13.4735L21.7079 13.4731C21.5189 13.3221 21.3238 13.1752 21.1214 13.0372M31.4459 17.8858L31.7301 17.6532C34.5553 15.3408 38.7525 15.4897 41.3982 18.1016C44.041 20.7107 44.1906 24.844 41.8523 27.6283L41.6168 27.9087M31.4459 17.8858L41.6168 27.9087M20.3687 12.5729L20.1266 13.0104L20.3685 12.5728C20.3686 12.5729 20.3686 12.5729 20.3687 12.5729ZM20.3687 12.5729C20.608 12.7052 20.8414 12.8476 21.0683 12.9996L21.0693 13.0002C21.0858 13.0113 21.1006 13.0221 21.1084 13.0278L21.1093 13.0285L21.1188 13.0354C21.1207 13.0367 21.1214 13.0372 21.1214 13.0372L21.1214 13.0372M21.1214 13.0372C21.1213 13.0372 21.1212 13.0371 21.1212 13.0371L20.8396 13.4502L21.1214 13.0372ZM41.6168 27.9087L41.4226 28.1005L41.3984 28.1244L41.3979 28.1248L41.3724 28.15L32.4806 36.9281C32.6243 34.3169 31.6874 31.6584 29.6676 29.6643C27.8602 27.8801 25.5153 26.9521 23.1504 26.8783C24.1251 25.6882 24.7663 24.3192 25.0758 22.894L25.0758 22.8939C25.1996 22.3235 25.2704 21.743 25.2874 21.1598L25.2875 21.1564L25.2877 21.146C25.2877 21.1455 25.2877 21.145 25.2877 21.1445C25.293 20.9554 25.2926 20.7661 25.2866 20.5769L25.2865 20.574L25.2865 20.574L25.2863 20.5678C25.2735 20.1812 25.2369 19.7957 25.1769 19.4134M41.6168 27.9087L25.177 19.4142C25.177 19.414 25.1769 19.4137 25.1769 19.4134M25.1769 19.4134C25.1756 19.4051 25.1744 19.3979 25.1737 19.3943L25.1737 19.3942L25.1732 19.3915L25.173 19.39C25.173 19.3899 25.1729 19.3898 25.1729 19.3898C25.1728 19.3892 25.1729 19.3894 25.1729 19.3898L24.6796 19.4709C24.653 19.3059 24.6219 19.1417 24.5862 18.9784M25.1769 19.4134L24.0804 17.3867C24.2192 17.7131 24.3384 18.0473 24.4373 18.3876C24.4396 18.3953 24.4417 18.4031 24.4437 18.4109C24.4456 18.4178 24.4474 18.4247 24.4494 18.4315C24.5007 18.6124 24.5463 18.7948 24.5862 18.9784M24.5862 18.9784L25.0748 18.8724C25.0747 18.8721 25.0747 18.8718 25.0746 18.8715L24.5862 18.9784ZM22.9715 14.685L22.9716 14.685C23.0998 14.8327 23.2236 14.984 23.3429 15.1389L23.3439 15.1403C23.4311 15.2543 23.5158 15.3703 23.5977 15.4882C23.5997 15.491 23.6042 15.4973 23.6101 15.5056C23.6272 15.5295 23.6561 15.5701 23.672 15.5935L22.9715 14.685ZM22.9715 14.685C22.9634 14.6756 22.954 14.6647 22.9438 14.6528M22.9715 14.685L22.9438 14.6528M22.9438 14.6528C22.9184 14.6233 22.8879 14.5879 22.8595 14.5563L22.9438 14.6528ZM2.60324 38.3101L2.2548 38.6631L2.60324 38.3101C-0.201078 35.5417 -0.201084 31.0558 2.60324 28.2874C3.99275 26.9156 5.81081 26.2279 7.63718 26.2158C7.9775 26.7143 8.36971 27.1892 8.81712 27.6309L9.1684 27.2751L8.81713 27.6309C10.3345 29.1288 12.2314 30.021 14.2 30.3129C14.3701 30.6751 14.5087 31.047 14.6139 31.4253C13.4232 33.3407 12.9815 35.5799 13.2866 37.736C13.1247 37.9379 12.9565 38.1301 12.7741 38.3101L13.1254 38.666L12.7741 38.3101C9.96629 41.0821 5.41115 41.0821 2.60324 38.3101Z" fill="#0057A9" stroke="#00DDFF"/>
<path d="M10.5552 25.8972C9.20776 24.567 8.45197 22.7642 8.45197 20.8858C8.45197 19.0074 9.20776 17.2046 10.5552 15.8744C11.9029 14.544 13.732 13.7954 15.6406 13.7954C17.5493 13.7954 19.3784 14.544 20.7261 15.8744C22.0735 17.2046 22.8293 19.0074 22.8293 20.8858C22.8293 22.7642 22.0735 24.567 20.7261 25.8972C19.3784 27.2276 17.5493 27.9762 15.6406 27.9762C13.732 27.9762 11.9029 27.2276 10.5552 25.8972Z" fill="#0057A9" stroke="#00DDFF"/>
</svg>
