<svg width="56" height="56" viewBox="0 0 56 56" fill="none" xmlns="http://www.w3.org/2000/svg">
<rect opacity="0.01" width="56" height="56" fill="black"/>
<mask id="path-2-inside-1" fill="white">
<path fill-rule="evenodd" clip-rule="evenodd" d="M16.0032 6.38979C16.1342 5.58072 16.8379 4.98959 17.6575 5.00014H23.1168C23.9364 4.98959 24.6401 5.58072 24.7712 6.38979L25.8796 13.0072C25.9578 13.4896 25.8187 13.982 25.4996 14.3522C25.1805 14.7224 24.714 14.9325 24.2253 14.9262H16.5325C16.0438 14.9325 15.5773 14.7224 15.2582 14.3522C14.9391 13.982 14.8 13.4896 14.8782 13.0072L16.0032 6.38979ZM26.5083 5.9762C26.0876 5.79781 25.6008 5.97943 25.3998 6.38979C25.2214 6.81047 25.4031 7.29721 25.8134 7.4982L44.0112 15.7699C44.4161 15.8942 44.8504 15.699 45.0263 15.3137C45.2022 14.9284 45.0652 14.4724 44.7061 14.2479L26.5083 5.9762ZM21.1978 29.898H19.5435C18.6298 29.898 17.8891 29.1574 17.8891 28.2437C17.8891 27.33 18.6298 26.5893 19.5435 26.5893H21.1978C22.1115 26.5893 22.8521 27.33 22.8521 28.2437C22.8521 29.1574 22.1115 29.898 21.1978 29.898ZM21.1978 43.1328H19.5435C18.6298 43.1328 17.8891 42.3921 17.8891 41.4785C17.8891 40.5648 18.6298 39.8241 19.5435 39.8241H21.1978C22.1115 39.8241 22.8521 40.5648 22.8521 41.4785C22.8521 42.3921 22.1115 43.1328 21.1978 43.1328ZM19.5435 36.5154H21.1978C22.1115 36.5154 22.8521 35.7747 22.8521 34.8611C22.8521 33.9474 22.1115 33.2067 21.1978 33.2067H19.5435C18.6298 33.2067 17.8891 33.9474 17.8891 34.8611C17.8891 35.7747 18.6298 36.5154 19.5435 36.5154ZM13.1742 6.98535L6.55684 13.6027C6.39691 13.7528 6.30618 13.9624 6.30618 14.1818C6.30618 14.4011 6.39691 14.6107 6.55684 14.7608C6.70695 14.9207 6.91652 15.0114 7.13586 15.0114C7.35521 15.0114 7.56478 14.9207 7.71488 14.7608L14.3323 8.1434C14.6466 7.82269 14.644 7.30869 14.3264 6.99117C14.0089 6.67365 13.4949 6.67106 13.1742 6.98535ZM29.4695 49.7502C29.4695 50.1889 29.2952 50.6097 28.985 50.92C28.6747 51.2302 28.2539 51.4045 27.8152 51.4045H12.9261C12.4873 51.4045 12.0665 51.2302 11.7563 50.92C11.446 50.6097 11.2717 50.1889 11.2717 49.7502V48.0958C11.2717 47.6571 11.446 47.2363 11.7563 46.926C12.0665 46.6158 12.4873 46.4415 12.9261 46.4415H27.8152C28.2539 46.4415 28.6747 46.6158 28.985 46.926C29.2952 47.2363 29.4695 47.6571 29.4695 48.0958V49.7502ZM14.5804 24.935V43.1328C14.5804 44.0465 15.3211 44.7871 16.2348 44.7871H24.5065C24.9453 44.7872 25.366 44.6129 25.6763 44.3026C25.9865 43.9924 26.1608 43.5716 26.1608 43.1328V24.935C26.1608 24.4962 25.9865 24.0755 25.6763 23.7652C25.366 23.455 24.9453 23.2807 24.5065 23.2807H16.2348C15.3211 23.2807 14.5804 24.0213 14.5804 24.935ZM44.3586 48.0958C41.6176 48.0958 39.3956 45.8738 39.3956 43.1328C39.4052 42.65 39.4832 42.171 39.6272 41.7101L41.0499 43.1328C41.0445 44.6824 42.1152 46.0282 43.6264 46.3711C45.1376 46.714 46.6843 45.9622 47.3482 44.562C48.0122 43.1619 47.6154 41.4885 46.3935 40.5355L45.5994 41.9086C45.3034 42.4188 44.7582 42.7328 44.1684 42.7328C43.5786 42.7328 43.0333 42.4188 42.7374 41.9086L40.5536 38.1698C40.2575 37.6569 40.2582 37.0249 40.5553 36.5126C40.8524 36.0003 41.4007 35.6859 41.9929 35.6882H43.7962C43.407 35.6239 43.1206 35.2886 43.1179 34.8942V23.2807C43.1179 22.8238 43.4882 22.4535 43.9451 22.4535H44.7722C45.2291 22.4535 45.5994 22.8238 45.5994 23.2807V34.8611C45.5966 35.2556 45.3103 35.5908 44.9211 35.6552H46.3439C46.9331 35.6587 47.476 35.9754 47.7691 36.4866C48.0622 36.9978 48.0612 37.6264 47.7666 38.1367L47.2207 39.0962C48.5329 40.0225 49.3158 41.5266 49.3217 43.1328C49.3217 45.8738 47.0996 48.0958 44.3586 48.0958ZM4.47237 21.6263H51.5385C52.1692 21.6216 52.7269 21.2157 52.9252 20.617C53.1236 20.0182 52.9185 19.3597 52.4153 18.9794L49.7187 16.9611C49.4622 16.7656 49.1479 16.6608 48.8254 16.6633H4.47237C3.6592 16.6633 3 17.3225 3 18.1356V20.1539C3 20.5444 3.15512 20.9189 3.43125 21.1951C3.70737 21.4712 4.08187 21.6263 4.47237 21.6263Z"/>
</mask>
<path fill-rule="evenodd" clip-rule="evenodd" d="M16.0032 6.38979C16.1342 5.58072 16.8379 4.98959 17.6575 5.00014H23.1168C23.9364 4.98959 24.6401 5.58072 24.7712 6.38979L25.8796 13.0072C25.9578 13.4896 25.8187 13.982 25.4996 14.3522C25.1805 14.7224 24.714 14.9325 24.2253 14.9262H16.5325C16.0438 14.9325 15.5773 14.7224 15.2582 14.3522C14.9391 13.982 14.8 13.4896 14.8782 13.0072L16.0032 6.38979ZM26.5083 5.9762C26.0876 5.79781 25.6008 5.97943 25.3998 6.38979C25.2214 6.81047 25.4031 7.29721 25.8134 7.4982L44.0112 15.7699C44.4161 15.8942 44.8504 15.699 45.0263 15.3137C45.2022 14.9284 45.0652 14.4724 44.7061 14.2479L26.5083 5.9762ZM21.1978 29.898H19.5435C18.6298 29.898 17.8891 29.1574 17.8891 28.2437C17.8891 27.33 18.6298 26.5893 19.5435 26.5893H21.1978C22.1115 26.5893 22.8521 27.33 22.8521 28.2437C22.8521 29.1574 22.1115 29.898 21.1978 29.898ZM21.1978 43.1328H19.5435C18.6298 43.1328 17.8891 42.3921 17.8891 41.4785C17.8891 40.5648 18.6298 39.8241 19.5435 39.8241H21.1978C22.1115 39.8241 22.8521 40.5648 22.8521 41.4785C22.8521 42.3921 22.1115 43.1328 21.1978 43.1328ZM19.5435 36.5154H21.1978C22.1115 36.5154 22.8521 35.7747 22.8521 34.8611C22.8521 33.9474 22.1115 33.2067 21.1978 33.2067H19.5435C18.6298 33.2067 17.8891 33.9474 17.8891 34.8611C17.8891 35.7747 18.6298 36.5154 19.5435 36.5154ZM13.1742 6.98535L6.55684 13.6027C6.39691 13.7528 6.30618 13.9624 6.30618 14.1818C6.30618 14.4011 6.39691 14.6107 6.55684 14.7608C6.70695 14.9207 6.91652 15.0114 7.13586 15.0114C7.35521 15.0114 7.56478 14.9207 7.71488 14.7608L14.3323 8.1434C14.6466 7.82269 14.644 7.30869 14.3264 6.99117C14.0089 6.67365 13.4949 6.67106 13.1742 6.98535ZM29.4695 49.7502C29.4695 50.1889 29.2952 50.6097 28.985 50.92C28.6747 51.2302 28.2539 51.4045 27.8152 51.4045H12.9261C12.4873 51.4045 12.0665 51.2302 11.7563 50.92C11.446 50.6097 11.2717 50.1889 11.2717 49.7502V48.0958C11.2717 47.6571 11.446 47.2363 11.7563 46.926C12.0665 46.6158 12.4873 46.4415 12.9261 46.4415H27.8152C28.2539 46.4415 28.6747 46.6158 28.985 46.926C29.2952 47.2363 29.4695 47.6571 29.4695 48.0958V49.7502ZM14.5804 24.935V43.1328C14.5804 44.0465 15.3211 44.7871 16.2348 44.7871H24.5065C24.9453 44.7872 25.366 44.6129 25.6763 44.3026C25.9865 43.9924 26.1608 43.5716 26.1608 43.1328V24.935C26.1608 24.4962 25.9865 24.0755 25.6763 23.7652C25.366 23.455 24.9453 23.2807 24.5065 23.2807H16.2348C15.3211 23.2807 14.5804 24.0213 14.5804 24.935ZM44.3586 48.0958C41.6176 48.0958 39.3956 45.8738 39.3956 43.1328C39.4052 42.65 39.4832 42.171 39.6272 41.7101L41.0499 43.1328C41.0445 44.6824 42.1152 46.0282 43.6264 46.3711C45.1376 46.714 46.6843 45.9622 47.3482 44.562C48.0122 43.1619 47.6154 41.4885 46.3935 40.5355L45.5994 41.9086C45.3034 42.4188 44.7582 42.7328 44.1684 42.7328C43.5786 42.7328 43.0333 42.4188 42.7374 41.9086L40.5536 38.1698C40.2575 37.6569 40.2582 37.0249 40.5553 36.5126C40.8524 36.0003 41.4007 35.6859 41.9929 35.6882H43.7962C43.407 35.6239 43.1206 35.2886 43.1179 34.8942V23.2807C43.1179 22.8238 43.4882 22.4535 43.9451 22.4535H44.7722C45.2291 22.4535 45.5994 22.8238 45.5994 23.2807V34.8611C45.5966 35.2556 45.3103 35.5908 44.9211 35.6552H46.3439C46.9331 35.6587 47.476 35.9754 47.7691 36.4866C48.0622 36.9978 48.0612 37.6264 47.7666 38.1367L47.2207 39.0962C48.5329 40.0225 49.3158 41.5266 49.3217 43.1328C49.3217 45.8738 47.0996 48.0958 44.3586 48.0958ZM4.47237 21.6263H51.5385C52.1692 21.6216 52.7269 21.2157 52.9252 20.617C53.1236 20.0182 52.9185 19.3597 52.4153 18.9794L49.7187 16.9611C49.4622 16.7656 49.1479 16.6608 48.8254 16.6633H4.47237C3.6592 16.6633 3 17.3225 3 18.1356V20.1539C3 20.5444 3.15512 20.9189 3.43125 21.1951C3.70737 21.4712 4.08187 21.6263 4.47237 21.6263Z" fill="#00529E"/>
<path d="M17.6575 5.00014L17.6446 6.00014H17.6575V5.00014ZM16.0032 6.38979L16.989 6.55739L16.9903 6.54971L16.0032 6.38979ZM23.1168 5.00014V6.00022L23.1297 6.00006L23.1168 5.00014ZM24.7712 6.38979L23.784 6.54971L23.7849 6.55499L24.7712 6.38979ZM25.8796 13.0072L26.8667 12.8471L26.8659 12.842L25.8796 13.0072ZM25.4996 14.3522L26.257 15.0051L26.257 15.0051L25.4996 14.3522ZM24.2253 14.9262L24.2382 13.9262H24.2253V14.9262ZM16.5325 14.9262V13.9261L16.5196 13.9263L16.5325 14.9262ZM14.8782 13.0072L13.8923 12.8396L13.8911 12.8471L14.8782 13.0072ZM25.3998 6.38979L24.5018 5.94992L24.4898 5.97434L24.4792 5.99938L25.3998 6.38979ZM26.5083 5.9762L26.9221 5.06584L26.9104 5.06055L26.8987 5.05556L26.5083 5.9762ZM25.8134 7.4982L25.3736 8.39626L25.3865 8.4026L25.3996 8.40857L25.8134 7.4982ZM44.0112 15.7699L43.5974 16.6803L43.6561 16.707L43.7178 16.7259L44.0112 15.7699ZM45.0263 15.3137L44.1166 14.8985L44.1166 14.8985L45.0263 15.3137ZM44.7061 14.2479L45.2361 13.4L45.1801 13.3649L45.1199 13.3376L44.7061 14.2479ZM6.55684 13.6027L7.24118 14.3319L7.25274 14.3211L7.26395 14.3098L6.55684 13.6027ZM13.1742 6.98535L12.4743 6.2711L12.4671 6.27825L13.1742 6.98535ZM6.55684 14.7608L7.28601 14.0764L7.2643 14.0533L7.24118 14.0316L6.55684 14.7608ZM7.71488 14.7608L7.00778 14.0537L6.99657 14.0649L6.98572 14.0764L7.71488 14.7608ZM14.3323 8.1434L15.0394 8.85054L15.0465 8.84332L14.3323 8.1434ZM14.3264 6.99117L15.0336 6.28407V6.28407L14.3264 6.99117ZM28.985 50.92L28.2779 50.2129H28.2779L28.985 50.92ZM29.4695 49.7502H28.4695V49.7502L29.4695 49.7502ZM28.985 46.926L28.2779 47.6331H28.2779L28.985 46.926ZM29.4695 48.0958L28.4695 48.0958V48.0958H29.4695ZM24.5065 44.7871L24.5065 43.7871H24.5065V44.7871ZM25.6763 44.3026L26.3834 45.0097L26.3834 45.0097L25.6763 44.3026ZM39.3956 43.1328L38.3958 43.1129L38.3956 43.1228V43.1328H39.3956ZM39.6272 41.7101L40.3343 41.003L39.1656 39.8343L38.6727 41.4118L39.6272 41.7101ZM41.0499 43.1328L42.0499 43.1363L42.0514 42.7201L41.7571 42.4257L41.0499 43.1328ZM43.6264 46.3711L43.8477 45.3959L43.6264 46.3711ZM46.3935 40.5355L47.0085 39.747L46.1028 39.0406L45.5278 40.0349L46.3935 40.5355ZM45.5994 41.9086L46.4644 42.4104L46.4651 42.4092L45.5994 41.9086ZM42.7374 41.9086L43.6024 41.4068L43.6009 41.4042L42.7374 41.9086ZM40.5536 38.1698L39.6876 38.6698L39.6901 38.6741L40.5536 38.1698ZM40.5553 36.5126L41.4203 37.0143L40.5553 36.5126ZM41.9929 35.6882L41.9889 36.6882H41.9929V35.6882ZM43.7962 35.6882V36.6882L43.9594 34.7017L43.7962 35.6882ZM43.1179 34.8942H42.1179L42.1179 34.9012L43.1179 34.8942ZM45.5994 34.8611L46.5994 34.8681V34.8611H45.5994ZM44.9211 35.6552L44.7579 34.6686L44.9211 36.6552V35.6552ZM46.3439 35.6552L46.3499 34.6552H46.3439V35.6552ZM47.7691 36.4866L46.9016 36.984V36.984L47.7691 36.4866ZM47.7666 38.1367L46.9006 37.6367L46.8974 37.6422L47.7666 38.1367ZM47.2207 39.0962L46.3515 38.6017L45.9029 39.3901L46.644 39.9132L47.2207 39.0962ZM49.3217 43.1328H50.3217L50.3217 43.1292L49.3217 43.1328ZM51.5385 21.6263V22.6263L51.5459 22.6263L51.5385 21.6263ZM52.9252 20.617L51.9759 20.3025L52.9252 20.617ZM52.4153 18.9794L53.0183 18.1816L53.0145 18.1788L52.4153 18.9794ZM49.7187 16.9611L49.1126 17.7565L49.1195 17.7616L49.7187 16.9611ZM48.8254 16.6633V17.6633L48.833 17.6632L48.8254 16.6633ZM3.43125 21.1951L4.13835 20.488L4.13835 20.488L3.43125 21.1951ZM17.6704 4.00022C16.3554 3.9833 15.2263 4.93174 15.016 6.22987L16.9903 6.54971C17.0421 6.22969 17.3205 5.99588 17.6446 6.00006L17.6704 4.00022ZM23.1168 4.00014H17.6575V6.00014H23.1168V4.00014ZM25.7583 6.22987C25.548 4.93174 24.4189 3.9833 23.104 4.00022L23.1297 6.00006C23.4539 5.99588 23.7322 6.22969 23.7841 6.54971L25.7583 6.22987ZM26.8659 12.842L25.7574 6.22459L23.7849 6.55499L24.8933 13.1724L26.8659 12.842ZM26.257 15.0051C26.7691 14.4112 26.9922 13.6212 26.8667 12.8471L24.8925 13.1673C24.9234 13.3581 24.8684 13.5528 24.7422 13.6993L26.257 15.0051ZM24.2124 15.9261C24.9965 15.9362 25.745 15.5991 26.257 15.0051L24.7422 13.6993C24.616 13.8457 24.4315 13.9288 24.2382 13.9263L24.2124 15.9261ZM16.5325 15.9262H24.2253V13.9262H16.5325V15.9262ZM14.5008 15.0051C15.0128 15.5991 15.7613 15.9362 16.5454 15.9261L16.5196 13.9263C16.3263 13.9288 16.1418 13.8457 16.0156 13.6993L14.5008 15.0051ZM13.8911 12.8471C13.7656 13.6212 13.9887 14.4112 14.5008 15.0051L16.0156 13.6993C15.8894 13.5528 15.8344 13.3581 15.8653 13.1673L13.8911 12.8471ZM15.0173 6.22219L13.8923 12.8396L15.8641 13.1748L16.989 6.55738L15.0173 6.22219ZM26.2979 6.82966C26.2652 6.89632 26.1862 6.92582 26.1178 6.89685L26.8987 5.05556C25.989 4.6698 24.9364 5.06254 24.5018 5.94992L26.2979 6.82966ZM26.2533 6.60014C26.32 6.63279 26.3495 6.71186 26.3205 6.78019L24.4792 5.99938C24.0934 6.90907 24.4862 7.96162 25.3736 8.39626L26.2533 6.60014ZM44.425 14.8596L26.2272 6.58783L25.3996 8.40857L43.5974 16.6803L44.425 14.8596ZM44.1166 14.8985C44.1492 14.8271 44.2297 14.7909 44.3047 14.814L43.7178 16.7259C44.6026 16.9975 45.5516 16.571 45.936 15.729L44.1166 14.8985ZM44.176 15.0959C44.1094 15.0543 44.0841 14.9698 44.1166 14.8985L45.936 15.729C46.3204 14.8871 46.021 13.8906 45.2361 13.4L44.176 15.0959ZM26.0944 6.88657L44.2922 15.1583L45.1199 13.3376L26.9221 5.06584L26.0944 6.88657ZM19.5435 30.898H21.1978V28.898H19.5435V30.898ZM16.8891 28.2437C16.8891 29.7097 18.0775 30.898 19.5435 30.898V28.898C19.1821 28.898 18.8891 28.6051 18.8891 28.2437H16.8891ZM19.5435 25.5893C18.0775 25.5893 16.8891 26.7777 16.8891 28.2437H18.8891C18.8891 27.8823 19.1821 27.5893 19.5435 27.5893V25.5893ZM21.1978 25.5893H19.5435V27.5893H21.1978V25.5893ZM23.8521 28.2437C23.8521 26.7777 22.6638 25.5893 21.1978 25.5893V27.5893C21.5592 27.5893 21.8521 27.8823 21.8521 28.2437H23.8521ZM21.1978 30.898C22.6638 30.898 23.8521 29.7097 23.8521 28.2437H21.8521C21.8521 28.6051 21.5592 28.898 21.1978 28.898V30.898ZM19.5435 44.1328H21.1978V42.1328H19.5435V44.1328ZM16.8891 41.4785C16.8891 42.9444 18.0775 44.1328 19.5435 44.1328V42.1328C19.1821 42.1328 18.8891 41.8398 18.8891 41.4785H16.8891ZM19.5435 38.8241C18.0775 38.8241 16.8891 40.0125 16.8891 41.4785H18.8891C18.8891 41.1171 19.1821 40.8241 19.5435 40.8241V38.8241ZM21.1978 38.8241H19.5435V40.8241H21.1978V38.8241ZM23.8521 41.4785C23.8521 40.0125 22.6638 38.8241 21.1978 38.8241V40.8241C21.5592 40.8241 21.8521 41.1171 21.8521 41.4785H23.8521ZM21.1978 44.1328C22.6638 44.1328 23.8521 42.9444 23.8521 41.4785H21.8521C21.8521 41.8398 21.5592 42.1328 21.1978 42.1328V44.1328ZM21.1978 35.5154H19.5435V37.5154H21.1978V35.5154ZM21.8521 34.8611C21.8521 35.2225 21.5592 35.5154 21.1978 35.5154V37.5154C22.6638 37.5154 23.8521 36.327 23.8521 34.8611H21.8521ZM21.1978 34.2067C21.5592 34.2067 21.8521 34.4997 21.8521 34.8611H23.8521C23.8521 33.3951 22.6638 32.2067 21.1978 32.2067V34.2067ZM19.5435 34.2067H21.1978V32.2067H19.5435V34.2067ZM18.8891 34.8611C18.8891 34.4997 19.1821 34.2067 19.5435 34.2067V32.2067C18.0775 32.2067 16.8891 33.3951 16.8891 34.8611H18.8891ZM19.5435 35.5154C19.1821 35.5154 18.8891 35.2225 18.8891 34.8611H16.8891C16.8891 36.327 18.0775 37.5154 19.5435 37.5154V35.5154ZM7.26395 14.3098L13.8813 7.69246L12.4671 6.27825L5.84974 12.8956L7.26395 14.3098ZM7.30618 14.1818C7.30618 14.2386 7.28265 14.293 7.24118 14.3319L5.87251 12.8736C5.51116 13.2127 5.30618 13.6862 5.30618 14.1818H7.30618ZM7.24118 14.0316C7.28265 14.0705 7.30618 14.1249 7.30618 14.1818H5.30618C5.30618 14.6773 5.51116 15.1508 5.87251 15.4899L7.24118 14.0316ZM7.13586 14.0114C7.19275 14.0114 7.24709 14.035 7.28601 14.0764L5.82768 15.4451C6.16681 15.8065 6.6403 16.0114 7.13586 16.0114V14.0114ZM6.98572 14.0764C7.02464 14.035 7.07898 14.0114 7.13586 14.0114V16.0114C7.63143 16.0114 8.10492 15.8065 8.44405 15.4451L6.98572 14.0764ZM13.6252 7.43629L7.00778 14.0537L8.42199 15.4679L15.0394 8.8505L13.6252 7.43629ZM13.6193 7.69828C13.5491 7.62806 13.5485 7.51439 13.6181 7.44347L15.0465 8.84332C15.7446 8.13098 15.7388 6.98932 15.0336 6.28407L13.6193 7.69828ZM13.8742 7.69957C13.8032 7.76907 13.6896 7.7685 13.6193 7.69828L15.0336 6.28407C14.3283 5.57881 13.1866 5.57304 12.4743 6.27114L13.8742 7.69957ZM29.6921 51.6271C30.1899 51.1293 30.4695 50.4542 30.4695 49.7502L28.4695 49.7502C28.4695 49.9237 28.4006 50.0902 28.2779 50.2129L29.6921 51.6271ZM27.8152 52.4045C28.5192 52.4045 29.1943 52.1249 29.6921 51.6271L28.2779 50.2129C28.1552 50.3356 27.9887 50.4045 27.8152 50.4045V52.4045ZM12.9261 52.4045H27.8152V50.4045H12.9261V52.4045ZM11.0492 51.6271C11.547 52.1249 12.2221 52.4045 12.9261 52.4045V50.4045C12.7525 50.4045 12.5861 50.3356 12.4634 50.2129L11.0492 51.6271ZM10.2717 49.7502C10.2717 50.4542 10.5514 51.1293 11.0492 51.6271L12.4634 50.2129C12.3407 50.0902 12.2717 49.9237 12.2717 49.7502H10.2717ZM10.2717 48.0958V49.7502H12.2717V48.0958H10.2717ZM11.0492 46.2189C10.5514 46.7167 10.2717 47.3919 10.2717 48.0958H12.2717C12.2717 47.9223 12.3407 47.7559 12.4634 47.6331L11.0492 46.2189ZM12.9261 45.4415C12.2221 45.4415 11.547 45.7211 11.0492 46.2189L12.4634 47.6331C12.5861 47.5104 12.7525 47.4415 12.9261 47.4415V45.4415ZM27.8152 45.4415H12.9261V47.4415H27.8152V45.4415ZM29.6921 46.2189C29.1943 45.7211 28.5192 45.4415 27.8152 45.4415V47.4415C27.9887 47.4415 28.1552 47.5104 28.2779 47.6331L29.6921 46.2189ZM30.4695 48.0958C30.4695 47.3919 30.1899 46.7167 29.6921 46.2189L28.2779 47.6331C28.4006 47.7559 28.4695 47.9223 28.4695 48.0958L30.4695 48.0958ZM30.4695 49.7502V48.0958H28.4695V49.7502H30.4695ZM15.5804 43.1328V24.935H13.5804V43.1328H15.5804ZM16.2348 43.7871C15.8734 43.7871 15.5804 43.4942 15.5804 43.1328H13.5804C13.5804 44.5988 14.7688 45.7871 16.2348 45.7871V43.7871ZM24.5065 43.7871H16.2348V45.7871H24.5065V43.7871ZM24.9692 43.5955C24.8465 43.7182 24.68 43.7871 24.5065 43.7871L24.5065 45.7871C25.2105 45.7872 25.8856 45.5075 26.3834 45.0097L24.9692 43.5955ZM25.1608 43.1328C25.1608 43.3063 25.0919 43.4728 24.9692 43.5955L26.3834 45.0097C26.8812 44.5119 27.1608 43.8368 27.1608 43.1328H25.1608ZM25.1608 24.935V43.1328H27.1608V24.935H25.1608ZM24.9692 24.4723C25.0919 24.595 25.1608 24.7615 25.1608 24.935H27.1608C27.1608 24.231 26.8812 23.5559 26.3834 23.0581L24.9692 24.4723ZM24.5065 24.2807C24.68 24.2807 24.8465 24.3496 24.9692 24.4723L26.3834 23.0581C25.8856 22.5603 25.2105 22.2807 24.5065 22.2807V24.2807ZM16.2348 24.2807H24.5065V22.2807H16.2348V24.2807ZM15.5804 24.935C15.5804 24.5736 15.8734 24.2807 16.2348 24.2807V22.2807C14.7688 22.2807 13.5804 23.469 13.5804 24.935H15.5804ZM38.3956 43.1328C38.3956 46.4261 41.0653 49.0958 44.3586 49.0958V47.0958C42.1699 47.0958 40.3956 45.3215 40.3956 43.1328H38.3956ZM38.6727 41.4118C38.5005 41.9629 38.4073 42.5356 38.3958 43.1129L40.3954 43.1527C40.4031 42.7644 40.4659 42.3791 40.5817 42.0083L38.6727 41.4118ZM41.7571 42.4257L40.3343 41.003L38.9201 42.4172L40.3428 43.8399L41.7571 42.4257ZM43.8477 45.3959C42.7933 45.1566 42.0461 44.2176 42.0499 43.1363L40.05 43.1293C40.0428 45.1472 41.4372 46.8998 43.4051 47.3463L43.8477 45.3959ZM46.4447 44.1336C45.9814 45.1106 44.9022 45.6352 43.8477 45.3959L43.4051 47.3463C45.373 47.7929 47.3872 46.8138 48.2518 44.9905L46.4447 44.1336ZM45.7785 41.324C46.6311 41.989 46.9079 43.1566 46.4447 44.1336L48.2518 44.9905C49.1164 43.1671 48.5997 40.988 47.0085 39.747L45.7785 41.324ZM46.4651 42.4092L47.2592 41.0361L45.5278 40.0349L44.7337 41.408L46.4651 42.4092ZM44.1684 43.7328C45.1148 43.7328 45.9895 43.229 46.4644 42.4104L44.7344 41.4068C44.6173 41.6086 44.4017 41.7328 44.1684 41.7328V43.7328ZM41.8724 42.4104C42.3472 43.229 43.222 43.7328 44.1684 43.7328V41.7328C43.9351 41.7328 43.7194 41.6086 43.6024 41.4068L41.8724 42.4104ZM39.6901 38.6741L41.8739 42.4129L43.6009 41.4042L41.4171 37.6654L39.6901 38.6741ZM39.6903 36.0108C39.2135 36.8328 39.2125 37.8469 39.6876 38.6698L41.4197 37.6698C41.3025 37.4669 41.3028 37.2169 41.4203 37.0143L39.6903 36.0108ZM41.9969 34.6883C41.0467 34.6845 40.167 35.1889 39.6903 36.0108L41.4203 37.0143C41.5378 36.8117 41.7547 36.6873 41.9889 36.6882L41.9969 34.6883ZM43.7962 34.6882H41.9929V36.6882H43.7962V34.6882ZM42.1179 34.9012C42.1241 35.7823 42.7636 36.531 43.6329 36.6748L43.9594 34.7017C44.0503 34.7167 44.1172 34.795 44.1179 34.8872L42.1179 34.9012ZM42.1179 23.2807V34.8942H44.1179V23.2807H42.1179ZM43.9451 21.4535C42.9359 21.4535 42.1179 22.2715 42.1179 23.2807H44.1179C44.1179 23.3761 44.0405 23.4535 43.9451 23.4535V21.4535ZM44.7722 21.4535H43.9451V23.4535H44.7722V21.4535ZM46.5994 23.2807C46.5994 22.2715 45.7813 21.4535 44.7722 21.4535V23.4535C44.6768 23.4535 44.5994 23.3761 44.5994 23.2807H46.5994ZM46.5994 34.8611V23.2807H44.5994V34.8611H46.5994ZM45.0844 36.6417C45.9537 36.4979 46.5932 35.7492 46.5994 34.8681L44.5994 34.8541C44.6001 34.7619 44.667 34.6836 44.7579 34.6686L45.0844 36.6417ZM46.3439 34.6552H44.9211V36.6552H46.3439V34.6552ZM48.6366 35.9893C48.1664 35.169 47.2953 34.6609 46.3499 34.6552L46.3378 36.6551C46.5709 36.6565 46.7856 36.7818 46.9016 36.984L48.6366 35.9893ZM48.6326 38.6367C49.1054 37.8179 49.1069 36.8095 48.6366 35.9892L46.9016 36.984C47.0175 37.1862 47.0171 37.4348 46.9006 37.6367L48.6326 38.6367ZM48.0898 39.5907L48.6358 38.6312L46.8974 37.6422L46.3515 38.6017L48.0898 39.5907ZM50.3217 43.1292C50.3146 41.1993 49.374 39.3921 47.7973 38.2792L46.644 39.9132C47.6919 40.6528 48.317 41.8538 48.3217 43.1365L50.3217 43.1292ZM44.3586 49.0958C47.6519 49.0958 50.3217 46.4261 50.3217 43.1328H48.3217C48.3217 45.3215 46.5474 47.0958 44.3586 47.0958V49.0958ZM51.5385 20.6263H4.47237V22.6263H51.5385V20.6263ZM51.9759 20.3025C51.9123 20.4946 51.7334 20.6248 51.5311 20.6263L51.5459 22.6263C52.605 22.6184 53.5415 21.9368 53.8745 20.9314L51.9759 20.3025ZM51.8124 19.7771C51.9738 19.8991 52.0396 20.1104 51.9759 20.3025L53.8745 20.9314C54.2075 19.926 53.8632 18.8202 53.0182 18.1816L51.8124 19.7771ZM49.1195 17.7616L51.8161 19.7799L53.0145 18.1788L50.3179 16.1605L49.1195 17.7616ZM48.833 17.6632C48.9339 17.6625 49.0323 17.6953 49.1127 17.7565L50.3248 16.1656C49.892 15.8359 49.3619 15.6592 48.8178 15.6633L48.833 17.6632ZM4.47237 17.6633H48.8254V15.6633H4.47237V17.6633ZM4 18.1356C4 17.8748 4.21149 17.6633 4.47237 17.6633V15.6633C3.10692 15.6633 2 16.7702 2 18.1356H4ZM4 20.1539V18.1356H2V20.1539H4ZM4.13835 20.488C4.04977 20.3994 4 20.2792 4 20.1539H2C2 20.8097 2.26048 21.4385 2.72414 21.9022L4.13835 20.488ZM4.47237 20.6263C4.34709 20.6263 4.22694 20.5765 4.13835 20.488L2.72414 21.9022C3.1878 22.3658 3.81665 22.6263 4.47237 22.6263V20.6263Z" fill="#00B6D2" mask="url(#path-2-inside-1)"/>
</svg>
