<svg width="68" height="70" viewBox="0 0 68 70" fill="none" xmlns="http://www.w3.org/2000/svg">
<path fill-rule="evenodd" clip-rule="evenodd" d="M37.606 2.09004L65.8744 31.5367C68.926 34.715 66.6743 40 62.2677 40H57.3327V53.3334C57.3327 62.5384 49.871 70 40.666 70H27.3327C18.1277 70 10.666 62.5384 10.666 53.3334V40H5.73102C1.32435 40 -0.927312 34.715 2.12435 31.5367L30.3927 2.09004C30.8593 1.60406 31.4193 1.2174 32.0391 0.953267C32.6589 0.689133 33.3256 0.552979 33.9994 0.552979C34.6731 0.552979 35.3398 0.689133 35.9596 0.953267C36.5794 1.2174 37.1394 1.60406 37.606 2.09004ZM29.8533 58.3423C31.1678 58.8867 32.5766 59.1668 33.9994 59.1667C36.8724 59.1665 39.6276 58.025 41.6591 55.9934C43.6905 53.9618 44.8318 51.2064 44.8318 48.3334C44.8318 45.4604 43.6905 42.705 41.6591 40.6734C39.6276 38.6418 36.8724 37.5003 33.9994 37.5C32.5766 37.4999 31.1678 37.78 29.8533 38.3244C28.5389 38.8688 27.3445 39.6667 26.3384 40.6727C25.3324 41.6787 24.5343 42.873 23.9898 44.1874C23.4453 45.5018 23.1651 46.9106 23.1651 48.3334C23.1651 49.7561 23.4453 51.1649 23.9898 52.4793C24.5343 53.7937 25.3324 54.988 26.3384 55.994C27.3445 57 28.5389 57.798 29.8533 58.3423ZM28.6101 50.5657C28.3169 49.8579 28.166 49.0994 28.166 48.3333C28.166 46.7862 28.7806 45.3025 29.8746 44.2085C30.9685 43.1146 32.4523 42.5 33.9994 42.5C35.5464 42.5 37.0302 43.1146 38.1241 44.2085C39.2181 45.3025 39.8327 46.7862 39.8327 48.3333C39.8327 49.0994 39.6818 49.8579 39.3887 50.5657C39.0955 51.2734 38.6658 51.9165 38.1241 52.4581C37.5825 52.9998 36.9394 53.4295 36.2317 53.7226C35.5239 54.0158 34.7654 54.1667 33.9994 54.1667C33.2333 54.1667 32.4748 54.0158 31.767 53.7226C31.0593 53.4295 30.4162 52.9998 29.8746 52.4581C29.3329 51.9165 28.9032 51.2734 28.6101 50.5657Z" fill="url(#paint0_linear)"/>
<defs>
<linearGradient id="paint0_linear" x1="33.9994" y1="0.552979" x2="33.9994" y2="70" gradientUnits="userSpaceOnUse">
<stop stop-color="#00DDFF"/>
<stop offset="1" stop-color="#00DDFF" stop-opacity="0.3"/>
</linearGradient>
</defs>
</svg>
