<svg width="32" height="32" viewBox="0 0 32 32" fill="none" xmlns="http://www.w3.org/2000/svg">
<rect width="32" height="32" fill="#064F94"/>
<path d="M15.9495 19.5318L12.81 22.6724C12.3434 23.1143 11.7271 23.3637 11.0845 23.3708C10.7648 23.3746 10.4474 23.3149 10.1509 23.1952C9.85436 23.0755 9.58453 22.8982 9.35704 22.6734C8.91355 22.2066 8.66392 21.5888 8.65868 20.9449C8.65475 20.625 8.71446 20.3076 8.83436 20.011C8.95425 19.7145 9.13193 19.4447 9.35704 19.2174L13.0721 15.4962C13.5346 15.0451 14.155 14.7926 14.8011 14.7926C15.4472 14.7926 16.0677 15.0451 16.5301 15.4962C16.6045 15.5727 16.6934 15.6335 16.7916 15.675C16.8898 15.7165 16.9954 15.7378 17.102 15.7378C17.2087 15.7378 17.3142 15.7165 17.4124 15.675C17.5107 15.6335 17.5996 15.5727 17.6739 15.4962C17.8157 15.3344 17.8974 15.1286 17.9054 14.9136C17.9072 14.8061 17.8877 14.6994 17.8479 14.5996C17.8082 14.4997 17.7491 14.4088 17.6739 14.332C17.3018 13.9472 16.8552 13.6423 16.3614 13.4358C15.8676 13.2292 15.3369 13.1255 14.8016 13.1308C13.7245 13.1364 12.6935 13.5687 11.9344 14.333L8.21017 18.0521C7.82518 18.4241 7.52002 18.8707 7.31333 19.3645C7.10664 19.8583 7.00275 20.3891 7.008 20.9244C7.01334 22.0016 7.44567 23.0327 8.21017 23.7916C8.58153 24.176 9.02723 24.4808 9.52015 24.6875C10.0131 24.8942 10.5429 24.9984 11.0774 24.9938C12.1538 24.9961 13.1873 24.5719 13.9517 23.8141L17.0913 20.6736C17.2427 20.5219 17.3276 20.3163 17.3274 20.102C17.3272 19.8876 17.2419 19.6822 17.0903 19.5308C16.9386 19.3794 16.733 19.2944 16.5187 19.2946C16.3043 19.2948 16.0989 19.3801 15.9475 19.5318H15.9495Z" fill="#00DDFF"/>
<path d="M23.8055 8.20231C23.4341 7.81795 22.9884 7.51316 22.4955 7.30649C22.0026 7.09982 21.4728 6.99559 20.9383 7.00014C19.8612 7.00548 18.83 7.43781 18.0712 8.20231L14.9214 11.3419C14.7678 11.4929 14.6805 11.6987 14.6786 11.9141C14.6768 12.1294 14.7606 12.3367 14.9116 12.4903C15.0626 12.6439 15.2684 12.7312 15.4838 12.733C15.6992 12.7348 15.9065 12.651 16.06 12.5L19.1996 9.36045C19.666 8.91693 20.2835 8.66728 20.9271 8.66209C21.2471 8.65824 21.5647 8.718 21.8614 8.83788C22.1581 8.95777 22.4281 9.13539 22.6556 9.36045C23.0993 9.82671 23.349 10.4443 23.3539 11.0879C23.3573 11.4079 23.2973 11.7253 23.1774 12.0219C23.0576 12.3186 22.8802 12.5886 22.6556 12.8164L18.9354 16.5356C18.473 16.9867 17.8525 17.2393 17.2064 17.2393C16.5603 17.2393 15.9398 16.9867 15.4774 16.5356C15.3255 16.3855 15.1204 16.3015 14.9069 16.3021C14.6933 16.3026 14.4887 16.3877 14.3376 16.5386C14.1866 16.6895 14.1013 16.8941 14.1006 17.1076C14.0998 17.3212 14.1836 17.5264 14.3336 17.6784C14.7058 18.063 15.1524 18.3679 15.6462 18.5744C16.14 18.7809 16.6707 18.8847 17.2059 18.8795L17.212 18.8662C18.2892 18.8609 19.3203 18.4285 20.0792 17.664L23.7994 13.9438C24.5593 13.1821 24.9865 12.1503 24.9877 11.0743C24.9888 9.99837 24.5638 8.96572 23.8055 8.20231Z" fill="#00DDFF"/>
</svg>
