<svg width="32" height="32" viewBox="0 0 32 32" fill="none" xmlns="http://www.w3.org/2000/svg">
<rect width="32" height="32" fill="#064F94"/>
<path d="M21.8563 6.14949C21.7979 6.1571 21.737 6.15203 21.6786 6.15203C20.7144 6.15203 19.7501 6.14949 18.7859 6.15456C18.5068 6.15456 18.2302 6.19009 17.9637 6.28398C17.4918 6.44891 17.2076 6.77879 17.0908 7.25838C17.0477 7.436 17.0299 7.61616 17.0299 7.79886C17.0299 9.50406 17.0274 11.2067 17.0325 12.9119C17.0325 13.2621 17.0553 13.6123 17.1898 13.9472C17.3649 14.3811 17.6897 14.6374 18.1363 14.7516C18.2961 14.7922 18.4611 14.8074 18.626 14.8074H24.1578C24.3684 14.8074 24.579 14.7897 24.7871 14.7491C25.4062 14.6349 25.8122 14.2238 25.9264 13.6072C25.9366 13.5514 25.9163 13.4753 26 13.4499V7.56288C25.9898 7.55273 25.9873 7.54004 25.9873 7.52481C25.9492 7.40301 25.9442 7.27614 25.9036 7.1518C25.7234 6.61893 25.3529 6.30428 24.8175 6.16725C24.6551 6.12665 24.4927 6.10635 24.3227 6.11396C24.2897 6.1165 24.2466 6.13934 24.2237 6.09113H21.9654C21.9552 6.1571 21.8969 6.14441 21.8563 6.14949ZM24.3608 7.18225C24.4623 7.18225 24.5663 7.20509 24.6627 7.23554C24.8378 7.29136 24.9342 7.42839 24.9342 7.6187C24.9342 9.51675 24.9368 11.4148 24.9317 13.3129C24.9317 13.5971 24.7135 13.7696 24.3963 13.7721C23.427 13.7798 22.4602 13.7747 21.4909 13.7747H18.6235C18.5093 13.7747 18.4053 13.7417 18.3012 13.7062C18.0855 13.6275 18.0576 13.4397 18.0551 13.252C18.05 12.3004 18.0525 11.3488 18.0525 10.3973V7.7202C18.0525 7.55526 18.0906 7.40301 18.2276 7.28883C18.3444 7.1924 18.489 7.17971 18.6235 7.17971C20.5368 7.17718 22.45 7.17971 24.3608 7.18225Z" fill="#00DDFF"/>
<path d="M21.8364 6.11141C20.834 6.11395 19.8317 6.11395 18.832 6.11395C18.5934 6.11395 18.36 6.13932 18.1291 6.19261C17.8347 6.26112 17.5683 6.388 17.3678 6.61637C17.0988 6.92341 16.9923 7.29896 16.9923 7.69735C16.9872 9.46345 16.9872 11.2321 16.9923 12.9982C16.9923 13.2291 17.01 13.4626 17.0633 13.6884C17.1344 13.9853 17.2562 14.2593 17.4871 14.4623C17.784 14.7237 18.1443 14.843 18.5401 14.843C20.4204 14.8455 22.3033 14.8455 24.1835 14.843C24.4195 14.843 24.6581 14.8303 24.8864 14.7668C25.3686 14.6298 25.739 14.3634 25.9014 13.8584C25.9446 13.7239 25.9471 13.5818 25.9979 13.4499C25.9167 13.4752 25.9344 13.5514 25.9243 13.6072C25.8101 14.2263 25.4041 14.6349 24.7849 14.7491C24.5769 14.7871 24.3662 14.8074 24.1556 14.8074H18.6239C18.4589 14.8074 18.294 14.7922 18.1341 14.7516C17.6901 14.6374 17.3627 14.3811 17.1876 13.9472C17.0532 13.6148 17.0303 13.2621 17.0303 12.9119C17.0252 11.2067 17.0278 9.50405 17.0278 7.79885C17.0278 7.61615 17.0456 7.43598 17.0887 7.25836C17.2054 6.77877 17.4896 6.4489 17.9616 6.28396C18.228 6.19007 18.5046 6.15708 18.7837 6.15455C19.748 6.14947 20.7122 6.15201 21.6765 6.15201C21.7349 6.15201 21.7958 6.15708 21.8541 6.14947C21.8973 6.1444 21.9531 6.15455 21.9607 6.08857C21.9302 6.14186 21.8795 6.11141 21.8364 6.11141ZM6.06832 13.4778C6.11907 13.795 6.20788 14.0969 6.43118 14.3405C6.723 14.6628 7.10362 14.7973 7.52231 14.7998C9.42797 14.8074 11.3336 14.8074 13.2418 14.7998C13.4804 14.7998 13.7214 14.7744 13.9549 14.7009C14.5766 14.5055 14.947 14.0081 14.947 13.3534C14.947 11.4757 14.947 9.60047 14.9496 7.72272C14.9496 7.56032 14.9293 7.403 14.8887 7.24567C14.7415 6.67727 14.267 6.25351 13.6834 6.17231C13.5793 6.15708 13.4753 6.1444 13.3687 6.1444C13.318 6.1444 13.2545 6.15962 13.2368 6.0835H10.9784C10.9454 6.13678 10.8946 6.10633 10.854 6.10633C9.81113 6.10887 8.76822 6.10126 7.72531 6.11141C7.34976 6.11395 6.98436 6.17738 6.65448 6.38292C6.3373 6.58085 6.15206 6.86758 6.0531 7.2203C6.0328 7.28881 6.04802 7.36493 6.00488 7.42837V13.3407C6.07847 13.3636 6.06071 13.4296 6.06832 13.4778ZM7.07063 7.61615C7.07063 7.41061 7.22796 7.24567 7.43857 7.20253C7.55022 7.1797 7.66187 7.17716 7.77352 7.17716H13.3306C13.4398 7.17716 13.5438 7.19746 13.6453 7.22791C13.8356 7.28881 13.9193 7.403 13.9193 7.59838V13.3204C13.9193 13.5285 13.8229 13.6579 13.625 13.7239C13.5235 13.7569 13.4195 13.7772 13.3103 13.7747C12.3664 13.7721 11.425 13.7721 10.481 13.7721C9.5244 13.7721 8.5703 13.7747 7.61366 13.7696C7.4538 13.7696 7.29393 13.7468 7.17467 13.6148C7.10616 13.5387 7.07063 13.4549 7.07063 13.3585C7.0681 11.4478 7.0681 9.53196 7.07063 7.61615Z" fill="#00DDFF"/>
<path d="M6.02772 13.4067C6.03026 13.6326 6.0937 13.8457 6.19012 14.0437C6.45402 14.5867 6.92346 14.8303 7.49947 14.8354C9.38991 14.8506 11.2803 14.8404 13.1682 14.8404C13.4042 14.8404 13.6402 14.8201 13.8711 14.7643C14.5588 14.5943 14.9775 14.0944 14.9826 13.3839C14.9952 11.5112 14.9876 9.63855 14.9876 7.76588C14.9876 7.64154 14.9876 7.5172 14.9648 7.39286C14.8887 6.98179 14.6933 6.64684 14.3507 6.40324C14.0716 6.20531 13.7544 6.12411 13.4144 6.11396C13.356 6.11143 13.29 6.14441 13.2393 6.09113C13.2571 6.16725 13.323 6.15203 13.3712 6.15203C13.4778 6.15203 13.5819 6.16725 13.6859 6.17994C14.2695 6.26114 14.744 6.6849 14.8912 7.2533C14.9318 7.41063 14.9521 7.56795 14.9521 7.73035C14.9496 9.6081 14.9521 11.4833 14.9496 13.3611C14.9496 14.0132 14.5791 14.5106 13.9574 14.7085C13.724 14.7821 13.4829 14.8074 13.2444 14.8074C11.3387 14.8125 9.43305 14.8151 7.52485 14.8074C7.10616 14.8049 6.72807 14.6704 6.43372 14.3482C6.21042 14.102 6.12161 13.8026 6.07086 13.4854C6.06325 13.4372 6.08101 13.3687 6.00488 13.3535C6.03787 13.356 6.02772 13.3864 6.02772 13.4067ZM7.87502 25.4649C7.92831 25.4573 7.98413 25.4624 8.03996 25.4624H13.2672C13.4804 25.4624 13.6884 25.437 13.894 25.3837C14.541 25.2163 14.9445 24.7012 14.947 24.0338C14.9496 23.3918 14.947 22.7473 14.947 22.1053V18.3498C14.947 17.5302 14.404 16.9237 13.5869 16.8349C13.2977 16.8045 13.0058 16.7918 12.714 16.7842C11.8386 16.7664 10.9632 16.7968 10.0903 16.8171C9.25288 16.8374 8.41551 16.8222 7.58067 16.8349C7.28886 16.84 7.0072 16.9034 6.75091 17.0404C6.40581 17.2231 6.1952 17.5099 6.09877 17.888C6.08101 17.959 6.09623 18.0529 6.00488 18.091V24.0287C6.05563 24.1683 6.06071 24.318 6.10385 24.4626C6.25356 24.9879 6.59612 25.3076 7.11377 25.4497C7.27871 25.4954 7.44872 25.5081 7.61873 25.503C7.65426 25.503 7.70247 25.4751 7.73038 25.5258H7.78113C7.78621 25.4675 7.83442 25.47 7.87502 25.4649ZM7.58575 24.4347C7.27617 24.4347 7.06048 24.2672 7.06302 23.9145C7.07317 22.0545 7.0681 20.1946 7.06556 18.332C7.06556 18.0326 7.24318 17.8727 7.52992 17.8626C9.4229 17.8017 11.3133 17.8499 13.2063 17.8423C13.3687 17.8423 13.5463 17.8321 13.7037 17.9184C13.8407 17.9945 13.9193 18.1011 13.9193 18.2661C13.9168 19.2176 13.9193 20.1692 13.9193 21.1207C13.9193 22.0647 13.9143 23.0061 13.9219 23.9501C13.9244 24.2571 13.724 24.3967 13.4474 24.4398C13.2291 24.4728 13.016 24.4398 12.8003 24.4373C11.0621 24.4322 9.32393 24.4347 7.58575 24.4347Z" fill="#00DDFF"/>
<path d="M7.91777 25.503C9.63819 25.5004 11.3612 25.5004 13.0816 25.503C13.3201 25.503 13.5561 25.4979 13.7921 25.4497C14.1093 25.3862 14.396 25.2517 14.6168 25.0158C14.8629 24.7519 14.9847 24.422 14.9847 24.0617C14.9898 22.1763 14.9872 20.2884 14.9872 18.403C14.9872 18.2432 14.9771 18.0884 14.9365 17.9336C14.802 17.4286 14.4975 17.0785 14.0052 16.8856C13.6677 16.7537 13.3125 16.7587 12.9649 16.7511C12.3787 16.7384 11.7925 16.7283 11.2064 16.7638C10.7242 16.7943 10.237 16.7714 9.75238 16.7892C9.05203 16.812 8.34914 16.7968 7.64625 16.7943C7.48385 16.7943 7.32399 16.8095 7.16413 16.845C6.69723 16.9516 6.33944 17.1952 6.1339 17.6393C6.06793 17.7839 6.06285 17.9438 6.00195 18.0884C6.09584 18.0503 6.07808 17.9564 6.09584 17.8854C6.19227 17.5073 6.40542 17.2206 6.74798 17.0379C7.0068 16.9008 7.28593 16.8374 7.57774 16.8323C8.41512 16.8196 9.24995 16.8349 10.0873 16.8146C10.9628 16.7943 11.8357 16.7638 12.7111 16.7816C13.0029 16.7867 13.2947 16.7993 13.584 16.8323C14.4011 16.9211 14.9416 17.5276 14.9441 18.3472V22.1027C14.9441 22.7447 14.9466 23.3892 14.9441 24.0312C14.939 24.7011 14.5381 25.2137 13.891 25.3812C13.6855 25.4345 13.4774 25.4598 13.2643 25.4598H8.03703C7.9812 25.4598 7.92792 25.4573 7.87209 25.4624C7.83149 25.4674 7.78328 25.4624 7.7782 25.5233C7.81627 25.475 7.87209 25.503 7.91777 25.503Z" fill="#00DDFF"/>
<path d="M6.65155 6.38802C6.98143 6.18502 7.34683 6.11905 7.72238 6.11651C8.76529 6.10636 9.8082 6.11397 10.8511 6.11143C10.8917 6.11143 10.9425 6.14188 10.9755 6.0886C10.9323 6.11397 10.8841 6.10128 10.8384 6.10128C9.70163 6.1089 8.56483 6.08098 7.42803 6.11651C6.94844 6.13173 6.54244 6.32205 6.24809 6.71536C6.08823 6.92851 6.01718 7.17211 6.00195 7.43347C6.04763 7.37257 6.0324 7.29645 6.05017 7.2254C6.15167 6.87268 6.33437 6.58595 6.65155 6.38802ZM24.3227 6.11143C24.4902 6.10382 24.6551 6.12412 24.8175 6.16472C25.3504 6.30175 25.7234 6.6164 25.9036 7.14927C25.9442 7.27107 25.9492 7.40049 25.9873 7.52229V7.51214C25.9975 6.7991 25.3682 6.16218 24.65 6.1089C24.5079 6.09875 24.3658 6.12158 24.2237 6.08606C24.244 6.13935 24.2897 6.11397 24.3227 6.11143ZM7.6158 25.503C7.44579 25.5081 7.27578 25.4954 7.11084 25.4497C6.59319 25.3076 6.25063 24.9879 6.10092 24.4626C6.06032 24.318 6.05524 24.1683 6.00195 24.0287C6.02987 24.1632 6.02225 24.3028 6.05524 24.4373C6.1948 25.0158 6.7023 25.4675 7.28847 25.503C7.43564 25.5132 7.58282 25.4878 7.72745 25.5233C7.69954 25.4751 7.65133 25.5005 7.6158 25.503Z" fill="#00DDFF"/>
<path d="M18.4458 19.9966C18.1337 20.0017 17.9281 20.2072 17.9281 20.5041V24.8636C17.9281 25.1757 18.1438 25.3736 18.4559 25.3685C18.7833 25.3634 18.9888 25.1934 18.9913 24.8686C18.9964 23.4121 18.9939 21.953 18.9913 20.4965C18.9913 20.192 18.7782 19.9915 18.4458 19.9966ZM24.8657 20.0017C24.6144 19.956 24.2744 20.126 24.2744 20.4635C24.2693 21.2045 24.2744 21.9429 24.2744 22.6838V24.8915C24.2744 24.9321 24.2719 24.9777 24.2846 25.0158C24.3683 25.2543 24.65 25.4269 24.8809 25.371C25.1702 25.3025 25.3351 25.1883 25.3376 24.828C25.3427 23.4197 25.3402 22.0114 25.3402 20.6031C25.3376 20.2377 25.2234 20.0677 24.8657 20.0017ZM22.5134 21.5217C22.4474 21.2831 22.1835 21.0954 21.9526 21.1385C21.638 21.1994 21.4603 21.306 21.4578 21.6688C21.4502 22.7117 21.4553 23.7572 21.4553 24.8001C21.4553 25.1503 21.5999 25.3076 21.8993 25.3634C22.181 25.4167 22.5185 25.2493 22.521 24.8788V23.2675V21.6308C22.521 21.5978 22.521 21.5572 22.5134 21.5217ZM21.8105 16.8907C21.5897 16.9389 21.4553 17.1495 21.4553 17.3931V19.6363C21.4553 19.9687 21.5568 20.1692 21.9145 20.2377C22.1759 20.2859 22.5235 20.1057 22.521 19.7682C22.5185 19.3673 22.521 18.9664 22.521 18.5629C22.521 18.1747 22.5159 17.7865 22.521 17.3957C22.5286 16.9136 22.1505 16.8171 21.8105 16.8907ZM18.7909 16.9567C18.6665 16.8704 18.5346 16.873 18.4001 16.873C18.1337 16.873 17.9307 17.0734 17.9307 17.3373V17.9971C17.9307 18.2254 17.9281 18.4538 17.9307 18.6822C17.9332 18.7989 17.9637 18.903 18.055 18.9943C18.187 19.1263 18.3392 19.1643 18.5168 19.1592C18.768 19.1516 18.9939 18.9334 18.9939 18.6847C18.9964 18.2356 18.999 17.789 18.9913 17.3399C18.9913 17.1851 18.9304 17.0531 18.7909 16.9567ZM25.2945 17.1724C25.2387 17.0151 25.0458 16.873 24.8403 16.8679C24.4774 16.8552 24.2414 17.0683 24.2693 17.4464C24.282 17.6241 24.2719 17.8017 24.2719 17.9793V18.6137C24.2719 18.6517 24.2719 18.6898 24.282 18.7253C24.3632 18.9867 24.6094 19.1186 24.8885 19.0806C25.1676 19.04 25.33 18.8674 25.3351 18.5807C25.3427 18.1798 25.3376 17.7763 25.3376 17.3754C25.3376 17.3018 25.3173 17.2358 25.2945 17.1724ZM11.9396 9.60808C11.8914 9.42284 11.7392 9.28582 11.5489 9.26044C11.5159 9.25537 11.4803 9.25029 11.4474 9.25029C11.4321 9.25029 11.4093 9.25537 11.4042 9.22999H10.6734C10.6633 9.24776 10.6455 9.23761 10.6328 9.23761C10.2953 9.23761 9.95784 9.23507 9.62035 9.24014C9.49855 9.24014 9.37929 9.26298 9.27271 9.32896C9.16867 9.39239 9.11031 9.48628 9.07732 9.60047C9.07225 9.62331 9.07733 9.64868 9.0621 9.66645V11.5823C9.08748 11.5873 9.07986 11.6102 9.0824 11.6254C9.10016 11.7294 9.12808 11.8259 9.19913 11.9045C9.29301 12.0086 9.41735 12.0517 9.55184 12.0542C10.1685 12.0568 10.7876 12.0568 11.4042 12.0542C11.4829 12.0542 11.559 12.0466 11.6351 12.0212C11.8356 11.9578 11.9574 11.7954 11.9574 11.5848V9.76033C11.9599 9.70958 11.9523 9.65883 11.9396 9.60808ZM22.9397 9.4127C22.8915 9.22746 22.7392 9.09043 22.5489 9.06506C22.5159 9.05998 22.4804 9.05491 22.4474 9.05491C22.4322 9.05491 22.4094 9.05998 22.4043 9.03461H21.6735C21.6633 9.05237 21.6456 9.04222 21.6329 9.04222C21.2954 9.04222 20.9579 9.03968 20.6204 9.04476C20.4986 9.04476 20.3794 9.06759 20.2728 9.13357C20.1687 9.19701 20.1104 9.29089 20.0774 9.40508C20.0723 9.42792 20.0774 9.45329 20.0622 9.47106V11.3869C20.0875 11.3919 20.0799 11.4148 20.0825 11.43C20.1002 11.534 20.1281 11.6305 20.1992 11.7091C20.2931 11.8132 20.4174 11.8563 20.5519 11.8588C21.1685 11.8614 21.7877 11.8614 22.4043 11.8588C22.4829 11.8588 22.5591 11.8512 22.6352 11.8259C22.8357 11.7624 22.9575 11.6 22.9575 11.3894V9.56495C22.9625 9.5142 22.9524 9.46091 22.9397 9.4127ZM11.9244 20.2351C11.8762 20.0499 11.7239 19.9129 11.5336 19.8875C11.5006 19.8824 11.4651 19.8774 11.4321 19.8774C11.4169 19.8774 11.3941 19.8824 11.389 19.8571H10.6582C10.648 19.8748 10.6303 19.8647 10.6176 19.8647C10.2801 19.8647 9.94261 19.8621 9.60513 19.8672C9.48333 19.8672 9.36406 19.89 9.25749 19.956C9.15345 20.0195 9.09509 20.1133 9.0621 20.2275C9.05703 20.2504 9.0621 20.2757 9.04688 20.2935V22.2093C9.07225 22.2144 9.06464 22.2372 9.06718 22.2525C9.08494 22.3565 9.11285 22.4529 9.1839 22.5316C9.27779 22.6356 9.40212 22.6788 9.53661 22.6813C10.1532 22.6838 10.7724 22.6838 11.389 22.6813C11.4677 22.6813 11.5438 22.6737 11.6199 22.6483C11.8204 22.5849 11.9422 22.4225 11.9422 22.2119V20.3874C11.9447 20.3366 11.9371 20.2859 11.9244 20.2351Z" fill="#00DDFF"/>
</svg>
