<svg width="40" height="40" viewBox="0 0 40 40" fill="none" xmlns="http://www.w3.org/2000/svg">
<path d="M5.55994 23.16C5.55994 26.9685 7.07286 30.621 9.76588 33.314C12.4589 36.0071 16.1114 37.52 19.9199 37.52C23.7284 37.52 27.381 36.0071 30.074 33.314C32.767 30.621 34.2799 26.9685 34.2799 23.16C34.2799 19.3515 32.767 15.699 30.074 13.0059C27.381 10.3129 23.7284 8.79999 19.9199 8.79999C16.1114 8.79999 12.4589 10.3129 9.76588 13.0059C7.07286 15.699 5.55994 19.3515 5.55994 23.16Z" fill="black"/>
<path d="M31.86 34.34H8.00004C6.68004 34.34 5.60004 33.26 5.60004 31.94V23.32C5.60004 22 6.68004 23 8.00004 23H31.86C33.18 23 34.26 22.28 34.26 23.6V31.94C34.26 33.26 33.18 34.34 31.86 34.34Z" fill="#00398D"/>
<path d="M5.60004 23.14C5.60004 26.9432 7.11085 30.5906 9.80013 33.2799C12.4894 35.9692 16.1368 37.48 19.94 37.48C23.7432 37.48 27.3907 35.9692 30.0799 33.2799C32.7692 30.5906 34.28 26.9432 34.28 23.14C34.28 19.3368 32.7692 15.6893 30.0799 13.0001C27.3907 10.3108 23.7432 8.79999 19.94 8.79999C16.1368 8.79999 12.4894 10.3108 9.80013 13.0001C7.11085 15.6893 5.60004 19.3368 5.60004 23.14Z" fill="url(#paint0_linear)"/>
<path d="M17.3001 20.64C17.3001 21.96 26.4001 24.48 26.4001 24.48C26.4001 24.48 14.2801 24.44 13.5001 24.44C11.4001 24.44 9.70013 22.74 9.70013 20.64C9.70013 18.54 11.4001 16.84 13.5001 16.84C15.6001 16.84 17.3001 18.54 17.3001 20.64Z" fill="white"/>
<path d="M30.2 20.66C30.2 22.76 28.5 24.46 26.4 24.46C24.3 24.46 12.66 22.76 12.66 20.66C12.66 18.56 24.3 16.86 26.4 16.86C28.5 16.86 30.2 18.56 30.2 20.66Z" fill="white"/>
<path d="M30.1401 21.04C30.1401 22.46 29.0001 22.74 28.4801 23.04C26.9201 23.94 24.2201 21.42 19.9801 21.42C15.3601 21.42 13.3001 24.5 12.0001 22.78C11.7001 22.38 9.86014 22.14 9.86014 21.08C9.86014 20.7 9.72014 20.3 9.80014 19.92C10.5001 16.06 14.8001 12.38 19.9601 12.38C25.3401 12.38 29.7401 16.12 30.1801 20.34C30.2201 20.58 30.1401 20.8 30.1401 21.04Z" fill="white"/>
<path d="M12.0199 19.82C12.0199 20.4565 12.2728 21.067 12.7228 21.517C13.1729 21.9671 13.7834 22.22 14.4199 22.22C15.0564 22.22 15.6669 21.9671 16.117 21.517C16.567 21.067 16.8199 20.4565 16.8199 19.82C16.8199 19.1835 16.567 18.573 16.117 18.1229C15.6669 17.6728 15.0564 17.42 14.4199 17.42C13.7834 17.42 13.1729 17.6728 12.7228 18.1229C12.2728 18.573 12.0199 19.1835 12.0199 19.82Z" fill="#001F6D"/>
<path d="M23.16 19.82C23.16 20.4565 23.4129 21.067 23.863 21.517C24.3131 21.9671 24.9235 22.22 25.56 22.22C26.1966 22.22 26.807 21.9671 27.2571 21.517C27.7072 21.067 27.96 20.4565 27.96 19.82C27.96 19.1835 27.7072 18.573 27.2571 18.1229C26.807 17.6728 26.1966 17.42 25.56 17.42C24.9235 17.42 24.3131 17.6728 23.863 18.1229C23.4129 18.573 23.16 19.1835 23.16 19.82Z" fill="#001F6D"/>
<path d="M4.76 29.56C3.24 29.56 2 27.8 2 25.6C2 23.4 3.24 21.66 4.76 21.66V29.56ZM35.12 29.56C36.64 29.56 37.88 27.8 37.88 25.6C37.88 23.4 36.64 21.66 35.12 21.66" fill="url(#paint1_linear)"/>
<path d="M18.2399 4.32001C18.2399 4.80801 18.4338 5.27602 18.7789 5.62109C19.1239 5.96615 19.5919 6.16001 20.0799 6.16001C20.5679 6.16001 21.0359 5.96615 21.381 5.62109C21.7261 5.27602 21.9199 4.80801 21.9199 4.32001C21.9199 3.83201 21.7261 3.364 21.381 3.01893C21.0359 2.67387 20.5679 2.48001 20.0799 2.48001C19.5919 2.48001 19.1239 2.67387 18.7789 3.01893C18.4338 3.364 18.2399 3.83201 18.2399 4.32001Z" fill="#00FFCF"/>
<path d="M19.1199 3.95999H21.0399V10.92H19.1199V3.95999Z" fill="#00FFCF"/>
<path d="M15.5399 32.52C15.2999 32.52 15.1199 32.32 15.1199 32.1V28.64C15.1199 28.4 15.3199 28.22 15.5399 28.22C15.7799 28.22 15.9599 28.42 15.9599 28.64V32.1C15.9599 32.32 15.7799 32.52 15.5399 32.52ZM24.7599 32.52C24.5199 32.52 24.3399 32.32 24.3399 32.1V28.64C24.3399 28.4 24.5399 28.22 24.7599 28.22C24.9999 28.22 25.1799 28.42 25.1799 28.64V32.1C25.1999 32.32 24.9999 32.52 24.7599 32.52ZM17.8399 32.52C17.5999 32.52 17.4199 32.32 17.4199 32.1V30.54C17.4199 30.3 17.6199 30.12 17.8399 30.12C18.0799 30.12 18.2599 30.32 18.2599 30.54V32.1C18.2799 32.32 18.0799 32.52 17.8399 32.52ZM20.1599 32.52C19.9199 32.52 19.7399 32.32 19.7399 32.1V29.28C19.7399 29.04 19.9399 28.86 20.1599 28.86C20.3999 28.86 20.5799 29.06 20.5799 29.28V32.1C20.5799 32.32 20.3799 32.52 20.1599 32.52ZM22.4599 32.52C22.2199 32.52 22.0399 32.32 22.0399 32.1V31.4C22.0399 31.16 22.2399 30.98 22.4599 30.98C22.6999 30.98 22.8799 31.18 22.8799 31.4V32.1C22.8799 32.32 22.6999 32.52 22.4599 32.52Z" fill="white"/>
<defs>
<linearGradient id="paint0_linear" x1="19.94" y1="8.79999" x2="19.94" y2="37.48" gradientUnits="userSpaceOnUse">
<stop stop-color="#167ECA"/>
<stop offset="1" stop-color="#003675"/>
</linearGradient>
<linearGradient id="paint1_linear" x1="19.94" y1="21.66" x2="19.94" y2="29.56" gradientUnits="userSpaceOnUse">
<stop stop-color="#00DDFF" stop-opacity="0.42"/>
<stop offset="1" stop-color="#00DDFF"/>
</linearGradient>
</defs>
</svg>
