<svg width="40" height="40" viewBox="0 0 40 40" fill="none" xmlns="http://www.w3.org/2000/svg">
<path d="M14.3638 15.2727C14.3638 14.6702 14.8522 14.1818 15.4547 14.1818C16.0572 14.1818 16.5456 14.6702 16.5456 15.2727V18.9091H14.3638V15.2727Z" fill="#3E95E6"/>
<path d="M24.9092 15.2727C24.9092 14.6702 25.3976 14.1818 26.0001 14.1818C26.6026 14.1818 27.091 14.6702 27.091 15.2727V18.9091H24.9092V15.2727Z" fill="#3E95E6"/>
<path d="M8.5454 15.4546C7.5757 16.6667 4.18176 21.7455 4.18176 25.8182C4.18176 30.9091 4.72722 34 8.5454 34" stroke="#00DDFF" stroke-width="2"/>
<path d="M27.0581 16.6346C27.5791 17.2403 28.1002 17.846 28.6212 18.3652C29.0554 18.8844 29.5764 19.4901 30.1843 20.1823C30.7922 20.8746 31.3132 21.4803 31.9211 22.1726C32.7026 23.0379 33.3105 23.8166 33.8315 24.5089C34.3525 25.2011 34.6999 25.8069 35.0473 26.4126C35.3078 27.0183 35.5683 27.5375 35.6551 27.9701C35.742 28.4893 35.8288 28.922 35.8288 29.4412V31.691C35.8288 32.3832 35.742 32.9889 35.4814 33.5947C35.2209 34.1138 34.9604 34.633 34.5262 35.0657C34.092 35.4983 33.6578 35.7579 33.1368 36.0175C32.6158 36.2771 32.0947 36.3636 31.4869 36.3636H9.95092C9.34305 36.3636 8.73518 36.2771 8.12731 36.0175C7.51944 35.8445 7.08525 35.4983 6.65106 35.1522C6.21687 34.8061 5.86951 34.2869 5.609 33.7677C5.34848 33.2485 5.1748 32.6428 5.1748 31.9506V29.2681C5.1748 28.7489 5.26164 28.1432 5.34848 27.7105C5.43532 27.1914 5.609 26.6722 5.95635 26.153C6.21687 25.4607 6.56422 24.9415 7.08525 24.2493C7.60628 23.6436 8.21415 22.9513 8.90886 22.1726C9.51673 21.4803 10.1246 20.8746 10.8193 20.1823C11.4272 19.4901 12.035 18.8844 12.5561 18.3652C13.1639 17.7595 13.7718 17.1538 14.2929 16.548H27.0581V16.6346ZM20.5452 29.7873C21.1531 29.7873 21.761 29.7008 22.282 29.4412C22.803 29.1816 23.3241 28.922 23.6714 28.4893C24.1056 28.0567 24.3661 27.624 24.6266 27.1048C24.8872 26.5856 24.974 25.9799 24.974 25.3742C24.974 24.7685 24.8872 24.1628 24.6266 23.6436C24.3661 23.1244 24.1056 22.6052 23.6714 22.2591C23.2372 21.8264 22.803 21.5668 22.282 21.3072C21.761 21.0476 21.1531 20.9611 20.5452 20.9611C19.9374 20.9611 19.3295 21.0476 18.8085 21.3072C18.2874 21.5668 17.7664 21.8264 17.419 22.2591C16.9848 22.6917 16.7243 23.1244 16.4638 23.6436C16.2033 24.1628 16.1165 24.7685 16.1165 25.3742C16.1165 25.9799 16.2033 26.5856 16.4638 27.1048C16.7243 27.624 16.9848 28.1432 17.419 28.4893C17.8532 28.922 18.2874 29.1816 18.8085 29.4412C19.3295 29.7008 19.9374 29.7873 20.5452 29.7873Z" fill="url(#paint0_linear)"/>
<path d="M37.9999 12.3945V14.5578C37.9999 15.1635 37.8262 15.6827 37.392 16.1154C36.9578 16.548 36.4368 16.7211 35.8289 16.7211H31.487C30.8791 16.7211 30.3581 16.548 29.9239 16.1154C29.4897 15.6827 29.3161 15.1635 29.3161 14.5578V12.3945H11.7747V14.5578C11.7747 15.1635 11.601 15.6827 11.1668 16.1154C10.7326 16.548 10.2116 16.7211 9.60371 16.7211H5.26178C4.65391 16.7211 4.13288 16.548 3.69869 16.1154C3.2645 15.6827 3.09082 15.1635 3.09082 14.5578V12.308C3.09082 12.0484 3.17766 11.7888 3.2645 11.6158L3.78553 11.0966C3.95921 10.9235 4.21972 10.7504 4.48024 10.6639C4.74075 10.5774 5.00127 10.4043 5.26178 10.2313C5.5223 10.0582 6.13017 9.7986 6.99855 9.27942C7.86694 8.84676 8.99584 8.32758 10.3853 7.80839C11.7747 7.2892 13.2509 6.85655 14.9877 6.42389C16.7245 5.99124 18.5481 5.81818 20.5454 5.81818C22.8032 5.81818 24.8004 5.99124 26.5372 6.42389C28.274 6.85655 29.8371 7.2892 31.1397 7.80839C32.4422 8.32758 33.4843 8.84676 34.2658 9.27942C35.0474 9.71207 35.5684 10.0582 35.8289 10.2313C36.0895 10.4043 36.35 10.5774 36.6105 10.6639C36.871 10.7504 37.1315 10.9235 37.3052 11.0966L37.8262 11.6158C37.9131 11.7888 37.9999 12.0484 37.9999 12.3945Z" fill="#0C68BE"/>
<circle cx="20.5453" cy="25.4545" r="5.36364" fill="#2092D2" stroke="#00DDFF" stroke-width="2"/>
<ellipse cx="20.5456" cy="25.4546" rx="2.18182" ry="2.18182" fill="#001F6D"/>
<defs>
<linearGradient id="paint0_linear" x1="20.5018" y1="16.548" x2="20.5018" y2="36.3636" gradientUnits="userSpaceOnUse">
<stop stop-color="#157CC7"/>
<stop offset="1" stop-color="#023B7B"/>
</linearGradient>
</defs>
</svg>
