<svg width="32" height="32" viewBox="0 0 32 32" fill="none" xmlns="http://www.w3.org/2000/svg">
<rect width="32" height="32" fill="#064F94"/>
<path d="M24.946 7.64309L16.9053 4.18562C16.6193 4.06334 16.3115 4.00031 16.0004 4.00031C15.6893 4.00031 15.3815 4.06334 15.0955 4.18562L7.05483 7.64309C6.63806 7.82177 6.2829 8.11885 6.03339 8.49749C5.78389 8.87614 5.65101 9.31969 5.65125 9.77315V14.9304C5.67567 17.8643 6.64304 20.7125 8.41045 23.0543C10.1368 25.3978 12.5883 27.106 15.3846 27.914C15.5868 27.97 15.7956 27.9985 16.0053 27.9986C16.2146 27.9988 16.4229 27.9708 16.6246 27.9154C19.4244 27.1099 21.879 25.4007 23.6058 23.0543C25.3702 20.7113 26.335 17.8634 26.358 14.9304V9.77315C26.3575 9.31874 26.2234 8.87451 25.9723 8.49576C25.7212 8.11701 25.3643 7.82048 24.946 7.64309ZM24.7541 14.9319C24.7312 17.5201 23.8777 20.0326 22.3193 22.0993C20.8046 24.1621 18.6501 25.6659 16.1915 26.3764C16.0637 26.4117 15.9286 26.4117 15.8008 26.3764C13.3448 25.6628 11.1929 24.159 9.67862 22.0979C8.1175 20.0323 7.26193 17.5195 7.23821 14.9304V9.77315C7.23807 9.63176 7.27942 9.49343 7.35716 9.37533C7.43489 9.25722 7.54559 9.16453 7.67551 9.10874L15.7161 5.65127C15.8031 5.61399 15.8967 5.59479 15.9912 5.59484C16.0881 5.59407 16.1842 5.61327 16.2733 5.65127L24.314 9.10874C24.4439 9.16453 24.5546 9.25722 24.6323 9.37533C24.7101 9.49343 24.7514 9.63176 24.7513 9.77315L24.7541 14.9319Z" fill="#00DDFF"/>
<path d="M10 17.5L14.5 22L22.5 14" stroke="#00DDFF" stroke-width="2" stroke-linecap="round" stroke-linejoin="round"/>
</svg>
