<svg width="32" height="32" viewBox="0 0 32 32" fill="none" xmlns="http://www.w3.org/2000/svg">
<rect width="32" height="32" fill="#064F94"/>
<path d="M19.4432 18.3174C20.1286 17.5514 20.5745 16.6014 20.726 15.5848C20.8774 14.5681 20.7277 13.5294 20.2953 12.5969C19.8629 11.6644 19.1668 10.8791 18.293 10.3378C17.4192 9.7966 16.4059 9.52323 15.3785 9.55149C14.351 9.57975 13.3543 9.90841 12.5116 10.4969C11.6688 11.0853 11.017 11.9078 10.6365 12.8626C10.256 13.8174 10.1636 14.8628 10.3707 15.8696C10.5778 16.8764 11.0753 17.8004 11.8017 18.5276C12.6215 19.3443 13.6874 19.8684 14.8347 20.0188C15.9821 20.1692 17.147 19.9377 18.1496 19.3598L20.3107 21.5209C20.4653 21.6743 20.6742 21.7603 20.8919 21.7603C21.1096 21.7603 21.3185 21.6743 21.4731 21.5209L21.5126 21.4814V21.4744C21.6481 21.3168 21.7191 21.1138 21.7113 20.9061C21.7034 20.6983 21.6173 20.5013 21.4703 20.3543L19.4432 18.3174ZM18.2046 17.2213L18.0636 17.3624C17.4748 17.9446 16.7025 18.3049 15.8781 18.3821C15.0537 18.4593 14.228 18.2485 13.5414 17.7857C12.8548 17.3229 12.3497 16.6365 12.112 15.8433C11.8743 15.0501 11.9186 14.1991 12.2375 13.4349C12.5563 12.6708 13.13 12.0406 13.861 11.6516C14.592 11.2627 15.4352 11.1389 16.2471 11.3013C17.059 11.4638 17.7897 11.9024 18.3147 12.5427C18.8398 13.183 19.1269 13.9853 19.1272 14.8134C19.1247 15.7007 18.7981 16.5565 18.2089 17.2199L18.2046 17.2213Z" fill="#00DDFF"/>
<path d="M24.946 7.64309L16.9053 4.18562C16.6193 4.06334 16.3115 4.00031 16.0004 4.00031C15.6893 4.00031 15.3815 4.06334 15.0955 4.18562L7.05483 7.64309C6.63806 7.82177 6.2829 8.11885 6.03339 8.49749C5.78389 8.87614 5.65101 9.31969 5.65125 9.77315V14.9304C5.67567 17.8643 6.64304 20.7125 8.41045 23.0543C10.1368 25.3978 12.5883 27.106 15.3846 27.914C15.5868 27.97 15.7956 27.9985 16.0053 27.9986C16.2146 27.9988 16.4229 27.9708 16.6246 27.9154C19.4244 27.1099 21.879 25.4007 23.6058 23.0543C25.3702 20.7113 26.335 17.8634 26.358 14.9304V9.77315C26.3575 9.31874 26.2234 8.87451 25.9723 8.49576C25.7212 8.11701 25.3643 7.82048 24.946 7.64309ZM24.7541 14.9319C24.7312 17.5201 23.8777 20.0326 22.3193 22.0993C20.8046 24.1621 18.6501 25.6659 16.1915 26.3764C16.0637 26.4117 15.9286 26.4117 15.8008 26.3764C13.3448 25.6628 11.1929 24.159 9.67862 22.0979C8.1175 20.0323 7.26193 17.5195 7.23821 14.9304V9.77315C7.23807 9.63176 7.27942 9.49343 7.35716 9.37533C7.43489 9.25722 7.54559 9.16453 7.67551 9.10874L15.7161 5.65127C15.8031 5.61399 15.8967 5.59479 15.9912 5.59484C16.0881 5.59407 16.1842 5.61327 16.2733 5.65127L24.314 9.10874C24.4439 9.16453 24.5546 9.25722 24.6323 9.37533C24.7101 9.49343 24.7514 9.63176 24.7513 9.77315L24.7541 14.9319Z" fill="#00DDFF"/>
</svg>

