<svg width="56" height="56" viewBox="0 0 56 56" fill="none" xmlns="http://www.w3.org/2000/svg">
<g opacity="0.8">
<circle cx="28.0002" cy="28" r="28" fill="white"/>
<path d="M39.8666 26.291C37.5237 26.291 35.245 25.5445 33.3706 24.1636V33.7968C33.3706 38.716 29.5049 42.6999 24.7354 42.6999C19.9659 42.6999 16.1001 38.716 16.1001 33.7968C16.1001 28.8777 19.9659 24.8937 24.7354 24.8937C25.2123 24.8937 25.6753 24.9347 26.1272 25.0113V30.1136C25.6948 29.9468 25.2346 29.8621 24.7716 29.8621C22.6435 29.8621 20.917 31.6394 20.917 33.8351C20.917 36.0281 22.6435 37.8082 24.7716 37.8082C26.897 37.8082 28.6235 36.0281 28.6235 33.8351V14.7H33.4404C33.4404 18.3777 36.3327 21.3582 39.9001 21.3582V26.2882L39.8666 26.291Z" fill="#E93356"/>
<path d="M38.4667 24.8909C36.1238 24.8909 33.8451 24.1445 31.9707 22.7636V32.3968C31.9707 37.3159 28.105 41.2999 23.3355 41.2999C18.566 41.2999 14.7002 37.3159 14.7002 32.3968C14.7002 27.4777 18.566 23.4937 23.3355 23.4937C23.8124 23.4937 24.2754 23.5347 24.7273 23.6113V28.7136C24.2949 28.5468 23.8347 28.462 23.3717 28.462C21.2436 28.462 19.5171 30.2394 19.5171 32.4351C19.5171 34.628 21.2436 36.4081 23.3717 36.4081C25.4971 36.4081 27.2236 34.628 27.2236 32.4351V13.2999H32.0405C32.0405 16.9777 34.9328 19.9581 38.5002 19.9581V24.8882L38.4667 24.8909Z" fill="#72F7F1"/>
<path d="M39.1676 25.591C36.8936 25.591 34.6819 24.8445 32.8627 23.4637V33.0969C32.8627 38.016 29.1106 42 24.4814 42C19.8522 42 16.1001 38.016 16.1001 33.0969C16.1001 28.1777 19.8522 24.1937 24.4814 24.1937C24.9443 24.1937 25.3937 24.2348 25.8323 24.3113V29.4137C25.4126 29.2469 24.966 29.1621 24.5166 29.1621C22.451 29.1621 20.7753 30.9395 20.7753 33.1352C20.7753 35.3281 22.451 37.1082 24.5166 37.1082C26.5794 37.1082 28.2551 35.3281 28.2551 33.1352V14H32.9304C32.9304 17.6777 35.7377 20.6582 39.2001 20.6582V25.5883L39.1676 25.591Z" fill="#0A0000"/>
</g>
</svg>
