<svg width="56" height="56" viewBox="0 0 56 56" fill="none" xmlns="http://www.w3.org/2000/svg">
<g opacity="0.8">
<circle cx="28" cy="28" r="28" fill="white"/>
<g clip-path="url(#clip0)">
<path d="M13.5298 25.4138C15.4297 18.9334 19.587 14.3101 27.1897 13.6505C27.7147 13.6046 28.4464 13.6473 29.0436 13.5324C29.5587 13.4307 30.1855 13.0599 30.7794 12.8171C33.1878 11.8295 38.51 10.1002 41.2006 12.2232C43.5336 14.0705 43.1037 18.5626 41.6633 21.4927C42.8117 23.806 43.6648 27.0315 43.1694 30.6441C36.4133 30.9198 28.5448 30.6802 21.9823 30.7655C22.2022 34.2535 24.3973 36.9212 27.6556 37.2985C30.8384 37.666 33.0402 35.8744 34.4872 33.8532H42.5886C40.482 39.8841 35.1303 44.5599 26.8452 43.9529C24.9617 43.8118 23.4917 43.2671 21.8642 42.6437C19.1473 44.1235 13.1394 46.3252 10.7506 43.2376C8.93609 40.8948 10.1009 36.6324 11.0984 33.8532C13.1131 28.2226 16.9522 22.6445 20.7092 19.4748C20.7322 19.3763 20.8241 19.3534 20.8241 19.2385C17.8578 20.7479 15.8562 23.2482 13.5298 25.4138ZM42.0111 16.6234C41.8995 12.5776 36.6692 12.9746 33.9064 14.6021C36.9908 15.8326 39.2417 17.9195 41.0858 20.423C41.4861 19.1532 42.0537 18.0999 42.0111 16.6234ZM21.9823 26.4835H34.835C34.4609 18.2213 22.3859 18.8874 21.9823 26.4835ZM12.4897 40.9834C13.1361 44.6419 18.2712 43.5788 20.5944 41.9349C17.5461 40.2287 15.6462 37.3477 14.1106 34.0894C13.3953 35.8515 12.0631 38.5651 12.4897 40.9834Z" fill="url(#paint0_linear)"/>
</g>
</g>
<defs>
<linearGradient id="paint0_linear" x1="26.5567" y1="11.2128" x2="26.5567" y2="44.797" gradientUnits="userSpaceOnUse">
<stop stop-color="#2CE6FF"/>
<stop offset="1" stop-color="#2C99FF"/>
</linearGradient>
<clipPath id="clip0">
<rect width="33.6" height="33.6" fill="white" transform="translate(9.80005 11.2)"/>
</clipPath>
</defs>
</svg>
