<svg width="56" height="56" viewBox="0 0 56 56" fill="none" xmlns="http://www.w3.org/2000/svg">
<g opacity="0.8">
<circle cx="28" cy="28" r="28" fill="white"/>
<path d="M43.005 16.8179C40.7112 14.2375 37.2706 13.2817 34.2122 13.9508C33.4476 14.1419 33.0653 14.8109 33.1609 15.5755C33.3521 16.3401 34.0211 16.7224 34.7857 16.6268C36.9839 16.149 39.4688 16.8179 41.0935 18.6338C42.7183 20.4497 43.1962 22.9346 42.4316 25.1328C42.3359 25.5151 42.3359 25.8018 42.5271 26.1841C42.7183 26.4709 43.005 26.7576 43.2917 26.8531C43.9607 27.0443 44.7253 26.662 45.012 25.993C45.8722 22.839 45.2987 19.3984 43.005 16.8179Z" fill="#FFAE36"/>
<path d="M38.8955 25.2283C39.4689 25.4195 40.138 25.1327 40.3291 24.4637C40.807 22.9346 40.5203 21.3098 39.3734 20.0674C38.2265 18.8249 36.6018 18.347 35.0726 18.6337C34.4036 18.7294 34.0212 19.3983 34.2124 19.9718C34.308 20.6408 34.977 21.0231 35.5504 20.8319C36.315 20.6408 37.0796 20.9275 37.6531 21.501C38.2265 22.0744 38.3221 22.9346 38.1309 23.6992C37.9398 24.3682 38.3221 25.0372 38.8955 25.2283ZM36.6018 27.4265C36.1239 27.2353 35.7416 27.1398 36.0283 26.5664C36.6018 25.1328 36.6018 23.8903 36.0283 23.0301C34.8814 21.4054 31.7275 21.501 28.1913 23.0301C28.1913 23.0301 27.0444 23.508 27.3311 22.6479C27.9046 20.8319 27.809 19.3983 26.9488 18.5382C25.0374 16.6267 19.8764 18.6337 15.48 23.0301C12.2305 26.3752 10.3191 29.8158 10.3191 32.8742C10.3191 38.7042 17.7738 42.2404 25.0374 42.2404C34.5947 42.2404 40.9025 36.6971 40.9025 32.3007C40.9025 29.6247 38.6088 28.0955 36.6018 27.4265ZM25.0374 40.1378C19.2074 40.7112 14.2376 38.0351 13.8553 34.3078C13.473 30.4849 17.8693 26.9486 23.6994 26.3752C29.5293 25.8018 34.4991 28.4778 34.8814 32.2052C35.2637 36.0281 30.8673 39.5643 25.0374 40.1378Z" fill="#D81E06"/>
<path d="M25.6109 29.2424C22.8393 28.4778 19.6853 29.9115 18.5384 32.3008C17.296 34.7857 18.5384 37.5573 21.3101 38.4174C24.1773 39.3732 27.6179 37.9396 28.7648 35.2635C29.9117 32.6831 28.4781 30.007 25.6109 29.2424ZM23.5083 35.6458C22.9348 36.506 21.788 36.9839 20.8322 36.506C19.9721 36.1237 19.6853 35.0724 20.2588 34.2122C20.8322 33.3521 21.9791 32.9698 22.8393 33.3521C23.795 33.6388 24.0817 34.6901 23.5083 35.6458Z" fill="black"/>
</g>
</svg>
