<svg width="1092" height="100" viewBox="0 0 1092 100" fill="none" xmlns="http://www.w3.org/2000/svg">
<mask id="mask0" mask-type="alpha" maskUnits="userSpaceOnUse" x="0" y="0" width="1092" height="100">
<rect opacity="0.1" width="1092" height="100" fill="#FB5325"/>
</mask>
<g mask="url(#mask0)">
<rect x="16.5596" y="-29" width="24" height="155.119" transform="rotate(30 16.5596 -29)" fill="#FFD200"/>
<rect x="68.5596" y="-29" width="24" height="155.119" transform="rotate(30 68.5596 -29)" fill="#FFD200"/>
<rect x="120.56" y="-29" width="24" height="155.119" transform="rotate(30 120.56 -29)" fill="#FFD200"/>
<rect x="172.56" y="-29" width="24" height="155.119" transform="rotate(30 172.56 -29)" fill="#FFD200"/>
<rect x="224.56" y="-29" width="24" height="155.119" transform="rotate(30 224.56 -29)" fill="#FFD200"/>
<rect x="276.56" y="-29" width="24" height="155.119" transform="rotate(30 276.56 -29)" fill="#FFD200"/>
<rect x="328.56" y="-29" width="24" height="155.119" transform="rotate(30 328.56 -29)" fill="#FFD200"/>
<rect x="380.56" y="-29" width="24" height="155.119" transform="rotate(30 380.56 -29)" fill="#FFD200"/>
<rect x="432.56" y="-29" width="24" height="155.119" transform="rotate(30 432.56 -29)" fill="#FFD200"/>
<rect x="484.56" y="-29" width="24" height="155.119" transform="rotate(30 484.56 -29)" fill="#FFD200"/>
<rect x="536.56" y="-29" width="24" height="155.119" transform="rotate(30 536.56 -29)" fill="#FFD200"/>
<rect x="588.56" y="-29" width="24" height="155.119" transform="rotate(30 588.56 -29)" fill="#FFD200"/>
<rect x="640.56" y="-29" width="24" height="155.119" transform="rotate(30 640.56 -29)" fill="#FFD200"/>
<rect x="692.56" y="-29" width="24" height="155.119" transform="rotate(30 692.56 -29)" fill="#FFD200"/>
<rect x="744.56" y="-29" width="24" height="155.119" transform="rotate(30 744.56 -29)" fill="#FFD200"/>
<rect x="796.56" y="-29" width="24" height="155.119" transform="rotate(30 796.56 -29)" fill="#FFD200"/>
<rect x="848.56" y="-29" width="24" height="155.119" transform="rotate(30 848.56 -29)" fill="#FFD200"/>
<rect x="900.56" y="-29" width="24" height="155.119" transform="rotate(30 900.56 -29)" fill="#FFD200"/>
<rect x="952.56" y="-29" width="24" height="155.119" transform="rotate(30 952.56 -29)" fill="#FFD200"/>
<rect x="1004.56" y="-29" width="24" height="155.119" transform="rotate(30 1004.56 -29)" fill="#FFD200"/>
<rect x="1056.56" y="-29" width="24" height="155.119" transform="rotate(30 1056.56 -29)" fill="#FFD200"/>
<rect x="1108.56" y="-29" width="24" height="155.119" transform="rotate(30 1108.56 -29)" fill="#FFD200"/>
<rect x="1160.56" y="-29" width="24" height="155.119" transform="rotate(30 1160.56 -29)" fill="#FFD200"/>
</g>
</svg>
