<svg width="28" height="28" viewBox="0 0 28 28" fill="none" xmlns="http://www.w3.org/2000/svg">
<path d="M4.76795 25.4983V16.598C4.76795 11.2577 8.97496 6.92784 14.1636 6.92784C19.3523 6.92784 23.5593 11.2577 23.5593 16.598V25.4983H26.7847C27.4391 25.4983 28 26.0756 28 26.7491C28 27.4227 27.4391 28 26.7847 28H1.21535C0.560935 28 0 27.4227 0 26.7491C0 26.0756 0.560935 25.4983 1.21535 25.4983H4.76795ZM14.8648 10.8248L10.2371 18.6667H13.9299L12.995 24.5361L17.6227 16.6942H13.9299L14.8648 10.8248ZM21.9232 2.21307C22.3439 2.45361 22.4841 3.03093 22.2504 3.51204L20.5676 6.49485L18.9783 5.58075L20.6611 2.59794C20.9416 2.11683 21.5025 1.9725 21.9232 2.21307ZM14.1636 0C14.7245 0 15.1452 0.43299 15.1452 0.962191V4.3299H13.182V0.962191C13.182 0.43299 13.6027 0 14.1636 0ZM6.404 2.21307C6.8247 1.97253 7.38564 2.11686 7.61935 2.54985L9.30215 5.53266L7.71283 6.44676L6.03002 3.46395C5.79631 3.03096 5.93654 2.50176 6.40397 2.2131L6.404 2.21307ZM0.701169 8.08248C0.934883 7.64949 1.49582 7.45704 1.91652 7.7457L4.81467 9.47766L3.92652 11.1134L1.02836 9.38145C0.607661 9.14091 0.467428 8.56359 0.701141 8.08248H0.701169ZM27.6261 8.08248C27.8598 8.51547 27.7195 9.09279 27.2988 9.38145L24.4007 11.1134L23.5125 9.47766L26.4107 7.7457C26.8314 7.50516 27.3923 7.64949 27.626 8.08248H27.6261Z" fill="#E5615B"/>
</svg>
