<svg width="144" height="187" viewBox="0 0 144 187" fill="none" xmlns="http://www.w3.org/2000/svg">
<rect width="144" height="187" fill="url(#paint0_linear)"/>
<g opacity="0.3" clip-path="url(#clip0)">
<circle opacity="0.4" cx="72" cy="197" r="19" stroke="#00DDFF" stroke-width="6"/>
<circle opacity="0.3" cx="72" cy="197" r="32" stroke="#00DDFF" stroke-width="6"/>
<circle opacity="0.2" cx="72" cy="197" r="46" stroke="#00DDFF" stroke-width="6"/>
<circle opacity="0.1" cx="72" cy="197" r="61" stroke="#00DDFF" stroke-width="6"/>
</g>
<path d="M12 187L0 187L-1.04907e-06 175L2 175L2 185L12 185L12 187Z" fill="#00DDFF"/>
<path d="M132 0L144 2.09815e-06L144 12L142 12L142 2L132 2L132 0Z" fill="#00DDFF"/>
<path d="M72.7744 139.651C72.9548 139.832 73.1467 140.001 73.3489 140.158C75.7787 141.993 80.1883 143.203 84.2105 143.467C84.3581 143.476 84.5482 143.486 84.7805 143.496C85.0798 143.508 85.3162 143.766 85.3162 144.079V156.013C85.3162 158.851 84.1472 161.826 82.2645 163.868C81.2872 165.232 80.0381 166.512 78.728 167.774C75.2644 171.53 69.3877 171.513 65.6204 168.188C64.1397 166.881 62.7844 165.354 61.5549 163.606C59.7685 161.583 58.7754 158.928 58.7754 156.171V144.1C58.7754 143.787 59.0118 143.529 59.3107 143.517C59.5829 143.506 59.8039 143.494 59.9733 143.482C64.0162 143.203 68.4311 141.973 70.8247 140.116C70.9783 139.997 71.1473 139.845 71.3311 139.66C71.4247 139.563 71.5366 139.487 71.6602 139.434C71.7838 139.381 71.9167 139.354 72.051 139.353C72.1854 139.352 72.3185 139.378 72.4427 139.429C72.5669 139.481 72.6797 139.556 72.7744 139.651V139.651ZM74.4185 159.465H69.949V163.934H74.4185V159.465ZM74.4185 147.174H69.949L71.226 158.348H73.1385L74.4185 147.174Z" fill="#00DDFF"/>
<defs>
<linearGradient id="paint0_linear" x1="72" y1="0" x2="72" y2="187" gradientUnits="userSpaceOnUse">
<stop stop-color="#0057A9" stop-opacity="0"/>
<stop offset="1" stop-color="#0057A9" stop-opacity="0.5"/>
</linearGradient>
<clipPath id="clip0">
<rect width="144" height="63" fill="white" transform="translate(0 124)"/>
</clipPath>
</defs>
</svg>
