<svg width="118" height="187" viewBox="0 0 118 187" fill="none" xmlns="http://www.w3.org/2000/svg">
<rect width="118" height="187" fill="url(#paint0_linear)"/>
<g opacity="0.3" clip-path="url(#clip0)">
<circle opacity="0.4" cx="59" cy="202" r="17" stroke="#00DDFF" stroke-width="6"/>
<circle opacity="0.3" cx="59" cy="202" r="29" stroke="#00DDFF" stroke-width="6"/>
<circle opacity="0.2" cx="59" cy="202" r="42" stroke="#00DDFF" stroke-width="6"/>
<circle opacity="0.1" cx="59" cy="202" r="56" stroke="#00DDFF" stroke-width="6"/>
</g>
<path d="M12 187L0 187L-1.04907e-06 175L2 175L2 185L12 185L12 187Z" fill="#00DDFF"/>
<path d="M106 0L118 2.09815e-06L118 12L116 12L116 2L106 2L106 0Z" fill="#00DDFF"/>
<path d="M59.7744 139.651C59.9548 139.832 60.1467 140.001 60.3489 140.158C62.7787 141.993 67.1883 143.203 71.2105 143.467C71.3581 143.476 71.5482 143.486 71.7805 143.496C72.0798 143.508 72.3162 143.766 72.3162 144.079V156.013C72.3162 158.851 71.1472 161.826 69.2645 163.868C68.2872 165.232 67.0381 166.512 65.728 167.774C62.2644 171.53 56.3877 171.513 52.6204 168.188C51.1397 166.881 49.7844 165.354 48.5549 163.606C46.7685 161.583 45.7754 158.928 45.7754 156.171V144.1C45.7754 143.787 46.0118 143.529 46.3107 143.517C46.5829 143.506 46.8039 143.494 46.9733 143.482C51.0162 143.203 55.4311 141.973 57.8247 140.116C57.9783 139.997 58.1473 139.845 58.3311 139.66C58.4247 139.563 58.5366 139.487 58.6602 139.434C58.7838 139.381 58.9167 139.354 59.051 139.353C59.1854 139.352 59.3185 139.378 59.4427 139.429C59.5669 139.481 59.6797 139.556 59.7744 139.651V139.651ZM61.4185 159.465H56.949V163.934H61.4185V159.465ZM61.4185 147.174H56.949L58.226 158.348H60.1385L61.4185 147.174Z" fill="#00DDFF"/>
<defs>
<linearGradient id="paint0_linear" x1="59" y1="0" x2="59" y2="187" gradientUnits="userSpaceOnUse">
<stop stop-color="#0057A9" stop-opacity="0"/>
<stop offset="1" stop-color="#0057A9" stop-opacity="0.5"/>
</linearGradient>
<clipPath id="clip0">
<rect width="118" height="63" fill="white" transform="translate(0 124)"/>
</clipPath>
</defs>
</svg>
