<svg width="144" height="187" viewBox="0 0 144 187" fill="none" xmlns="http://www.w3.org/2000/svg">
<rect width="144" height="187" fill="url(#paint0_linear)"/>
<g opacity="0.3" clip-path="url(#clip0)">
<circle opacity="0.4" cx="72" cy="197" r="19" stroke="#00DDFF" stroke-width="6"/>
<circle opacity="0.3" cx="72" cy="197" r="32" stroke="#00DDFF" stroke-width="6"/>
<circle opacity="0.2" cx="72" cy="197" r="46" stroke="#00DDFF" stroke-width="6"/>
<circle opacity="0.1" cx="72" cy="197" r="61" stroke="#00DDFF" stroke-width="6"/>
</g>
<path d="M12 187L0 187L-1.04907e-06 175L2 175L2 185L12 185L12 187Z" fill="#00DDFF"/>
<path d="M132 0L144 2.09815e-06L144 12L142 12L142 2L132 2L132 0Z" fill="#00DDFF"/>
<path fill-rule="evenodd" clip-rule="evenodd" d="M72.4413 155.1C72.4413 155.1 76.9626 155.103 80.8504 155.103C82.7945 155.103 84.5804 155.102 85.5631 155.1C85.6792 155.1 85.7905 155.054 85.8725 154.971C85.9544 154.889 86.0005 154.778 86.0005 154.662C86.0004 147.185 79.9179 141.103 72.4416 141.103C72.3254 141.103 72.2139 141.149 72.1317 141.231C72.0495 141.314 72.0033 141.425 72.0033 141.541V154.662C72.0033 154.778 72.0494 154.89 72.1316 154.972C72.2137 155.054 72.3251 155.1 72.4413 155.1ZM69.4577 169.13H69.4629C75.7882 169.128 80.932 163.979 80.9293 157.654C80.9292 157.538 80.883 157.426 80.8009 157.344C80.7187 157.262 80.6072 157.216 80.491 157.216H69.9012C69.9018 155.577 69.9038 149.755 69.901 146.625C69.9009 146.509 69.8547 146.398 69.7725 146.316C69.6903 146.234 69.5789 146.187 69.4627 146.187H69.4526C66.3885 146.189 63.5083 147.383 61.3426 149.551C59.1769 151.719 57.9849 154.6 57.9863 157.664C57.9891 163.987 63.1352 169.13 69.4577 169.13Z" fill="#00DDFF"/>
<defs>
<linearGradient id="paint0_linear" x1="72" y1="0" x2="72" y2="187" gradientUnits="userSpaceOnUse">
<stop stop-color="#0057A9" stop-opacity="0"/>
<stop offset="1" stop-color="#0057A9" stop-opacity="0.5"/>
</linearGradient>
<clipPath id="clip0">
<rect width="144" height="63" fill="white" transform="translate(0 124)"/>
</clipPath>
</defs>
</svg>
