<svg width="118" height="187" viewBox="0 0 118 187" fill="none" xmlns="http://www.w3.org/2000/svg">
<rect width="118" height="187" fill="url(#paint0_linear)"/>
<g opacity="0.3" clip-path="url(#clip0)">
<circle opacity="0.4" cx="59" cy="202" r="17" stroke="#00DDFF" stroke-width="6"/>
<circle opacity="0.3" cx="59" cy="202" r="29" stroke="#00DDFF" stroke-width="6"/>
<circle opacity="0.2" cx="59" cy="202" r="42" stroke="#00DDFF" stroke-width="6"/>
<circle opacity="0.1" cx="59" cy="202" r="56" stroke="#00DDFF" stroke-width="6"/>
</g>
<path d="M12 187L0 187L-1.04907e-06 175L2 175L2 185L12 185L12 187Z" fill="#00DDFF"/>
<path d="M106 0L118 2.09815e-06L118 12L116 12L116 2L106 2L106 0Z" fill="#00DDFF"/>
<path fill-rule="evenodd" clip-rule="evenodd" d="M59.4413 155.1C59.4413 155.1 63.9626 155.103 67.8504 155.103C69.7945 155.103 71.5804 155.102 72.5631 155.1C72.6792 155.1 72.7905 155.054 72.8725 154.971C72.9544 154.889 73.0005 154.778 73.0005 154.662C73.0004 147.185 66.9179 141.103 59.4416 141.103C59.3254 141.103 59.2139 141.149 59.1317 141.231C59.0495 141.314 59.0033 141.425 59.0033 141.541V154.662C59.0033 154.778 59.0494 154.89 59.1316 154.972C59.2137 155.054 59.3251 155.1 59.4413 155.1ZM56.4577 169.13H56.4629C62.7882 169.128 67.932 163.979 67.9293 157.654C67.9292 157.538 67.883 157.426 67.8009 157.344C67.7187 157.262 67.6072 157.216 67.491 157.216H56.9012C56.9018 155.577 56.9038 149.755 56.901 146.625C56.9009 146.509 56.8547 146.398 56.7725 146.316C56.6903 146.234 56.5789 146.187 56.4627 146.187H56.4526C53.3885 146.189 50.5083 147.383 48.3426 149.551C46.1769 151.719 44.9849 154.6 44.9863 157.664C44.9891 163.987 50.1352 169.13 56.4577 169.13Z" fill="#00DDFF"/>
<defs>
<linearGradient id="paint0_linear" x1="59" y1="0" x2="59" y2="187" gradientUnits="userSpaceOnUse">
<stop stop-color="#0057A9" stop-opacity="0"/>
<stop offset="1" stop-color="#0057A9" stop-opacity="0.5"/>
</linearGradient>
<clipPath id="clip0">
<rect width="118" height="63" fill="white" transform="translate(0 124)"/>
</clipPath>
</defs>
</svg>
