<svg width="118" height="187" viewBox="0 0 118 187" fill="none" xmlns="http://www.w3.org/2000/svg">
<rect width="118" height="187" fill="url(#paint0_linear)"/>
<g opacity="0.3" clip-path="url(#clip0)">
<circle opacity="0.4" cx="59" cy="202" r="17" stroke="#00DDFF" stroke-width="6"/>
<circle opacity="0.3" cx="59" cy="202" r="29" stroke="#00DDFF" stroke-width="6"/>
<circle opacity="0.2" cx="59" cy="202" r="42" stroke="#00DDFF" stroke-width="6"/>
<circle opacity="0.1" cx="59" cy="202" r="56" stroke="#00DDFF" stroke-width="6"/>
</g>
<path d="M12 187L0 187L-1.04907e-06 175L2 175L2 185L12 185L12 187Z" fill="#00DDFF"/>
<path d="M106 0L118 2.09815e-06L118 12L116 12L116 2L106 2L106 0Z" fill="#00DDFF"/>
<path d="M70.3599 150.98C70.1999 150.12 69.0999 149.8 68.4799 150.42L63.2199 155.66C62.4799 156.4 61.2599 156.4 60.4999 155.66L57.7999 152.96C57.0399 152.2 57.0399 151 57.7999 150.26L63.0999 144.98C63.7199 144.36 63.4199 143.26 62.5599 143.1C59.4599 142.5 56.1399 143.4 53.7399 145.8C51.0799 148.42 50.2599 152.2 51.2799 155.56C51.4399 156.1 51.3399 156.7 50.9399 157.1L45.5999 162.42C44.8599 163.16 44.8599 164.38 45.5999 165.12L48.3199 167.82C49.0599 168.56 50.2799 168.56 51.0399 167.82L56.4199 162.46C56.8199 162.06 57.3999 161.94 57.9599 162.1C61.2999 163.08 65.0399 162.26 67.6799 159.62C70.0199 157.28 70.9199 154.02 70.3599 150.98Z" fill="#00DDFF"/>
<defs>
<linearGradient id="paint0_linear" x1="59" y1="0" x2="59" y2="187" gradientUnits="userSpaceOnUse">
<stop stop-color="#0057A9" stop-opacity="0"/>
<stop offset="1" stop-color="#0057A9" stop-opacity="0.5"/>
</linearGradient>
<clipPath id="clip0">
<rect width="118" height="63" fill="white" transform="translate(0 124)"/>
</clipPath>
</defs>
</svg>
