<svg width="144" height="187" viewBox="0 0 144 187" fill="none" xmlns="http://www.w3.org/2000/svg">
<rect width="144" height="187" fill="url(#paint0_linear)"/>
<g opacity="0.3" clip-path="url(#clip0)">
<circle opacity="0.4" cx="72" cy="197" r="19" stroke="#00DDFF" stroke-width="6"/>
<circle opacity="0.3" cx="72" cy="197" r="32" stroke="#00DDFF" stroke-width="6"/>
<circle opacity="0.2" cx="72" cy="197" r="46" stroke="#00DDFF" stroke-width="6"/>
<circle opacity="0.1" cx="72" cy="197" r="61" stroke="#00DDFF" stroke-width="6"/>
</g>
<path d="M12 187L0 187L-1.04907e-06 175L2 175L2 185L12 185L12 187Z" fill="#00DDFF"/>
<path d="M132 0L144 2.09815e-06L144 12L142 12L142 2L132 2L132 0Z" fill="#00DDFF"/>
<g clip-path="url(#clip1)">
<path fill-rule="evenodd" clip-rule="evenodd" d="M56.3095 151.873C56.9271 148.769 58.4515 145.917 60.6898 143.679C63.6942 140.683 67.7638 139.001 72.0064 139.001C76.2491 139.001 80.3186 140.683 83.323 143.679C85.5613 145.917 87.0857 148.769 87.7033 151.873C88.3209 154.978 88.004 158.196 86.7927 161.121C85.5814 164.045 83.53 166.545 80.8981 168.303C78.2662 170.062 75.1718 171.001 72.0064 171.001C68.841 171.001 65.7467 170.062 63.1147 168.303C60.4828 166.545 58.4315 164.045 57.2201 161.121C56.0088 158.196 55.6919 154.978 56.3095 151.873ZM72.0031 153.202L76.8371 148.368C77.0781 148.143 77.3973 148.02 77.727 148.026C78.0568 148.032 78.3714 148.166 78.6043 148.399C78.8373 148.633 78.9704 148.948 78.9755 149.277C78.9806 149.607 78.8574 149.926 78.6318 150.167L73.8016 154.997L78.6318 159.831C78.7496 159.949 78.8431 160.089 78.9069 160.243C78.9707 160.396 79.0035 160.561 79.0035 160.728C79.0035 160.895 78.9707 161.06 78.9069 161.214C78.8431 161.368 78.7496 161.508 78.6318 161.626C78.514 161.743 78.3741 161.837 78.2201 161.901C78.0661 161.964 77.9011 161.997 77.7344 161.997C77.5678 161.997 77.4028 161.964 77.2488 161.901C77.0948 161.837 76.9549 161.743 76.8371 161.626L72.0031 156.795L67.1729 161.626C66.9324 161.851 66.6135 161.974 66.2837 161.969C65.954 161.964 65.6391 161.831 65.4057 161.598C65.1722 161.365 65.0384 161.05 65.0326 160.721C65.0268 160.391 65.1494 160.072 65.3744 159.831L70.2084 154.997L65.3744 150.167C65.2563 150.049 65.1627 149.908 65.0988 149.754C65.0348 149.6 65.002 149.434 65.002 149.267C65.002 148.93 65.1359 148.607 65.3744 148.368C65.6129 148.13 65.9364 147.996 66.2737 147.996C66.611 147.996 66.9344 148.13 67.1729 148.368L72.0031 153.202Z" fill="#00DDFF"/>
</g>
<defs>
<linearGradient id="paint0_linear" x1="72" y1="0" x2="72" y2="187" gradientUnits="userSpaceOnUse">
<stop stop-color="#0057A9" stop-opacity="0"/>
<stop offset="1" stop-color="#0057A9" stop-opacity="0.5"/>
</linearGradient>
<clipPath id="clip0">
<rect width="144" height="63" fill="white" transform="translate(0 124)"/>
</clipPath>
<clipPath id="clip1">
<rect width="32" height="32" fill="white" transform="translate(56 139)"/>
</clipPath>
</defs>
</svg>
