<svg width="144" height="187" viewBox="0 0 144 187" fill="none" xmlns="http://www.w3.org/2000/svg">
<rect width="144" height="187" fill="url(#paint0_linear)"/>
<g opacity="0.3" clip-path="url(#clip0)">
<circle opacity="0.4" cx="72" cy="197" r="19" stroke="#00DDFF" stroke-width="6"/>
<circle opacity="0.3" cx="72" cy="197" r="32" stroke="#00DDFF" stroke-width="6"/>
<circle opacity="0.2" cx="72" cy="197" r="46" stroke="#00DDFF" stroke-width="6"/>
<circle opacity="0.1" cx="72" cy="197" r="61" stroke="#00DDFF" stroke-width="6"/>
</g>
<path d="M12 187L0 187L-1.04907e-06 175L2 175L2 185L12 185L12 187Z" fill="#00DDFF"/>
<path d="M132 0L144 2.09815e-06L144 12L142 12L142 2L132 2L132 0Z" fill="#00DDFF"/>
<path d="M75.1768 140C75.5852 140.011 75.9739 140.178 76.2638 140.466C76.5444 140.748 76.6909 141.126 76.6697 141.512C76.7138 142.292 76.0785 142.965 75.2403 143.023H68.5344C67.6785 142.982 67.022 142.306 67.0644 141.512C67.022 140.718 67.6785 140.041 68.5327 140H75.1768H75.1768ZM82.4385 141.765L82.4333 141.77C84.9268 141.77 86.118 143.189 86.118 145.241V165.558C86.118 168.029 84.8456 168.994 82.2303 168.994H61.465C58.8426 168.994 57.9003 167.759 57.8809 165.558V145.236C57.8826 143.189 58.548 141.765 61.2444 141.765H64.6256C64.5903 141.929 64.5727 142.096 64.5691 142.264C64.5691 143.535 65.5397 144.788 66.805 144.788H76.9927C78.1715 144.788 79.165 143.535 79.165 142.264C79.1648 142.096 79.1476 141.929 79.1138 141.765H82.4385H82.4385ZM65.2768 156.216L69.8615 160.801C70.0805 161.009 70.3711 161.125 70.6732 161.125C70.9753 161.125 71.2659 161.009 71.485 160.801L79.7385 152.559C79.8475 152.453 79.9341 152.326 79.9932 152.186C80.0523 152.045 80.0828 151.895 80.0828 151.742C80.0828 151.59 80.0523 151.439 79.9932 151.299C79.9341 151.159 79.8475 151.032 79.7385 150.925C79.6324 150.818 79.5062 150.734 79.3672 150.676C79.2282 150.618 79.0791 150.588 78.9285 150.588C78.7779 150.588 78.6289 150.618 78.4898 150.676C78.3508 150.734 78.2246 150.818 78.1185 150.925L70.6733 158.349L66.9144 154.596C66.6984 154.383 66.4071 154.263 66.1035 154.263C65.8 154.263 65.5087 154.383 65.2927 154.596C65.1834 154.7 65.0961 154.825 65.0359 154.964C64.9757 155.102 64.9439 155.251 64.9422 155.402C64.9406 155.553 64.9692 155.703 65.0263 155.843C65.0835 155.982 65.168 156.109 65.275 156.216L65.2768 156.216Z" fill="#00DDFF"/>
<defs>
<linearGradient id="paint0_linear" x1="72" y1="0" x2="72" y2="187" gradientUnits="userSpaceOnUse">
<stop stop-color="#0057A9" stop-opacity="0"/>
<stop offset="1" stop-color="#0057A9" stop-opacity="0.5"/>
</linearGradient>
<clipPath id="clip0">
<rect width="144" height="63" fill="white" transform="translate(0 124)"/>
</clipPath>
</defs>
</svg>
