<svg width="20" height="40" viewBox="0 0 20 40" fill="none" xmlns="http://www.w3.org/2000/svg">
<g clip-path="url(#clip0)">
<circle cx="20" cy="20" r="20" fill="#0057A9"/>
<g clip-path="url(#clip1)">
<path d="M17.561 20.9991C17.5611 21.1462 17.5322 21.2919 17.4759 21.4278C17.4196 21.5637 17.3371 21.6872 17.233 21.7911L10.3521 28.6716C10.1411 28.8778 9.85741 28.9924 9.56243 28.9908C9.26745 28.9891 8.98504 28.8712 8.77645 28.6626C8.56787 28.454 8.44994 28.1716 8.44826 27.8766C8.44658 27.5816 8.56127 27.2979 8.76746 27.0869L14.8571 20.9973L8.76746 14.9076C8.56127 14.6967 8.44658 14.4129 8.44826 14.118C8.44994 13.823 8.56787 13.5406 8.77645 13.332C8.98504 13.1234 9.26745 13.0055 9.56243 13.0038C9.85741 13.0021 10.1411 13.1168 10.3521 13.323L17.2339 20.2065C17.3379 20.3106 17.4203 20.4341 17.4765 20.5702C17.5326 20.7062 17.5613 20.8519 17.561 20.9991Z" fill="white"/>
</g>
</g>
<defs>
<clipPath id="clip0">
<rect width="20" height="40" fill="white"/>
</clipPath>
<clipPath id="clip1">
<rect width="16" height="16" fill="white" transform="translate(4 29) rotate(-90)"/>
</clipPath>
</defs>
</svg>
