<svg width="32" height="32" viewBox="0 0 32 32" fill="none" xmlns="http://www.w3.org/2000/svg">
<rect width="32" height="32" fill="#064F94"/>
<rect x="7.75" y="20.75" width="16.5" height="6.5" stroke="#00DDFF" stroke-width="1.5"/>
<rect x="6.75" y="5.75" width="18.5" height="12.5" stroke="#00DDFF" stroke-width="1.5"/>
<rect x="9.5" y="9.5" width="13" height="5" stroke="#00DDFF"/>
<path fill-rule="evenodd" clip-rule="evenodd" d="M11.625 11H11V13H11.625V11ZM13.5 11H12.875V13H13.5V11ZM14.75 11H15.375V13H14.75V11ZM17.25 11H16.625V13H17.25V11ZM18.5 11H19.125V13H18.5V11ZM21 11H20.375V13H21V11Z" fill="#00DDFF"/>
<rect opacity="0.8" x="8.5" y="2.6875" width="3.75" height="1.875" fill="#00DDFF"/>
<rect opacity="0.8" x="19.75" y="2.6875" width="3.75" height="1.875" fill="#00DDFF"/>
</svg>
