<svg width="24" height="24" viewBox="0 0 24 24" fill="none" xmlns="http://www.w3.org/2000/svg">
<path d="M13.4316 20C13.0947 20 12.7579 19.68 12.7579 19.28V13.68C12.7579 13.12 13.0105 12.64 13.5158 12.4L18.9895 9.52C19.0737 9.44 19.2421 9.44 19.3263 9.44C19.6632 9.44 20 9.68 20 10.16V15.76C20 16.32 19.7474 16.8 19.2421 17.04L13.6842 19.92C13.6 20 13.4316 20 13.4316 20ZM13.9368 13.28C13.8526 13.36 13.6842 13.44 13.6842 13.68V18.72L18.6526 16.16C18.7368 16.08 18.9053 16 18.9053 15.76V10.64L13.9368 13.28ZM10.5684 20C10.4842 20 10.4 20 10.2316 19.92L4.75789 17.04C4.25263 16.8 4 16.32 4 15.76V10.16C4 9.76 4.33684 9.44 4.67368 9.44C4.75789 9.44 4.84211 9.44 5.01053 9.52L10.4842 12.4C10.9895 12.64 11.2421 13.12 11.2421 13.68V19.28C11.2421 19.68 10.9053 20 10.5684 20ZM5.09474 15.76C5.09474 16 5.26316 16.08 5.26316 16.16L10.2316 18.72V13.68C10.2316 13.52 10.1474 13.36 10.0632 13.28L5.09474 10.64V15.76ZM12 10.96C11.6632 10.96 11.4105 10.96 11.1579 10.8L5.6 8C5.34737 7.92 5.26316 7.68 5.26316 7.52C5.26316 7.28 5.34737 7.12 5.6 7.04L11.2421 4.24C11.4105 4.08 11.7474 4 12 4C12.3368 4 12.5895 4.08 12.7579 4.16L18.4 6.96C18.6526 7.12 18.7368 7.28 18.7368 7.52C18.7368 7.76 18.6526 7.92 18.4 8L12.8421 10.8C12.5895 10.96 12.3368 10.96 12 10.96ZM12 5.04C11.9158 5.04 11.7474 5.04 11.6632 5.12L6.86316 7.52L11.6632 9.92C11.7474 9.92 11.9158 10 12 10C12.0842 10 12.2526 10 12.3368 9.92L17.1368 7.52L12.3368 5.12C12.2526 5.04 12.0842 5.04 12 5.04Z" fill="#00DDFF"/>
</svg>
