<svg width="24" height="23" viewBox="0 0 24 23" fill="none" xmlns="http://www.w3.org/2000/svg">
<path d="M7.18403 22.9173C6.51203 22.9173 6.44803 22.3733 6.44803 21.7013C6.44803 21.0293 6.51203 20.4853 7.18403 20.4853H14.24C19.44 20.4853 20.816 16.2133 20.816 13.9413C20.816 10.9493 19.68 7.38134 14.256 7.38134H4.88003L8.06403 10.5653C8.28803 10.7893 8.41603 11.1093 8.41603 11.4293C8.41603 11.7493 8.28803 12.0693 8.06403 12.2933C7.84003 12.5173 7.52003 12.6453 7.20003 12.6453C6.86403 12.6453 6.56003 12.5173 6.33603 12.2933L1.08803 7.02934C0.608027 6.54934 0.608027 5.78134 1.08803 5.30134L5.96803 0.421336C6.19203 0.197336 6.51203 0.0693359 6.83203 0.0693359C7.16803 0.0693359 7.47203 0.197336 7.69603 0.421336C8.17603 0.901336 8.17603 1.66934 7.69603 2.14934L4.92803 4.93334H14.272C17.568 4.93334 20.016 6.02134 21.584 8.14934C22.976 10.0693 23.28 12.3573 23.28 13.9413C23.28 17.5573 20.88 22.9333 14.256 22.9333H7.18403V22.9173Z" fill="white"/>
</svg>
