<svg width="24" height="24" viewBox="0 0 24 24" fill="none" xmlns="http://www.w3.org/2000/svg">
<path d="M10.7999 16.8H5.99995V18H10.7999V16.8ZM20.4 0H3.59995C2.96343 0 2.35298 0.252856 1.90289 0.702944C1.45281 1.15303 1.19995 1.76348 1.19995 2.4V21.6C1.19995 22.2365 1.45281 22.847 1.90289 23.2971C2.35298 23.7471 2.96343 24 3.59995 24H20.4C21.0365 24 21.6469 23.7471 22.097 23.2971C22.5471 22.847 22.7999 22.2365 22.7999 21.6V2.4C22.7999 1.76348 22.5471 1.15303 22.097 0.702944C21.6469 0.252856 21.0365 0 20.4 0ZM14.4 21.6H4.52795C4.40398 21.5979 4.28163 21.5714 4.16789 21.5221C4.05416 21.4727 3.95126 21.4014 3.86509 21.3122C3.77891 21.2231 3.71114 21.1178 3.66565 21.0025C3.62016 20.8871 3.59783 20.764 3.59995 20.64V3.36C3.59783 3.23603 3.62016 3.11285 3.66565 2.99751C3.71114 2.88216 3.77891 2.77691 3.86509 2.68777C3.95126 2.59862 4.05416 2.52732 4.16789 2.47794C4.28163 2.42857 4.40398 2.40208 4.52795 2.4H14.4V21.6ZM20.4 20.64C20.4021 20.764 20.3797 20.8871 20.3343 21.0025C20.2888 21.1178 20.221 21.2231 20.1348 21.3122C20.0486 21.4014 19.9457 21.4727 19.832 21.5221C19.7183 21.5714 19.5959 21.5979 19.472 21.6H16.7999V2.4H19.472C19.5959 2.40208 19.7183 2.42857 19.832 2.47794C19.9457 2.52732 20.0486 2.59862 20.1348 2.68777C20.221 2.77691 20.2888 2.88216 20.3343 2.99751C20.3797 3.11285 20.4021 3.23603 20.4 3.36V20.64ZM10.7999 13.2H5.99995V14.4H10.7999V13.2ZM10.7999 9.6H5.99995V10.8H10.7999V9.6ZM10.7999 6H5.99995V7.2H10.7999V6Z" fill="#00DDFF"/>
</svg>
