<svg width="122" height="110" viewBox="0 0 122 110" fill="none" xmlns="http://www.w3.org/2000/svg">
<path opacity="0.884975" fill-rule="evenodd" clip-rule="evenodd" d="M0 39.6666H38V101.667C38 101.667 32.3633 109.667 19.4609 109.667C6.55859 109.667 0 101.667 0 101.667V39.6666Z" fill="url(#paint0_linear)"/>
<path opacity="0.884975" fill-rule="evenodd" clip-rule="evenodd" d="M42 7.66663H80V93.6666C80 93.6666 74.3633 101.667 61.4609 101.667C48.5586 101.667 42 93.6666 42 93.6666V7.66663Z" fill="url(#paint1_linear)"/>
<path opacity="0.884975" fill-rule="evenodd" clip-rule="evenodd" d="M84 39.6666H122V101.667C122 101.667 116.363 109.667 103.461 109.667C90.5586 109.667 84 101.667 84 101.667V39.6666Z" fill="url(#paint2_linear)"/>
<ellipse cx="61" cy="9" rx="19" ry="9" fill="url(#paint3_linear)"/>
<path d="M79.5 9C79.5 11.1796 77.6168 13.3035 74.221 14.9121C70.8633 16.5026 66.1895 17.5 61 17.5C55.8105 17.5 51.1367 16.5026 47.779 14.9121C44.3832 13.3035 42.5 11.1796 42.5 9C42.5 6.82041 44.3832 4.69646 47.779 3.08791C51.1367 1.49742 55.8105 0.5 61 0.5C66.1895 0.5 70.8633 1.49742 74.221 3.08791C77.6168 4.69646 79.5 6.82041 79.5 9Z" stroke="#58CEF2" stroke-opacity="0.64"/>
<ellipse cx="103" cy="39.5" rx="19" ry="8.5" fill="url(#paint4_linear)"/>
<path d="M121.5 39.5C121.5 40.512 121.044 41.5131 120.144 42.4651C119.241 43.4197 117.912 44.3021 116.231 45.054C112.87 46.5573 108.193 47.5 103 47.5C97.8069 47.5 93.1295 46.5573 89.7692 45.054C88.0884 44.3021 86.759 43.4197 85.8564 42.4651C84.9564 41.5131 84.5 40.512 84.5 39.5C84.5 38.488 84.9564 37.4869 85.8564 36.5349C86.759 35.5803 88.0884 34.6979 89.7692 33.946C93.1295 32.4427 97.8069 31.5 103 31.5C108.193 31.5 112.87 32.4427 116.231 33.946C117.912 34.6979 119.241 35.5803 120.144 36.5349C121.044 37.4869 121.5 38.488 121.5 39.5Z" stroke="#58CEF2" stroke-opacity="0.64"/>
<ellipse cx="19" cy="39.5" rx="19" ry="8.5" fill="url(#paint5_linear)"/>
<path d="M37.5 39.5C37.5 40.512 37.0436 41.5131 36.1436 42.4651C35.241 43.4197 33.9116 44.3021 32.2308 45.054C28.8705 46.5573 24.1931 47.5 19 47.5C13.8069 47.5 9.12952 46.5573 5.76915 45.054C4.08838 44.3021 2.75898 43.4197 1.85644 42.4651C0.956398 41.5131 0.5 40.512 0.5 39.5C0.5 38.488 0.956398 37.4869 1.85644 36.5349C2.75898 35.5803 4.08838 34.6979 5.76915 33.946C9.12952 32.4427 13.8069 31.5 19 31.5C24.1931 31.5 28.8705 32.4427 32.2308 33.946C33.9116 34.6979 35.241 35.5803 36.1436 36.5349C37.0436 37.4869 37.5 38.488 37.5 39.5Z" stroke="#58CEF2" stroke-opacity="0.64"/>
<defs>
<linearGradient id="paint0_linear" x1="0" y1="39.6666" x2="0" y2="109.667" gradientUnits="userSpaceOnUse">
<stop stop-color="#0A15CD"/>
<stop offset="1" stop-color="#74E7FF"/>
</linearGradient>
<linearGradient id="paint1_linear" x1="42" y1="7.66663" x2="42" y2="101.667" gradientUnits="userSpaceOnUse">
<stop stop-color="#0A15CD"/>
<stop offset="1" stop-color="#74E7FF"/>
</linearGradient>
<linearGradient id="paint2_linear" x1="84" y1="39.6666" x2="84" y2="109.667" gradientUnits="userSpaceOnUse">
<stop stop-color="#0A15CD"/>
<stop offset="1" stop-color="#74E7FF"/>
</linearGradient>
<linearGradient id="paint3_linear" x1="42" y1="0" x2="42" y2="18" gradientUnits="userSpaceOnUse">
<stop stop-color="#161094"/>
<stop offset="1" stop-color="#7BF8FF"/>
</linearGradient>
<linearGradient id="paint4_linear" x1="84" y1="31" x2="84" y2="48" gradientUnits="userSpaceOnUse">
<stop stop-color="#161094"/>
<stop offset="1" stop-color="#6CF8FF"/>
</linearGradient>
<linearGradient id="paint5_linear" x1="0" y1="31" x2="0" y2="48" gradientUnits="userSpaceOnUse">
<stop stop-color="#161094"/>
<stop offset="1" stop-color="#6CF8FF"/>
</linearGradient>
</defs>
</svg>
