<svg width="110" height="110" viewBox="0 0 110 110" fill="none" xmlns="http://www.w3.org/2000/svg">
<path d="M45 42C45 40.3431 46.3431 39 48 39C49.6569 39 51 40.3431 51 42V52H45V42Z" fill="#3E95E6"/>
<path d="M74 42C74 40.3431 75.3431 39 77 39C78.6569 39 80 40.3431 80 42V52H74V42Z" fill="#3E95E6"/>
<path d="M23.5 42.5C20.8333 45.8333 11.5 59.8 11.5 71C11.5 85 13 93.5 23.5 93.5" stroke="#00DDFF" stroke-width="4"/>
<path d="M79.9104 45.745C81.3433 47.4108 82.7761 49.0765 84.2089 50.5042C85.403 51.932 86.8358 53.5977 88.5074 55.5014C90.1791 57.4051 91.6119 59.0708 93.2836 60.9745C95.4328 63.3541 97.1044 65.4957 98.5373 67.3994C99.9701 69.3031 100.925 70.9688 101.881 72.6346C102.597 74.3003 103.313 75.728 103.552 76.9178C103.791 78.3456 104.03 79.5354 104.03 80.9632V87.1501C104.03 89.0538 103.791 90.7195 103.075 92.3853C102.358 93.813 101.642 95.2408 100.448 96.4306C99.2537 97.6204 98.0597 98.3343 96.6268 99.0482C95.194 99.762 93.7612 100 92.0895 100H32.8657C31.194 100 29.5224 99.762 27.8507 99.0482C26.1791 98.5722 24.9851 97.6204 23.791 96.6686C22.597 95.7167 21.6418 94.289 20.9254 92.8612C20.2089 91.4334 19.7313 89.7677 19.7313 87.864V80.4873C19.7313 79.0595 19.9701 77.3938 20.2089 76.204C20.4477 74.7762 20.9254 73.3484 21.8806 71.9207C22.597 70.017 23.5522 68.5892 24.9851 66.6855C26.4179 65.0198 28.0895 63.1161 30 60.9745C31.6716 59.0708 33.3433 57.4051 35.2537 55.5014C36.9254 53.5977 38.597 51.932 40.0298 50.5042C41.7015 48.8385 43.3731 47.1728 44.806 45.5071H79.9104V45.745ZM62 81.915C63.6716 81.915 65.3433 81.6771 66.7761 80.9632C68.2089 80.2493 69.6418 79.5354 70.597 78.3456C71.791 77.1558 72.5074 75.966 73.2239 74.5382C73.9403 73.1105 74.1791 71.4448 74.1791 69.779C74.1791 68.1133 73.9403 66.4476 73.2239 65.0198C72.5074 63.5921 71.791 62.1643 70.597 61.2125C69.403 60.0227 68.2089 59.3088 66.7761 58.5949C65.3433 57.881 63.6716 57.6431 62 57.6431C60.3283 57.6431 58.6567 57.881 57.2239 58.5949C55.791 59.3088 54.3582 60.0227 53.403 61.2125C52.2089 62.4023 51.4925 63.5921 50.7761 65.0198C50.0597 66.4476 49.8209 68.1133 49.8209 69.779C49.8209 71.4448 50.0597 73.1105 50.7761 74.5382C51.4925 75.966 52.2089 77.3938 53.403 78.3456C54.597 79.5354 55.791 80.2493 57.2239 80.9632C58.6567 81.6771 60.3283 81.915 62 81.915Z" fill="url(#paint0_linear)"/>
<path d="M110 34.085V40.034C110 41.6997 109.522 43.1275 108.328 44.3173C107.134 45.5071 105.701 45.983 104.03 45.983H92.0896C90.4179 45.983 88.9851 45.5071 87.791 44.3173C86.597 43.1275 86.1194 41.6997 86.1194 40.034V34.085H37.8806V40.034C37.8806 41.6997 37.403 43.1275 36.209 44.3173C35.0149 45.5071 33.5821 45.983 31.9104 45.983H19.9701C18.2985 45.983 16.8657 45.5071 15.6716 44.3173C14.4776 43.1275 14 41.6997 14 40.034V33.847C14 33.1331 14.2388 32.4193 14.4776 31.9433L15.9104 30.5156C16.3881 30.0397 17.1045 29.5637 17.8209 29.3258C18.5373 29.0878 19.2537 28.6119 19.9701 28.136C20.6866 27.6601 22.3582 26.9462 24.7463 25.5184C27.1343 24.3286 30.2388 22.9008 34.0597 21.4731C37.8806 20.0453 41.9403 18.8555 46.7164 17.6657C51.4925 16.4759 56.5075 16 62 16C68.209 16 73.7015 16.4759 78.4776 17.6657C83.2537 18.8555 87.5522 20.0453 91.1343 21.4731C94.7164 22.9008 97.5821 24.3286 99.7313 25.5184C101.881 26.7082 103.313 27.6601 104.03 28.136C104.746 28.6119 105.463 29.0878 106.179 29.3258C106.896 29.5637 107.612 30.0397 108.09 30.5156L109.522 31.9433C109.761 32.4193 110 33.1331 110 34.085Z" fill="#0C68BE"/>
<circle cx="62" cy="70" r="13" fill="#2092D2" stroke="#00DDFF" stroke-width="2"/>
<circle cx="62" cy="70" r="6" fill="#001F6D"/>
<defs>
<linearGradient id="paint0_linear" x1="61.8806" y1="45.5071" x2="61.8806" y2="100" gradientUnits="userSpaceOnUse">
<stop stop-color="#157CC7"/>
<stop offset="1" stop-color="#023B7B"/>
</linearGradient>
</defs>
</svg>
