<svg width="110" height="110" viewBox="0 0 110 110" fill="none" xmlns="http://www.w3.org/2000/svg">
<path d="M15.29 63.69C15.29 74.1634 19.4505 84.2078 26.8563 91.6137C34.2621 99.0195 44.3066 103.18 54.78 103.18C65.2534 103.18 75.2978 99.0195 82.7036 91.6137C90.1094 84.2078 94.27 74.1634 94.27 63.69C94.27 53.2166 90.1094 43.1722 82.7036 35.7664C75.2978 28.3606 65.2534 24.2 54.78 24.2C44.3066 24.2 34.2621 28.3606 26.8563 35.7664C19.4505 43.1722 15.29 53.2166 15.29 63.69Z" fill="black"/>
<path d="M87.615 94.435H22C18.37 94.435 15.4 91.465 15.4 87.835V64.13C15.4 60.5 18.37 63.25 22 63.25H87.615C91.245 63.25 94.215 61.27 94.215 64.9V87.835C94.215 91.465 91.245 94.435 87.615 94.435Z" fill="#00398D"/>
<path d="M15.4 63.635C15.4 74.0938 19.5548 84.1243 26.9503 91.5198C34.3458 98.9153 44.3762 103.07 54.835 103.07C65.2938 103.07 75.3243 98.9153 82.7198 91.5198C90.1153 84.1243 94.27 74.0938 94.27 63.635C94.27 53.1762 90.1153 43.1458 82.7198 35.7503C75.3243 28.3548 65.2938 24.2 54.835 24.2C44.3762 24.2 34.3458 28.3548 26.9503 35.7503C19.5548 43.1458 15.4 53.1762 15.4 63.635Z" fill="url(#paint0_linear)"/>
<path d="M47.575 56.76C47.575 60.39 72.6 67.32 72.6 67.32C72.6 67.32 39.27 67.21 37.125 67.21C31.35 67.21 26.675 62.535 26.675 56.76C26.675 50.985 31.35 46.31 37.125 46.31C42.9 46.31 47.575 50.985 47.575 56.76Z" fill="white"/>
<path d="M83.05 56.815C83.05 62.59 78.375 67.265 72.6 67.265C66.825 67.265 34.815 62.59 34.815 56.815C34.815 51.04 66.825 46.365 72.6 46.365C78.375 46.365 83.05 51.04 83.05 56.815Z" fill="white"/>
<path d="M82.885 57.86C82.885 61.765 79.75 62.535 78.32 63.36C74.03 65.835 66.605 58.905 54.945 58.905C42.24 58.905 36.575 67.375 33 62.645C32.175 61.545 27.115 60.885 27.115 57.97C27.115 56.925 26.73 55.825 26.95 54.78C28.875 44.165 40.7 34.045 54.89 34.045C69.685 34.045 81.785 44.33 82.995 55.935C83.105 56.595 82.885 57.2 82.885 57.86Z" fill="white"/>
<path d="M33.055 54.505C33.055 56.2554 33.7503 57.9342 34.9881 59.1719C36.2258 60.4096 37.9046 61.105 39.655 61.105C41.4054 61.105 43.0842 60.4096 44.3219 59.1719C45.5596 57.9342 46.255 56.2554 46.255 54.505C46.255 52.7546 45.5596 51.0758 44.3219 49.8381C43.0842 48.6004 41.4054 47.905 39.655 47.905C37.9046 47.905 36.2258 48.6004 34.9881 49.8381C33.7503 51.0758 33.055 52.7546 33.055 54.505Z" fill="#001F6D"/>
<path d="M63.69 54.505C63.69 56.2554 64.3854 57.9342 65.6231 59.1719C66.8608 60.4096 68.5396 61.105 70.29 61.105C72.0404 61.105 73.7192 60.4096 74.9569 59.1719C76.1947 57.9342 76.89 56.2554 76.89 54.505C76.89 52.7546 76.1947 51.0758 74.9569 49.8381C73.7192 48.6004 72.0404 47.905 70.29 47.905C68.5396 47.905 66.8608 48.6004 65.6231 49.8381C64.3854 51.0758 63.69 52.7546 63.69 54.505Z" fill="#001F6D"/>
<path d="M13.09 81.29C8.91 81.29 5.5 76.45 5.5 70.4C5.5 64.35 8.91 59.565 13.09 59.565V81.29ZM96.58 81.29C100.76 81.29 104.17 76.45 104.17 70.4C104.17 64.35 100.76 59.565 96.58 59.565" fill="url(#paint1_linear)"/>
<path d="M50.16 11.88C50.16 13.222 50.6931 14.509 51.6421 15.4579C52.591 16.4069 53.878 16.94 55.22 16.94C56.562 16.94 57.8491 16.4069 58.798 15.4579C59.7469 14.509 60.28 13.222 60.28 11.88C60.28 10.538 59.7469 9.25095 58.798 8.30202C57.8491 7.35308 56.562 6.81998 55.22 6.81998C53.878 6.81998 52.591 7.35308 51.6421 8.30202C50.6931 9.25095 50.16 10.538 50.16 11.88Z" fill="#00FFCF"/>
<path d="M52.58 10.89H57.86V30.03H52.58V10.89Z" fill="#00FFCF"/>
<path d="M42.735 89.43C42.075 89.43 41.58 88.88 41.58 88.275V78.76C41.58 78.1 42.13 77.605 42.735 77.605C43.395 77.605 43.89 78.155 43.89 78.76V88.275C43.89 88.88 43.395 89.43 42.735 89.43ZM68.09 89.43C67.43 89.43 66.935 88.88 66.935 88.275V78.76C66.935 78.1 67.485 77.605 68.09 77.605C68.75 77.605 69.245 78.155 69.245 78.76V88.275C69.3 88.88 68.75 89.43 68.09 89.43ZM49.06 89.43C48.4 89.43 47.905 88.88 47.905 88.275V83.985C47.905 83.325 48.455 82.83 49.06 82.83C49.72 82.83 50.215 83.38 50.215 83.985V88.275C50.27 88.88 49.72 89.43 49.06 89.43ZM55.44 89.43C54.78 89.43 54.285 88.88 54.285 88.275V80.52C54.285 79.86 54.835 79.365 55.44 79.365C56.1 79.365 56.595 79.915 56.595 80.52V88.275C56.595 88.88 56.045 89.43 55.44 89.43ZM61.765 89.43C61.105 89.43 60.61 88.88 60.61 88.275V86.35C60.61 85.69 61.16 85.195 61.765 85.195C62.425 85.195 62.92 85.745 62.92 86.35V88.275C62.92 88.88 62.425 89.43 61.765 89.43Z" fill="white"/>
<defs>
<linearGradient id="paint0_linear" x1="54.835" y1="24.2" x2="54.835" y2="103.07" gradientUnits="userSpaceOnUse">
<stop stop-color="#167ECA"/>
<stop offset="1" stop-color="#003675"/>
</linearGradient>
<linearGradient id="paint1_linear" x1="54.835" y1="59.565" x2="54.835" y2="81.29" gradientUnits="userSpaceOnUse">
<stop stop-color="#00DDFF" stop-opacity="0.42"/>
<stop offset="1" stop-color="#00DDFF"/>
</linearGradient>
</defs>
</svg>
