<svg width="20" height="26" viewBox="0 0 20 26" fill="none" xmlns="http://www.w3.org/2000/svg">
<path d="M10 1.84855e-05C4.48 -0.00160651 0.00307692 4.64914 0 10.3903C0 16.1298 7.83692 24.9112 7.83692 24.9112C9.03231 26.3607 10.9877 26.3672 12.1692 24.9047C12.1692 24.9047 20 16.1298 20 10.3903C19.9978 9.021 19.7376 7.66591 19.2344 6.40401C18.7312 5.14211 17.9952 3.99868 17.0692 3.04039C15.1816 1.08674 12.6428 -0.00518119 10 1.84855e-05ZM10 14.8639C9.09016 14.8678 8.19943 14.5882 7.43925 14.0601C6.67907 13.5321 6.08319 12.779 5.72615 11.895C5.37669 11.0155 5.28561 10.0454 5.46476 9.11061C5.64391 8.17578 6.085 7.31944 6.73077 6.65276C7.38336 5.97869 8.20842 5.52105 9.10426 5.33625C10.0001 5.15145 10.9276 5.24757 11.7723 5.61276C12.6124 5.97022 13.3326 6.58416 13.8406 7.37613C14.3487 8.16809 14.6217 9.1021 14.6246 10.0588C14.6231 12.714 12.5538 14.8639 10 14.8639Z" fill="#00DDFF"/>
</svg>
