<svg width="120" height="120" viewBox="0 0 120 120" fill="none" xmlns="http://www.w3.org/2000/svg">
<rect width="120" height="120" fill="#001F6D" fill-opacity="0.5"/>
<path fill-rule="evenodd" clip-rule="evenodd" d="M6 2H3H2V3V6H3V3H6V2Z" fill="#00DDFF"/>
<path fill-rule="evenodd" clip-rule="evenodd" d="M114 2H117H118V3V6H117V3H114V2Z" fill="#00DDFF"/>
<path fill-rule="evenodd" clip-rule="evenodd" d="M6 118H3H2V117V114H3V117H6V118Z" fill="#00DDFF"/>
<path fill-rule="evenodd" clip-rule="evenodd" d="M114 118H117H118V117V114H117V117H114V118Z" fill="#00DDFF"/>
<rect x="20" y="12" width="80" height="96" fill="#0057A9" fill-opacity="0.3"/>
<rect x="108" y="20" width="80" height="96" transform="rotate(90 108 20)" fill="#0057A9" fill-opacity="0.3"/>
<path d="M80.6992 79.9062V55.0234V39.3828C80.6992 38.2048 79.7812 37.25 78.6484 37.25H71.1289C69.9962 37.25 69.0781 38.2048 69.0781 39.3828V55.0234H47.8867L41.0508 62.1328V79.9062H39V82.75H82.75V79.9062H80.6992ZM53.3555 77.0625H47.2031V70.6641H53.3555V77.0625ZM53.3555 67.1094H47.2031V60.7109H53.3555V67.1094ZM63.6094 77.0625H57.457V70.6641H63.6094V77.0625ZM63.6094 67.1094H57.457V60.7109H63.6094V67.1094ZM74.5469 77.0625H68.3945V70.6641H74.5469V77.0625ZM74.5469 67.1094H68.3945V60.7109H74.5469V67.1094Z" fill="url(#paint0_linear)"/>
<defs>
<linearGradient id="paint0_linear" x1="60.875" y1="37.25" x2="60.875" y2="82.75" gradientUnits="userSpaceOnUse">
<stop stop-color="white"/>
<stop offset="1" stop-color="white" stop-opacity="0.2"/>
</linearGradient>
</defs>
</svg>
