<svg width="120" height="120" viewBox="0 0 120 120" fill="none" xmlns="http://www.w3.org/2000/svg">
<rect width="120" height="120" fill="#001F6D" fill-opacity="0.5"/>
<path fill-rule="evenodd" clip-rule="evenodd" d="M6 2H3H2V3V6H3V3H6V2Z" fill="#00DDFF"/>
<path fill-rule="evenodd" clip-rule="evenodd" d="M114 2H117H118V3V6H117V3H114V2Z" fill="#00DDFF"/>
<path fill-rule="evenodd" clip-rule="evenodd" d="M6 118H3H2V117V114H3V117H6V118Z" fill="#00DDFF"/>
<path fill-rule="evenodd" clip-rule="evenodd" d="M114 118H117H118V117V114H117V117H114V118Z" fill="#00DDFF"/>
<rect x="20" y="12" width="80" height="96" fill="#0057A9" fill-opacity="0.3"/>
<rect x="108" y="20" width="80" height="96" transform="rotate(90 108 20)" fill="#0057A9" fill-opacity="0.3"/>
<path d="M70.5002 44.5318V42.6333C70.5002 42.1692 70.6846 41.724 71.0128 41.3958C71.341 41.0677 71.7861 40.8833 72.2502 40.8833H74.0002C74.4643 40.8833 74.9095 41.0677 75.2377 41.3958C75.5658 41.724 75.7502 42.1692 75.7502 42.6333V48.6062L83.3085 54.4722C84.642 55.5074 84.8944 57.4411 83.8726 58.7917C83.2971 59.5525 82.4046 59.9985 81.4581 59.9985H76.9621V81.1088C76.9621 81.3068 76.9231 81.5028 76.8473 81.6858C76.7715 81.8687 76.6605 82.0349 76.5204 82.1749C76.3804 82.3149 76.2142 82.4259 76.0313 82.5017C75.8483 82.5775 75.6523 82.6164 75.4543 82.6164H44.5464C44.1466 82.6164 43.7631 82.4576 43.4804 82.1748C43.1976 81.8921 43.0388 81.5086 43.0388 81.1088V59.9987H38.5419C36.8619 59.9987 35.5 58.6193 35.5 56.9177C35.5 55.9593 35.9406 55.0554 36.6918 54.4725L57.6872 38.1776C58.3482 37.6628 59.1621 37.3833 59.9999 37.3833C60.8377 37.3833 61.6516 37.6628 62.3126 38.1776L70.5002 44.5318ZM55.854 69.4649C55.4542 69.4649 55.0707 69.6238 54.788 69.9065C54.5052 70.1892 54.3464 70.5727 54.3464 70.9726V82.6164H65.654V70.9726C65.654 70.5727 65.4952 70.1892 65.2125 69.9065C64.9297 69.6238 64.5463 69.4649 64.1464 69.4649H55.854Z" fill="url(#paint0_linear)"/>
<defs>
<linearGradient id="paint0_linear" x1="60.0001" y1="37.3833" x2="60.0001" y2="82.6164" gradientUnits="userSpaceOnUse">
<stop stop-color="white"/>
<stop offset="1" stop-color="white" stop-opacity="0.3"/>
</linearGradient>
</defs>
</svg>
