<svg width="48" height="48" viewBox="0 0 48 48" fill="none" xmlns="http://www.w3.org/2000/svg">
<path d="M33.9041 1.45483H14.0935C11.0749 1.45483 8.62891 3.90307 8.62891 6.91943V41.0806C8.62891 44.0968 11.075 46.5452 14.0935 46.5452H33.9041C36.9248 46.5452 39.3709 44.0968 39.3709 41.0806V6.91948C39.3709 3.90307 36.9247 1.45483 33.9041 1.45483ZM18.1048 4.87188H29.8948V7.60643H18.1048V4.87188ZM24.001 43.1282C22.1075 43.1282 20.5751 41.5958 20.5751 39.7023C20.5751 37.8134 22.1075 36.281 24.001 36.281C25.8922 36.281 27.4267 37.8134 27.4267 39.7023C27.4267 41.5957 25.8922 43.1282 24.001 43.1282ZM34.7583 34.5901H13.2392V9.65388H34.7583V34.5901Z" fill="url(#paint0_linear)" fill-opacity="0.6"/>
<defs>
<linearGradient id="paint0_linear" x1="23.9999" y1="1.45483" x2="23.9999" y2="46.5452" gradientUnits="userSpaceOnUse">
<stop stop-color="white"/>
<stop offset="1" stop-color="white" stop-opacity="0"/>
</linearGradient>
</defs>
</svg>
