<svg width="47" height="44" viewBox="0 0 47 44" fill="none" xmlns="http://www.w3.org/2000/svg">
<path fill-rule="evenodd" clip-rule="evenodd" d="M3.55762 29.0989V9.67302L3.55766 9.67297C3.61415 9.05183 4.12241 8.48712 4.74355 8.48712H17.7317C18.24 8.48712 18.6353 8.82594 18.8047 9.27767L22.1929 19.6683L33.3177 1.54123C33.5435 1.20242 33.8824 1.03297 34.2777 0.976528L36.9317 0.920044C37.44 0.920044 37.8353 1.20242 38.0047 1.65415L38.7953 3.91297L45.2329 21.7012C45.4024 22.0965 45.12 22.3224 44.9505 22.4353C44.7674 22.5269 44.5842 22.47 44.3107 22.385C44.2469 22.3651 44.1783 22.3438 44.1035 22.3224L38.0047 19.16C37.7224 19.0471 37.44 18.8212 37.3271 18.4824L34.7294 11.4236L24.7905 27.6306L25.1294 28.76C25.2424 29.0989 25.1859 29.4942 25.0165 29.7765C24.7906 30.0589 24.4518 30.2283 24.1129 30.2283H4.68707C4.06588 30.2283 3.55762 29.72 3.55762 29.0989ZM16.8847 10.8024H11.3506V22.2659H20.6682L16.8847 10.8024ZM42.1271 32.9387C37.8918 33.447 34.0518 30.454 33.5436 26.2752V26.2752C33.3742 25.0328 33.5436 23.7341 34.0518 22.5481C34.2212 22.1528 34.6165 21.927 35.0118 21.927C35.4071 21.927 35.8024 22.1528 36.0283 22.4917C37.0448 24.694 39.36 25.9364 41.8447 25.654C42.2578 25.6223 42.8675 24.9827 43.4525 24.369C43.9073 23.8919 44.3472 23.4305 44.6683 23.2823C45.0636 23.0564 45.5718 23.1693 45.8542 23.3952C46.1365 23.6775 46.3059 24.1858 46.1365 24.5811L42.9742 32.2611C42.8048 32.5999 42.5224 32.8823 42.1836 32.9387H42.1271ZM5.98594 43.4987C3.21886 43.4987 0.903564 41.4093 0.903564 38.9246H0.903611C0.903611 36.3834 3.16247 34.294 5.98599 34.294H31.4541C34.2776 34.294 36.5365 36.3834 36.5365 38.9247C36.5365 41.4093 34.2776 43.4987 31.4541 43.4987H5.98594ZM30.6636 37.7952C30.0424 37.7952 29.5342 38.3034 29.5342 38.9246C29.5342 39.5458 30.0424 40.054 30.6636 40.054C31.2848 40.054 31.793 39.5458 31.793 38.9246C31.793 38.3034 31.2847 37.7952 30.6636 37.7952ZM22.7012 37.7952C22.08 37.7952 21.5718 38.3034 21.5718 38.9246C21.5718 39.5458 22.08 40.054 22.7012 40.054C23.3224 40.054 23.8306 39.5458 23.8306 38.9246C23.8306 38.3034 23.3224 37.7952 22.7012 37.7952ZM14.7953 37.7952C14.1742 37.7952 13.6659 38.3034 13.6659 38.9246H13.6659C13.6659 39.5458 14.1742 40.054 14.7953 40.054C15.4165 40.054 15.9248 39.5458 15.9248 38.9246C15.9248 38.3034 15.4165 37.7952 14.7953 37.7952ZM6.83297 37.7952C6.21183 37.7952 5.70356 38.3034 5.70356 38.9246C5.70356 39.5458 6.21178 40.054 6.83297 40.054C7.45416 40.054 7.96242 39.5458 7.96242 38.9246C7.96242 38.3034 7.45411 37.7952 6.83297 37.7952Z" fill="url(#paint0_linear)" fill-opacity="0.6"/>
<defs>
<linearGradient id="paint0_linear" x1="23.5538" y1="0.920044" x2="23.5538" y2="43.4987" gradientUnits="userSpaceOnUse">
<stop stop-color="white"/>
<stop offset="1" stop-color="white" stop-opacity="0.2"/>
</linearGradient>
</defs>
</svg>
