<svg width="40" height="49" viewBox="0 0 40 49" fill="none" xmlns="http://www.w3.org/2000/svg">
<path opacity="0.6" d="M32.1557 14.2839L31.9156 14.2221C32.2502 15.8358 32.1481 17.4926 31.6062 19.1918C30.7946 21.7347 30.2969 21.7347 29.4349 24.5003C29.2566 24.2557 28.1148 22.5197 29.0896 19.1887C29.8388 15.3347 27.9113 11.4633 25.2346 7.49138C22.6418 3.63742 18.8164 0.731353 15.2091 0H15.0302L15.0926 0.180342C16.2671 6.06174 12.925 9.12631 8.9831 12.5478C5.04119 15.9725 0.731939 19.9163 0.073484 27.5874C-0.774001 37.6784 5.90632 44.7767 9.94337 48.0503C10.1834 48.2306 10.4273 48.2918 10.6957 48.2918C11.1179 48.2918 11.4455 48.1121 11.6888 47.8063C11.9141 47.4732 11.9378 47.0448 11.7505 46.6893C8.56156 38.4416 15.0926 33.1337 17.1694 31.6822C15.453 41.7233 23.8824 49.6172 25.762 48.962C33.4858 46.2862 38.4749 40.8803 39.7118 33.5917C41.0325 25.7758 37.6936 17.1325 32.1557 14.2839Z" fill="url(#paint0_linear)"/>
<defs>
<linearGradient id="paint0_linear" x1="20" y1="0" x2="20" y2="49" gradientUnits="userSpaceOnUse">
<stop stop-color="white"/>
<stop offset="1" stop-color="white" stop-opacity="0"/>
</linearGradient>
</defs>
</svg>
