<svg width="132" height="132" viewBox="0 0 132 132" fill="none" xmlns="http://www.w3.org/2000/svg">
<path opacity="0.5" d="M9.4737 33.3373L65.9356 0.739008L122.398 33.3373V98.5339L65.9356 131.132L9.4737 98.5339V33.3373Z" stroke="#83D9FF" stroke-width="1.28"/>
<path d="M13.0427 35.3978L65.9357 4.85998L118.829 35.3978V96.4734L65.9357 127.011L13.0427 96.4734V35.3978Z" fill="#0060FF" fill-opacity="0.2" stroke="#83D9FF" stroke-width="1.28"/>
<path fill-rule="evenodd" clip-rule="evenodd" d="M65.936 4.12097V9.89034L46.2557 21.0425L46.1553 17.3081L14.0117 34.6162V95.6066L12.3633 97.255V34.6162L65.936 4.12097Z" fill="#00DDFF"/>
<path fill-rule="evenodd" clip-rule="evenodd" d="M65.9351 4.12097V9.89034L85.6154 21.0425L85.7158 17.3081L117.859 34.6162V95.6066L119.508 97.255V34.6162L65.9351 4.12097Z" fill="#00DDFF"/>
<g filter="url(#filter0_d)">
<path fill-rule="evenodd" clip-rule="evenodd" d="M56.0449 116.212H75.8256L65.9353 122.805L56.0449 116.212Z" fill="white"/>
</g>
<path opacity="0.6" fill-rule="evenodd" clip-rule="evenodd" d="M12.6113 12.9956L14.167 11.44L20.7117 17.5291L19.1561 19.0847L12.6113 12.9956Z" fill="#00DDFF"/>
<path opacity="0.6" fill-rule="evenodd" clip-rule="evenodd" d="M12.6113 117.857L14.167 119.413L20.7117 113.323L19.1561 111.768L12.6113 117.857Z" fill="#00DDFF"/>
<path opacity="0.6" fill-rule="evenodd" clip-rule="evenodd" d="M119.711 12.9956L118.155 11.44L111.611 17.5291L113.166 19.0847L119.711 12.9956Z" fill="#00DDFF"/>
<path opacity="0.6" fill-rule="evenodd" clip-rule="evenodd" d="M119.711 117.857L118.155 119.413L111.611 113.323L113.166 111.768L119.711 117.857Z" fill="#00DDFF"/>
<defs>
<filter id="filter0_d" x="51.0449" y="111.212" width="29.7807" height="16.5936" filterUnits="userSpaceOnUse" color-interpolation-filters="sRGB">
<feFlood flood-opacity="0" result="BackgroundImageFix"/>
<feColorMatrix in="SourceAlpha" type="matrix" values="0 0 0 0 0 0 0 0 0 0 0 0 0 0 0 0 0 0 127 0"/>
<feOffset/>
<feGaussianBlur stdDeviation="2.5"/>
<feColorMatrix type="matrix" values="0 0 0 0 0 0 0 0 0 0.866667 0 0 0 0 1 0 0 0 1 0"/>
<feBlend mode="normal" in2="BackgroundImageFix" result="effect1_dropShadow"/>
<feBlend mode="normal" in="SourceGraphic" in2="effect1_dropShadow" result="shape"/>
</filter>
</defs>
</svg>
