<svg width="27" height="33" viewBox="0 0 27 33" fill="none" xmlns="http://www.w3.org/2000/svg">
<g filter="url(#filter0_i)">
<path fill-rule="evenodd" clip-rule="evenodd" d="M3.59333 7.1765C7.9845 8.59406 8.658 12.1367 8.658 14.2628C11.6997 10.7197 11.6997 6.46797 11.6997 0.444458C21.1565 4.34188 18.7927 14.9713 19.1302 18.515C21.4945 16.3889 22.1699 11.4282 22.1699 11.4282C24.8718 12.8457 26.2227 16.3889 26.2227 19.2235C26.2227 26.3098 20.4796 32.3333 13.3881 32.3333C13.3272 32.3333 13.2673 32.3294 13.2069 32.3289C16.1824 32.2337 18.7927 29.4439 18.7927 26.3098C18.4547 23.1209 13.728 20.6406 13.728 17.806C9.3354 19.5778 10.3503 24.5385 10.3503 25.9556C9.33735 24.8928 8.99986 22.7667 8.99986 22.7667C7.98644 23.4752 7.31099 24.8928 7.31099 26.3098C7.31099 29.2885 9.6685 31.9577 12.457 32.2965C5.80084 31.8236 0.55599 26.3347 0.55599 19.2235C0.554043 14.9713 3.59333 12.8457 3.59333 7.1765Z" fill="#00DDFF"/>
</g>
<path d="M16.9965 31.2723C22.043 29.6631 25.7227 24.7886 25.7227 19.2235C25.7227 17.8794 25.401 16.3586 24.7581 15.0096C24.2235 13.8878 23.4786 12.9084 22.5367 12.2393C22.5306 12.2704 22.5242 12.3024 22.5176 12.3352C22.415 12.8454 22.2528 13.5489 22.0145 14.3216C21.5449 15.8442 20.7529 17.7282 19.4645 18.8868L18.7265 19.5504L18.6324 18.5624C18.5697 17.9034 18.5958 17.0056 18.6253 15.9957C18.6371 15.5911 18.6494 15.1685 18.6567 14.7361C18.6829 13.191 18.6506 11.4459 18.3423 9.69931C17.7612 6.40785 16.209 3.13463 12.1996 1.21377C12.1956 6.80629 12.0833 11.0405 9.03738 14.5885L8.158 15.6128V14.2628C8.158 13.2462 7.99593 11.9206 7.33237 10.6915C6.74729 9.60771 5.75797 8.57098 4.07764 7.88461C3.96294 10.4455 3.23822 12.2848 2.53347 13.9284C2.48083 14.0512 2.42848 14.1726 2.37662 14.2928C1.67021 15.9304 1.05514 17.3564 1.05599 19.2233V19.2235C1.05599 24.6655 4.23824 29.1079 8.74912 30.9336C7.56679 29.7283 6.81099 28.0684 6.81099 26.3098C6.81099 24.7572 7.54499 23.1738 8.71337 22.3569L9.36838 21.8989L9.49362 22.6879L9.49364 22.688L9.49365 22.6881L9.49368 22.6883L9.49369 22.6883L9.49418 22.6914L9.49669 22.7062C9.49903 22.7198 9.50274 22.7409 9.5079 22.7686C9.51822 22.8241 9.5343 22.906 9.55676 23.0081C9.59827 23.197 9.6611 23.4529 9.74892 23.7382C9.74994 23.1748 9.78624 22.5554 9.89985 21.9251C10.2163 20.1693 11.1417 18.31 13.541 17.3423L14.228 17.0651V17.806C14.228 18.3746 14.4655 18.9634 14.8894 19.6071C15.314 20.2518 15.889 20.8992 16.5069 21.5923L16.5264 21.6143C17.1277 22.2888 17.7656 23.0044 18.2729 23.7542C18.7868 24.5138 19.1933 25.3459 19.2899 26.2571L19.2927 26.2834V26.3098C19.2927 28.2376 18.3827 30.0499 16.9965 31.2723Z" stroke="#00DDFF"/>
<defs>
<filter id="filter0_i" x="0.555664" y="0.444458" width="25.6667" height="31.8889" filterUnits="userSpaceOnUse" color-interpolation-filters="sRGB">
<feFlood flood-opacity="0" result="BackgroundImageFix"/>
<feBlend mode="normal" in="SourceGraphic" in2="BackgroundImageFix" result="shape"/>
<feColorMatrix in="SourceAlpha" type="matrix" values="0 0 0 0 0 0 0 0 0 0 0 0 0 0 0 0 0 0 127 0" result="hardAlpha"/>
<feOffset/>
<feGaussianBlur stdDeviation="9"/>
<feComposite in2="hardAlpha" operator="arithmetic" k2="-1" k3="1"/>
<feColorMatrix type="matrix" values="0 0 0 0 1 0 0 0 0 1 0 0 0 0 1 0 0 0 1 0"/>
<feBlend mode="normal" in2="shape" result="effect1_innerShadow"/>
</filter>
</defs>
</svg>
