<svg width="32" height="27" viewBox="0 0 32 27" fill="none" xmlns="http://www.w3.org/2000/svg">
<g filter="url(#filter0_i)">
<path fill-rule="evenodd" clip-rule="evenodd" d="M3.82701e-06 9.31997C-8.3969e-05 5.52705 2.29854 2.11246 5.8127 0.685242C9.32685 -0.741975 13.3554 0.102942 16 2.82185C18.6446 0.102942 22.6731 -0.741975 26.1873 0.685242C29.7014 2.11246 32.0001 5.52705 32 9.31997C32.0072 12.2721 30.6082 15.0512 28.2325 16.8037L17.6864 25.4938C16.4751 26.4922 14.7185 26.4647 13.5392 25.4288L3.2672 16.4058C1.19194 14.6371 -0.00246735 12.0467 3.82701e-06 9.31997Z" fill="#FF7217"/>
</g>
<path d="M0.500004 9.32043V9.31996C0.499921 5.73054 2.67522 2.49914 6.00084 1.14849C9.32646 -0.202151 13.1389 0.597436 15.6416 3.17047L16 3.53896L16.3584 3.17047C18.8611 0.597436 22.6735 -0.202151 25.9991 1.14849C29.3248 2.49914 31.5001 5.73054 31.5 9.31996L31.5 9.3212C31.5068 12.1141 30.1832 14.7433 27.9357 16.4013L27.9249 16.4093L27.9145 16.4178L17.3684 25.108L17.3684 25.108C16.3464 25.9504 14.8642 25.9272 13.8692 25.0531L3.59718 16.0302L3.59721 16.0301L3.59153 16.0253C1.62785 14.3517 0.497665 11.9005 0.500004 9.32043Z" stroke="#FF7217"/>
<defs>
<filter id="filter0_i" x="0" y="0" width="32" height="26.2246" filterUnits="userSpaceOnUse" color-interpolation-filters="sRGB">
<feFlood flood-opacity="0" result="BackgroundImageFix"/>
<feBlend mode="normal" in="SourceGraphic" in2="BackgroundImageFix" result="shape"/>
<feColorMatrix in="SourceAlpha" type="matrix" values="0 0 0 0 0 0 0 0 0 0 0 0 0 0 0 0 0 0 127 0" result="hardAlpha"/>
<feOffset/>
<feGaussianBlur stdDeviation="9"/>
<feComposite in2="hardAlpha" operator="arithmetic" k2="-1" k3="1"/>
<feColorMatrix type="matrix" values="0 0 0 0 1 0 0 0 0 1 0 0 0 0 1 0 0 0 1 0"/>
<feBlend mode="normal" in2="shape" result="effect1_innerShadow"/>
</filter>
</defs>
</svg>
