<svg width="32" height="32" viewBox="0 0 32 32" fill="none" xmlns="http://www.w3.org/2000/svg">
<rect x="0.5" y="0.5" width="31" height="31" fill="url(#paint0_linear)" stroke="url(#paint1_linear)"/>
<g filter="url(#filter0_f)">
<circle r="10" transform="matrix(-1 0 0 1 16 17)" fill="#00C5EC" fill-opacity="0.2"/>
</g>
<path d="M21.377 12.575C21.787 12.1683 22.1124 11.6845 22.3345 11.1514C22.5566 10.6183 22.671 10.0465 22.671 9.469V7.763H23.996V6H8V7.763H9.325V9.47C9.325 10.637 9.789 11.751 10.618 12.576L13.601 15.545C13.851 15.795 13.851 16.203 13.601 16.453L10.618 19.426C10.2085 19.833 9.88343 20.3169 9.66154 20.85C9.43964 21.383 9.32527 21.9546 9.325 22.532V24.238H8V26H24V24.237H22.671V22.53C22.671 21.363 22.206 20.249 21.377 19.424L18.395 16.451C18.2748 16.3305 18.2073 16.1672 18.2073 15.997C18.2073 15.8268 18.2748 15.6635 18.395 15.543L21.377 12.573V12.575ZM17.298 17.544L18.882 19.118H13.118L14.702 17.544C15.1127 17.1333 15.3434 16.5763 15.3434 15.9955C15.3434 15.4147 15.1127 14.8577 14.702 14.447L11.719 11.474C11.453 11.2107 11.242 10.8971 11.0983 10.5516C10.9546 10.206 10.8811 9.83527 10.882 9.461V7.548H21.122V9.47C21.1225 9.84421 21.0488 10.2148 20.9051 10.5603C20.7614 10.9059 20.5507 11.2195 20.285 11.483L17.303 14.457C16.443 15.308 16.443 16.694 17.298 17.545V17.544Z" fill="url(#paint2_linear)"/>
<defs>
<filter id="filter0_f" x="2" y="3" width="28" height="28" filterUnits="userSpaceOnUse" color-interpolation-filters="sRGB">
<feFlood flood-opacity="0" result="BackgroundImageFix"/>
<feBlend mode="normal" in="SourceGraphic" in2="BackgroundImageFix" result="shape"/>
<feGaussianBlur stdDeviation="2" result="effect1_foregroundBlur"/>
</filter>
<linearGradient id="paint0_linear" x1="0" y1="20.0001" x2="32" y2="20.0001" gradientUnits="userSpaceOnUse">
<stop stop-color="#001F6D"/>
<stop offset="1" stop-color="#001F6D" stop-opacity="0"/>
</linearGradient>
<linearGradient id="paint1_linear" x1="16" y1="0" x2="16" y2="32" gradientUnits="userSpaceOnUse">
<stop stop-color="#00DDFF" stop-opacity="0.5"/>
<stop offset="1" stop-color="#00DDFF"/>
</linearGradient>
<linearGradient id="paint2_linear" x1="16" y1="6" x2="16" y2="26" gradientUnits="userSpaceOnUse">
<stop stop-color="white"/>
<stop offset="1" stop-color="white" stop-opacity="0.2"/>
</linearGradient>
</defs>
</svg>
