<svg width="88" height="98" viewBox="0 0 88 98" fill="none" xmlns="http://www.w3.org/2000/svg">
<rect x="5.38867" y="71.6111" width="3.88889" height="25.8889" fill="#004A8E" stroke="#00DDFF"/>
<rect x="78.7227" y="71.6111" width="3.88889" height="25.8889" fill="#004A8E" stroke="#00DDFF"/>
<rect x="42.0557" y="87.5" width="3.88889" height="10" fill="#004A8E" stroke="#00DDFF"/>
<mask id="path-4-inside-1" fill="white">
<path d="M88 50.3334C88 74.6339 68.3005 94.3334 44 94.3334C19.6995 94.3334 0 74.6339 0 50.3334C0 26.0328 19.6995 6.33337 44 6.33337C68.3005 6.33337 88 26.0328 88 50.3334Z"/>
</mask>
<path d="M88 50.3334C88 74.6339 68.3005 94.3334 44 94.3334C19.6995 94.3334 0 74.6339 0 50.3334C0 26.0328 19.6995 6.33337 44 6.33337C68.3005 6.33337 88 26.0328 88 50.3334Z" fill="#001F6D"/>
<path d="M87 50.3334C87 74.0816 67.7482 93.3334 44 93.3334V95.3334C68.8528 95.3334 89 75.1862 89 50.3334H87ZM44 93.3334C20.2518 93.3334 1 74.0816 1 50.3334H-1C-1 75.1862 19.1472 95.3334 44 95.3334V93.3334ZM1 50.3334C1 26.5851 20.2518 7.33337 44 7.33337V5.33337C19.1472 5.33337 -1 25.4806 -1 50.3334H1ZM44 7.33337C67.7482 7.33337 87 26.5851 87 50.3334H89C89 25.4806 68.8528 5.33337 44 5.33337V7.33337Z" fill="#00DDFF" mask="url(#path-4-inside-1)"/>
<rect x="33" width="19.5556" height="4.88889" rx="2.44444" fill="#00DDFF"/>
</svg>
