<svg width="24" height="24" viewBox="0 0 24 24" fill="none" xmlns="http://www.w3.org/2000/svg">
<circle cx="12" cy="12" r="12" fill="#000F4D"/>
<path fill-rule="evenodd" clip-rule="evenodd" d="M24 12C24 5.37258 18.6274 0 12 0C5.37258 0 0 5.37258 0 12C0 18.6274 5.37258 24 12 24C18.6274 24 24 18.6274 24 12ZM1 12C1 5.92487 5.92487 1 12 1C18.0751 1 23 5.92487 23 12C23 18.0751 18.0751 23 12 23C5.92487 23 1 18.0751 1 12Z" fill="#00DDFF"/>
<path fill-rule="evenodd" clip-rule="evenodd" d="M17.2269 8.91843C17.4445 9.08986 17.6263 9.29912 17.7711 9.54504C17.916 9.79113 17.9915 10.0663 18 10.3714V16.2891C17.9844 16.7734 17.8165 17.1753 17.4959 17.4959C17.1753 17.8165 16.7734 17.9846 16.2891 18H7.71094C7.22662 17.9844 6.82383 17.8165 6.50407 17.4959C6.18348 17.1753 6.0154 16.7734 6 16.2891V10.3715C6 10.0672 6.07801 9.7913 6.23404 9.54521C6.39007 9.29912 6.59749 9.09002 6.85547 8.9186L11.1445 6.25798C11.4104 6.08655 11.7085 6 12.0412 6C12.3728 6 12.672 6.08571 12.9378 6.25781L17.2269 8.91843ZM10.4996 9H13.4995L12.4998 11.6664H14.4999L10.9999 17L11.6501 13.2664H9.49993L10.4996 9Z" fill="white"/>
</svg>
