<svg width="24" height="24" viewBox="0 0 24 24" fill="none" xmlns="http://www.w3.org/2000/svg">
<path fill-rule="evenodd" clip-rule="evenodd" d="M10.7109 3.4962C10.973 2.89141 11.5692 2.5 12.2284 2.5C12.8875 2.5 13.4837 2.89141 13.7458 3.4962L19.1599 15.9905C19.7322 17.3111 18.7641 18.7857 17.3248 18.7857H7.13187C5.69258 18.7857 4.72448 17.3111 5.29675 15.9905L5.49693 15.5286H13.8571C14.1569 15.5286 14.3999 15.2855 14.3999 14.9857C14.3999 14.6859 14.1569 14.4428 13.8571 14.4428H5.96741L7.14357 11.7286H12.7713C13.0712 11.7286 13.3142 11.4856 13.3142 11.1858C13.3142 10.8859 13.0712 10.6429 12.7713 10.6429H7.61405L9.02552 7.38566H11.6856C11.9854 7.38566 12.2285 7.14261 12.2285 6.8428C12.2285 6.54299 11.9854 6.29994 11.6856 6.29994H9.496L10.7109 3.4962ZM2.45703 20.6857C2.45703 20.236 2.8216 19.8714 3.27132 19.8714H21.1856C21.6353 19.8714 21.9999 20.236 21.9999 20.6857C21.9999 21.1354 21.6353 21.5 21.1856 21.5H3.27132C2.8216 21.5 2.45703 21.1354 2.45703 20.6857Z" fill="#FF7217"/>
</svg>
