<svg width="24" height="24" viewBox="0 0 24 24" fill="none" xmlns="http://www.w3.org/2000/svg">
<circle cx="12" cy="12" r="12" fill="#000F4D"/>
<path fill-rule="evenodd" clip-rule="evenodd" d="M24 12C24 5.37258 18.6274 0 12 0C5.37258 0 0 5.37258 0 12C0 18.6274 5.37258 24 12 24C18.6274 24 24 18.6274 24 12ZM1 12C1 5.92487 5.92487 1 12 1C18.0751 1 23 5.92487 23 12C23 18.0751 18.0751 23 12 23C5.92487 23 1 18.0751 1 12Z" fill="#00DDFF"/>
<path fill-rule="evenodd" clip-rule="evenodd" d="M17.0059 10.9806C17.9099 10.9684 18.3364 9.85176 17.6632 9.24044L12.803 4.82638C12.4126 4.47176 11.8138 4.48139 11.4349 4.84841L6.87848 9.26247C6.23667 9.88423 6.67082 10.9686 7.55936 10.9806H7.36654V16.2179C7.36654 17.3225 8.26197 18.2179 9.36654 18.2179H15.3178C16.4224 18.2179 17.3178 17.3225 17.3178 16.2179V10.9806H17.0059Z" fill="white"/>
<path d="M11.1072 14.4693C11.0062 14.1887 10.9548 13.8933 10.955 13.5956C10.9547 13.169 11.0607 12.7487 11.2636 12.3717C11.4665 11.9947 11.7602 11.6724 12.1189 11.4331C12.1272 11.6156 12.1554 11.7932 12.1998 11.9638C12.3521 12.5422 12.7009 13.0518 13.1883 13.4078C13.3492 13.0735 13.4359 12.7093 13.4425 12.3394C13.851 12.593 14.1757 12.9581 14.377 13.3903C14.5784 13.8225 14.6476 14.303 14.5763 14.7733C14.505 15.2436 14.2962 15.6832 13.9754 16.0386C13.6547 16.3941 13.2358 16.6499 12.7698 16.7749C12.3039 16.8999 11.8111 16.8887 11.3515 16.7427C10.892 16.5966 10.4855 16.322 10.1818 15.9524C9.87799 15.5827 9.69006 15.1341 9.64087 14.6611C9.59168 14.1881 9.68338 13.7112 9.90476 13.2886C10.1641 13.8007 10.5864 14.2154 11.1072 14.4693L11.1072 14.4693Z" fill="#000F4D"/>
</svg>
