<svg width="24" height="24" viewBox="0 0 24 24" fill="none" xmlns="http://www.w3.org/2000/svg">
<rect width="24" height="24" rx="4" fill="#DEFBFF"/>
<path fill-rule="evenodd" clip-rule="evenodd" d="M17.4483 9.56452H18.762C18.9496 9.56452 19.0747 9.82258 18.9496 10.0806V10.4677C18.9496 10.7258 18.762 10.9194 18.5743 10.9194L18.0739 11.0484C18.2615 11.4355 18.3241 11.8871 18.3241 12.4032L18.5118 15.0484V15.3065V15.4355V18.6613C18.5118 19.1129 18.2615 19.5 17.8862 19.5H16.8853C16.5726 19.5 16.2598 19.1129 16.2598 18.6613V17.629H7.68984V18.6613C7.68984 19.1129 7.43962 19.5 7.0643 19.5H6.06343C5.75065 19.5 5.43788 19.1129 5.43788 18.6613V15.0484L5.62554 12.4032C5.62554 11.8871 5.6881 11.4355 5.87576 11.0484L5.37533 10.9194C5.18766 10.9194 5.06255 10.7258 5 10.4032V10.0161C5 9.75806 5.18766 9.56452 5.37533 9.56452H6.75152C6.81408 9.56452 6.87663 9.62903 6.87663 9.62903L7.50218 7.37097C7.68984 6.33871 8.25283 5.5 9.31626 5.5H14.8836C15.8219 5.5 16.51 6.08065 16.6977 7.37097L17.2607 9.62903C17.3232 9.56452 17.3858 9.56452 17.4483 9.56452ZM8.76144 7.72336L8.34875 9.12162L8.23083 9.85115C8.23083 10.4591 8.76144 10.8846 9.23308 10.8846H15.3055C15.7182 10.8846 16.2488 10.3983 16.3078 9.85115L16.1309 9.06083L15.7182 7.66256C15.7182 7.50045 15.6658 7.41939 15.5959 7.31131C15.561 7.25727 15.5217 7.19648 15.4824 7.11542H9.05621C9.01357 7.17405 8.97777 7.21855 8.94719 7.25658C8.85092 7.37627 8.80618 7.43189 8.76144 7.66256V7.72336Z" fill="#00115B"/>
<path fill-rule="evenodd" clip-rule="evenodd" d="M7.96139 15.7308C7.24872 15.7308 6.61523 15.2873 6.61523 14.6538C6.61523 14.0837 7.24872 13.5769 7.96139 13.5769C8.67406 13.5769 9.30754 14.0203 9.30754 14.6538C9.30754 15.224 8.75324 15.7308 7.96139 15.7308ZM14.1536 15.2693C14.1536 15.5 14.0287 15.7308 13.8414 15.7308H10.158C9.97073 15.7308 9.84587 15.5 9.84587 15.2693V14.0385C9.84587 13.8077 9.97073 13.5769 10.158 13.5769H13.8414C14.0287 13.5769 14.1536 13.8077 14.1536 14.0385V15.2693ZM14.6921 14.6539C14.6921 15.2874 15.3256 15.7308 16.0383 15.7308C16.7509 15.7308 17.3844 15.224 17.3844 14.6539C17.3844 14.0204 16.7509 13.5769 16.0383 13.5769C15.3256 13.5769 14.6921 14.0837 14.6921 14.6539Z" fill="#DEFBFF"/>
</svg>
