<svg width="24" height="24" viewBox="0 0 24 24" fill="none" xmlns="http://www.w3.org/2000/svg">
<circle cx="12" cy="12" r="12" fill="#000F4D"/>
<path fill-rule="evenodd" clip-rule="evenodd" d="M24 12C24 5.37258 18.6274 0 12 0C5.37258 0 0 5.37258 0 12C0 18.6274 5.37258 24 12 24C18.6274 24 24 18.6274 24 12ZM1 12C1 5.92487 5.92487 1 12 1C18.0751 1 23 5.92487 23 12C23 18.0751 18.0751 23 12 23C5.92487 23 1 18.0751 1 12Z" fill="#00DDFF"/>
<path fill-rule="evenodd" clip-rule="evenodd" d="M10.6875 5.125H13.3125V6.875L15.9375 6.875V8.1875H8.5V6.875L10.6875 6.875V5.125ZM8.5 8.1875H5V18.25H19V8.1875H15.9375V8.625H8.5V8.1875Z" fill="white"/>
<path fill-rule="evenodd" clip-rule="evenodd" d="M6.3125 13.4375V9.9375H7.1875V13.4375H6.3125ZM7.625 13.4375V9.9375H8.5V13.4375H7.625ZM8.9375 9.9375V13.4375H9.8125V9.9375H8.9375ZM11.125 13.4375V9.9375H12H12.875V13.4375H12H11.125ZM14.1875 13.4375V9.9375H15.0625V13.4375H14.1875ZM15.5 9.9375V13.4375H16.375V9.9375H15.5ZM16.8125 13.4375V9.9375H17.6875V13.4375H16.8125ZM6.3125 13.875V17.375H7.1875V13.875H6.3125ZM7.625 17.375V13.875H8.5V17.375H7.625ZM8.9375 13.875V17.375H9.8125V13.875H8.9375ZM11.125 17.375V13.875H12H12.875V17.375H12H11.125ZM14.1875 17.375V13.875H15.0625V17.375H14.1875ZM15.5 13.875V17.375H16.375V13.875H15.5ZM16.8125 17.375V13.875H17.6875V17.375H16.8125Z" fill="#000F4D"/>
</svg>
