<svg width="24" height="24" viewBox="0 0 24 24" fill="none" xmlns="http://www.w3.org/2000/svg">
<rect width="24" height="24" rx="4" fill="#DEFBFF"/>
<path fill-rule="evenodd" clip-rule="evenodd" d="M16.8381 9.78222C16.8301 9.78248 16.822 9.78273 16.814 9.78273L7.75781 9.78281L7.56904 9.78273C7.57618 9.50453 7.59127 9.24687 7.70157 9.00369C7.78816 8.8128 7.93246 8.68299 8.14266 8.62385L8.26886 8.58868C8.43361 8.54222 8.45536 8.51973 8.45966 8.35499C8.49407 7.01145 9.51057 5.9044 10.8479 5.51367C10.9315 5.48931 10.9684 5.52822 10.9911 5.58588C11.0063 5.62457 11.022 5.66318 11.0377 5.70182C11.0922 5.83621 11.1469 5.9709 11.1824 6.10992C11.2774 6.48152 11.3652 6.85478 11.4531 7.22804C11.4874 7.37379 11.5217 7.51955 11.5565 7.6652L11.5569 7.66716C11.5655 7.7034 11.5742 7.73972 11.6057 7.77679V7.67353C11.6057 7.48743 11.6057 7.30133 11.6056 7.11523C11.6054 6.49886 11.6051 5.8825 11.6074 5.26613C11.6077 5.18372 11.6182 5.09555 11.6503 5.0203C11.7086 4.88318 11.8258 4.80637 11.9834 4.80334C12.1769 4.7996 12.3708 4.79859 12.5644 4.80272C12.7628 4.80692 12.9171 4.94435 12.9399 5.13407C12.947 5.19271 12.9468 5.25231 12.9465 5.31172C12.9465 5.32247 12.9465 5.33321 12.9465 5.34395C12.9464 5.98368 12.9459 6.62342 12.9454 7.26316C12.9453 7.42239 12.9452 7.58161 12.9451 7.74084C12.9451 7.76178 12.9451 7.78271 12.9621 7.80831C12.9644 7.80149 12.9667 7.7947 12.9691 7.78791C12.9745 7.77222 12.98 7.75653 12.9839 7.74045C13.0262 7.56564 13.0682 7.39077 13.1102 7.21589C13.2141 6.78371 13.3179 6.35152 13.4259 5.92027C13.4498 5.8247 13.4919 5.733 13.5337 5.64188C13.5435 5.62053 13.5533 5.5992 13.5628 5.57787C13.5867 5.5241 13.6227 5.4883 13.6999 5.51305C14.3012 5.70588 15.4043 6.07529 15.9193 7.49159L15.9202 7.494C15.9443 7.56046 15.9676 7.62839 15.9891 7.69952C16.0483 7.89679 16.0662 8.10703 16.0839 8.31427C16.0859 8.33741 16.0878 8.36051 16.0899 8.38355C16.0999 8.49825 16.1457 8.55841 16.2565 8.58237C16.266 8.58445 16.2754 8.58681 16.2848 8.58917C16.2965 8.59213 16.3083 8.59509 16.3203 8.59747C16.6464 8.66214 16.8403 8.85894 16.9087 9.16368C16.9357 9.28412 16.9495 9.40733 16.9634 9.53053C16.9695 9.58477 16.9756 9.63901 16.9828 9.693C16.9917 9.75993 16.9641 9.79215 16.8906 9.7832C16.8733 9.78111 16.8557 9.78167 16.8381 9.78222ZM18.3448 17.2769C18.8333 17.5072 19.0856 17.8934 19.1557 18.3884C19.1631 18.4408 19.1734 18.4927 19.1837 18.5448C19.1892 18.5726 19.1947 18.6005 19.1998 18.6284V19.2H13.2777C13.248 19.0692 13.2187 18.9383 13.1894 18.8073C13.107 18.4397 13.0246 18.072 12.934 17.7062C12.9034 17.5827 12.9062 17.5051 13.0173 17.4091C13.3442 17.1274 13.3287 16.8789 13.0088 16.5908C12.8472 16.4453 12.6775 16.3443 12.4494 16.3579C12.4032 16.3549 12.3552 16.3554 12.3035 16.3631C12.2702 16.3681 12.2365 16.3699 12.2024 16.3706C12.1873 16.3702 12.1721 16.3697 12.1568 16.3692C12.1151 16.3677 12.0734 16.3663 12.032 16.3669L12.0124 16.3674C12.0094 16.3673 12.0064 16.3672 12.0033 16.3672C11.9856 16.3668 11.9678 16.3664 11.9502 16.3666L11.9485 16.3667C11.9168 16.3672 11.8791 16.368 11.8552 16.3832C11.6657 16.5049 11.4978 16.6461 11.3997 16.8447C11.3486 16.9479 11.3482 17.0518 11.4242 17.144C11.502 17.2381 11.5816 17.3334 11.6749 17.4138C11.7422 17.4716 11.7508 17.5178 11.7244 17.5966C11.5475 18.1221 11.3902 18.6524 11.3133 19.1999H4.79997C4.7998 19.0841 4.7998 18.9685 4.7998 18.8529C4.80861 18.8043 4.81828 18.7558 4.82796 18.7072C4.84883 18.6025 4.86969 18.4978 4.8818 18.3923C4.88198 18.3909 4.8822 18.3895 4.88241 18.3881C4.88275 18.3858 4.8831 18.3835 4.88335 18.3812C4.94304 17.8316 5.27043 17.4624 5.8032 17.2497C6.18117 17.0988 6.57251 16.9743 6.96311 16.8521C7.22713 16.7696 7.49269 16.691 7.75824 16.6124C8.12825 16.5029 8.49824 16.3935 8.86397 16.2732C9.27351 16.1385 9.63837 15.9226 9.93402 15.6209C10.1069 15.4444 10.1971 15.2351 10.1875 14.9969C10.1793 14.7971 10.1676 14.5965 10.1375 14.3989C10.1161 14.2585 10.0284 14.1404 9.91271 14.0441C9.88757 14.0231 9.86315 14.0013 9.83872 13.9794C9.78594 13.9322 9.73316 13.8849 9.6733 13.8473C9.34911 13.6432 9.19743 13.3372 9.0746 13.0122C9.07162 13.0043 9.06859 12.9964 9.06556 12.9885C9.05134 12.9515 9.03708 12.9143 9.02721 12.8764C8.98704 12.7216 8.89997 12.6202 8.7482 12.5203C8.36941 12.271 8.24855 11.895 8.28914 11.4761C8.30816 11.2799 8.38802 11.1013 8.50961 10.9377C8.53437 10.9045 8.54634 10.8571 8.54749 10.8158C8.55058 10.7028 8.55009 10.5896 8.54959 10.4729C8.5494 10.4287 8.54921 10.3839 8.54921 10.3385H15.7546V10.3386C15.7546 10.3795 15.7547 10.4208 15.7549 10.4622C15.7553 10.5671 15.7557 10.673 15.7535 10.7789C15.752 10.8461 15.7635 10.8965 15.8253 10.9472C15.955 11.0533 16.0064 11.2036 16.0284 11.3562C16.0728 11.6648 16.0095 11.9595 15.849 12.2332C15.7553 12.3927 15.6175 12.5118 15.4345 12.5877C15.3964 12.6035 15.3661 12.6527 15.35 12.6926C15.3142 12.7808 15.2806 12.8698 15.247 12.9588C15.2044 13.0717 15.1618 13.1845 15.1148 13.2958C15.0227 13.5143 14.8706 13.6983 14.6517 13.8155C14.1811 14.0671 14.0684 14.4672 14.0871 14.9228C14.1054 15.3621 14.3499 15.6846 14.7353 15.9249C15.0162 16.1002 15.3283 16.2184 15.6529 16.2973C16.239 16.4394 16.7952 16.6533 17.3516 16.8673C17.3803 16.8784 17.4091 16.8895 17.4378 16.9005C17.7438 17.018 18.0498 17.138 18.3448 17.2769Z" fill="#00115B"/>
</svg>
