<svg width="24" height="24" viewBox="0 0 24 24" fill="none" xmlns="http://www.w3.org/2000/svg">
<circle cx="12" cy="12" r="12" fill="#000F4D"/>
<path fill-rule="evenodd" clip-rule="evenodd" d="M24 12C24 5.37258 18.6274 0 12 0C5.37258 0 0 5.37258 0 12C0 18.6274 5.37258 24 12 24C18.6274 24 24 18.6274 24 12ZM1 12C1 5.92487 5.92487 1 12 1C18.0751 1 23 5.92487 23 12C23 18.0751 18.0751 23 12 23C5.92487 23 1 18.0751 1 12Z" fill="#00DDFF"/>
<path d="M8.79654 6.34572V8.19143H8.74601C8.64496 8.19143 8.39514 8.23687 8.26321 8.27946C7.69479 8.46261 7.24848 8.91694 7.07725 9.4877C6.99585 9.76171 7.00006 9.55158 7.00006 13.2515C7.00006 17.0083 6.99445 16.7683 7.09129 17.0608C7.18673 17.3504 7.31164 17.5535 7.53199 17.7764C7.78883 18.0362 8.02742 18.1711 8.40917 18.2761L8.52286 18.3074L11.9474 18.3102C15.7467 18.3159 15.4744 18.3216 15.7719 18.2208C16.3881 18.0121 16.8344 17.4995 16.9747 16.8379C16.9986 16.7229 17 16.5497 17 13.253C17 9.95622 16.9986 9.78301 16.9747 9.67085C16.8947 9.30738 16.7333 8.99787 16.4919 8.74799C16.1804 8.42712 15.7761 8.23545 15.327 8.19711L15.2105 8.18717V4.5H12.6281V4.7513C12.6281 5.03526 12.6084 5.15594 12.5495 5.2681C12.492 5.37317 12.3853 5.47255 12.266 5.53218C12.1734 5.57903 12.1467 5.58613 12.033 5.59039C11.9292 5.59465 11.8885 5.59039 11.8155 5.56484C11.6302 5.50237 11.4913 5.36749 11.4197 5.18434C11.3902 5.11193 11.3874 5.07359 11.3818 4.80099L11.3762 4.5H8.79654V6.34572ZM12.3474 11.2582C12.3474 12.1186 12.447 12.5431 12.7432 12.9505C12.7825 13.0045 12.819 13.0471 12.826 13.0471C12.833 13.0471 12.8386 13.0059 12.8386 12.9562C12.8386 12.5999 13.0281 12.2733 13.3312 12.1044C13.4281 12.0504 13.6176 11.9681 13.6442 11.9681C13.6555 11.9681 13.6667 12.0305 13.6779 12.1555C13.6863 12.2591 13.7004 12.367 13.7074 12.394C13.7986 12.7362 13.7972 12.7319 14.0162 13.2359C14.1018 13.4333 14.1579 13.6079 14.1579 13.6761C14.1579 13.6959 14.1649 13.7172 14.1719 13.7215C14.1902 13.7328 14.1902 14.1361 14.1719 14.1474C14.1635 14.1517 14.1579 14.1716 14.1579 14.19C14.1579 14.234 14.0849 14.5095 14.0414 14.6259C13.9502 14.8743 13.8042 15.0944 13.5895 15.3131C13.2976 15.6084 12.9144 15.8313 12.572 15.9023C12.3292 15.952 12.2421 15.9619 12.0106 15.9619C11.779 15.9619 11.692 15.952 11.4492 15.9023C11.1067 15.8313 10.7235 15.6084 10.4316 15.3131C10.2169 15.0944 10.0709 14.8743 9.97969 14.6259C9.93618 14.5095 9.8632 14.234 9.8632 14.19C9.8632 14.1716 9.85759 14.1517 9.84917 14.1474C9.84074 14.1417 9.83513 14.0438 9.83513 13.899C9.83513 13.7541 9.84074 13.6562 9.84917 13.6505C9.85759 13.6462 9.8632 13.6278 9.8632 13.6093C9.8632 13.5483 9.92215 13.3523 9.97688 13.2246C10.0892 12.9676 10.2183 12.8 10.3993 12.6765C10.4428 12.6453 10.485 12.6212 10.4906 12.6212C10.4962 12.6212 10.52 12.6992 10.5425 12.7958C10.6211 13.138 10.6857 13.3083 10.8106 13.5014C10.8723 13.598 10.979 13.7115 10.9944 13.6973C10.9986 13.6917 11.0014 13.4844 11 13.2359C11 12.986 11.0057 12.7376 11.0127 12.6836C11.0197 12.6297 11.0337 12.5274 11.0421 12.4579C11.1193 11.8602 11.4407 11.3448 11.9207 11.0523C12.0569 10.9685 12.3179 10.8464 12.3376 10.8564C12.3432 10.8592 12.3474 11.0395 12.3474 11.2582ZM8.53268 18.5857C8.45128 18.6013 8.3404 18.6652 8.28847 18.7248C8.21128 18.8142 8.17198 18.9179 8.17198 19.0386C8.17198 19.1309 8.179 19.1593 8.2183 19.2402C8.27023 19.3481 8.33339 19.4106 8.44567 19.4631L8.52286 19.5H15.4842L15.5628 19.4631C15.7551 19.3708 15.8702 19.1564 15.8295 18.9647C15.7846 18.756 15.6625 18.6283 15.466 18.5857C15.3761 18.5672 8.62952 18.5658 8.53268 18.5857Z" fill="white"/>
</svg>
