<svg width="24" height="24" viewBox="0 0 24 24" fill="none" xmlns="http://www.w3.org/2000/svg">
<circle cx="12" cy="12" r="12" fill="#000F4D"/>
<path fill-rule="evenodd" clip-rule="evenodd" d="M24 12C24 5.37258 18.6274 0 12 0C5.37258 0 0 5.37258 0 12C0 18.6274 5.37258 24 12 24C18.6274 24 24 18.6274 24 12ZM1 12C1 5.92487 5.92487 1 12 1C18.0751 1 23 5.92487 23 12C23 18.0751 18.0751 23 12 23C5.92487 23 1 18.0751 1 12Z" fill="#00DDFF"/>
<path fill-rule="evenodd" clip-rule="evenodd" d="M17.5 10.5L12 5.5L6.5 10.5H17.5ZM11 16.5V11H13V16.5H11ZM6.5 18V17H17.5V18H6.5ZM10 11H8V16.5H10V11ZM14 11H16V16.5H14V11Z" fill="white"/>
</svg>
