<svg width="24" height="24" viewBox="0 0 24 24" fill="none" xmlns="http://www.w3.org/2000/svg">
<circle cx="12" cy="12" r="12" fill="#000F4D"/>
<path fill-rule="evenodd" clip-rule="evenodd" d="M24 12C24 5.37258 18.6274 0 12 0C5.37258 0 0 5.37258 0 12C0 18.6274 5.37258 24 12 24C18.6274 24 24 18.6274 24 12ZM1 12C1 5.92487 5.92487 1 12 1C18.0751 1 23 5.92487 23 12C23 18.0751 18.0751 23 12 23C5.92487 23 1 18.0751 1 12Z" fill="#00DDFF"/>
<path d="M7.62746 16.0245H3V9.67555H4.94595V14.5407H7.61189L7.62746 16.0245ZM10.2311 9.67555L12.3522 13.128L12.2899 11.6776V9.67555H14.1542V16.0245H12.3211L10.2 12.5553L10.2973 14.0057V16.0245H8.43308V9.67555H10.2311ZM21 12.5553V16.0245H19.7468L19.6806 15.4059C19.4418 15.6503 19.1594 15.8404 18.8504 15.9646C18.5414 16.0889 18.2122 16.1448 17.8826 16.129C16.0378 16.0621 15.0843 14.9921 15.0221 12.919C15.1077 10.7539 16.1364 9.61424 18.1083 9.5C19.6936 9.56966 20.6355 10.3527 20.9338 11.849H19.0696C19.0123 11.6147 18.8824 11.4084 18.7013 11.2641C18.5202 11.1197 18.2987 11.0459 18.0733 11.0548C17.3261 11.1008 16.9485 11.7236 16.9485 12.919C16.9485 14.1144 17.3689 14.6452 18.2017 14.6452C18.4176 14.6501 18.6295 14.5827 18.808 14.4524C18.9866 14.3221 19.1229 14.1353 19.1981 13.9179H18.3341V12.5553H21Z" fill="white"/>
</svg>
