<svg width="24" height="24" viewBox="0 0 24 24" fill="none" xmlns="http://www.w3.org/2000/svg">
<rect width="24" height="24" rx="4" fill="#DEFBFF"/>
<path fill-rule="evenodd" clip-rule="evenodd" d="M14.1674 8.57072H13.8809L13.881 8.58332C13.2085 9.19935 12.6228 9.20275 10.7146 9.21382C10.5425 9.21482 10.3597 9.21588 10.1651 9.21746C7.81231 9.23654 7.06854 9.1091 6.43386 8.58332L6.43404 8.57072H6.14747C5.98851 8.56821 5.86095 8.43864 5.86095 8.27965C5.86095 8.12067 5.98851 7.99109 6.14747 7.98859H6.47976C6.76074 6.18174 8.30011 4.80005 10.1575 4.80005C12.015 4.80005 13.5531 6.18174 13.8348 7.98859H14.1674C14.3264 7.99109 14.454 8.12067 14.454 8.27965C14.454 8.43864 14.3264 8.56821 14.1674 8.57072ZM18.0893 10.763H17.8584L17.8585 10.773C17.3166 11.2619 16.8449 11.2647 15.3074 11.2736C15.1688 11.2744 15.0214 11.2752 14.8646 11.2765L14.8536 11.2766C14.777 11.2771 14.7027 11.2776 14.6302 11.2778C14.6302 11.2567 14.6302 11.2358 14.6304 11.215C14.6372 10.1671 14.4498 9.668 14.3438 9.38553C14.2645 9.1742 14.2307 9.0841 14.3577 8.9761C14.3577 8.97391 14.3859 8.94958 14.4138 8.9255C14.4412 8.90193 14.4682 8.8786 14.4682 8.87656H14.7591C14.9197 8.87656 15.158 8.40423 15.158 8.24349C15.158 8.13495 15.0986 7.90941 15.0106 7.77405C16.4381 7.84533 17.602 8.9158 17.8213 10.3011H18.0893C18.2168 10.3011 18.3202 10.4045 18.3202 10.532C18.3202 10.6596 18.2168 10.763 18.0893 10.763ZM9.28166 7.86008C9.28166 7.30338 9.73296 6.85208 10.2897 6.85208C10.8464 6.85208 11.2977 7.30338 11.2977 7.86008C11.2977 8.41679 10.8464 8.86809 10.2897 8.86809C9.73296 8.86809 9.28166 8.41679 9.28166 7.86008ZM7.91473 14.2352C6.53422 13.1637 6.05463 11.2932 6.74922 9.68962C7.3443 10.0314 8.18455 10.1193 10.1651 10.1033C10.3592 10.1017 10.5416 10.1006 10.7133 10.0996H10.7133C12.3316 10.0903 12.9991 10.0864 13.5745 9.71014C14.2548 11.3061 13.7766 13.1601 12.4094 14.228C14.2002 15.0623 15.4625 16.8656 15.5455 18.9773C15.5543 19.1773 15.3745 19.1966 15.3085 19.1995C13.9257 19.2004 7.07142 19.2 5.22749 19.1995C4.89701 19.1836 4.80935 19.0094 4.7998 18.867C4.92131 16.8089 6.1635 15.0578 7.91473 14.2352ZM14.6093 11.9808C14.5498 12.8936 14.3339 13.6885 13.6197 14.2321C15.4377 15.0662 16.2358 16.865 16.3201 18.9768C16.3225 19.0591 16.2927 19.1392 16.2371 19.2C17.4937 19.2 18.5789 19.1998 19.0086 19.1996C19.0618 19.1973 19.2067 19.182 19.1995 19.0232C19.1337 17.3913 18.1573 15.9346 16.6729 15.2536C17.773 14.4162 18.1603 12.9365 17.6116 11.6675C17.148 11.9661 16.6102 11.9691 15.3065 11.9765C15.1681 11.9773 15.0211 11.9782 14.8646 11.9794C14.7767 11.9801 14.692 11.9807 14.6093 11.9808Z" fill="#00115B"/>
</svg>
