<svg width="48" height="92" viewBox="0 0 48 92" fill="none" xmlns="http://www.w3.org/2000/svg">
<path fill-rule="evenodd" clip-rule="evenodd" d="M23.4422 0C23.4422 0 23.4533 10.7852 20.8928 13.9338C18.3322 17.0825 4.71489 30.6633 1.90558 35.531C-0.903723 40.3987 -0.903723 48.2294 3.92035 54.625C3.92035 54.625 3.79261 47.3727 8.02312 42.2687C12.2536 37.1647 25.8375 26.7738 28.1462 19.5974C30.4548 12.421 23.4422 0 23.4422 0Z" fill="#FC0000"/>
<path fill-rule="evenodd" clip-rule="evenodd" d="M31.671 19.7144C31.671 19.7144 34.1659 26.1004 31.183 30.2671C28.2 34.4338 10.5824 48.8422 8.21114 55.4456C5.83993 62.0491 6.82764 67.115 11.6195 73.5179C11.6195 73.5179 11.8705 67.3636 15.6294 61.1952C19.3883 55.0268 36.1015 43.0788 39.1196 35.5192C42.1378 27.9596 31.671 19.7144 31.671 19.7144Z" fill="#0082CD"/>
<path fill-rule="evenodd" clip-rule="evenodd" d="M39.7746 38.1964C39.7746 38.1964 42.3007 44.5825 39.2805 48.7492C36.2603 52.9158 18.4224 67.3242 16.0215 73.9277C13.6207 80.5312 14.6207 85.5971 19.4725 92C19.4725 92 19.7267 85.8457 23.5325 79.6773C27.3384 73.5089 44.2605 61.5608 47.3163 54.0013C50.3722 46.4417 39.7746 38.1964 39.7746 38.1964Z" fill="#009324"/>
<path fill-rule="evenodd" clip-rule="evenodd" d="M23.4422 0C23.4422 0 23.4533 10.7852 20.8928 13.9338C18.3322 17.0825 4.71489 30.6633 1.90558 35.531C-0.903723 40.3987 -0.903723 48.2294 3.92035 54.625C3.92035 54.625 3.79261 47.3727 8.02312 42.2687C12.2536 37.1647 25.8375 26.7738 28.1462 19.5974C30.4548 12.421 23.4422 0 23.4422 0Z" fill="#FF2B1A"/>
<path fill-rule="evenodd" clip-rule="evenodd" d="M31.671 19.7144C31.671 19.7144 34.1659 26.1004 31.183 30.2671C28.2 34.4338 10.5824 48.8422 8.21114 55.4456C5.83993 62.0491 6.82764 67.115 11.6195 73.5179C11.6195 73.5179 11.8705 67.3636 15.6294 61.1952C19.3883 55.0268 36.1015 43.0788 39.1196 35.5192C42.1378 27.9596 31.671 19.7144 31.671 19.7144Z" fill="#05A3FF"/>
<path fill-rule="evenodd" clip-rule="evenodd" d="M39.7746 38.1964C39.7746 38.1964 42.3007 44.5825 39.2805 48.7492C36.2603 52.9158 18.4224 67.3242 16.0215 73.9277C13.6207 80.5312 14.6207 85.5971 19.4725 92C19.4725 92 19.7267 85.8457 23.5325 79.6773C27.3384 73.5089 44.2605 61.5608 47.3163 54.0013C50.3722 46.4417 39.7746 38.1964 39.7746 38.1964Z" fill="#8FFFA1"/>
</svg>
