<svg width="32" height="32" viewBox="0 0 32 32" fill="none" xmlns="http://www.w3.org/2000/svg">
<rect width="32" height="32" fill="#064F94"/>
<path d="M17.375 7.75H13.25V6.375H17.375V7.75ZM24.2582 27H6.375V6.375H9.125V7.75H7.75825L7.77475 10.5H22.7801L22.7636 7.75H21.5V6.375H24.25L24.2582 27ZM22.875 25.625L22.7897 11.875H7.78438L7.86962 25.625H22.875ZM10.5 16V17.375H20.125V16H10.5ZM10.5 20.125H20.125V18.75H10.5V20.125ZM10.5 22.875H17.375V21.5H10.5V22.875ZM11.875 5H10.5V7.75H11.875V5ZM20.125 5H18.75V7.75H20.125V5Z" fill="#00DDFF"/>
</svg>
