<svg width="32" height="32" viewBox="0 0 32 32" fill="none" xmlns="http://www.w3.org/2000/svg">
<rect width="32" height="32" fill="url(#paint0_linear)"/>
<path fill-rule="evenodd" clip-rule="evenodd" d="M16 0L25 5.14286V26.8571L16 32L7 26.8571V5.14286L16 0Z" fill="url(#paint1_linear)"/>
<path d="M17.425 15.775C19.225 15.175 20.5 13.4875 20.5 11.5C20.5 9.025 18.475 7 16 7C13.525 7 11.5 9.025 11.5 11.5C11.5 13.4875 12.775 15.175 14.575 15.775C11.3875 16.4125 8.5 19.1125 8.5 22.375C8.5 23.8375 9.66251 25 11.125 25H20.875C22.3375 25 23.5 23.8375 23.5 22.375C23.5 19.1125 20.6125 16.4125 17.425 15.775Z" fill="white"/>
<defs>
<linearGradient id="paint0_linear" x1="32" y1="32" x2="32" y2="0" gradientUnits="userSpaceOnUse">
<stop stop-color="#005A92"/>
<stop offset="1" stop-color="#003982"/>
</linearGradient>
<linearGradient id="paint1_linear" x1="7" y1="0" x2="7" y2="32" gradientUnits="userSpaceOnUse">
<stop stop-color="#356CFF" stop-opacity="0.5"/>
<stop offset="1" stop-color="#00DDFF" stop-opacity="0.8"/>
</linearGradient>
</defs>
</svg>
