<svg width="32" height="32" viewBox="0 0 32 32" fill="none" xmlns="http://www.w3.org/2000/svg">
<rect width="32" height="32" fill="url(#paint0_linear)"/>
<path fill-rule="evenodd" clip-rule="evenodd" d="M16 0L25 5.14286V26.8571L16 32L7 26.8571V5.14286L16 0Z" fill="url(#paint1_linear)"/>
<rect opacity="0.01" x="7" y="7" width="18" height="18" fill="black"/>
<path d="M18.1493 15.0808C16.8038 13.5857 16.8038 11.7916 16.8038 9.25C12.6176 10.8946 13.6641 15.3798 13.5146 16.8748C12.4681 15.9778 12.1691 13.8847 12.1691 13.8847C10.973 14.4827 10.375 15.9778 10.375 17.1738C10.375 20.164 12.9166 22.7056 16.0563 22.7056C19.1959 22.7056 21.7375 20.3135 21.7375 17.1738C21.7375 15.3798 20.3919 14.4827 20.3919 12.0906C18.4484 12.6887 18.1493 14.1837 18.1493 15.0808Z" fill="white"/>
<defs>
<linearGradient id="paint0_linear" x1="32" y1="32" x2="32" y2="0" gradientUnits="userSpaceOnUse">
<stop stop-color="#005A92"/>
<stop offset="1" stop-color="#003982"/>
</linearGradient>
<linearGradient id="paint1_linear" x1="7" y1="0" x2="7" y2="32" gradientUnits="userSpaceOnUse">
<stop stop-color="#356CFF" stop-opacity="0.5"/>
<stop offset="1" stop-color="#00DDFF" stop-opacity="0.8"/>
</linearGradient>
</defs>
</svg>
