<svg width="32" height="32" viewBox="0 0 32 32" fill="none" xmlns="http://www.w3.org/2000/svg">
<rect width="32" height="32" fill="url(#paint0_linear)"/>
<path fill-rule="evenodd" clip-rule="evenodd" d="M16 0L25 5.14286V26.8571L16 32L7 26.8571V5.14286L16 0Z" fill="url(#paint1_linear)"/>
<path d="M23.5434 13.096C23.4259 12.5479 22.7604 12.3522 22.3689 12.7437L19.1196 15.9538C18.6498 16.4236 17.906 16.4236 17.4362 15.9538L15.792 14.3096C15.3222 13.8398 15.3222 13.096 15.792 12.6654L19.0413 9.41604C19.4328 9.02455 19.2371 8.35903 18.7281 8.24159C16.8099 7.88925 14.7741 8.43733 13.3256 9.88582C11.6814 11.4909 11.1725 13.8007 11.7989 15.8755C11.9163 16.1887 11.838 16.5802 11.6031 16.8151L8.3538 20.1427C7.88402 20.6125 7.88402 21.3563 8.3538 21.7869L10.0372 23.4312C10.507 23.9009 11.2508 23.9009 11.7206 23.4312L15.009 20.1427C15.2439 19.9078 15.5963 19.8295 15.9486 19.9078C17.9843 20.495 20.2941 20.0253 21.9383 18.381C23.3476 16.9717 23.8957 14.9751 23.5434 13.096Z" fill="white"/>
<defs>
<linearGradient id="paint0_linear" x1="32" y1="32" x2="32" y2="0" gradientUnits="userSpaceOnUse">
<stop stop-color="#005A92"/>
<stop offset="1" stop-color="#003982"/>
</linearGradient>
<linearGradient id="paint1_linear" x1="7" y1="0" x2="7" y2="32" gradientUnits="userSpaceOnUse">
<stop stop-color="#356CFF" stop-opacity="0.5"/>
<stop offset="1" stop-color="#00DDFF" stop-opacity="0.8"/>
</linearGradient>
</defs>
</svg>
