<svg width="32" height="32" viewBox="0 0 32 32" fill="none" xmlns="http://www.w3.org/2000/svg">
<path d="M30.7556 1.30621H1.24444C0.558222 1.30621 0 1.86444 0 2.55066V23.5818C0 24.268 0.558222 24.8262 1.24444 24.8262H13.4613V27.7027H4.12089C3.43467 27.7027 2.87644 28.2609 2.87644 28.9471C2.87644 29.6333 3.43467 30.1915 4.12089 30.1915H27.8791C28.5653 30.1915 29.1236 29.6333 29.1236 28.9471C29.1236 28.2609 28.5653 27.7027 27.8791 27.7027H18.5387V24.8262H30.7556C31.4418 24.8262 32 24.268 32 23.5818V2.55066C32 1.86444 31.4418 1.30621 30.7556 1.30621ZM29.5111 22.3373H2.48889V3.7951H29.5111V22.3373Z" fill="#00DDFF"/>
<g clip-path="url(#clip0)">
<path d="M24.541 5.23297C19.069 8.58997 15.1 12.829 13.309 14.953L8.935 11.524L7 13.081L14.551 20.767C15.847 17.437 19.969 10.93 25 6.30397L24.541 5.23297Z" fill="#00DDFF"/>
</g>
<defs>
<clipPath id="clip0">
<rect width="18" height="18" fill="white" transform="translate(7 4)"/>
</clipPath>
</defs>
</svg>
