<svg width="32" height="32" viewBox="0 0 32 32" fill="none" xmlns="http://www.w3.org/2000/svg">
<path d="M30.8 17.3437H1.23125C0.603125 17.3437 0.09375 16.75 0.09375 16.0184C0.09375 15.2868 0.603125 14.6931 1.23125 14.6931H30.8C31.4287 14.6931 31.9375 15.2868 31.9375 16.0184C31.9375 16.75 31.4291 17.3437 30.8 17.3437ZM28.525 32H21.6972C21.0678 32 20.5591 31.4912 20.5591 30.8618C20.5591 30.2325 21.0678 29.7237 21.6972 29.7237H28.525C29.1531 29.7237 29.6631 29.214 29.6631 28.5859V22.8962C29.6631 22.2668 30.1716 21.7581 30.8013 21.7581C31.4306 21.7581 31.9391 22.2668 31.9391 22.8962V28.5862C31.9387 30.4681 30.4072 32 28.525 32ZM9.17406 32H3.48406C1.60187 32 0.0703125 30.4681 0.0703125 28.5859V22.8962C0.0703125 22.2668 0.58 21.7581 1.20812 21.7581C1.83625 21.7581 2.34625 22.2668 2.34625 22.8962V28.5862C2.34625 29.2143 2.85719 29.724 3.48406 29.724H9.17406C9.80219 29.724 10.3122 30.2328 10.3122 30.8622C10.3122 31.4912 9.80219 32 9.17406 32ZM1.17687 10.279C0.54875 10.279 0.0390625 9.76935 0.0390625 9.14122V3.45154C0.0390625 1.56904 1.57062 0.0374756 3.45281 0.0374756H9.14281C9.77094 0.0374756 10.2809 0.547163 10.2809 1.1756C10.2809 1.80373 9.77125 2.31341 9.14281 2.31341H3.45281C2.82594 2.31341 2.315 2.82435 2.315 3.45154V9.14154C2.315 9.76935 1.805 10.279 1.17687 10.279ZM30.8322 10.279C30.2028 10.279 29.6941 9.76935 29.6941 9.14122V3.45154C29.6941 2.82435 29.1844 2.31341 28.5559 2.31341H21.7284C21.0991 2.31341 20.5903 1.80373 20.5903 1.1756C20.5903 0.547475 21.0991 0.0374756 21.7284 0.0374756H28.5562C30.4384 0.0374756 31.9703 1.56904 31.9703 3.45154V9.14154C31.97 9.76935 31.4616 10.279 30.8322 10.279Z" fill="#00DDFF"/>
</svg>
