<svg width="24" height="24" viewBox="0 0 24 24" fill="none" xmlns="http://www.w3.org/2000/svg">
<rect opacity="0.01" y="6.10352e-05" width="24" height="24" fill="black"/>
<path fill-rule="evenodd" clip-rule="evenodd" d="M17.4346 16.0598L19.6532 18.2784C20.0469 18.6721 20.0469 19.3095 19.6547 19.7048C19.4579 19.9016 19.2001 20.0001 18.9423 20.0001C18.6845 20.0001 18.4267 19.9016 18.2299 19.7048L16.0051 17.48C14.749 18.4283 13.1882 18.9923 11.4961 18.9923C7.36217 18.9923 4 15.6286 4 11.4962C4 7.36223 7.36217 4.00006 11.4946 4.00006C15.6286 4.00006 18.9907 7.36223 18.9907 11.4962C18.9907 13.2132 18.4095 14.7943 17.4346 16.0598ZM11.4946 6.01705C8.473 6.01705 6.01543 8.47462 6.01543 11.4962C6.01543 14.5178 8.473 16.9754 11.4946 16.9754C14.5162 16.9754 16.9737 14.5178 16.9737 11.4962C16.9737 8.47462 14.5162 6.01705 11.4946 6.01705Z" fill="white"/>
</svg>
