<svg width="20" height="20" viewBox="0 0 20 20" fill="none" xmlns="http://www.w3.org/2000/svg">
<path d="M1.99962 18V12C1.99962 9.87827 2.84247 7.84344 4.34276 6.34315C5.84305 4.84285 7.87788 4 9.99962 4C12.1213 4 14.1562 4.84285 15.6565 6.34315C17.1568 7.84344 17.9996 9.87827 17.9996 12V18H18.9996V20H0.999617V18H1.99962ZM3.99962 12H5.99962C5.99962 10.9391 6.42104 9.92172 7.17119 9.17157C7.92134 8.42143 8.93875 8 9.99962 8V6C8.40832 6 6.88219 6.63214 5.75698 7.75736C4.63176 8.88258 3.99962 10.4087 3.99962 12ZM8.99962 0H10.9996V3H8.99962V0ZM17.7776 2.808L19.1916 4.222L17.0716 6.343L15.6566 4.929L17.7776 2.808ZM0.807617 4.222L2.22162 2.808L4.34262 4.928L2.92962 6.344L0.807617 4.222Z" fill="#FB5325"/>
</svg>
