<svg width="24" height="24" viewBox="0 0 24 24" fill="none" xmlns="http://www.w3.org/2000/svg">
<path d="M1.33278 4.7546C1.71412 5.1817 2.34729 5.72748 3.25464 6.55663C4.21605 7.51596 5.57604 7.51596 6.53762 6.55663C7.49902 5.59684 7.49902 4.23984 6.53762 3.28052C5.65214 2.39685 4.69973 1.34922 4.71535 1.34485C7.2888 0.159901 10.435 0.617841 12.5562 2.73429C14.4887 4.66283 15.0405 7.44053 14.227 9.86149L22.405 18.0225C23.6137 19.2286 23.6137 21.1843 22.405 22.3904C21.1962 23.5968 19.2366 23.5968 18.0277 22.3904L9.84965 14.2296C7.42339 15.0417 4.63995 14.4909 2.70751 12.5626C0.588516 10.448 0.148996 7.32067 1.33278 4.7546Z" fill="#00FFCF"/>
</svg>
