<svg width="32" height="32" viewBox="0 0 32 32" fill="none" xmlns="http://www.w3.org/2000/svg">
<path d="M16.1101 17.1956H1.30344C0.591374 17.1956 0.00878906 17.7781 0.00878906 18.4901V21.3373C0.00878906 22.0493 0.591411 22.6319 1.30344 22.6319H3.91386C4.08105 20.5556 5.82658 18.913 7.94461 18.913C10.0626 18.913 11.8082 20.5556 11.9753 22.6319H16.1101C16.8222 22.6319 17.4047 22.0493 17.4047 21.3373V18.4901C17.4047 17.7781 16.8222 17.1956 16.1101 17.1956Z" fill="#00DDFF"/>
<path d="M7.94431 19.8916C6.25541 19.8916 4.87793 21.269 4.87793 22.9581C4.87793 24.6469 6.25541 26.0243 7.94431 26.0243C9.63324 26.0243 11.0107 24.6469 11.0107 22.9581C11.0107 21.2691 9.63324 19.8916 7.94431 19.8916ZM24.9074 19.8916C23.2182 19.8916 21.8408 21.269 21.8408 22.9581C21.8408 24.6469 23.2182 26.0243 24.9074 26.0243C26.5963 26.0243 27.9738 24.6469 27.9738 22.9581C27.9738 21.2691 26.5963 19.8916 24.9074 19.8916Z" fill="#00DDFF"/>
<path d="M27.39 8.34646C27.304 8.14714 27.1688 7.97397 27.0007 7.84079L26.9981 7.83748L26.9979 7.83869C26.7776 7.66533 26.5009 7.56079 26.2005 7.56079H20.9605C20.2486 7.56079 19.666 8.1433 19.666 8.85537V21.4025C19.666 22.0848 20.2014 22.6468 20.8726 22.6926C21.0102 20.5876 22.7693 18.9129 24.9081 18.9129C27.0482 18.9129 28.8084 20.59 28.9438 22.6971H30.6792C31.3914 22.6971 31.9739 22.1145 31.9739 21.4025V14.3014L27.39 8.34646ZM22.9509 14.8679V10.1705H25.4301L29.2794 14.9984L22.9509 14.8679Z" fill="#00DDFF"/>
<path fill-rule="evenodd" clip-rule="evenodd" d="M17.5 9H15.5L14.0833 10H14V10.0588L7 15H3V17H14H16V10.0588L17.5 9ZM14 11.4706L9 15H14V11.4706Z" fill="#00DDFF"/>
</svg>
