<svg width="24" height="29" viewBox="0 0 24 29" fill="none" xmlns="http://www.w3.org/2000/svg">
<path d="M19.4911 6.95725L21.4284 5.01992L23.3137 6.90525L21.3764 8.84259C23.2908 11.2388 24.215 14.2771 23.9592 17.3334C23.7034 20.3898 22.2871 23.2322 20.0011 25.2769C17.715 27.3216 14.7329 28.4134 11.6671 28.328C8.60121 28.2427 5.68442 26.9867 3.5157 24.818C1.34698 22.6492 0.0909759 19.7324 0.00562834 16.6666C-0.0797192 13.6008 1.01207 10.6186 3.05678 8.3326C5.10148 6.04659 7.94388 4.63026 11.0002 4.37448C14.0566 4.1187 17.0948 5.04289 19.4911 6.95725ZM10.6671 9.66659V17.6666H13.3337V9.66659H10.6671ZM6.66707 0.333252H17.3337V2.99992H6.66707V0.333252Z" fill="white"/>
</svg>
