<svg width="24" height="23" viewBox="0 0 24 23" fill="none" xmlns="http://www.w3.org/2000/svg">
<path d="M1.44074 4.89097H1.91986V2.50547C1.91986 1.72147 2.50021 0.790055 3.20877 0.438261C3.20877 0.438261 5.7596 0 11.9983 0C18.237 0 20.7912 0.438261 20.7912 0.438261C21.4998 0.790055 22.0801 1.72147 22.0801 2.50547V4.89097H22.5593C22.9405 4.89185 23.3059 5.0424 23.5758 5.30978C23.8457 5.57716 23.9982 5.93968 24 6.31825V7.74888C23.9991 8.12804 23.847 8.49141 23.577 8.75951C23.307 9.02762 22.9411 9.17863 22.5593 9.17951H22.0801V18.9493C22.0787 19.2448 21.9856 19.5326 21.8135 19.7736C21.6414 20.0146 21.3988 20.1971 21.1185 20.2962V21.0936C21.1185 21.5992 20.9162 22.0841 20.5562 22.4416C20.1962 22.7991 19.7078 23 19.1987 23C18.6895 23 18.2011 22.7991 17.8411 22.4416C17.4811 22.0841 17.2788 21.5992 17.2788 21.0936V20.38H6.72121V21.0936C6.72121 21.5992 6.51894 22.0841 6.1589 22.4416C5.79885 22.7991 5.31053 23 4.80135 23C4.29217 23 3.80384 22.7991 3.4438 22.4416C3.08376 22.0841 2.88148 21.5992 2.88148 21.0936V20.2962C2.60097 20.1975 2.35802 20.0151 2.18589 19.774C2.01375 19.5329 1.92084 19.2449 1.91986 18.9493V9.17951H1.44074C1.05891 9.17863 0.692966 9.02762 0.422968 8.75951C0.152969 8.49141 0.000892639 8.12804 0 7.74888V6.31825C0.00178146 5.93968 0.154251 5.57716 0.424154 5.30978C0.694057 5.0424 1.05949 4.89185 1.44074 4.89097ZM18.9591 18.4736C19.1967 18.4736 19.4289 18.4036 19.6264 18.2726C19.824 18.1415 19.9779 17.9552 20.0688 17.7373C20.1597 17.5193 20.1835 17.2795 20.1372 17.0481C20.0908 16.8168 19.9764 16.6042 19.8085 16.4374C19.6405 16.2706 19.4264 16.157 19.1934 16.111C18.9604 16.065 18.7189 16.0886 18.4994 16.1789C18.2799 16.2691 18.0923 16.422 17.9603 16.6182C17.8284 16.8143 17.7579 17.0449 17.7579 17.2808C17.7588 17.5969 17.8856 17.8998 18.1107 18.1233C18.3358 18.3467 18.6408 18.4727 18.9591 18.4736ZM5.04091 18.4736C5.27848 18.4736 5.51072 18.4036 5.70825 18.2726C5.90579 18.1415 6.05974 17.9552 6.15066 17.7373C6.24157 17.5193 6.26536 17.2795 6.21901 17.0481C6.17266 16.8168 6.05826 16.6042 5.89028 16.4374C5.72229 16.2706 5.50826 16.157 5.27525 16.111C5.04225 16.065 4.80073 16.0886 4.58124 16.1789C4.36175 16.2691 4.17415 16.422 4.04216 16.6182C3.91018 16.8143 3.83973 17.0449 3.83973 17.2808C3.83973 17.5972 3.96628 17.9005 4.19155 18.1242C4.41681 18.3479 4.72234 18.4736 5.04091 18.4736ZM3.83973 10.5077C3.84061 10.6336 3.89138 10.7541 3.98104 10.8431C4.0707 10.9322 4.19206 10.9826 4.31885 10.9835H19.6778C19.8052 10.9835 19.9274 10.9334 20.0178 10.8443C20.1082 10.7552 20.1594 10.6342 20.1603 10.5077V2.88214C20.1594 2.75565 20.1082 2.63464 20.0178 2.54552C19.9274 2.45639 19.8052 2.40637 19.6778 2.40638H4.31885C4.19206 2.40725 4.0707 2.45766 3.98104 2.54669C3.89138 2.63572 3.84061 2.75623 3.83973 2.88214V10.5077Z" fill="#00DDFF"/>
</svg>
