<svg width="72" height="72" viewBox="0 0 72 72" fill="none" xmlns="http://www.w3.org/2000/svg">
<path d="M36 0C55.8816 0 72 16.1184 72 36C72 55.8816 55.8816 72 36 72C16.1184 72 0 55.8816 0 36C0 16.1184 16.1184 0 36 0ZM29.6256 22.1952C28.272 22.1952 27.1584 23.22 27.0144 24.5352L27 24.8208V47.1792C26.9998 47.6169 27.109 48.0478 27.3177 48.4325C27.5264 48.8173 27.828 49.1438 28.195 49.3823C28.5621 49.6208 28.9829 49.7637 29.4193 49.7981C29.8557 49.8325 30.2937 49.7573 30.6936 49.5792L30.948 49.4472L50.112 38.268C50.4873 38.049 50.8025 37.7404 51.0291 37.3696C51.2558 36.9989 51.3869 36.5777 51.4107 36.1438C51.4344 35.7099 51.3502 35.2769 51.1654 34.8836C50.9806 34.4904 50.7011 34.1491 50.352 33.8904L50.112 33.732L30.948 22.5528C30.5466 22.3187 30.0903 22.1953 29.6256 22.1952Z" fill="white"/>
</svg>
