<svg width="56" height="56" viewBox="0 0 56 56" fill="none" xmlns="http://www.w3.org/2000/svg">
<g opacity="0.8">
<circle cx="28" cy="28" r="28" fill="white"/>
<path fill-rule="evenodd" clip-rule="evenodd" d="M19.4348 29.1222C19.3513 28.9525 19.323 28.8496 19.2613 28.7767C18.6364 28.0387 18.0107 27.3012 17.3715 26.5765C17.2877 26.4817 17.1237 26.4064 17.0014 26.4127C16.1708 26.456 15.341 26.5185 14.5118 26.5861C14.2241 26.6096 14.1789 26.7538 14.369 26.9801C14.9733 27.6998 15.5711 28.4252 16.184 29.1369C16.2678 29.2341 16.426 29.3245 16.5448 29.3182C17.4768 29.2688 18.4075 29.1952 19.4348 29.1222ZM19.6173 24.9456C18.8905 24.0142 18.2491 23.1763 17.5836 22.3593C17.4963 22.2523 17.2829 22.2036 17.132 22.2116C16.3555 22.2522 15.5801 22.3166 14.8051 22.3823C14.6841 22.3925 14.5672 22.4525 14.4483 22.4894C14.4916 22.609 14.5091 22.7495 14.5823 22.8446C15.1549 23.589 15.7292 24.3325 16.3276 25.0546C16.4221 25.1686 16.6408 25.2238 16.8002 25.2202C17.2793 25.2095 17.7582 25.1644 18.2358 25.1173C18.6578 25.0758 19.0779 25.0136 19.6173 24.9456ZM28.8771 35.8808C29.5395 35.8446 30.2029 35.8201 30.8637 35.7621C30.9895 35.7509 31.166 35.6352 31.2147 35.5205C31.679 34.4286 32.1249 33.3282 32.5671 32.2264C32.7271 31.8275 32.6418 31.7364 32.216 31.7777C31.6852 31.8294 31.1535 31.8855 30.6212 31.8992C30.3473 31.9063 30.1863 32.0104 30.0725 32.2522C29.5729 33.3137 29.0641 34.3706 28.5681 35.4338C28.379 35.8393 28.4481 35.9344 28.8771 35.8808ZM42.6705 34.784C42.615 34.6261 42.6008 34.5453 42.5618 34.4801C41.9341 33.4309 41.3154 32.3757 40.6595 31.3455C40.5667 31.1998 40.2869 31.1083 40.0973 31.1142C39.4622 31.134 38.8283 31.2056 38.1946 31.2649C37.8002 31.3019 37.7512 31.3863 37.9551 31.7397C38.5265 32.7296 39.1057 33.7151 39.6969 34.6926C39.7688 34.8116 39.9357 34.9505 40.0537 34.9459C40.9067 34.9127 41.7586 34.8449 42.6705 34.784ZM42.9937 28.5559C42.6535 28.5559 42.4126 28.5386 42.1745 28.5587C40.554 28.6953 38.9348 28.847 37.3139 28.9774C36.7763 29.0207 36.7549 28.9991 36.745 28.4572C36.7388 28.1163 36.6049 28.0031 36.2948 28.0335C35.6868 28.0931 35.0787 28.1611 34.469 28.19C34.113 28.2068 33.9903 28.3724 33.9878 28.7165C33.9838 29.2608 33.9406 29.2779 33.4027 29.3142C31.8587 29.4187 30.3157 29.5405 28.7717 29.6475C28.563 29.662 28.4592 29.7415 28.4601 29.9613C28.4622 30.4181 28.4459 30.8758 28.4705 31.3313C28.4759 31.4303 28.6214 31.6032 28.7016 31.6028C29.2605 31.5991 29.82 31.5698 30.3779 31.5279C31.4663 31.4462 32.5542 31.3553 33.6414 31.2581C33.9247 31.2327 34.0161 31.3608 34.0047 31.6298C33.9846 32.0993 33.9996 32.5721 33.949 33.0375C33.9138 33.3606 33.8284 33.6896 33.7023 33.9875C33.5203 34.4167 33.2772 34.818 33.0679 35.2354C32.9557 35.4593 32.9882 35.6047 33.2781 35.5704C34.0134 35.4832 34.7509 35.4113 35.4825 35.2985C35.6426 35.2738 35.839 35.139 35.9212 34.9955C36.4829 34.0157 36.9248 32.9957 36.7513 31.8068C36.7264 31.636 36.7541 31.4576 36.7477 31.2832C36.7391 31.0442 36.8479 30.9585 37.0751 30.9432C38.6577 30.8369 40.2398 30.723 41.8212 30.6007C41.9506 30.5907 42.1449 30.5348 42.1888 30.4406C42.4666 29.8442 42.7104 29.231 42.9937 28.5559ZM32.8353 25.8233C32.8422 25.8648 32.8491 25.9062 32.8561 25.9478C31.4534 26.7727 30.0507 27.5977 28.5621 28.4731C28.7339 28.54 28.7804 28.5755 28.8245 28.5726C30.0318 28.4934 31.2402 28.425 32.4452 28.3173C32.7473 28.2903 33.0526 28.1657 33.3319 28.0317C33.8612 27.7775 34.3903 27.5133 34.8861 27.1975C35.2636 26.9569 35.603 26.9952 35.9896 27.1294C37.0252 27.4887 38.027 27.9441 39.189 27.7397C40.1205 27.5757 41.0811 27.592 42.0275 27.5118C42.2773 27.4907 42.5223 27.4092 42.7696 27.3555L42.7694 27.2745C41.1158 26.6502 39.4622 26.0261 37.7455 25.378C37.8812 25.2626 37.9372 25.2089 37.9989 25.1635C38.9947 24.4311 39.9408 23.607 41.0015 22.9942C42.0639 22.3805 42.3759 21.56 42.2148 20.3924C42.1391 19.8436 42.1208 19.7928 41.5704 19.8564C40.2663 20.0071 38.9603 20.1384 37.6543 20.2693C36.8646 20.3485 36.0733 20.4107 35.2831 20.4843C34.6876 20.5396 34.0812 20.5469 33.5007 20.6762C33.0062 20.7864 32.5779 20.6829 32.1357 20.5147C31.8675 20.4127 31.5871 20.338 31.3306 20.2114C30.9679 20.0321 30.7539 20.1823 30.5478 20.4826C30.0741 21.1725 29.5805 21.8479 29.0984 22.5317C28.8584 22.8721 28.6261 23.2182 28.3374 23.6388C28.5667 23.6495 28.6921 23.6682 28.8157 23.6591C29.4761 23.6105 30.1356 23.5464 30.7963 23.5048C31.2587 23.4757 31.6605 23.3489 31.9564 22.9477C32.035 22.8412 32.1716 22.732 32.2933 22.715C33.1562 22.5951 34.0222 22.4986 34.8871 22.3949C35.7639 22.29 36.6399 22.176 37.5182 22.086C37.8302 22.0541 38.148 22.0809 38.4631 22.0809C38.3598 22.27 38.2369 22.3847 38.1022 22.4817C37.2593 23.0882 36.4088 23.6831 35.5723 24.2988C35.2827 24.5119 35.0196 24.5175 34.6983 24.379C33.909 24.0388 33.1277 23.6865 32.2219 23.8259C31.4775 23.9406 30.7193 23.9586 29.9683 24.0324C29.8165 24.0474 29.67 24.1209 29.521 24.1674L29.5268 24.2647C30.6296 24.7842 31.7324 25.3038 32.8353 25.8233ZM27.018 29.6756C26.1314 29.7565 25.3779 29.7916 24.6351 29.9031C23.9874 30.0003 23.9348 29.9979 23.9497 29.3152C24.0056 26.7489 24.0674 24.1827 24.1304 21.6167C24.1416 21.1557 24.0891 21.1012 23.6481 21.139C23.0779 21.188 22.5073 21.2332 21.9362 21.2707C21.3154 21.3114 21.2839 21.3428 21.2699 21.9822C21.2149 24.5214 21.1496 27.0603 21.1103 29.5998C21.1039 30.0111 20.9608 30.1852 20.5786 30.2148C19.7354 30.2804 18.8938 30.3665 18.0507 30.4328C16.4817 30.5561 14.9122 30.6726 13.3426 30.7882C13.1114 30.8053 12.9824 30.9005 12.9768 31.1573C12.9666 31.6276 12.953 32.0983 12.9222 32.5675C12.8998 32.9088 13.0435 33.0321 13.3597 33.0035C13.9557 32.9496 14.5531 32.911 15.1489 32.8541C16.0032 32.7727 16.8556 32.6672 17.7109 32.5988C18.1259 32.5655 18.5456 32.5931 19.0606 32.5931C18.6068 33.1489 18.2015 33.6188 17.8276 34.1137C17.6211 34.3872 17.3753 34.4633 17.0556 34.4767C15.8462 34.5274 14.6378 34.603 13.4291 34.6707C13.3645 34.6743 13.3007 34.692 13.2362 34.701C12.9645 34.7393 12.8238 34.8746 12.8344 35.1825C12.8485 35.585 12.8451 35.9899 12.8187 36.3916C12.7942 36.766 12.9392 36.9038 13.2949 36.8769C14.0474 36.82 14.8017 36.7891 15.5542 36.7317C16.7738 36.6385 17.993 36.5379 19.2111 36.4241C19.3335 36.4126 19.4765 36.3154 19.5586 36.2138C20.1083 35.5334 20.6409 34.8384 21.1851 34.1533C21.4837 33.7775 21.7938 33.4116 22.1298 33.0034C22.5324 33.6751 22.9794 34.2306 23.2227 34.8688C23.6466 35.9813 24.3809 36.2845 25.4466 36.0916C25.9629 35.9981 26.4935 35.9887 27.1209 35.9319C26.2467 34.6128 25.4388 33.3937 24.6322 32.1766C24.6965 32.1265 24.7155 32.0989 24.7361 32.0975C24.9957 32.08 25.2555 32.0617 25.5155 32.0526C26.1816 32.0293 26.2559 31.9751 26.4681 31.3356C26.4934 31.2593 26.5244 31.185 26.5494 31.1087C26.6963 30.6612 26.8423 30.2134 27.018 29.6756ZM8.00002 29.4403C8.00002 25.7166 7.99994 21.9929 8.0001 18.269C8.0001 17.7408 8.00112 17.7503 8.51779 17.7221C11.3902 17.5649 14.2621 17.3985 17.1346 17.2442C18.4606 17.173 19.7881 17.1335 21.1139 17.0595C23.7001 16.9152 26.2851 16.7502 28.8712 16.6067C30.3795 16.523 31.8896 16.4724 33.3981 16.3921C34.7229 16.3215 36.0463 16.2234 37.371 16.1503C39.0873 16.0555 40.8044 15.9767 42.5207 15.8851C44.1719 15.7972 45.8227 15.6986 47.4739 15.6118C47.991 15.5847 47.9962 15.5953 47.9964 16.1317C47.9986 23.5119 47.9997 30.8922 48 38.2725C48 38.7638 47.9537 38.8039 47.497 38.8238C46.0401 38.8872 44.5827 38.9426 43.127 39.0255C41.2434 39.1327 39.3615 39.2677 37.4785 39.3833C34.7381 39.5514 31.9975 39.7159 29.2566 39.8758C27.3847 39.985 25.512 40.0806 23.6399 40.188C22.1976 40.2707 20.7559 40.3657 19.3137 40.449C17.0133 40.582 14.7126 40.7089 12.412 40.8404C11.9836 40.865 11.5559 40.9006 11.1276 40.9284C10.2711 40.9841 9.41489 41.0452 8.55787 41.0895C8.00362 41.1183 8.00198 41.1068 8.0019 40.5308C8.00159 36.8339 8.00174 33.1371 8.00174 29.4403H8.00002Z" fill="#FF2600"/>
</g>
</svg>
