<svg width="48" height="48" viewBox="0 0 48 48" fill="none" xmlns="http://www.w3.org/2000/svg">
<circle cx="24.0002" cy="24" r="24" fill="white"/>
<g clip-path="url(#clip0)">
<path fill-rule="evenodd" clip-rule="evenodd" d="M30.3842 17.7839C24.0002 17.7839 18.9602 21.9839 18.9602 27.1919C18.9602 28.1999 19.1282 29.2079 19.6322 30.2159H19.2962C17.9522 30.2159 16.7762 30.0479 15.6002 29.7119L11.7362 31.5599L12.7442 28.5359C9.3842 26.8559 7.2002 23.6639 7.2002 20.1359C7.2002 14.5919 12.5762 10.0559 19.2962 10.0559C25.0082 10.0559 29.5442 13.4159 30.8882 17.7839H30.3842ZM25.6802 15.7679C25.6802 14.5919 24.6722 13.5839 23.4962 13.5839C22.3202 13.5839 21.3122 14.4239 21.3122 15.5999C21.3122 16.7759 22.3202 17.7839 23.4962 17.9519C24.6722 17.9519 25.6802 16.9439 25.6802 15.7679ZM13.2482 15.5999C13.2482 16.7759 14.0882 17.7839 15.2642 17.7839C16.4402 17.7839 17.4482 16.7759 17.4482 15.5999C17.4482 14.4239 16.6082 13.4159 15.4322 13.4159C14.2562 13.4159 13.2482 14.4239 13.2482 15.5999ZM30.7201 19.1279C36.2641 19.1279 40.8001 22.8239 40.8001 27.5279C40.8001 30.5519 38.9521 33.0719 36.0961 34.7519L36.9361 37.2719L33.7441 35.5919C32.7361 35.7599 31.7281 35.9279 30.7201 35.9279C25.1761 35.9279 20.6401 32.2319 20.6401 27.5279C20.6401 22.8239 25.1761 19.1279 30.7201 19.1279ZM25.5121 24.5039C25.5121 25.5119 26.1841 26.1839 27.1921 26.1839C28.0321 26.1839 28.8721 25.3439 28.8721 24.5039C28.8721 23.4959 28.2001 22.8239 27.1921 22.8239C26.1841 22.8239 25.5121 23.4959 25.5121 24.5039ZM32.4001 24.5039C32.4001 25.5119 33.0721 26.1839 34.0801 26.1839C34.9201 26.1839 35.7601 25.3439 35.7601 24.5039C35.7601 23.4959 35.0881 22.8239 34.0801 22.8239C33.0721 22.8239 32.4001 23.4959 32.4001 24.5039Z" fill="#4CBF00"/>
</g>
<defs>
<clipPath id="clip0">
<rect width="33.6" height="33.6" fill="white" transform="translate(7.2002 7.19995)"/>
</clipPath>
</defs>
</svg>
