<svg width="74" height="67" viewBox="0 0 74 67" fill="none" xmlns="http://www.w3.org/2000/svg">
<path d="M4.58837 18.2289C6.79415 18.0737 8.71118 19.716 8.90165 21.9086L8.90689 21.9752C9.83142 35.0879 16.7677 43.5731 30.3291 47.9986L30.742 48.1316C32.3991 48.6571 33.532 50.1805 33.5619 51.912L33.5625 51.9823V61.913C33.5625 64.1442 31.7518 65.9531 29.5182 65.9531C27.307 65.9531 25.5102 64.1803 25.4745 61.9798L25.474 61.913L25.4739 54.8568L25.3305 54.8031C10.4399 49.153 2.11884 38.4084 0.875947 23.0403L0.838291 22.543C0.681338 20.3172 2.36032 18.3857 4.58837 18.2289ZM69.5679 18.307C67.3621 18.1518 65.4451 19.7941 65.2546 21.9867L65.2494 22.0533C64.3248 35.166 57.3886 43.6513 43.8272 48.0767L43.4142 48.2097C41.7571 48.7352 40.6243 50.2587 40.5944 51.9902L40.5938 52.0604V61.9911C40.5938 64.2223 42.4045 66.0312 44.6381 66.0312C46.8493 66.0312 48.646 64.2584 48.6818 62.0579L48.6823 61.9911L48.6824 54.9349L48.8258 54.8813C63.7164 49.2311 72.0374 38.4866 73.2803 23.1184L73.318 22.6211C73.4749 20.3953 71.7959 18.4638 69.5679 18.307ZM46.8223 0.328125C53.6169 0.328125 58.875 5.50047 58.875 12.1825C58.875 18.9805 53.743 24.6648 45.5446 32.1932L44.9466 32.7407L44.3382 33.2948L44.0301 33.5745L43.4062 34.1391L42.7722 34.711L41.8027 35.5832L40.1389 37.0766L38.8608 38.2037C37.7916 39.1466 36.1969 39.161 35.1115 38.2472L35.061 38.2037L33.7829 37.0766L31.7936 35.2905L31.1497 34.7111L30.2025 33.8559C30.0989 33.7622 29.9953 33.6684 29.8918 33.5745L29.2781 33.017C29.1767 32.9246 29.0758 32.8325 28.9752 32.7407L28.3772 32.1932C20.1789 24.6648 15.0469 18.9805 15.0469 12.1825C15.0469 5.50047 20.305 0.328125 27.0996 0.328125C30.9346 0.328125 34.5491 2.05219 36.9609 4.85461C39.3727 2.05227 42.9873 0.328125 46.8223 0.328125Z" fill="url(#paint0_linear)"/>
<defs>
<linearGradient id="paint0_linear" x1="37.0781" y1="0.328125" x2="37.0781" y2="66.0313" gradientUnits="userSpaceOnUse">
<stop stop-color="#00DDFF"/>
<stop offset="1" stop-color="#00DDFF" stop-opacity="0.3"/>
</linearGradient>
</defs>
</svg>
