<svg width="58" height="70" viewBox="0 0 58 70" fill="none" xmlns="http://www.w3.org/2000/svg">
<path d="M51.1364 14.7777C41.2135 17.8894 39.6916 25.6659 39.6916 30.333C32.8181 22.5553 32.8181 13.2223 32.8181 0C11.4481 8.55531 16.7898 31.8883 16.0272 39.667C10.6844 35 9.15807 24.1106 9.15807 24.1106C3.05269 27.2223 0 35 0 41.2223C0 56.7777 12.9778 70 29.0028 70C29.1403 70 29.2757 69.9912 29.4121 69.9902C22.6883 69.7812 16.7898 63.6573 16.7898 56.7777C17.5535 49.7777 28.2346 44.333 28.2346 38.1106C38.1608 42 35.8675 52.8894 35.8675 56C38.1564 53.667 38.919 49 38.919 49C41.2091 50.5553 42.7355 53.667 42.7355 56.7777C42.7355 63.3161 37.4081 69.1753 31.1068 69.9191C46.148 68.8811 58 56.8323 58 41.2223C58.0044 31.8883 51.1364 27.2223 51.1364 14.7777Z" fill="url(#paint0_linear)"/>
<defs>
<linearGradient id="paint0_linear" x1="29" y1="0" x2="29" y2="70" gradientUnits="userSpaceOnUse">
<stop stop-color="#00DDFF"/>
<stop offset="1" stop-color="#00DDFF" stop-opacity="0.3"/>
</linearGradient>
</defs>
</svg>
