<svg width="77" height="57" viewBox="0 0 77 57" fill="none" xmlns="http://www.w3.org/2000/svg">
<path fill-rule="evenodd" clip-rule="evenodd" d="M37.1717 16.6471C37.1304 7.50839 44.6647 0.0410683 53.9666 0.000165855C63.2692 -0.040387 70.8714 7.36086 70.9127 16.4992C70.9515 25.0744 57.1922 40.6492 55.6228 42.3964C55.4401 42.6005 55.2154 42.7642 54.9635 42.8767C54.7117 42.9892 54.4384 43.048 54.1618 43.0492C53.8851 43.0504 53.6114 42.9939 53.3585 42.8836C53.1057 42.7732 52.8796 42.6115 52.695 42.409C51.1099 40.6757 37.2105 25.2219 37.1717 16.6471ZM47.211 17.1656C47.2277 20.8667 50.3074 23.8645 54.0747 23.848C57.8431 23.8313 60.8948 20.8069 60.878 17.1054C60.8613 13.4046 57.7823 10.4069 54.0135 10.4236C50.2466 10.4397 47.1942 13.4644 47.211 17.1656ZM21.4207 8.14458C15.9678 8.17001 11.5512 12.8119 11.5754 18.4927C11.5981 23.823 19.7461 33.4294 20.6753 34.5068C20.7835 34.6327 20.916 34.7332 21.0643 34.8018C21.2125 34.8704 21.3729 34.9055 21.5351 34.9048C21.6973 34.904 21.8575 34.8675 22.0051 34.7975C22.1527 34.7276 22.2845 34.6259 22.3916 34.499C23.3116 33.4129 31.3774 23.7313 31.3546 18.4008C31.3304 12.7201 26.8739 8.11937 21.4207 8.14458ZM21.4841 22.9689C19.2757 22.9791 17.4703 21.1157 17.4605 18.815C17.4507 16.5142 19.24 14.634 21.4482 14.624C23.6575 14.6136 25.4624 16.4771 25.4722 18.7776C25.482 21.0785 23.6932 22.9585 21.4841 22.9689ZM12.8014 28.3401C15.8278 33.4659 19.7947 38.2342 20.4899 39.0571C20.6235 39.2158 20.7873 39.3425 20.9704 39.429C21.1535 39.5155 21.3517 39.5598 21.5521 39.5588C21.7524 39.5579 21.9503 39.5118 22.1326 39.4236C22.315 39.3354 22.4777 39.2072 22.61 39.0472C23.3207 38.1908 27.4831 33.0965 30.4955 27.7559L38.8551 30.0995C38.8708 30.1039 38.8864 30.1081 38.9021 30.1121C44.218 38.6961 51.1088 46.6393 52.3242 48.0189C52.5597 48.287 52.8482 48.5012 53.1708 48.6473C53.4934 48.7935 53.8427 48.8682 54.1956 48.8666C54.5486 48.8651 54.8973 48.7872 55.2186 48.6382C55.5399 48.4892 55.8266 48.2724 56.0597 48.0022C57.1552 46.7362 62.9063 39.9886 67.8826 32.2767L76.2032 52.8336C76.8538 54.4409 75.2903 56.0581 73.6619 55.4621L59.5086 50.2818C59.0647 50.1193 58.5776 50.1193 58.1337 50.2818L40.4234 56.764C39.9869 56.9238 39.5085 56.9266 39.0703 56.7719L20.6122 50.2573C20.1951 50.1101 19.741 50.1053 19.3209 50.2437L2.87545 55.661C1.25771 56.1939 -0.243237 54.5898 0.395811 53.011L9.70822 30.0039C9.94203 29.4262 10.4317 28.9906 11.0327 28.8256L12.8014 28.3401Z" fill="url(#paint0_linear)"/>
<defs>
<linearGradient id="paint0_linear" x1="38.2997" y1="-1.75984e-07" x2="38.2997" y2="56.8859" gradientUnits="userSpaceOnUse">
<stop stop-color="#00DDFF"/>
<stop offset="1" stop-color="#00DDFF" stop-opacity="0.3"/>
</linearGradient>
</defs>
</svg>
