<svg width="948" height="1050" viewBox="0 0 948 1050" fill="none" xmlns="http://www.w3.org/2000/svg">
<path d="M2 -5.5L236.505 620.405C264.62 695.447 253.427 779.571 206.667 844.651L2 1129.5" stroke="url(#paint0_linear)" stroke-width="4"/>
<path d="M13.5 -5.5L248.005 620.405C276.12 695.447 264.927 779.571 218.167 844.651L13.5 1129.5" stroke="url(#paint1_linear)" stroke-width="4"/>
<path d="M25 -5.5L259.505 620.405C287.62 695.447 276.427 779.571 229.667 844.651L25 1129.5" stroke="url(#paint2_linear)" stroke-width="4"/>
<path d="M36.5 -5.5L271.005 620.405C299.12 695.447 287.927 779.571 241.167 844.651L36.5 1129.5" stroke="url(#paint3_linear)" stroke-width="4"/>
<path opacity="0.2" d="M125 -13L387.325 617.358C419.155 693.844 409.288 781.338 361.223 848.813L159.5 1132" stroke="url(#paint4_linear)" stroke-width="120"/>
<path d="M271.005 620.405L36.5 -5.5H948V1129.5H36.5L241.167 844.651C287.927 779.571 299.12 695.447 271.005 620.405Z" fill="url(#paint5_linear)"/>
<defs>
<linearGradient id="paint0_linear" x1="141.75" y1="-5.5" x2="141.75" y2="1129.5" gradientUnits="userSpaceOnUse">
<stop stop-color="#00DDFF" stop-opacity="0.12"/>
<stop offset="0.6875" stop-color="#00DDFF"/>
<stop offset="0.916667" stop-color="#00DDFF" stop-opacity="0"/>
</linearGradient>
<linearGradient id="paint1_linear" x1="153.25" y1="-5.5" x2="153.25" y2="1129.5" gradientUnits="userSpaceOnUse">
<stop stop-color="#00DDFF" stop-opacity="0.12"/>
<stop offset="0.6875" stop-color="#00DDFF"/>
<stop offset="0.916667" stop-color="#00DDFF" stop-opacity="0"/>
</linearGradient>
<linearGradient id="paint2_linear" x1="164.75" y1="-5.5" x2="164.75" y2="1129.5" gradientUnits="userSpaceOnUse">
<stop stop-color="#00DDFF" stop-opacity="0.12"/>
<stop offset="0.6875" stop-color="#00DDFF"/>
<stop offset="0.916667" stop-color="#00DDFF" stop-opacity="0"/>
</linearGradient>
<linearGradient id="paint3_linear" x1="176.25" y1="-5.5" x2="176.25" y2="1129.5" gradientUnits="userSpaceOnUse">
<stop stop-color="#00DDFF" stop-opacity="0.12"/>
<stop offset="0.6875" stop-color="#00DDFF"/>
<stop offset="0.916667" stop-color="#00DDFF" stop-opacity="0"/>
</linearGradient>
<linearGradient id="paint4_linear" x1="298.75" y1="-5.99695" x2="298.75" y2="1129.5" gradientUnits="userSpaceOnUse">
<stop stop-color="#00DDFF" stop-opacity="0.12"/>
<stop offset="0.6875" stop-color="#00DDFF"/>
<stop offset="0.916667" stop-color="#00DDFF" stop-opacity="0"/>
</linearGradient>
<linearGradient id="paint5_linear" x1="655" y1="588" x2="241" y2="588" gradientUnits="userSpaceOnUse">
<stop stop-color="#091B46"/>
<stop offset="1" stop-color="#091B46" stop-opacity="0.5"/>
</linearGradient>
</defs>
</svg>
