<svg width="72" height="72" viewBox="0 0 72 72" fill="none" xmlns="http://www.w3.org/2000/svg">
<circle cx="36" cy="36" r="32" fill="url(#paint0_linear)"/>
<circle cx="36" cy="36" r="35.5" stroke="url(#paint1_linear)"/>
<circle cx="36" cy="36" r="30.5" stroke="url(#paint2_linear)" stroke-width="3"/>
<circle cx="36" cy="36" r="19.5" fill="#00205F" stroke="#00DDFF" stroke-dasharray="1 1"/>
<path d="M41 32.5L39.5 34C39.5 34 39.5 28 34.5 26C34.5 26 34 31.5 31.5 33.5C29 35.5 24 41.5 34 46C34 46 29 40.5 35.5 36.5C35.5 36.5 35 38.5 37.5 40.5C40 42.5 37.5 46 37.5 46C37.5 46 49.5 43 41 32.5Z" fill="url(#paint3_linear)"/>
<defs>
<linearGradient id="paint0_linear" x1="36" y1="4" x2="36" y2="68" gradientUnits="userSpaceOnUse">
<stop stop-color="#011D53"/>
<stop offset="1" stop-color="#0057A9"/>
</linearGradient>
<linearGradient id="paint1_linear" x1="36" y1="0" x2="36" y2="72" gradientUnits="userSpaceOnUse">
<stop offset="0.678178" stop-color="#00DDFF"/>
<stop offset="1" stop-color="#005585"/>
</linearGradient>
<linearGradient id="paint2_linear" x1="36" y1="4" x2="36" y2="68" gradientUnits="userSpaceOnUse">
<stop offset="0.678178" stop-color="#7AEDFF"/>
<stop offset="1" stop-color="#27CEF3"/>
</linearGradient>
<linearGradient id="paint3_linear" x1="36.0307" y1="26" x2="36.0307" y2="46" gradientUnits="userSpaceOnUse">
<stop stop-color="#00FFCF"/>
<stop offset="1" stop-color="#00DDFF"/>
</linearGradient>
</defs>
</svg>
