<svg width="72" height="72" viewBox="0 0 72 72" fill="none" xmlns="http://www.w3.org/2000/svg">
<circle cx="36" cy="36" r="32" fill="url(#paint0_linear)"/>
<circle cx="36" cy="36" r="34" stroke="#0057A9" stroke-width="4"/>
<circle cx="36" cy="36" r="32" fill="url(#paint1_radial)"/>
<path d="M18.7734 51.2344C19.6797 51.9792 20.7578 52.3568 22.0078 52.3672C23.487 52.3464 24.237 51.8177 24.2578 50.7812C24.2682 49.9323 23.7734 49.4219 22.7734 49.25C22.3151 49.1875 21.8125 49.1172 21.2656 49.0391C20.2865 48.8776 19.5417 48.5156 19.0312 47.9531C18.5052 47.375 18.2422 46.6719 18.2422 45.8438C18.2422 44.849 18.5729 44.0469 19.2344 43.4375C19.875 42.8333 20.7839 42.526 21.9609 42.5156C23.3776 42.5469 24.6094 42.9401 25.6562 43.6953L24.6953 45.1172C23.8411 44.5547 22.901 44.263 21.875 44.2422C21.3438 44.2422 20.901 44.375 20.5469 44.6406C20.1771 44.9167 19.987 45.3281 19.9766 45.875C19.9766 46.2031 20.1042 46.5 20.3594 46.7656C20.6146 47.0365 21.0234 47.224 21.5859 47.3281C21.8984 47.3802 22.3255 47.4401 22.8672 47.5078C23.9349 47.6536 24.724 48.0365 25.2344 48.6562C25.7396 49.2656 25.9922 49.974 25.9922 50.7812C25.9349 52.9583 24.6016 54.0625 21.9922 54.0938C20.3047 54.0938 18.8542 53.5729 17.6406 52.5312L18.7734 51.2344ZM29.75 44.1484H26.6328V42.6094H34.6016V44.1484H31.4844V54H29.75V44.1484ZM35.1328 48.3047C35.1328 46.9818 35.1719 46.0964 35.25 45.6484C35.3333 45.2005 35.4609 44.8385 35.6328 44.5625C35.9089 44.0365 36.3516 43.5677 36.9609 43.1562C37.5599 42.7396 38.3073 42.526 39.2031 42.5156C40.1094 42.526 40.8646 42.7396 41.4688 43.1562C42.0677 43.5677 42.5 44.0365 42.7656 44.5625C42.9583 44.8385 43.0911 45.2005 43.1641 45.6484C43.2318 46.0964 43.2656 46.9818 43.2656 48.3047C43.2656 49.6068 43.2318 50.487 43.1641 50.9453C43.0911 51.4036 42.9583 51.7708 42.7656 52.0469C42.5 52.5729 42.0677 53.0365 41.4688 53.4375C40.8646 53.8542 40.1094 54.0729 39.2031 54.0938C38.3073 54.0729 37.5599 53.8542 36.9609 53.4375C36.3516 53.0365 35.9089 52.5729 35.6328 52.0469C35.5495 51.875 35.474 51.7109 35.4062 51.5547C35.3438 51.3932 35.2917 51.1901 35.25 50.9453C35.1719 50.487 35.1328 49.6068 35.1328 48.3047ZM36.8672 48.3047C36.8672 49.4245 36.9089 50.1823 36.9922 50.5781C37.0651 50.974 37.2135 51.2943 37.4375 51.5391C37.6198 51.7734 37.8594 51.9635 38.1562 52.1094C38.4479 52.2812 38.7969 52.3672 39.2031 52.3672C39.6146 52.3672 39.9714 52.2812 40.2734 52.1094C40.5599 51.9635 40.7891 51.7734 40.9609 51.5391C41.1849 51.2943 41.3385 50.974 41.4219 50.5781C41.5 50.1823 41.5391 49.4245 41.5391 48.3047C41.5391 47.1849 41.5 46.4219 41.4219 46.0156C41.3385 45.6302 41.1849 45.3151 40.9609 45.0703C40.7891 44.8359 40.5599 44.6406 40.2734 44.4844C39.9714 44.3333 39.6146 44.2526 39.2031 44.2422C38.7969 44.2526 38.4479 44.3333 38.1562 44.4844C37.8594 44.6406 37.6198 44.8359 37.4375 45.0703C37.2135 45.3151 37.0651 45.6302 36.9922 46.0156C36.9089 46.4219 36.8672 47.1849 36.8672 48.3047ZM47.0156 47.9219H49.5703C50.2109 47.9115 50.6927 47.7135 51.0156 47.3281C51.3229 46.9531 51.4766 46.5365 51.4766 46.0781C51.4766 45.6979 51.4141 45.3776 51.2891 45.1172C51.1589 44.8828 50.9766 44.6979 50.7422 44.5625C50.388 44.3385 49.9766 44.2318 49.5078 44.2422H47.0156V47.9219ZM45.2891 42.6094H49.4141C49.862 42.6094 50.2943 42.651 50.7109 42.7344C51.1276 42.8438 51.5495 43.0677 51.9766 43.4062C52.3359 43.6615 52.6276 44.026 52.8516 44.5C53.0859 44.9583 53.2031 45.5 53.2031 46.125C53.2031 46.9688 52.9062 47.737 52.3125 48.4297C51.7031 49.1589 50.8125 49.5339 49.6406 49.5547H47.0156V54H45.2891V42.6094Z" fill="white"/>
<path d="M9.20312 25.6094H16.4766V27.2422H10.9297V30.4922H15.6641V32.0234H10.9297V35.3672H16.4766V37H9.20312V25.6094ZM18.1094 25.6094H19.7344L24.8906 33.7031H24.9219V25.6094H26.6484V37H25.0156L19.8672 28.9062H19.8359V37H18.1094V25.6094ZM32.7578 30.7266H36.8047V33.0469C36.7839 34.1875 36.3932 35.1432 35.6328 35.9141C34.8672 36.6797 33.9036 37.0729 32.7422 37.0938C31.8464 37.0729 31.099 36.8542 30.5 36.4375C29.8906 36.0365 29.4479 35.5729 29.1719 35.0469C29.0885 34.875 29.013 34.7109 28.9453 34.5547C28.8828 34.3932 28.8307 34.1901 28.7891 33.9453C28.7109 33.487 28.6719 32.6068 28.6719 31.3047C28.6719 29.9818 28.7109 29.0964 28.7891 28.6484C28.8724 28.2005 29 27.8385 29.1719 27.5625C29.4479 27.0365 29.8906 26.5677 30.5 26.1562C31.099 25.7396 31.8464 25.526 32.7422 25.5156C33.8411 25.526 34.737 25.8516 35.4297 26.4922C36.1224 27.138 36.5599 27.9375 36.7422 28.8906H34.9141C34.7734 28.4323 34.5182 28.0417 34.1484 27.7188C33.763 27.4115 33.2943 27.2526 32.7422 27.2422C32.3359 27.2526 31.987 27.3333 31.6953 27.4844C31.3984 27.6406 31.1589 27.8359 30.9766 28.0703C30.7526 28.3151 30.6042 28.6302 30.5312 29.0156C30.4479 29.4219 30.4062 30.1849 30.4062 31.3047C30.4062 32.4245 30.4479 33.1823 30.5312 33.5781C30.6042 33.974 30.7526 34.2943 30.9766 34.5391C31.1589 34.7734 31.3984 34.9635 31.6953 35.1094C31.987 35.2812 32.3359 35.3672 32.7422 35.3672C33.4141 35.3672 33.9688 35.138 34.4062 34.6797C34.8438 34.2422 35.0677 33.6667 35.0781 32.9531V32.3594H32.7578V30.7266ZM38.8281 25.6094H40.5547V37H38.8281V25.6094ZM42.9531 25.6094H44.5781L49.7344 33.7031H49.7656V25.6094H51.4922V37H49.8594L44.7109 28.9062H44.6797V37H42.9531V25.6094ZM53.9062 25.6094H61.1797V27.2422H55.6328V30.4922H60.3672V32.0234H55.6328V35.3672H61.1797V37H53.9062V25.6094Z" fill="white"/>
<defs>
<linearGradient id="paint0_linear" x1="36" y1="4" x2="36" y2="68" gradientUnits="userSpaceOnUse">
<stop stop-color="#0057A9" stop-opacity="0"/>
<stop offset="1" stop-color="#0057A9"/>
</linearGradient>
<radialGradient id="paint1_radial" cx="0" cy="0" r="1" gradientUnits="userSpaceOnUse" gradientTransform="translate(36 36) rotate(90) scale(32)">
<stop offset="0.74494" stop-color="#00FFCF" stop-opacity="0"/>
<stop offset="1" stop-color="#00FFCF"/>
</radialGradient>
</defs>
</svg>
