<?xml version="1.0" standalone="no"?><!DOCTYPE svg PUBLIC "-//W3C//DTD SVG 1.1//EN" "http://www.w3.org/Graphics/SVG/1.1/DTD/svg11.dtd"><svg t="1587965742905" class="icon" viewBox="0 0 1024 1024" version="1.1" xmlns="http://www.w3.org/2000/svg" p-id="3546" width="48" height="48" fill="#ffffff" xmlns:xlink="http://www.w3.org/1999/xlink"><defs><style type="text/css"></style></defs><path d="M892.038 182.873l-708.65 708.65h190.333c18.99 0 34.384 15.447 34.384 34.5 0 19.054-15.394 34.5-34.384 34.5H98.644c-18.99 0-34.385-15.446-34.385-34.5v-276c0-9.15 3.623-17.925 10.071-24.395a34.326 34.326 0 0 1 24.314-10.105c9.119 0 17.865 3.635 24.313 10.105a34.559 34.559 0 0 1 10.071 24.395V840.06l706.425-706.425H651.346c-18.99 0-34.384-15.446-34.384-34.5 0-19.054 15.394-34.5 34.384-34.5h275.077c18.99 0 34.385 15.446 34.385 34.5v276c0 9.15-3.623 17.925-10.071 24.395a34.326 34.326 0 0 1-24.314 10.105 34.326 34.326 0 0 1-24.314-10.105 34.559 34.559 0 0 1-10.07-24.395V182.873zM99.385 410a34.326 34.326 0 0 1-24.314-10.105A34.559 34.559 0 0 1 65 375.5v-276C65 80.446 80.395 65 99.385 65h275.077c18.99 0 34.384 15.446 34.384 34.5 0 19.054-15.394 34.5-34.384 34.5H133.769v241.5c0 9.15-3.622 17.925-10.07 24.395A34.326 34.326 0 0 1 99.384 410z m825.23 552H649.538c-18.99 0-34.384-15.446-34.384-34.5 0-19.054 15.394-34.5 34.384-34.5h240.693V651.5c0-19.054 15.394-34.5 34.384-34.5 18.99 0 34.385 15.446 34.385 34.5v276c0 19.054-15.395 34.5-34.385 34.5z" p-id="3547"></path></svg>