<?xml version="1.0" standalone="no"?><!DOCTYPE svg PUBLIC "-//W3C//DTD SVG 1.1//EN" "http://www.w3.org/Graphics/SVG/1.1/DTD/svg11.dtd"><svg t="1590489732577" class="icon" viewBox="0 0 1024 1024" version="1.1" xmlns="http://www.w3.org/2000/svg" p-id="1028" width="48" height="48" xmlns:xlink="http://www.w3.org/1999/xlink"><defs><style type="text/css"></style></defs><path d="M290.909091 158.254545c72.145455 0 132.654545 58.181818 132.654545 132.654546v132.654545h-132.654545c-72.145455 0-132.654545-58.181818-132.654546-132.654545s60.509091-132.654545 132.654546-132.654546m0-65.163636C181.527273 93.090909 93.090909 181.527273 93.090909 290.909091S181.527273 488.727273 290.909091 488.727273H488.727273v-197.818182c2.327273-109.381818-88.436364-197.818182-197.818182-197.818182zM423.563636 600.436364v132.654545c0 72.145455-58.181818 132.654545-132.654545 132.654546-72.145455 0-132.654545-58.181818-132.654546-132.654546s58.181818-132.654545 132.654546-132.654545h132.654545m67.490909-67.490909h-197.818181c-109.381818 0-197.818182 88.436364-197.818182 197.818181s88.436364 197.818182 197.818182 197.818182 197.818182-88.436364 197.818181-197.818182v-197.818181zM733.090909 158.254545c72.145455 0 132.654545 58.181818 132.654546 132.654546s-58.181818 132.654545-132.654546 132.654545h-132.654545v-132.654545c0-72.145455 58.181818-132.654545 132.654545-132.654546m0-65.163636C623.709091 93.090909 535.272727 181.527273 535.272727 290.909091V488.727273h197.818182c109.381818 0 197.818182-88.436364 197.818182-197.818182S842.472727 93.090909 733.090909 93.090909zM733.090909 600.436364c72.145455 0 132.654545 58.181818 132.654546 132.654545s-58.181818 132.654545-132.654546 132.654546c-72.145455 0-132.654545-58.181818-132.654545-132.654546v-132.654545h132.654545m0-67.490909H535.272727v197.818181c0 109.381818 88.436364 197.818182 197.818182 197.818182s197.818182-88.436364 197.818182-197.818182c0-107.054545-88.436364-197.818182-197.818182-197.818181z" fill="#ffffff" p-id="1029"></path></svg>