<svg width="96" height="96" viewBox="0 0 96 96" fill="none" xmlns="http://www.w3.org/2000/svg">
<g opacity="0.6">
<path opacity="0.884975" fill-rule="evenodd" clip-rule="evenodd" d="M0 34.7234H29.9016V88.9969C29.9016 88.9969 25.4662 96 15.3135 96C5.16086 96 0 88.9969 0 88.9969V34.7234Z" fill="url(#paint0_linear)"/>
<path opacity="0.884975" fill-rule="evenodd" clip-rule="evenodd" d="M33.0488 6.71118H62.9505V81.9939C62.9505 81.9939 58.515 88.9969 48.3624 88.9969C38.2097 88.9969 33.0488 81.9939 33.0488 81.9939V6.71118Z" fill="url(#paint1_linear)"/>
<path opacity="0.884975" fill-rule="evenodd" clip-rule="evenodd" d="M66.0986 34.7234H96.0003V88.9969C96.0003 88.9969 91.5648 96 81.4122 96C71.2595 96 66.0986 88.9969 66.0986 88.9969V34.7234Z" fill="url(#paint2_linear)"/>
<ellipse cx="47.9996" cy="7.87842" rx="14.9508" ry="7.87842" fill="url(#paint3_linear)"/>
<path d="M62.4505 7.87842C62.4505 9.77631 60.9816 11.6141 58.3384 13.007C55.7181 14.3877 52.0636 15.2568 47.9996 15.2568C43.9356 15.2568 40.2812 14.3877 37.6609 13.007C35.0177 11.6141 33.5488 9.77631 33.5488 7.87842C33.5488 5.98053 35.0177 4.14274 37.6609 2.74988C40.2812 1.36911 43.9356 0.5 47.9996 0.5C52.0636 0.5 55.7181 1.36911 58.3384 2.74988C60.9816 4.14274 62.4505 5.98053 62.4505 7.87842Z" stroke="#58CEF2" stroke-opacity="0.64"/>
<ellipse cx="81.0495" cy="34.5774" rx="14.9508" ry="7.44073" fill="url(#paint4_linear)"/>
<path d="M95.5003 34.5774C95.5003 36.3395 94.0518 38.0707 91.3985 39.3912C88.7758 40.6965 85.1175 41.5182 81.0495 41.5182C76.9814 41.5182 73.3231 40.6965 70.7004 39.3912C68.0471 38.0707 66.5986 36.3395 66.5986 34.5774C66.5986 32.8154 68.0471 31.0842 70.7004 29.7637C73.3231 28.4584 76.9814 27.6367 81.0495 27.6367C85.1175 27.6367 88.7758 28.4584 91.3985 29.7637C94.0518 31.0842 95.5003 32.8154 95.5003 34.5774Z" stroke="#58CEF2" stroke-opacity="0.64"/>
<ellipse cx="14.9508" cy="34.5774" rx="14.9508" ry="7.44073" fill="url(#paint5_linear)"/>
<path d="M29.4016 34.5774C29.4016 36.3395 27.9532 38.0707 25.2999 39.3912C22.6772 40.6965 19.0189 41.5182 14.9508 41.5182C10.8827 41.5182 7.22448 40.6965 4.60177 39.3912C1.94849 38.0707 0.5 36.3395 0.5 34.5774C0.5 32.8154 1.94849 31.0842 4.60177 29.7637C7.22448 28.4584 10.8827 27.6367 14.9508 27.6367C19.0189 27.6367 22.6772 28.4584 25.2999 29.7637C27.9532 31.0842 29.4016 32.8154 29.4016 34.5774Z" stroke="#58CEF2" stroke-opacity="0.64"/>
</g>
<defs>
<linearGradient id="paint0_linear" x1="0" y1="34.7234" x2="0" y2="96" gradientUnits="userSpaceOnUse">
<stop stop-color="#111B85"/>
<stop offset="1" stop-color="#5EE2FD"/>
</linearGradient>
<linearGradient id="paint1_linear" x1="33.0488" y1="6.71118" x2="33.0488" y2="88.9969" gradientUnits="userSpaceOnUse">
<stop stop-color="#111B85"/>
<stop offset="1" stop-color="#5EE2FD"/>
</linearGradient>
<linearGradient id="paint2_linear" x1="66.0986" y1="34.7234" x2="66.0986" y2="96" gradientUnits="userSpaceOnUse">
<stop stop-color="#111B85"/>
<stop offset="1" stop-color="#5EE2FD"/>
</linearGradient>
<linearGradient id="paint3_linear" x1="33.0488" y1="0" x2="33.0488" y2="15.7568" gradientUnits="userSpaceOnUse">
<stop stop-color="#161094"/>
<stop offset="1" stop-color="#5EE2FD"/>
</linearGradient>
<linearGradient id="paint4_linear" x1="66.0986" y1="27.1367" x2="66.0986" y2="42.0182" gradientUnits="userSpaceOnUse">
<stop stop-color="#161094"/>
<stop offset="1" stop-color="#5EE2FD"/>
</linearGradient>
<linearGradient id="paint5_linear" x1="0" y1="27.1367" x2="0" y2="42.0182" gradientUnits="userSpaceOnUse">
<stop stop-color="#161094"/>
<stop offset="1" stop-color="#5EE2FD"/>
</linearGradient>
</defs>
</svg>
