<svg width="144" height="130" viewBox="0 0 144 130" fill="none" xmlns="http://www.w3.org/2000/svg">
<path d="M12.912 108.512C12.408 108.2 11.88 107.936 11.352 107.696C11.496 107.336 11.64 106.976 11.784 106.592H13.464C13.296 107.24 13.104 107.888 12.912 108.512ZM12.504 104.432C12.648 103.856 12.768 103.28 12.912 102.704L10.752 102.44C10.056 105.872 8.736 108.776 6.792 111.128L8.136 112.88C8.376 112.592 8.616 112.28 8.88 111.968C9.432 112.304 10.008 112.688 10.584 113.168C9.768 114.248 8.832 115.16 7.776 115.928L9.336 117.776C11.976 115.808 13.824 113.168 14.832 109.808H16.632C16.248 111.944 14.952 114.176 12.744 116.528L14.4 118.256C16.152 116.264 17.328 114.2 17.928 112.088C18.624 114.152 19.872 116.144 21.672 118.064L23.304 116.336C21 114.08 19.656 111.896 19.224 109.808H22.776V107.552H19.08V102.44H16.776V107.552H15.336L15.552 106.088V104.432H12.504ZM11.568 111.608C11.016 111.224 10.44 110.864 9.864 110.528C10.104 110.12 10.32 109.712 10.56 109.304C11.112 109.568 11.664 109.88 12.24 110.264C12.024 110.696 11.808 111.152 11.568 111.608ZM20.832 103.184L19.224 104.216C20.04 105.368 20.664 106.4 21.144 107.36L22.824 106.184C22.344 105.32 21.696 104.336 20.832 103.184ZM9.528 118.304C9.024 120.512 8.448 122.336 7.776 123.776L10.152 124.64C10.776 122.984 11.28 121.064 11.688 118.88L9.528 118.304ZM14.616 118.832L12.528 119.072C12.6 120.656 12.672 122.456 12.768 124.496L15.024 124.184C14.904 122.192 14.76 120.416 14.616 118.832ZM17.832 118.52L15.72 118.952C16.104 120.512 16.44 122.312 16.704 124.376L19.128 123.824C18.744 121.904 18.312 120.152 17.832 118.52ZM21.168 118.04L19.104 118.76C19.848 120.368 20.52 122.24 21.144 124.352L23.352 123.344C22.728 121.472 22.008 119.696 21.168 118.04ZM1.464 106.952C1.416 109.256 1.248 111.44 0.96 113.504L2.904 114.032C3.144 111.848 3.288 109.544 3.336 107.096L1.464 106.952ZM5.544 118.136C5.928 118.976 6.36 120.008 6.864 121.256L8.424 118.928C7.608 117.776 6.816 116.72 6 115.712C6.168 114.344 6.264 112.856 6.288 111.272V109.976C7.152 109.112 7.968 108.104 8.688 106.952L7.512 105.296C7.128 106.088 6.72 106.808 6.288 107.48V102.44H4.032V111.272C3.984 116.48 2.88 120.272 0.696 122.624L2.592 124.28C3.936 122.744 4.92 120.68 5.544 118.136ZM30.36 106.64H45.072V104.24H31.584C31.824 103.736 32.04 103.208 32.28 102.632L29.736 102.056C28.344 105.392 26.736 107.984 24.912 109.808L26.52 111.752C27.912 110.336 29.208 108.632 30.36 106.64ZM44.328 124.496C44.952 124.496 45.528 124.136 46.032 123.416C46.512 122.72 46.968 121.28 47.352 119.12L45.288 118.112C45.12 118.976 44.952 119.768 44.808 120.44C44.568 121.256 44.328 121.688 44.088 121.688C43.608 121.688 43.272 121.304 43.08 120.584C42.84 119.816 42.72 118.088 42.72 115.4V111.776H27.096V114.152H40.44V115.4C40.44 119.072 40.752 121.496 41.4 122.696C42.024 123.872 43.008 124.472 44.328 124.496ZM29.76 108.08V110.384H43.992V108.08H29.76ZM57.384 111.56C56.568 111.992 55.728 112.376 54.912 112.76V108.824H57.336V106.448H54.912V102.368H52.44V106.448H49.248V108.824H52.44V113.72C51.24 114.128 50.016 114.464 48.768 114.728L49.392 117.2C50.4 116.888 51.432 116.552 52.44 116.168V121.328C52.44 121.904 52.152 122.192 51.624 122.192C51 122.192 50.352 122.12 49.656 122.024L50.232 124.424H52.512C54.096 124.424 54.912 123.584 54.912 121.952V115.184C55.728 114.824 56.568 114.44 57.384 114.056V111.56ZM60.624 113.912H61.536C61.896 116.072 62.832 118.088 64.32 119.96C63.408 120.92 62.28 121.736 60.936 122.384L62.136 124.592C63.624 123.872 64.92 122.96 66.024 121.832C67.032 122.792 68.208 123.704 69.576 124.568L71.256 122.624C69.792 121.832 68.52 120.968 67.44 120.032C68.568 118.304 69.312 116.216 69.672 113.792V111.632H60.624V105.32H67.128C67.08 106.52 66.96 107.264 66.816 107.576C66.672 107.816 66.456 107.96 66.216 108.032C65.928 108.08 65.52 108.104 64.968 108.104C64.416 108.104 63.96 108.08 63.6 108.08L64.272 110.216H66.096C67.728 110.216 68.712 109.76 69.048 108.848C69.36 107.888 69.528 105.944 69.528 103.064H58.248V124.52H60.624V113.912ZM63.744 113.912H67.32C66.984 115.496 66.432 116.912 65.688 118.16C64.704 116.864 64.056 115.448 63.744 113.912ZM78.912 102.296V107.96C77.256 108.824 75.36 109.568 73.224 110.192L74.208 112.448C75.984 111.8 77.544 111.104 78.912 110.36V113.288H81.456V102.296H78.912ZM82.464 104.792V107.024H87.24V109.856H83.208V112.088H93.84V109.856H89.76V107.024H94.512V104.792H89.76V102.248H87.24V104.792H82.464ZM74.928 103.208L73.608 105.152C74.88 105.68 76.128 106.4 77.376 107.336L78.6 105.392C77.496 104.528 76.272 103.808 74.928 103.208ZM73.272 114.224V116.48H81.312C79.464 117.824 76.752 118.952 73.152 119.864L74.448 121.976C75.84 121.52 77.112 121.016 78.312 120.464V121.232C78.312 121.76 77.952 122.168 77.28 122.432L77.808 124.568C80.88 123.992 83.52 123.392 85.68 122.768L85.296 120.56C83.808 121.04 82.248 121.472 80.592 121.832V119.264C81.888 118.472 83.016 117.608 83.952 116.648C85.992 120.464 89.184 123.128 93.528 124.616L94.992 122.456C93.216 121.928 91.632 121.232 90.24 120.344C91.368 119.624 92.376 118.808 93.24 117.896L91.656 116.48H94.728V114.224H85.752C85.368 113.48 84.96 112.784 84.48 112.16L82.176 112.928C82.512 113.336 82.824 113.768 83.112 114.224H73.272ZM86.256 116.48H91.344C90.528 117.416 89.568 118.256 88.464 119C87.624 118.28 86.88 117.44 86.256 116.48ZM100.2 102.344V106.616H97.536V109.04H100.176C99.456 111.752 98.304 114.176 96.744 116.312L97.824 119.048C98.736 117.512 99.528 115.832 100.2 114.056V124.496H102.672V113.264C103.248 114.08 103.896 115.088 104.64 116.288L106.056 114.152C104.904 112.808 103.776 111.584 102.672 110.48V109.04H105.192V106.616H102.672V102.344H100.2ZM107.304 113.264C106.704 116.024 105.672 118.616 104.208 121.064L106.392 122.456C107.784 120.008 108.84 117.128 109.584 113.768L107.304 113.264ZM116.76 113.048L114.528 113.816C115.368 116.408 116.136 119.36 116.856 122.72L119.16 121.688C118.488 118.616 117.672 115.736 116.76 113.048ZM110.952 124.232C112.608 124.232 113.448 123.392 113.448 121.712V111.632H119.064V109.232H105.384V111.632H110.952V121.088C110.952 121.712 110.664 122.048 110.112 122.048C109.44 122.048 108.744 122 108 121.904L108.528 124.232H110.952ZM106.632 103.472V105.848H117.816V103.472H106.632ZM123.168 102.872L121.008 104.216C122.52 106.328 123.72 108.248 124.584 109.976L126.672 108.536C125.856 106.928 124.704 105.032 123.168 102.872ZM124.44 113.456C123.48 116.816 122.352 120.128 121.056 123.344L123.432 124.4C124.632 121.28 125.736 117.92 126.72 114.368L124.44 113.456ZM131.16 113.36H135.36V115.856H131.16V113.36ZM131.16 118.136H135.36V120.896H131.16V118.136ZM131.16 123.224H142.968V120.896H137.784V118.136H142.008V115.856H137.784V113.36H141.96V111.056H137.784V108.488H142.464V106.136H138.096C137.784 104.912 137.376 103.568 136.872 102.08L134.448 102.752C134.928 103.832 135.336 104.96 135.72 106.136H131.52C131.952 105.032 132.336 103.904 132.648 102.752L130.272 102.272C129.456 105.536 128.064 108.56 126.096 111.296L126.912 113.888C127.536 113.096 128.136 112.28 128.712 111.44V124.52H131.16V123.224ZM135.36 108.488V111.056H131.16V108.488H135.36Z" fill="white"/>
<path d="M30.704 27.592C28.976 29.392 26.816 31.048 24.224 32.632C21.632 34.072 19.184 35.08 16.88 35.656V44.008C21.632 42.64 25.52 40.552 28.616 37.744V79H37.04V27.592H30.704ZM65.1313 26.584C59.0833 26.584 54.4033 29.032 51.0913 34.072C47.9233 38.824 46.3393 45.232 46.3393 53.296C46.3393 61.36 47.9233 67.768 51.0913 72.52C54.4033 77.488 59.0833 80.008 65.1313 80.008C71.1073 80.008 75.7873 77.488 79.1713 72.52C82.3393 67.768 83.9233 61.36 83.9233 53.296C83.9233 45.232 82.3393 38.824 79.1713 34.072C75.7873 29.032 71.1073 26.584 65.1313 26.584ZM65.1313 33.712C69.1633 33.712 72.0433 35.944 73.7713 40.552C74.9233 43.648 75.4993 47.896 75.4993 53.296C75.4993 58.624 74.9233 62.872 73.7713 66.04C72.0433 70.576 69.1633 72.88 65.1313 72.88C61.0273 72.88 58.1473 70.576 56.4913 66.04C55.3393 62.872 54.7633 58.624 54.7633 53.296C54.7633 47.896 55.3393 43.648 56.4913 40.552C58.1473 35.944 61.0273 33.712 65.1313 33.712ZM109.095 26.584C103.551 26.584 99.0871 28.456 95.7031 32.2C92.3911 35.728 90.7351 40.336 90.6631 46.096H99.0871C99.2311 42.064 100.095 38.968 101.679 36.952C103.263 34.792 105.639 33.712 108.807 33.712C111.759 33.712 113.991 34.36 115.503 35.728C116.943 37.096 117.735 39.184 117.735 41.992C117.735 44.872 116.583 47.608 114.351 50.128C112.911 51.64 110.607 53.584 107.295 55.888C101.319 59.992 97.3591 63.16 95.4871 65.32C92.0311 69.208 90.3751 73.744 90.3751 79H126.231V71.584H100.887C102.039 68.992 105.207 65.968 110.463 62.512C115.503 59.128 119.103 56.392 121.119 54.232C124.431 50.56 126.159 46.528 126.159 42.064C126.159 37.456 124.575 33.784 121.407 30.904C118.167 28.024 114.063 26.584 109.095 26.584Z" fill="#2660B4"/>
<path d="M30.704 27.592V26.592H30.2778L29.9826 26.8995L30.704 27.592ZM24.224 32.632L24.7096 33.5062L24.7278 33.4961L24.7455 33.4853L24.224 32.632ZM16.88 35.656L16.6375 34.6859L15.88 34.8752V35.656H16.88ZM16.88 44.008H15.88V45.3365L17.1566 44.969L16.88 44.008ZM28.616 37.744H29.616V35.487L27.9442 37.0033L28.616 37.744ZM28.616 79H27.616V80H28.616V79ZM37.04 79V80H38.04V79H37.04ZM37.04 27.592H38.04V26.592H37.04V27.592ZM29.9826 26.8995C28.3296 28.6214 26.2432 30.2261 23.7026 31.7787L24.7455 33.4853C27.3888 31.8699 29.6224 30.1626 31.4254 28.2845L29.9826 26.8995ZM23.7384 31.7578C21.2048 33.1654 18.8386 34.1356 16.6375 34.6859L17.1225 36.6261C19.5294 36.0244 22.0592 34.9786 24.7096 33.5062L23.7384 31.7578ZM15.88 35.656V44.008H17.88V35.656H15.88ZM17.1566 44.969C22.0315 43.5656 26.0615 41.4109 29.2878 38.4847L27.9442 37.0033C24.9785 39.6931 21.2325 41.7144 16.6034 43.047L17.1566 44.969ZM27.616 37.744V79H29.616V37.744H27.616ZM28.616 80H37.04V78H28.616V80ZM38.04 79V27.592H36.04V79H38.04ZM37.04 26.592H30.704V28.592H37.04V26.592ZM51.0913 34.072L51.9233 34.6267L51.927 34.6212L51.0913 34.072ZM51.0913 72.52L50.2592 73.0747L51.0913 72.52ZM79.1712 72.52L79.9978 73.083L80.0033 73.0747L79.1712 72.52ZM79.1712 34.072L80.0033 33.5173L80.0015 33.5146L79.1712 34.072ZM73.7713 40.552L74.7085 40.2033L74.7076 40.2009L73.7713 40.552ZM73.7713 66.04L74.7057 66.396L74.7084 66.3889L74.711 66.3817L73.7713 66.04ZM56.4912 66.04L55.5515 66.3817L55.5519 66.3829L56.4912 66.04ZM56.4912 40.552L57.4285 40.9008L57.4323 40.8902L56.4912 40.552ZM65.1313 25.584C58.7568 25.584 53.758 28.1929 50.2555 33.5228L51.927 34.6212C55.0485 29.8711 59.4097 27.584 65.1313 27.584V25.584ZM50.2592 33.5173C46.9452 38.4883 45.3393 45.1127 45.3393 53.296H47.3392C47.3392 45.3513 48.9013 39.1597 51.9233 34.6267L50.2592 33.5173ZM45.3393 53.296C45.3393 61.4793 46.9452 68.1037 50.2592 73.0747L51.9233 71.9653C48.9013 67.4323 47.3392 61.2407 47.3392 53.296H45.3393ZM50.2592 73.0747C53.757 78.3215 58.7496 81.008 65.1313 81.008V79.008C59.4169 79.008 55.0495 76.6545 51.9233 71.9653L50.2592 73.0747ZM65.1313 81.008C71.4449 81.008 76.4314 78.3187 79.9977 73.083L78.3448 71.957C75.1431 76.6573 70.7696 79.008 65.1313 79.008V81.008ZM80.0033 73.0747C83.3173 68.1037 84.9233 61.4793 84.9233 53.296H82.9233C82.9233 61.2407 81.3612 67.4323 78.3392 71.9653L80.0033 73.0747ZM84.9233 53.296C84.9233 45.1127 83.3173 38.4883 80.0033 33.5173L78.3392 34.6267C81.3612 39.1597 82.9233 45.3513 82.9233 53.296H84.9233ZM80.0015 33.5146C76.4302 28.1957 71.4377 25.584 65.1313 25.584V27.584C70.7768 27.584 75.1443 29.8683 78.341 34.6294L80.0015 33.5146ZM65.1313 34.712C66.9501 34.712 68.4532 35.2105 69.6966 36.1896C70.9529 37.179 72.0145 38.7153 72.8349 40.9031L74.7076 40.2009C73.8 37.7807 72.5576 35.897 70.9339 34.6184C69.2973 33.3295 67.3444 32.712 65.1313 32.712V34.712ZM72.834 40.9007C73.9265 43.8368 74.4993 47.9493 74.4993 53.296H76.4993C76.4993 47.8427 75.92 43.4592 74.7085 40.2033L72.834 40.9007ZM74.4993 53.296C74.4993 58.5671 73.9274 62.6845 72.8315 65.6983L74.711 66.3817C75.9191 63.0595 76.4993 58.6809 76.4993 53.296H74.4993ZM72.8368 65.684C72.0165 67.8372 70.9541 69.3772 69.6935 70.3777C68.4465 71.3676 66.943 71.88 65.1313 71.88V73.88C67.3516 73.88 69.304 73.2404 70.937 71.9443C72.5564 70.6588 73.798 68.7787 74.7057 66.396L72.8368 65.684ZM65.1313 71.88C63.279 71.88 61.7588 71.365 60.515 70.3777C59.2586 69.3805 58.215 67.8457 57.4306 65.6971L55.5519 66.3829C56.4235 68.7703 57.6479 70.6555 59.2715 71.9443C60.9077 73.243 62.8795 73.88 65.1313 73.88V71.88ZM57.431 65.6983C56.3351 62.6845 55.7632 58.5671 55.7632 53.296H53.7632C53.7632 58.6809 54.3434 63.0595 55.5515 66.3817L57.431 65.6983ZM55.7632 53.296C55.7632 47.9493 56.336 43.8368 57.4285 40.9007L55.554 40.2033C54.3425 43.4592 53.7632 47.8427 53.7632 53.296H55.7632ZM57.4323 40.8902C58.217 38.7068 59.2598 37.1757 60.5119 36.1896C61.7521 35.213 63.2719 34.712 65.1313 34.712V32.712C62.8866 32.712 60.9144 33.327 59.2746 34.6184C57.6467 35.9003 56.4215 37.7892 55.5502 40.2138L57.4323 40.8902ZM95.7031 32.2L96.4322 32.8844L96.4387 32.8775L96.445 32.8705L95.7031 32.2ZM90.6631 46.096L89.6632 46.0835L89.6506 47.096H90.6631V46.096ZM99.0871 46.096V47.096H100.052L100.086 46.1317L99.0871 46.096ZM101.679 36.952L102.465 37.5698L102.476 37.5568L102.486 37.5434L101.679 36.952ZM115.503 35.728L116.192 35.003L116.183 34.9946L116.174 34.9865L115.503 35.728ZM114.351 50.128L115.075 50.8177L115.088 50.8046L115.1 50.791L114.351 50.128ZM107.295 55.888L107.861 56.7123L107.866 56.7089L107.295 55.888ZM95.4871 65.32L96.2346 65.9844L96.2428 65.9749L95.4871 65.32ZM90.3751 79H89.3751V80H90.3751V79ZM126.231 79V80H127.231V79H126.231ZM126.231 71.584H127.231V70.584H126.231V71.584ZM100.887 71.584L99.9733 71.1779L99.3484 72.584H100.887V71.584ZM110.463 62.512L111.013 63.3476L111.021 63.3422L110.463 62.512ZM121.119 54.232L121.85 54.9143L121.856 54.9081L121.862 54.9018L121.119 54.232ZM121.407 30.904L122.08 30.164L122.071 30.1566L121.407 30.904ZM109.095 25.584C103.3 25.584 98.5548 27.5537 94.9613 31.5295L96.445 32.8705C99.6195 29.3583 103.803 27.584 109.095 27.584V25.584ZM94.9741 31.5156C91.4574 35.2616 89.7377 40.1273 89.6632 46.0835L91.663 46.1085C91.7326 40.5447 93.3249 36.1944 96.4322 32.8844L94.9741 31.5156ZM90.6631 47.096H99.0871V45.096H90.6631V47.096ZM100.086 46.1317C100.227 42.1932 101.07 39.3456 102.465 37.5698L100.893 36.3342C99.12 38.5904 98.2351 41.9348 98.0878 46.0603L100.086 46.1317ZM102.486 37.5434C103.845 35.6892 105.892 34.712 108.807 34.712V32.712C105.387 32.712 102.681 33.8948 100.873 36.3606L102.486 37.5434ZM108.807 34.712C111.633 34.712 113.578 35.3348 114.832 36.4695L116.174 34.9865C114.404 33.3852 111.885 32.712 108.807 32.712V34.712ZM114.814 36.453C115.999 37.5781 116.735 39.3681 116.735 41.992H118.735C118.735 38.9999 117.888 36.6139 116.192 35.003L114.814 36.453ZM116.735 41.992C116.735 44.5829 115.705 47.0913 113.603 49.465L115.1 50.791C117.461 48.1247 118.735 45.1611 118.735 41.992H116.735ZM113.627 49.4383C112.25 50.8839 110.005 52.7846 106.724 55.0671L107.866 56.7089C111.209 54.3834 113.572 52.396 115.075 50.8177L113.627 49.4383ZM106.729 55.0637C100.757 59.165 96.6972 62.3969 94.7314 64.6651L96.2428 65.9749C98.021 63.9231 101.881 60.819 107.861 56.7123L106.729 55.0637ZM94.7397 64.6556C91.1139 68.7347 89.3751 73.51 89.3751 79H91.3751C91.3751 73.978 92.9484 69.6813 96.2345 65.9844L94.7397 64.6556ZM90.3751 80H126.231V78H90.3751V80ZM127.231 79V71.584H125.231V79H127.231ZM126.231 70.584H100.887V72.584H126.231V70.584ZM101.801 71.9901C102.826 69.6847 105.769 66.7955 111.013 63.3476L109.914 61.6764C104.646 65.1405 101.253 68.2993 99.9733 71.1779L101.801 71.9901ZM111.021 63.3422C116.06 59.9588 119.748 57.1671 121.85 54.9143L120.388 53.5497C118.459 55.6169 114.947 58.2972 109.906 61.6818L111.021 63.3422ZM121.862 54.9018C125.311 51.0777 127.159 46.815 127.159 42.064H125.159C125.159 46.241 123.551 50.0423 120.377 53.5622L121.862 54.9018ZM127.159 42.064C127.159 37.1931 125.47 33.2459 122.08 30.1641L120.734 31.6439C123.68 34.3221 125.159 37.7189 125.159 42.064H127.159ZM122.071 30.1566C118.622 27.0902 114.27 25.584 109.095 25.584V27.584C113.856 27.584 117.712 28.9578 120.743 31.6514L122.071 30.1566Z" fill="#2660B4"/>
<g filter="url(#filter0_i)">
<path d="M25.704 24.592C23.976 26.392 21.816 28.048 19.224 29.632C16.632 31.072 14.184 32.08 11.88 32.656V41.008C16.632 39.64 20.52 37.552 23.616 34.744V76H32.04V24.592H25.704ZM60.1313 23.584C54.0833 23.584 49.4033 26.032 46.0913 31.072C42.9233 35.824 41.3393 42.232 41.3393 50.296C41.3393 58.36 42.9233 64.768 46.0913 69.52C49.4033 74.488 54.0833 77.008 60.1313 77.008C66.1073 77.008 70.7873 74.488 74.1713 69.52C77.3393 64.768 78.9233 58.36 78.9233 50.296C78.9233 42.232 77.3393 35.824 74.1713 31.072C70.7873 26.032 66.1073 23.584 60.1313 23.584ZM60.1313 30.712C64.1633 30.712 67.0433 32.944 68.7713 37.552C69.9233 40.648 70.4993 44.896 70.4993 50.296C70.4993 55.624 69.9233 59.872 68.7713 63.04C67.0433 67.576 64.1633 69.88 60.1313 69.88C56.0273 69.88 53.1473 67.576 51.4913 63.04C50.3393 59.872 49.7633 55.624 49.7633 50.296C49.7633 44.896 50.3393 40.648 51.4913 37.552C53.1473 32.944 56.0273 30.712 60.1313 30.712ZM104.095 23.584C98.5511 23.584 94.0871 25.456 90.7031 29.2C87.3911 32.728 85.7351 37.336 85.6631 43.096H94.0871C94.2311 39.064 95.0951 35.968 96.6791 33.952C98.2631 31.792 100.639 30.712 103.807 30.712C106.759 30.712 108.991 31.36 110.503 32.728C111.943 34.096 112.735 36.184 112.735 38.992C112.735 41.872 111.583 44.608 109.351 47.128C107.911 48.64 105.607 50.584 102.295 52.888C96.3191 56.992 92.3591 60.16 90.4871 62.32C87.0311 66.208 85.3751 70.744 85.3751 76H121.231V68.584H95.8871C97.0391 65.992 100.207 62.968 105.463 59.512C110.503 56.128 114.103 53.392 116.119 51.232C119.431 47.56 121.159 43.528 121.159 39.064C121.159 34.456 119.575 30.784 116.407 27.904C113.167 25.024 109.063 23.584 104.095 23.584Z" fill="#00186D"/>
</g>
<path d="M25.704 24.592V23.592H25.2778L24.9826 23.8995L25.704 24.592ZM19.224 29.632L19.7096 30.5062L19.7278 30.4961L19.7455 30.4853L19.224 29.632ZM11.88 32.656L11.6375 31.6859L10.88 31.8752V32.656H11.88ZM11.88 41.008H10.88V42.3365L12.1566 41.969L11.88 41.008ZM23.616 34.744H24.616V32.487L22.9442 34.0033L23.616 34.744ZM23.616 76H22.616V77H23.616V76ZM32.04 76V77H33.04V76H32.04ZM32.04 24.592H33.04V23.592H32.04V24.592ZM24.9826 23.8995C23.3296 25.6214 21.2432 27.2261 18.7026 28.7787L19.7455 30.4853C22.3888 28.8699 24.6224 27.1626 26.4254 25.2845L24.9826 23.8995ZM18.7384 28.7578C16.2048 30.1654 13.8386 31.1356 11.6375 31.6859L12.1225 33.6261C14.5294 33.0244 17.0592 31.9786 19.7096 30.5062L18.7384 28.7578ZM10.88 32.656V41.008H12.88V32.656H10.88ZM12.1566 41.969C17.0315 40.5656 21.0615 38.4109 24.2878 35.4847L22.9442 34.0033C19.9785 36.6931 16.2325 38.7144 11.6034 40.047L12.1566 41.969ZM22.616 34.744V76H24.616V34.744H22.616ZM23.616 77H32.04V75H23.616V77ZM33.04 76V24.592H31.04V76H33.04ZM32.04 23.592H25.704V25.592H32.04V23.592ZM46.0913 31.072L46.9233 31.6267L46.927 31.6212L46.0913 31.072ZM46.0913 69.52L45.2592 70.0747L46.0913 69.52ZM74.1712 69.52L74.9978 70.083L75.0033 70.0747L74.1712 69.52ZM74.1712 31.072L75.0033 30.5173L75.0015 30.5146L74.1712 31.072ZM68.7713 37.552L69.7085 37.2033L69.7076 37.2009L68.7713 37.552ZM68.7713 63.04L69.7057 63.396L69.7084 63.3889L69.711 63.3817L68.7713 63.04ZM51.4912 63.04L50.5515 63.3817L50.5519 63.3829L51.4912 63.04ZM51.4912 37.552L52.4285 37.9008L52.4323 37.8902L51.4912 37.552ZM60.1313 22.584C53.7568 22.584 48.758 25.1929 45.2555 30.5228L46.927 31.6212C50.0485 26.8711 54.4097 24.584 60.1313 24.584V22.584ZM45.2592 30.5173C41.9452 35.4883 40.3393 42.1127 40.3393 50.296H42.3392C42.3392 42.3513 43.9013 36.1597 46.9233 31.6267L45.2592 30.5173ZM40.3393 50.296C40.3393 58.4793 41.9452 65.1037 45.2592 70.0747L46.9233 68.9653C43.9013 64.4323 42.3392 58.2407 42.3392 50.296H40.3393ZM45.2592 70.0747C48.757 75.3215 53.7496 78.008 60.1313 78.008V76.008C54.4169 76.008 50.0495 73.6545 46.9233 68.9653L45.2592 70.0747ZM60.1313 78.008C66.4449 78.008 71.4314 75.3187 74.9977 70.083L73.3448 68.957C70.1431 73.6573 65.7696 76.008 60.1313 76.008V78.008ZM75.0033 70.0747C78.3173 65.1037 79.9233 58.4793 79.9233 50.296H77.9233C77.9233 58.2407 76.3612 64.4323 73.3392 68.9653L75.0033 70.0747ZM79.9233 50.296C79.9233 42.1127 78.3173 35.4883 75.0033 30.5173L73.3392 31.6267C76.3612 36.1597 77.9233 42.3513 77.9233 50.296H79.9233ZM75.0015 30.5146C71.4302 25.1957 66.4377 22.584 60.1313 22.584V24.584C65.7768 24.584 70.1443 26.8683 73.341 31.6294L75.0015 30.5146ZM60.1313 31.712C61.9501 31.712 63.4532 32.2105 64.6966 33.1896C65.9529 34.179 67.0145 35.7153 67.8349 37.9031L69.7076 37.2009C68.8 34.7807 67.5576 32.897 65.9339 31.6184C64.2973 30.3295 62.3444 29.712 60.1313 29.712V31.712ZM67.834 37.9007C68.9265 40.8368 69.4993 44.9493 69.4993 50.296H71.4993C71.4993 44.8427 70.92 40.4592 69.7085 37.2033L67.834 37.9007ZM69.4993 50.296C69.4993 55.5671 68.9274 59.6845 67.8315 62.6983L69.711 63.3817C70.9191 60.0595 71.4993 55.6809 71.4993 50.296H69.4993ZM67.8368 62.684C67.0165 64.8372 65.9541 66.3772 64.6935 67.3777C63.4465 68.3676 61.943 68.88 60.1313 68.88V70.88C62.3516 70.88 64.304 70.2404 65.937 68.9443C67.5564 67.6588 68.798 65.7787 69.7057 63.396L67.8368 62.684ZM60.1313 68.88C58.279 68.88 56.7588 68.365 55.515 67.3777C54.2586 66.3805 53.215 64.8457 52.4306 62.6971L50.5519 63.3829C51.4235 65.7703 52.6479 67.6555 54.2715 68.9443C55.9077 70.243 57.8795 70.88 60.1313 70.88V68.88ZM52.431 62.6983C51.3351 59.6845 50.7632 55.5671 50.7632 50.296H48.7632C48.7632 55.6809 49.3434 60.0595 50.5515 63.3817L52.431 62.6983ZM50.7632 50.296C50.7632 44.9493 51.336 40.8368 52.4285 37.9007L50.554 37.2033C49.3425 40.4592 48.7632 44.8427 48.7632 50.296H50.7632ZM52.4323 37.8902C53.217 35.7068 54.2598 34.1757 55.5119 33.1896C56.7521 32.213 58.2719 31.712 60.1313 31.712V29.712C57.8866 29.712 55.9144 30.327 54.2746 31.6184C52.6467 32.9003 51.4215 34.7892 50.5502 37.2138L52.4323 37.8902ZM90.7031 29.2L91.4322 29.8844L91.4387 29.8775L91.445 29.8705L90.7031 29.2ZM85.6631 43.096L84.6632 43.0835L84.6506 44.096H85.6631V43.096ZM94.0871 43.096V44.096H95.052L95.0865 43.1317L94.0871 43.096ZM96.6791 33.952L97.4654 34.5698L97.4757 34.5568L97.4855 34.5434L96.6791 33.952ZM110.503 32.728L111.192 32.003L111.183 31.9946L111.174 31.9865L110.503 32.728ZM109.351 47.128L110.075 47.8177L110.088 47.8046L110.1 47.791L109.351 47.128ZM102.295 52.888L102.861 53.7123L102.866 53.7089L102.295 52.888ZM90.4871 62.32L91.2346 62.9844L91.2428 62.9749L90.4871 62.32ZM85.3751 76H84.3751V77H85.3751V76ZM121.231 76V77H122.231V76H121.231ZM121.231 68.584H122.231V67.584H121.231V68.584ZM95.8871 68.584L94.9733 68.1779L94.3484 69.584H95.8871V68.584ZM105.463 59.512L106.013 60.3476L106.021 60.3422L105.463 59.512ZM116.119 51.232L116.85 51.9143L116.856 51.9081L116.862 51.9018L116.119 51.232ZM116.407 27.904L117.08 27.164L117.071 27.1566L116.407 27.904ZM104.095 22.584C98.2995 22.584 93.5548 24.5537 89.9613 28.5295L91.445 29.8705C94.6195 26.3583 98.8027 24.584 104.095 24.584V22.584ZM89.9741 28.5156C86.4574 32.2616 84.7377 37.1273 84.6632 43.0835L86.663 43.1085C86.7326 37.5447 88.3249 33.1944 91.4322 29.8844L89.9741 28.5156ZM85.6631 44.096H94.0871V42.096H85.6631V44.096ZM95.0865 43.1317C95.2271 39.1932 96.0702 36.3456 97.4654 34.5698L95.8928 33.3342C94.12 35.5904 93.2351 38.9348 93.0878 43.0603L95.0865 43.1317ZM97.4855 34.5434C98.8453 32.6892 100.892 31.712 103.807 31.712V29.712C100.387 29.712 97.681 30.8948 95.8727 33.3606L97.4855 34.5434ZM103.807 31.712C106.633 31.712 108.578 32.3348 109.832 33.4695L111.174 31.9865C109.404 30.3852 106.885 29.712 103.807 29.712V31.712ZM109.814 33.453C110.999 34.5781 111.735 36.3681 111.735 38.992H113.735C113.735 35.9999 112.888 33.6139 111.192 32.003L109.814 33.453ZM111.735 38.992C111.735 41.5829 110.705 44.0913 108.603 46.465L110.1 47.791C112.461 45.1247 113.735 42.1611 113.735 38.992H111.735ZM108.627 46.4383C107.25 47.8839 105.005 49.7846 101.724 52.0671L102.866 53.7089C106.209 51.3834 108.572 49.396 110.075 47.8177L108.627 46.4383ZM101.729 52.0637C95.757 56.165 91.6972 59.3969 89.7314 61.6651L91.2428 62.9749C93.021 60.9231 96.8813 57.819 102.861 53.7123L101.729 52.0637ZM89.7397 61.6556C86.1139 65.7347 84.3751 70.51 84.3751 76H86.3751C86.3751 70.978 87.9484 66.6813 91.2345 62.9844L89.7397 61.6556ZM85.3751 77H121.231V75H85.3751V77ZM122.231 76V68.584H120.231V76H122.231ZM121.231 67.584H95.8871V69.584H121.231V67.584ZM96.8009 68.9901C97.8256 66.6847 100.769 63.7955 106.013 60.3476L104.914 58.6764C99.6455 62.1405 96.2527 65.2993 94.9733 68.1779L96.8009 68.9901ZM106.021 60.3422C111.06 56.9588 114.748 54.1671 116.85 51.9143L115.388 50.5497C113.459 52.6169 109.947 55.2972 104.906 58.6818L106.021 60.3422ZM116.862 51.9018C120.311 48.0777 122.159 43.815 122.159 39.064H120.159C120.159 43.241 118.551 47.0423 115.377 50.5622L116.862 51.9018ZM122.159 39.064C122.159 34.1931 120.47 30.2459 117.08 27.1641L115.734 28.6439C118.68 31.3221 120.159 34.7189 120.159 39.064H122.159ZM117.071 27.1566C113.622 24.0902 109.27 22.584 104.095 22.584V24.584C108.856 24.584 112.712 25.9578 115.743 28.6514L117.071 27.1566Z" fill="url(#paint0_linear)"/>
<defs>
<filter id="filter0_i" x="10.8799" y="22.584" width="111.351" height="55.424" filterUnits="userSpaceOnUse" color-interpolation-filters="sRGB">
<feFlood flood-opacity="0" result="BackgroundImageFix"/>
<feBlend mode="normal" in="SourceGraphic" in2="BackgroundImageFix" result="shape"/>
<feColorMatrix in="SourceAlpha" type="matrix" values="0 0 0 0 0 0 0 0 0 0 0 0 0 0 0 0 0 0 127 0" result="hardAlpha"/>
<feOffset/>
<feGaussianBlur stdDeviation="4"/>
<feComposite in2="hardAlpha" operator="arithmetic" k2="-1" k3="1"/>
<feColorMatrix type="matrix" values="0 0 0 0 0.4 0 0 0 0 0.890196 0 0 0 0 0.992157 0 0 0 1 0"/>
<feBlend mode="normal" in2="shape" result="effect1_innerShadow"/>
</filter>
<linearGradient id="paint0_linear" x1="26.9551" y1="11.0035" x2="26.9551" y2="80.7369" gradientUnits="userSpaceOnUse">
<stop stop-color="white"/>
<stop offset="1" stop-color="#66E3FD"/>
</linearGradient>
</defs>
</svg>
