<svg width="118" height="187" viewBox="0 0 118 187" fill="none" xmlns="http://www.w3.org/2000/svg">
<rect width="118" height="187" fill="url(#paint0_linear)"/>
<g opacity="0.3" clip-path="url(#clip0)">
<circle opacity="0.4" cx="59" cy="202" r="17" stroke="#00DDFF" stroke-width="6"/>
<circle opacity="0.3" cx="59" cy="202" r="29" stroke="#00DDFF" stroke-width="6"/>
<circle opacity="0.2" cx="59" cy="202" r="42" stroke="#00DDFF" stroke-width="6"/>
<circle opacity="0.1" cx="59" cy="202" r="56" stroke="#00DDFF" stroke-width="6"/>
</g>
<path d="M12 187L0 187L-1.04907e-06 175L2 175L2 185L12 185L12 187Z" fill="#00DDFF"/>
<path d="M106 0L118 2.09815e-06L118 12L116 12L116 2L106 2L106 0Z" fill="#00DDFF"/>
<path d="M62.1768 140C62.5852 140.011 62.9739 140.178 63.2638 140.466C63.5444 140.748 63.6909 141.126 63.6697 141.512C63.7138 142.292 63.0785 142.965 62.2403 143.023H55.5344C54.6785 142.982 54.022 142.306 54.0644 141.512C54.022 140.718 54.6785 140.041 55.5327 140H62.1768H62.1768ZM69.4385 141.765L69.4333 141.77C71.9268 141.77 73.118 143.189 73.118 145.241V165.558C73.118 168.029 71.8456 168.994 69.2303 168.994H48.465C45.8426 168.994 44.9003 167.759 44.8809 165.558V145.236C44.8826 143.189 45.548 141.765 48.2444 141.765H51.6256C51.5903 141.929 51.5727 142.096 51.5691 142.264C51.5691 143.535 52.5397 144.788 53.805 144.788H63.9927C65.1715 144.788 66.165 143.535 66.165 142.264C66.1648 142.096 66.1476 141.929 66.1138 141.765H69.4385H69.4385ZM52.2768 156.216L56.8615 160.801C57.0805 161.009 57.3711 161.125 57.6732 161.125C57.9753 161.125 58.2659 161.009 58.485 160.801L66.7385 152.559C66.8475 152.453 66.9341 152.326 66.9932 152.186C67.0523 152.045 67.0828 151.895 67.0828 151.742C67.0828 151.59 67.0523 151.439 66.9932 151.299C66.9341 151.159 66.8475 151.032 66.7385 150.925C66.6324 150.818 66.5062 150.734 66.3672 150.676C66.2282 150.618 66.0791 150.588 65.9285 150.588C65.7779 150.588 65.6289 150.618 65.4898 150.676C65.3508 150.734 65.2246 150.818 65.1185 150.925L57.6733 158.349L53.9144 154.596C53.6984 154.383 53.4071 154.263 53.1035 154.263C52.8 154.263 52.5087 154.383 52.2927 154.596C52.1834 154.7 52.0961 154.825 52.0359 154.964C51.9757 155.102 51.9439 155.251 51.9422 155.402C51.9406 155.553 51.9692 155.703 52.0263 155.843C52.0835 155.982 52.168 156.109 52.275 156.216L52.2768 156.216Z" fill="#00DDFF"/>
<defs>
<linearGradient id="paint0_linear" x1="59" y1="0" x2="59" y2="187" gradientUnits="userSpaceOnUse">
<stop stop-color="#0057A9" stop-opacity="0"/>
<stop offset="1" stop-color="#0057A9" stop-opacity="0.5"/>
</linearGradient>
<clipPath id="clip0">
<rect width="118" height="63" fill="white" transform="translate(0 124)"/>
</clipPath>
</defs>
</svg>
