<svg width="40" height="40" viewBox="0 0 40 40" fill="none" xmlns="http://www.w3.org/2000/svg">
<rect width="40" height="40" fill="#0057A9"/>
<path d="M29.6721 6.66363H25.5994V5.60908C25.5994 5.47535 25.5731 5.34293 25.522 5.21938C25.4708 5.09582 25.3958 4.98356 25.3013 4.88899C25.2067 4.79442 25.0945 4.7194 24.9709 4.66822C24.8474 4.61704 24.715 4.5907 24.5812 4.5907C24.4475 4.5907 24.3151 4.61704 24.1916 4.66822C24.068 4.7194 23.9558 4.79442 23.8612 4.88899C23.7667 4.98356 23.6917 5.09582 23.6405 5.21938C23.5893 5.34293 23.563 5.47535 23.5631 5.60908V6.66363H16.4358V5.60908C16.4358 5.47535 16.4095 5.34293 16.3583 5.21938C16.3072 5.09582 16.2322 4.98356 16.1376 4.88899C16.0431 4.79442 15.9308 4.7194 15.8073 4.66822C15.6837 4.61704 15.5513 4.5907 15.4176 4.5907C15.2839 4.5907 15.1515 4.61704 15.0279 4.66822C14.9044 4.7194 14.7921 4.79442 14.6976 4.88899C14.603 4.98356 14.528 5.09582 14.4769 5.21938C14.4257 5.34293 14.3994 5.47535 14.3994 5.60908V6.66363H10.3267C9.91718 6.6719 9.51331 6.76077 9.13815 6.92516C8.763 7.08956 8.42391 7.32625 8.14025 7.62173C7.85659 7.91721 7.63393 8.26567 7.48498 8.64723C7.33602 9.02878 7.2637 9.43594 7.27215 9.84544V33.1818C7.2637 33.5913 7.33602 33.9985 7.48498 34.38C7.63393 34.7616 7.85659 35.11 8.14025 35.4055C8.42391 35.701 8.763 35.9377 9.13815 36.1021C9.51331 36.2665 9.91718 36.3554 10.3267 36.3636H29.6721C30.0817 36.3554 30.4855 36.2665 30.8607 36.1021C31.2358 35.9377 31.5749 35.701 31.8586 35.4055C32.1422 35.11 32.3649 34.7616 32.5139 34.38C32.6628 33.9985 32.7351 33.5913 32.7267 33.1818V9.84544C32.7351 9.43594 32.6628 9.02878 32.5139 8.64723C32.3649 8.26567 32.1422 7.91721 31.8586 7.62173C31.5749 7.32625 31.2358 7.08956 30.8607 6.92516C30.4855 6.76077 30.0817 6.6719 29.6721 6.66363ZM30.6903 33.1818C30.6952 33.4576 30.591 33.7241 30.4002 33.9233C30.2095 34.1225 29.9478 34.2383 29.6721 34.2454H10.3267C10.051 34.2383 9.7893 34.1225 9.59859 33.9233C9.40789 33.7241 9.30362 33.4576 9.30851 33.1818V9.84544C9.3061 9.70934 9.33053 9.5741 9.3804 9.44744C9.43027 9.32078 9.5046 9.20518 9.59915 9.10725C9.6937 9.00933 9.80662 8.93098 9.93145 8.8767C10.0563 8.82242 10.1906 8.79326 10.3267 8.7909H14.3994V9.84544C14.3994 9.97917 14.4257 10.1116 14.4769 10.2351C14.528 10.3587 14.603 10.471 14.6976 10.5655C14.7921 10.6601 14.9044 10.7351 15.0279 10.7863C15.1515 10.8375 15.2839 10.8638 15.4176 10.8638C15.5513 10.8638 15.6837 10.8375 15.8073 10.7863C15.9308 10.7351 16.0431 10.6601 16.1376 10.5655C16.2322 10.471 16.3072 10.3587 16.3583 10.2351C16.4095 10.1116 16.4358 9.97917 16.4358 9.84544V8.7909H23.5631V9.84544C23.563 9.97917 23.5893 10.1116 23.6405 10.2351C23.6917 10.3587 23.7667 10.471 23.8612 10.5655C23.9558 10.6601 24.068 10.7351 24.1916 10.7863C24.3151 10.8375 24.4475 10.8638 24.5812 10.8638C24.715 10.8638 24.8474 10.8375 24.9709 10.7863C25.0945 10.7351 25.2067 10.6601 25.3013 10.5655C25.3958 10.471 25.4708 10.3587 25.522 10.2351C25.5731 10.1116 25.5994 9.97917 25.5994 9.84544V8.7909H29.6721C29.8083 8.79326 29.9426 8.82242 30.0674 8.8767C30.1922 8.93098 30.3051 9.00933 30.3997 9.10725C30.4942 9.20518 30.5686 9.32078 30.6184 9.44744C30.6683 9.5741 30.6927 9.70934 30.6903 9.84544V33.1818ZM27.6358 15.6818H12.3631C12.0991 15.7063 11.8538 15.8285 11.6752 16.0244C11.4966 16.2203 11.3976 16.4758 11.3976 16.7409C11.3976 17.006 11.4966 17.2615 11.6752 17.4574C11.8538 17.6533 12.0991 17.7755 12.3631 17.8H27.6358C27.8997 17.7755 28.145 17.6533 28.3236 17.4574C28.5022 17.2615 28.6012 17.006 28.6012 16.7409C28.6012 16.4758 28.5022 16.2203 28.3236 16.0244C28.145 15.8285 27.8997 15.7063 27.6358 15.6818ZM27.6358 20.9818H12.3631C12.081 20.9818 11.8104 21.0939 11.611 21.2933C11.4115 21.4928 11.2994 21.7634 11.2994 22.0454C11.2994 22.3275 11.4115 22.5981 11.611 22.7975C11.8104 22.997 12.081 23.1091 12.3631 23.1091H27.6358C27.9179 23.1091 28.1884 22.997 28.3879 22.7975C28.5874 22.5981 28.6994 22.3275 28.6994 22.0454C28.6994 21.7634 28.5874 21.4928 28.3879 21.2933C28.1884 21.0939 27.9179 20.9818 27.6358 20.9818ZM27.6358 26.2909H12.3631C12.0991 26.3154 11.8538 26.4375 11.6752 26.6335C11.4966 26.8294 11.3976 27.0849 11.3976 27.35C11.3976 27.6151 11.4966 27.8706 11.6752 28.0665C11.8538 28.2624 12.0991 28.3846 12.3631 28.4091H27.6358C27.8997 28.3846 28.145 28.2624 28.3236 28.0665C28.5022 27.8706 28.6012 27.6151 28.6012 27.35C28.6012 27.0849 28.5022 26.8294 28.3236 26.6335C28.145 26.4375 27.8997 26.3154 27.6358 26.2909Z" fill="#00DDFF"/>
</svg>
