<svg width="72" height="72" viewBox="0 0 72 72" fill="none" xmlns="http://www.w3.org/2000/svg">
<rect width="72" height="72" fill="#0057A9"/>
<path fill-rule="evenodd" clip-rule="evenodd" d="M4 0H1H0V1V4H1V1H4V0Z" fill="#00DDFF"/>
<path fill-rule="evenodd" clip-rule="evenodd" d="M68 0H71H72V1V4H71V1H68V0Z" fill="#00DDFF"/>
<path fill-rule="evenodd" clip-rule="evenodd" d="M4 72H1H0V71V68H1V71H4V72Z" fill="#00DDFF"/>
<path fill-rule="evenodd" clip-rule="evenodd" d="M68 72H71H72V71V68H71V71H68V72Z" fill="#00DDFF"/>
<path fill-rule="evenodd" clip-rule="evenodd" d="M49.3322 19.6679V55.9012H51.9997V58.5887H19.999V55.9012H22.6665V14.0855C22.6665 13.7131 22.9696 13.4113 23.3334 13.4113H40.6675C41.0359 13.4113 41.3343 13.7178 41.3343 14.0855V18.9937H48.6653C49.0337 18.9937 49.3322 19.3001 49.3322 19.6679ZM28.4698 43.5296H31.2934V40.706H28.4698V43.5296ZM31.2934 49.3988H28.4698V46.5752H31.2934V49.3988ZM28.4698 37.8824H31.2934V35.0588H28.4698V37.8824ZM31.2934 32.2352H28.4698V29.4116H31.2934V32.2352ZM28.4698 27.5292H31.2934V24.7057H28.4698V27.5292ZM31.2934 21.8821H28.4698V19.0585H31.2934V21.8821ZM33.1761 43.5296H35.9997V40.706H33.1761V43.5296ZM35.9997 49.3988H33.1761V46.5752H35.9997V49.3988ZM33.1761 37.8824H35.9997V35.0588H33.1761V37.8824ZM35.9997 32.2352H33.1761V29.4116H35.9997V32.2352ZM33.1761 27.5292H35.9997V24.7057H33.1761V27.5292ZM35.9997 21.8821H33.1761V19.0585H35.9997V21.8821ZM41.6469 43.5296H44.4705V40.706H41.6469V43.5296ZM44.4705 49.3988H41.6469V46.5752H44.4705V49.3988ZM41.6469 37.8824H44.4705V35.0588H41.6469V37.8824ZM44.4705 32.2352H41.6469V29.4116H44.4705V32.2352ZM41.6469 27.5292H44.4705V24.7057H41.6469V27.5292Z" fill="url(#paint0_linear)"/>
<defs>
<linearGradient id="paint0_linear" x1="19.999" y1="13.4113" x2="19.999" y2="58.5887" gradientUnits="userSpaceOnUse">
<stop stop-color="white"/>
<stop offset="1" stop-color="white" stop-opacity="0.3"/>
</linearGradient>
</defs>
</svg>
