<svg width="80" height="80" viewBox="0 0 80 80" fill="none" xmlns="http://www.w3.org/2000/svg">
<path d="M0.000976562 0H80.001V12V80H0.000976562V0Z" fill="#0057A9" fill-opacity="0.5"/>
<path d="M72.001 0H80.001V8H78.001V2H72.001V0Z" fill="#00DDFF"/>
<path d="M8 80L0 80L-6.99382e-07 72L2 72L2 78L8 78L8 80Z" fill="#00DDFF"/>
<rect x="22" y="21" width="8" height="38" rx="4" fill="url(#paint0_linear)"/>
<rect x="22.5" y="21.5" width="7" height="4" rx="2" fill="#0057A9" stroke="#00DDFF"/>
<rect x="32" y="21" width="8" height="38" rx="4" fill="url(#paint1_linear)"/>
<rect x="32.5" y="21.5" width="7" height="4" rx="2" fill="#0057A9" stroke="#00DDFF"/>
<rect x="42" y="21" width="8" height="38" rx="4" fill="url(#paint2_linear)"/>
<rect x="42.5" y="21.5" width="7" height="4" rx="2" fill="#0057A9" stroke="#00DDFF"/>
<rect x="52" y="21" width="8" height="38" rx="4" fill="url(#paint3_linear)"/>
<rect x="52.5" y="21.5" width="7" height="4" rx="2" fill="#0057A9" stroke="#00DDFF"/>
<defs>
<linearGradient id="paint0_linear" x1="26" y1="21" x2="26" y2="59" gradientUnits="userSpaceOnUse">
<stop stop-color="#00DDFF"/>
<stop offset="1" stop-color="#0E7AC3"/>
</linearGradient>
<linearGradient id="paint1_linear" x1="36" y1="21" x2="36" y2="59" gradientUnits="userSpaceOnUse">
<stop stop-color="#00DDFF"/>
<stop offset="1" stop-color="#0E7AC3"/>
</linearGradient>
<linearGradient id="paint2_linear" x1="46" y1="21" x2="46" y2="59" gradientUnits="userSpaceOnUse">
<stop stop-color="#00DDFF"/>
<stop offset="1" stop-color="#0E7AC3"/>
</linearGradient>
<linearGradient id="paint3_linear" x1="56" y1="21" x2="56" y2="59" gradientUnits="userSpaceOnUse">
<stop stop-color="#00DDFF"/>
<stop offset="1" stop-color="#0E7AC3"/>
</linearGradient>
</defs>
</svg>
