<svg width="80" height="80" viewBox="0 0 80 80" fill="none" xmlns="http://www.w3.org/2000/svg">
<path d="M0.000976562 0H80.001V12V80H0.000976562V0Z" fill="#0057A9" fill-opacity="0.5"/>
<path d="M38.7997 46.8587V48.1334C38.7997 48.4516 38.9261 48.7569 39.1511 48.9819C39.3762 49.2069 39.6814 49.3334 39.9997 49.3334C40.3179 49.3334 40.6232 49.2069 40.8482 48.9819C41.0732 48.7569 41.1997 48.4516 41.1997 48.1334V46.8587C43.3144 46.5915 45.2802 45.6284 46.7875 44.1211C48.2947 42.6139 49.2578 40.6481 49.525 38.5334H50.7997C51.1179 38.5334 51.4232 38.4069 51.6482 38.1819C51.8732 37.9569 51.9997 37.6516 51.9997 37.3334C51.9997 37.0151 51.8732 36.7099 51.6482 36.4848C51.4232 36.2598 51.1179 36.1334 50.7997 36.1334H49.525C49.2578 34.0186 48.2947 32.0528 46.7875 30.5456C45.2802 29.0383 43.3144 28.0753 41.1997 27.808V26.5334C41.1997 26.2151 41.0732 25.9099 40.8482 25.6848C40.6232 25.4598 40.3179 25.3334 39.9997 25.3334C39.6814 25.3334 39.3762 25.4598 39.1511 25.6848C38.9261 25.9099 38.7997 26.2151 38.7997 26.5334V27.808C36.6849 28.0753 34.7191 29.0383 33.2119 30.5456C31.7046 32.0528 30.7416 34.0186 30.4743 36.1334H29.1997C28.8814 36.1334 28.5762 36.2598 28.3511 36.4848C28.1261 36.7099 27.9997 37.0151 27.9997 37.3334C27.9997 37.6516 28.1261 37.9569 28.3511 38.1819C28.5762 38.4069 28.8814 38.5334 29.1997 38.5334H30.4743C30.7416 40.6481 31.7046 42.6139 33.2119 44.1211C34.7191 45.6284 36.6849 46.5915 38.7997 46.8587ZM38.7997 44.1627C37.3971 43.9154 36.1046 43.2425 35.0976 42.2355C34.0905 41.2284 33.4177 39.9359 33.1703 38.5334H33.9997C34.3179 38.5334 34.6232 38.4069 34.8482 38.1819C35.0732 37.9569 35.1997 37.6516 35.1997 37.3334C35.1997 37.0151 35.0732 36.7099 34.8482 36.4848C34.6232 36.2598 34.3179 36.1334 33.9997 36.1334H33.1703C33.4177 34.7308 34.0905 33.4383 35.0976 32.4313C36.1046 31.4242 37.3971 30.7514 38.7997 30.504V31.3334C38.7997 31.6516 38.9261 31.9568 39.1511 32.1819C39.3762 32.4069 39.6814 32.5334 39.9997 32.5334C40.3179 32.5334 40.6232 32.4069 40.8482 32.1819C41.0732 31.9568 41.1997 31.6516 41.1997 31.3334V30.504C42.6022 30.7514 43.8947 31.4242 44.9018 32.4313C45.9088 33.4383 46.5817 34.7308 46.829 36.1334H45.9997C45.6814 36.1334 45.3762 36.2598 45.1511 36.4848C44.9261 36.7099 44.7997 37.0151 44.7997 37.3334C44.7997 37.6516 44.9261 37.9569 45.1511 38.1819C45.3762 38.4069 45.6814 38.5334 45.9997 38.5334H46.829C46.5817 39.9359 45.9088 41.2284 44.9018 42.2355C43.8947 43.2425 42.6022 43.9154 41.1997 44.1627V43.3334C41.1997 43.0151 41.0732 42.7099 40.8482 42.4848C40.6232 42.2598 40.3179 42.1334 39.9997 42.1334C39.6814 42.1334 39.3762 42.2598 39.1511 42.4848C38.9261 42.7099 38.7997 43.0151 38.7997 43.3334V44.1627ZM25.333 20H54.6663C55.1916 20 55.7118 20.1035 56.1971 20.3045C56.6824 20.5055 57.1233 20.8002 57.4948 21.1716C57.8662 21.543 58.1608 21.984 58.3619 22.4693C58.5629 22.9546 58.6663 23.4747 58.6663 24V56C58.6663 56.5253 58.5629 57.0455 58.3619 57.5308C58.1608 58.0161 57.8662 58.457 57.4948 58.8285C57.1233 59.1999 56.6824 59.4945 56.1971 59.6956C55.7118 59.8966 55.1916 60 54.6663 60H25.333C24.8077 60 24.2876 59.8966 23.8023 59.6956C23.317 59.4945 22.876 59.1999 22.5046 58.8285C22.1331 58.457 21.8385 58.0161 21.6375 57.5308C21.4365 57.0455 21.333 56.5253 21.333 56V24C21.333 23.4747 21.4365 22.9546 21.6375 22.4693C21.8385 21.984 22.1331 21.543 22.5046 21.1716C22.876 20.8002 23.317 20.5055 23.8023 20.3045C24.2876 20.1035 24.8077 20 25.333 20ZM25.333 54.6667C24.9794 54.6667 24.6402 54.8072 24.3902 55.0572C24.1401 55.3073 23.9997 55.6464 23.9997 56C23.9997 56.3537 24.1401 56.6928 24.3902 56.9428C24.6402 57.1929 24.9794 57.3334 25.333 57.3334H54.6663C55.02 57.3334 55.3591 57.1929 55.6091 56.9428C55.8592 56.6928 55.9997 56.3537 55.9997 56C55.9997 55.6464 55.8592 55.3073 55.6091 55.0572C55.3591 54.8072 55.02 54.6667 54.6663 54.6667H25.333Z" fill="url(#paint0_linear)"/>
<path d="M72.001 0H80.001V8H78.001V2H72.001V0Z" fill="#00DDFF"/>
<path d="M8 80L0 80L-6.99382e-07 72L2 72L2 78L8 78L8 80Z" fill="#00DDFF"/>
<defs>
<linearGradient id="paint0_linear" x1="39.9997" y1="20" x2="39.9997" y2="60" gradientUnits="userSpaceOnUse">
<stop stop-color="#00DDFF"/>
<stop offset="1" stop-color="#0E7AC3"/>
</linearGradient>
</defs>
</svg>
