<svg width="80" height="80" viewBox="0 0 80 80" fill="none" xmlns="http://www.w3.org/2000/svg">
<path d="M0.000976562 0H80.001V12V80H0.000976562V0Z" fill="#0057A9" fill-opacity="0.5"/>
<path d="M72.001 0H80.001V8H78.001V2H72.001V0Z" fill="#00DDFF"/>
<path d="M8 80L0 80L-6.99382e-07 72L2 72L2 78L8 78L8 80Z" fill="#00DDFF"/>
<path d="M26.1519 56.4261V43.7114C26.1519 36.0825 32.4624 29.8969 40.2454 29.8969C48.0284 29.8969 54.3389 36.0825 54.3389 43.7114V56.4261H59.177C60.1586 56.4261 61 57.2509 61 58.2131C61 59.1753 60.1586 60 59.177 60H20.823C19.8414 60 19 59.1753 19 58.2131C19 57.2509 19.8414 56.4261 20.823 56.4261H26.1519ZM41.2972 35.4639L34.3556 46.6667H39.8948L38.4925 55.0516L45.4341 43.8488H39.8948L41.2972 35.4639ZM51.8848 23.1615C52.5158 23.5052 52.7262 24.3299 52.3756 25.0172L49.8514 29.2784L47.4674 27.9725L49.9916 23.7113C50.4123 23.024 51.2537 22.8179 51.8848 23.1615ZM40.2454 20C41.0868 20 41.7179 20.6186 41.7179 21.3746V26.1856H38.773V21.3746C38.773 20.6186 39.404 20 40.2454 20ZM28.606 23.1615C29.2371 22.8179 30.0785 23.0241 30.429 23.6426L32.9532 27.9038L30.5692 29.2097L28.045 24.9485C27.6945 24.3299 27.9048 23.5739 28.606 23.1616L28.606 23.1615ZM20.0518 31.5464C20.4023 30.9278 21.2437 30.6529 21.8748 31.0653L26.222 33.5395L24.8898 35.8763L20.5425 33.4021C19.9115 33.0584 19.7011 32.2337 20.0517 31.5464H20.0518ZM60.4391 31.5464C60.7896 32.165 60.5793 32.9897 59.9482 33.4021L55.601 35.8763L54.2688 33.5395L58.616 31.0653C59.2471 30.7217 60.0885 30.9278 60.439 31.5464H60.4391Z" fill="url(#paint0_linear)"/>
<defs>
<linearGradient id="paint0_linear" x1="40" y1="20" x2="40" y2="60" gradientUnits="userSpaceOnUse">
<stop stop-color="#00DDFF"/>
<stop offset="1" stop-color="#0E7AC3"/>
</linearGradient>
</defs>
</svg>
