<svg width="80" height="80" viewBox="0 0 80 80" fill="none" xmlns="http://www.w3.org/2000/svg">
<path d="M0.000976562 0H80.001V12V80H0.000976562V0Z" fill="#0057A9" fill-opacity="0.5"/>
<path d="M72.001 0H80.001V8H78.001V2H72.001V0Z" fill="#00DDFF"/>
<path d="M8 80L0 80L-6.99382e-07 72L2 72L2 78L8 78L8 80Z" fill="#00DDFF"/>
<path fill-rule="evenodd" clip-rule="evenodd" d="M56.7761 25.5983C48.963 24.6356 40.9918 20.4622 40.6666 20.292L40.6569 20.2869L40.002 19.9366L39.347 20.2869L39.3373 20.292C39.0123 20.4622 31.041 24.6356 23.2279 25.5983L22.0039 25.7506V36.6498C22.0039 40.3412 22.958 43.9609 24.7641 47.1159C27.802 52.4235 32.3226 56.7294 37.7717 59.5056C38.4624 59.8575 39.2268 60.0406 40.002 60.0398C40.7679 60.0398 41.5338 59.8624 42.2323 59.5056C47.6808 56.7301 52.2013 52.4255 55.2399 47.1192C57.0548 43.9288 58.0061 40.3202 58.0001 36.6498V25.7506L56.7761 25.5983ZM55.2127 36.6498C55.2127 39.8527 54.388 42.9893 52.8246 45.719C50.0556 50.5554 45.9353 54.4787 40.9692 57.0076C40.6696 57.1601 40.3382 57.2396 40.002 57.2396C39.6658 57.2396 39.3344 57.1601 39.0348 57.0076C34.0688 54.4784 29.9486 50.5552 27.1793 45.719C25.6079 42.9551 24.7848 39.8291 24.7913 36.6498V28.2072C31.5573 27.1236 37.9653 24.1143 40.002 23.096C42.0365 24.1143 48.4445 27.1236 55.2127 28.2051V36.6487V36.6498ZM34.1735 29.6683C33.3456 33.2368 32.3001 36.1677 31.0391 38.459C31.3024 39.6372 31.5015 40.8394 31.6343 42.0677C32.0716 41.4041 32.4916 40.7078 32.8941 39.9799V48.4301H35.1647V34.9655C35.6934 33.5403 36.1678 32.0291 36.5877 30.4266L34.1735 29.6683ZM47.5595 30.4656V37.5678L47.5584 37.5689H43.4873V39.2781H48.7476V41.4431H44.6133C45.5686 42.8031 47.0177 43.9498 48.9641 44.8811C48.3635 45.8929 47.8892 46.7165 47.541 47.3475C45.7938 46.1899 44.4425 44.7364 43.4873 42.9902V48.43H40.9284V43.1131C39.7339 44.8909 38.3228 46.3792 36.6963 47.5749C36.3111 46.8285 35.8553 46.0691 35.3255 45.2967C36.9541 44.3066 38.3793 43.0228 39.6066 41.442H35.8314V39.277H40.9295V37.5678H37.002V30.4656H47.5595ZM45.1639 32.7253H39.3977V35.3081H45.1639V32.7253Z" fill="url(#paint0_linear)"/>
<defs>
<linearGradient id="paint0_linear" x1="40.002" y1="19.9366" x2="40.002" y2="60.0398" gradientUnits="userSpaceOnUse">
<stop stop-color="#00DDFF"/>
<stop offset="1" stop-color="#0E7AC3"/>
</linearGradient>
</defs>
</svg>
