<svg width="80" height="80" viewBox="0 0 80 80" fill="none" xmlns="http://www.w3.org/2000/svg">
<path d="M0.000976562 0H80.001V12V80H0.000976562V0Z" fill="#0057A9" fill-opacity="0.5"/>
<path d="M72.001 0H80.001V8H78.001V2H72.001V0Z" fill="#00DDFF"/>
<path d="M8 80L0 80L-6.99382e-07 72L2 72L2 78L8 78L8 80Z" fill="#00DDFF"/>
<path d="M42 21C38.2422 21 34.5687 22.1144 31.4442 24.2021C28.3196 26.2899 25.8844 29.2573 24.4463 32.729C23.0082 36.2008 22.632 40.0211 23.3651 43.7068C24.0982 47.3924 25.9078 50.7779 28.565 53.4351C31.2222 56.0923 34.6077 57.9018 38.2933 58.635C41.9789 59.3681 45.7992 58.9918 49.271 57.5537C52.7428 56.1157 55.7102 53.6804 57.7979 50.5559C59.8857 47.4313 61 43.7579 61 40C61 37.5049 60.5086 35.0342 59.5537 32.729C58.5989 30.4239 57.1993 28.3293 55.435 26.565C53.6707 24.8007 51.5762 23.4012 49.271 22.4463C46.9658 21.4915 44.4951 21 42 21ZM48.33 43.8C48.8339 43.8 49.3172 44.0002 49.6735 44.3565C50.0298 44.7129 50.23 45.1961 50.23 45.7C50.23 46.2039 50.0298 46.6872 49.6735 47.0435C49.3172 47.3999 48.8339 47.6 48.33 47.6H43.9V50.13C43.9 50.6339 43.6998 51.1172 43.3435 51.4735C42.9872 51.8299 42.5039 52.03 42 52.03C41.4961 52.03 41.0128 51.8299 40.6565 51.4735C40.3002 51.1172 40.1 50.6339 40.1 50.13V47.6H35.67C35.1661 47.6 34.6828 47.3999 34.3265 47.0435C33.9702 46.6872 33.77 46.2039 33.77 45.7C33.77 45.1961 33.9702 44.7129 34.3265 44.3565C34.6828 44.0002 35.1661 43.8 35.67 43.8H40.1V40.63H35.67C35.1661 40.63 34.6828 40.4299 34.3265 40.0735C33.9702 39.7172 33.77 39.2339 33.77 38.73C33.77 38.2261 33.9702 37.7428 34.3265 37.3865C34.6828 37.0302 35.1661 36.83 35.67 36.83H39.28L34.35 31.9C34.0657 31.536 33.9237 31.0808 33.9506 30.6197C33.9776 30.1586 34.1716 29.723 34.4964 29.3946C34.8211 29.0661 35.2545 28.8672 35.7153 28.8351C36.1761 28.803 36.6328 28.9398 37 29.22L42 34.22L46.88 29.34C47.2261 28.9939 47.6955 28.7995 48.185 28.7995C48.6745 28.7995 49.1439 28.9939 49.49 29.34C49.8361 29.6861 50.0306 30.1556 50.0306 30.645C50.0306 31.1345 49.8361 31.6039 49.49 31.95L44.58 36.86H48.31C48.8139 36.86 49.2972 37.0602 49.6535 37.4165C50.0098 37.7729 50.21 38.2561 50.21 38.76C50.21 39.2639 50.0098 39.7472 49.6535 40.1035C49.2972 40.4599 48.8139 40.66 48.31 40.66H43.9V43.8H48.33Z" fill="url(#paint0_linear)"/>
<defs>
<linearGradient id="paint0_linear" x1="42" y1="21" x2="42" y2="59" gradientUnits="userSpaceOnUse">
<stop stop-color="#00DDFF"/>
<stop offset="1" stop-color="#0E7AC3"/>
</linearGradient>
</defs>
</svg>
