<svg width="80" height="80" viewBox="0 0 80 80" fill="none" xmlns="http://www.w3.org/2000/svg">
<path d="M0.000976562 0H80.001V12V80H0.000976562V0Z" fill="#0057A9" fill-opacity="0.5"/>
<path d="M72.001 0H80.001V8H78.001V2H72.001V0Z" fill="#00DDFF"/>
<path d="M8 80L0 80L-6.99382e-07 72L2 72L2 78L8 78L8 80Z" fill="#00DDFF"/>
<path fill-rule="evenodd" clip-rule="evenodd" d="M22.631 27.8657V22H19.8557V27.8657C19.8557 29.9752 21.5567 31.6996 23.6158 31.7734V31.8031H25.4959L25.4959 55.2738C25.4959 56.6623 26.5107 57.7656 27.7611 57.7656H31.9121C33.1625 57.7656 34.2247 56.6623 34.2247 55.2739L34.2246 31.8031H35.6123L35.6123 55.2738C35.6123 56.6623 36.5771 57.7656 37.8275 57.7656H41.9785C43.2289 57.7656 44.2516 56.6623 44.2516 55.2739L44.2516 31.8031H45.5944L45.5944 55.2738C45.5944 56.6623 46.6363 57.7656 47.8868 57.7656H52.0377C53.2881 57.7656 54.3232 56.6623 54.3232 55.2739L54.3232 31.8031H56.1872C56.8032 31.8031 57.3224 32.2774 57.3224 32.8934V50.7826H60.0977V32.8934C60.0977 30.7372 58.3434 28.983 56.1872 28.983H54.3232L54.3232 24.5488C54.3232 23.1604 53.2881 22.0448 52.0377 22.0448H47.8868C46.6363 22.0448 45.5944 23.1604 45.5944 24.5488L45.5944 28.983H44.2516L44.2516 24.5488C44.2516 23.1604 43.2289 22.0448 41.9785 22.0448H37.8275C36.5771 22.0448 35.6123 23.1604 35.6123 24.5488L35.6123 28.983H34.2246L34.2247 24.5488C34.2247 23.1604 33.1625 22.0448 31.9121 22.0448H27.7611C26.5107 22.0448 25.4959 23.1604 25.4959 24.5488L25.4959 28.983H23.7513C23.1352 28.983 22.631 28.4818 22.631 27.8657Z" fill="url(#paint0_linear)"/>
<defs>
<linearGradient id="paint0_linear" x1="39.9767" y1="22" x2="39.9767" y2="57.7656" gradientUnits="userSpaceOnUse">
<stop stop-color="#00DDFF"/>
<stop offset="1" stop-color="#0E7AC3"/>
</linearGradient>
</defs>
</svg>
