<svg width="80" height="80" viewBox="0 0 80 80" fill="none" xmlns="http://www.w3.org/2000/svg">
<path d="M0.000976562 0H80.001V12V80H0.000976562V0Z" fill="#0057A9" fill-opacity="0.5"/>
<path d="M72.001 0H80.001V8H78.001V2H72.001V0Z" fill="#00DDFF"/>
<path d="M8 80L0 80L-6.99382e-07 72L2 72L2 78L8 78L8 80Z" fill="#00DDFF"/>
<path d="M52.0948 28.4444C46.4491 30.2225 45.5831 34.6663 45.5831 37.3331C41.6723 32.8888 41.6723 27.5556 41.6723 20C29.5136 24.8888 32.5528 38.2219 32.1189 42.6669C29.0791 40 28.2106 33.7775 28.2106 33.7775C24.7369 35.5556 23 40 23 43.5556C23 52.4444 30.3839 60 39.5016 60C39.5798 60 39.6568 59.995 39.7345 59.9944C35.9088 59.875 32.5528 56.3756 32.5528 52.4444C32.9873 48.4444 39.0645 45.3331 39.0645 41.7775C44.7122 44 43.4073 50.2225 43.4073 52C44.7097 50.6669 45.1436 48 45.1436 48C46.4466 48.8888 47.315 50.6669 47.315 52.4444C47.315 56.1806 44.2839 59.5287 40.6987 59.9538C49.2566 59.3606 56 52.4756 56 43.5556C56.0025 38.2219 52.0948 35.5556 52.0948 28.4444Z" fill="url(#paint0_linear)"/>
<defs>
<linearGradient id="paint0_linear" x1="39.5" y1="20" x2="39.5" y2="60" gradientUnits="userSpaceOnUse">
<stop stop-color="#00DDFF"/>
<stop offset="1" stop-color="#0E7AC3"/>
</linearGradient>
</defs>
</svg>
