<svg width="40" height="40" viewBox="0 0 40 40" fill="none" xmlns="http://www.w3.org/2000/svg">
<rect opacity="0.01" x="40" y="40" width="40" height="40" transform="rotate(-180 40 40)" fill="#D8D8D8"/>
<path fill-rule="evenodd" clip-rule="evenodd" d="M38 19.5C38 29.15 30.15 37 20.5 37C10.85 37 3 29.15 3 19.5C3 9.85002 10.85 2 20.5 2C30.15 2 38 9.85002 38 19.5ZM20.91 12.3725L14.65 18.5638C14.28 18.93 14.1875 19.47 14.3725 19.9239C14.3737 19.9288 14.38 19.9339 14.3825 19.9389C14.4425 20.0801 14.525 20.2151 14.64 20.3313C14.6406 20.3319 14.6412 20.3322 14.6418 20.3325C14.6425 20.3328 14.6431 20.3332 14.6437 20.3338C14.6449 20.3351 14.6449 20.3363 14.6462 20.3376L20.8537 26.5626C21.3412 27.0513 22.1324 27.0538 22.6212 26.565C23.1099 26.0775 23.1112 25.2863 22.6237 24.7975L17.3 19.4588L22.6675 14.15C23.1587 13.6638 23.1625 12.8738 22.6775 12.3825C22.4337 12.1351 22.1112 12.0113 21.7887 12.0113C21.4712 12.0113 21.1537 12.1325 20.91 12.3725Z" fill="#00DDFF" fill-opacity="0.6"/>
</svg>
