<svg width="40" height="40" viewBox="0 0 40 40" fill="none" xmlns="http://www.w3.org/2000/svg">
<rect opacity="0.01" width="40" height="40" fill="#D8D8D8"/>
<path fill-rule="evenodd" clip-rule="evenodd" d="M2 20.5C2 10.85 9.85002 3 19.5 3C29.15 3 37 10.85 37 20.5C37 30.15 29.15 38 19.5 38C9.85002 38 2 30.15 2 20.5ZM19.09 27.6275L25.35 21.4362C25.72 21.07 25.8125 20.53 25.6275 20.0761C25.6263 20.0712 25.62 20.0661 25.6175 20.0611C25.5575 19.9199 25.475 19.7849 25.36 19.6687C25.3594 19.6681 25.3588 19.6678 25.3582 19.6675C25.3575 19.6672 25.3569 19.6668 25.3563 19.6662C25.3551 19.6649 25.3551 19.6637 25.3538 19.6624L19.1463 13.4374C18.6588 12.9487 17.8676 12.9462 17.3788 13.435C16.8901 13.9225 16.8888 14.7137 17.3763 15.2025L22.7 20.5412L17.3325 25.85C16.8413 26.3362 16.8375 27.1262 17.3225 27.6175C17.5663 27.8649 17.8888 27.9887 18.2113 27.9887C18.5288 27.9887 18.8463 27.8675 19.09 27.6275Z" fill="#00DDFF" fill-opacity="0.6"/>
</svg>
