<svg width="32" height="32" viewBox="0 0 32 32" fill="none" xmlns="http://www.w3.org/2000/svg">
<g clip-path="url(#clip0)">
<path d="M27.4286 24.1966L30.6606 27.4286C31.0769 27.8597 31.3073 28.437 31.3021 29.0363C31.2969 29.6357 31.0565 30.2089 30.6327 30.6327C30.2089 31.0565 29.6357 31.2969 29.0363 31.3021C28.437 31.3073 27.8597 31.0769 27.4286 30.6606L24.1966 27.4286C23.7802 26.9975 23.5498 26.4201 23.555 25.8208C23.5602 25.2215 23.8006 24.6482 24.2244 24.2244C24.6482 23.8006 25.2215 23.5602 25.8208 23.555C26.4201 23.5498 26.9975 23.7802 27.4286 24.1966ZM13.7143 0C17.3515 0 20.8398 1.44489 23.4117 4.01682C25.9837 6.58875 27.4286 10.077 27.4286 13.7143C27.4286 17.3515 25.9837 20.8398 23.4117 23.4117C20.8398 25.9837 17.3515 27.4286 13.7143 27.4286C10.077 27.4286 6.58875 25.9837 4.01682 23.4117C1.44489 20.8398 0 17.3515 0 13.7143C0 10.077 1.44489 6.58875 4.01682 4.01682C6.58875 1.44489 10.077 0 13.7143 0V0ZM13.7143 6.85714C13.1544 6.85722 12.6141 7.06276 12.1957 7.43478C11.7774 7.8068 11.5101 8.31943 11.4446 8.87543L11.4286 9.14286V11.4286H9.14286C8.56028 11.4292 7.99993 11.6523 7.5763 12.0522C7.15268 12.4522 6.89775 12.9987 6.86361 13.5803C6.82946 14.1619 7.01868 14.7346 7.3926 15.1813C7.76653 15.6281 8.29692 15.9152 8.87543 15.984L9.14286 16H11.4286V18.2857C11.4292 18.8683 11.6523 19.4286 12.0522 19.8523C12.4522 20.2759 12.9987 20.5308 13.5803 20.565C14.1619 20.5991 14.7346 20.4099 15.1813 20.036C15.6281 19.662 15.9152 19.1316 15.984 18.5531L16 18.2857V16H18.2857C18.8683 15.9994 19.4286 15.7763 19.8523 15.3763C20.2759 14.9764 20.5308 14.4298 20.565 13.8482C20.5991 13.2667 20.4099 12.694 20.036 12.2472C19.662 11.8005 19.1316 11.5134 18.5531 11.4446L18.2857 11.4286H16V9.14286C16 8.84269 15.9409 8.54547 15.826 8.26815C15.7111 7.99084 15.5428 7.73886 15.3305 7.52661C15.1183 7.31436 14.8663 7.146 14.589 7.03113C14.3117 6.91626 14.0144 6.85714 13.7143 6.85714Z" fill="white"/>
</g>
<defs>
<clipPath id="clip0">
<rect width="32" height="32" fill="white"/>
</clipPath>
</defs>
</svg>
