<svg width="12" height="16" viewBox="0 0 12 16" fill="none" xmlns="http://www.w3.org/2000/svg">
<path d="M6.66681 0.665146C6.66681 0.297796 6.3709 0 6.00014 0C5.63195 0 5.33348 0.300867 5.33348 0.665162V13.7909L1.41282 9.8702C1.15332 9.6107 0.733714 9.60958 0.471549 9.87174C0.211199 10.1321 0.212654 10.5557 0.471739 10.8147L5.42113 15.7641C5.54905 15.892 5.80336 16 5.98391 16C6.19748 16 6.44856 15.8944 6.57882 15.7641L11.5282 10.8147C11.7887 10.5543 11.7906 10.1339 11.5284 9.87174C11.2681 9.61139 10.8453 9.61208 10.5872 9.87016L6.66681 13.7905V0.665146Z" fill="#00DDFF"/>
</svg>
