<svg width="22" height="18" viewBox="0 0 22 18" fill="none" xmlns="http://www.w3.org/2000/svg">
<path d="M12.4047 17.5195C12.1 17.5195 11.793 17.4375 11.5164 17.2711L6.83828 14.482C6.81719 14.468 6.79375 14.4539 6.775 14.4398C6.5875 14.3437 6.39063 14.2945 6.18906 14.2945H2.93594C1.62344 14.2945 0.554688 13.1086 0.554688 11.6531V6.38201C0.554688 4.9242 1.62344 3.74061 2.93594 3.74061H6.18906C6.41641 3.74061 6.64609 3.67498 6.85234 3.55076L11.5305 0.761702C12.0719 0.438264 12.7234 0.431233 13.2719 0.740608C13.8859 1.08983 14.2656 1.77655 14.2656 2.53358L14.2586 5.59451L14.2516 15.4992C14.2516 16.2562 13.8695 16.9429 13.2578 17.2922C12.9883 17.4445 12.6977 17.5195 12.4047 17.5195ZM18.7211 14.5219C18.5102 14.5219 18.2992 14.4422 18.1375 14.2804C17.8164 13.9594 17.8164 13.4367 18.1375 13.1156C19.232 12.0211 19.8344 10.5656 19.8344 9.01639C19.8344 7.46717 19.232 6.0117 18.1375 4.91717C17.8164 4.59608 17.8164 4.07342 18.1375 3.75233C18.4586 3.43123 18.9813 3.43123 19.3023 3.75233C20.7086 5.15858 21.482 7.02654 21.482 9.01639C21.482 11.0062 20.7086 12.8742 19.3023 14.2804C19.143 14.4422 18.932 14.5219 18.7211 14.5219Z" fill="#00DDFF"/>
</svg>
