<svg width="86" height="73" viewBox="0 0 86 73" fill="none" xmlns="http://www.w3.org/2000/svg">
<ellipse cx="33.6712" cy="38.8797" rx="14.4404" ry="25.7416" transform="rotate(77.6754 33.6712 38.8797)" fill="#182576"/>
<g clip-path="url(#clip0)">
<path d="M24.4134 54.7054L32.0805 49.762L39.5826 48.1229L48.782 49.3812L24.4134 54.7054ZM15.5708 42.2636C13.7625 33.9871 14.2914 30.7101 14.2914 30.7101L23.3127 31.7396L26.9536 48.4038L19.2265 53.298C19.2265 53.298 17.287 50.1184 15.5708 42.2636ZM18.387 27.13L42.7571 21.8055L34.9211 26.7875L27.419 28.4266L18.3873 27.1316L18.387 27.13ZM51.7866 34.351C53.5028 42.2058 52.3669 46.0573 52.3669 46.0573L43.6069 46.2237L39.4002 26.97L47.4321 23.471C47.4321 23.471 49.9787 26.0761 51.787 34.3526L51.7866 34.351ZM61.8752 46.7751C62.5327 46.561 63.0871 46.1103 63.431 45.5105C63.7749 44.9106 63.8837 44.2044 63.7362 43.5289L58.8196 21.0257C58.5138 19.6259 57.1967 18.6868 55.7743 18.8514L43.807 20.2442L18.2362 25.831L9.05609 28.8254C7.87308 29.2141 6.86608 30.0094 6.21387 31.0701C5.56165 32.1309 5.30644 33.3884 5.49353 34.6195L5.46218 34.6264L9.56884 53.4224L9.60019 53.4156C9.94358 54.6125 10.7 55.649 11.7352 56.3411C12.7704 57.0332 14.0173 57.336 15.2546 57.1959L24.8467 56.0872L50.4176 50.5003L61.8756 46.7767L61.8752 46.7751Z" fill="#FF5420"/>
<rect x="34.1221" y="29.9505" width="2" height="15.14" transform="rotate(27.1273 34.1221 29.9505)" fill="#EF3900"/>
<rect x="37.9854" y="31.2754" width="2" height="19.5026" transform="rotate(27.1273 37.9854 31.2754)" fill="#EF3900"/>
<rect x="38.9814" y="37.7308" width="2" height="10.4127" transform="rotate(27.1273 38.9814 37.7308)" fill="#EF3900"/>
<rect x="40.4795" y="42.4752" width="2" height="4.65932" transform="rotate(27.1273 40.4795 42.4752)" fill="#EF3900"/>
<rect x="30.0049" y="29.1797" width="2" height="10.9774" transform="rotate(27.1273 30.0049 29.1797)" fill="#EF3900"/>
</g>
<defs>
<clipPath id="clip0">
<rect width="57.7617" height="57.7617" fill="white" transform="translate(56.4307 3.70227) rotate(77.6754)"/>
</clipPath>
</defs>
</svg>
