<svg width="76" height="53" viewBox="0 0 76 53" fill="none" xmlns="http://www.w3.org/2000/svg">
<path d="M68.7131 7.82365L74.0227 29.4585C73.5116 30.7322 72.0348 31.9955 69.5921 33.2479L9.44184 48.0099C9.17735 48.0748 8.89791 48.032 8.66499 47.8908C8.43207 47.7497 8.26475 47.5218 8.19984 47.2574L2.08123 22.3261C2.01632 22.0616 2.05914 21.7821 2.20026 21.5492C2.34139 21.3163 2.56925 21.149 2.83374 21.0841L62.984 6.32206C66.1025 6.34125 68.0123 6.84211 68.7131 7.82365Z" fill="#A85424"/>
<path d="M74.0227 29.4585C73.5116 30.7322 72.0348 31.9955 69.5921 33.2479L9.44184 48.0099C9.17735 48.0748 8.89791 48.032 8.66499 47.8908C8.43207 47.7497 8.26475 47.5218 8.19984 47.2574L2.08123 22.3261C2.01632 22.0616 2.05914 21.7821 2.20026 21.5492C2.34139 21.3163 2.56925 21.149 2.83374 21.0841L62.984 6.32206C66.1025 6.34125 68.0123 6.84211 68.7131 7.82365L74.0227 29.4585ZM73.4826 29.4119L68.24 8.05023L68.1974 8.00149C67.5915 7.33341 66.0723 6.92489 63.6555 6.84821L63.2063 6.83793L63.045 6.83574L2.95611 21.5827C2.83399 21.6127 2.72711 21.6864 2.65577 21.79C2.58442 21.8936 2.55356 22.0197 2.56903 22.1445L2.57986 22.2037L8.69847 47.135C8.72846 47.2571 8.80222 47.364 8.90578 47.4353C9.00933 47.5067 9.13547 47.5375 9.26027 47.5221L9.31947 47.5112L69.4099 32.7639L69.5745 32.6786C71.644 31.5902 72.9318 30.5129 73.4498 29.4807L73.4826 29.4119Z" fill="#FFD77B"/>
<path d="M60.8001 35.4063C60.5357 35.4712 60.2562 35.4284 60.0233 35.2872C59.7904 35.1461 59.6231 34.9182 59.5582 34.6538L53.4395 9.72247C53.3746 9.45798 53.4175 9.17854 53.5586 8.94562C53.6997 8.7127 53.9276 8.54538 54.1921 8.48047L57.9367 7.56145C56.8719 6.85429 55.9205 6.31012 55.082 5.92857C53.8245 5.35643 55.6981 3.17899 56.9056 3.36003C57.7108 3.48069 59.0157 4.64489 60.8203 6.85378L62.9843 6.32268C66.1028 6.34187 68.0126 6.84273 68.7134 7.82427L74.023 29.4591C73.512 30.7328 72.0351 31.9961 69.5924 33.2485L67.4284 33.7796C66.8514 36.5724 66.2338 38.209 65.5759 38.6887C64.5895 39.4082 61.9211 38.3454 62.7714 37.256C63.3376 36.5302 63.9288 35.6069 64.5448 34.4873L60.8001 35.4063Z" fill="#A85424"/>
<path d="M74.0221 29.4589C73.5111 30.7326 72.0342 31.9958 69.5915 33.2482L67.4275 33.7793L67.3804 34.0034L67.2857 34.4358L67.2386 34.6446L67.1433 35.047L67.0473 35.429L66.951 35.7905L66.902 35.9637L66.8041 36.2949L66.706 36.606C66.6399 36.8062 66.5737 36.9932 66.5065 37.1673L66.406 37.4171C66.1365 38.0574 65.8599 38.4811 65.5752 38.6889C65.1599 38.9917 64.4461 38.9782 63.823 38.7806L63.6687 38.727C62.8864 38.4326 62.3079 37.8482 62.77 37.2559C63.3372 36.5298 63.9279 35.6067 64.5439 34.487L60.7998 35.4059C60.5353 35.4708 60.2558 35.428 60.0229 35.2869C59.79 35.1457 59.6227 34.9179 59.5578 34.6534L53.4392 9.7221C53.3742 9.45761 53.4171 9.17817 53.5582 8.94525C53.6993 8.71233 53.9272 8.54501 54.1917 8.4801L57.9363 7.56109C56.8715 6.85392 55.9201 6.30975 55.0816 5.9282C54.3973 5.61718 54.64 4.83123 55.1971 4.20815L55.309 4.08921C55.7699 3.62561 56.3964 3.28313 56.9046 3.35929C57.3972 3.43401 58.0767 3.89794 58.9425 4.7528L59.1833 4.99504L59.3075 5.12421L59.5624 5.39578L59.6928 5.53929L59.9621 5.83956L60.2395 6.16004L60.5269 6.49974L60.8194 6.85353L62.9834 6.32244C66.1019 6.34162 68.0117 6.84249 68.7125 7.82402L74.0221 29.4589ZM73.482 29.4122L68.2395 8.05061L68.1969 8.00186C67.5909 7.33379 66.0718 6.92526 63.655 6.84859L63.2057 6.83831L63.0445 6.83611L60.6276 7.42925L60.2779 7.00386L60.1383 6.83565L59.8655 6.51245L59.7324 6.35797L59.4727 6.06222L59.3463 5.92196L59.1009 5.65442C59.0206 5.5684 58.942 5.48512 58.8648 5.40522L58.6379 5.17437C58.6013 5.13735 58.5645 5.10145 58.5283 5.06593L58.3167 4.86304L58.2143 4.76871L58.018 4.59377C57.5072 4.15187 57.1061 3.90881 56.8289 3.8674C56.48 3.81558 55.8732 4.16487 55.4739 4.67681C55.1254 5.12446 55.1096 5.37681 55.2942 5.46103C56.0933 5.82423 56.9854 6.32743 57.9715 6.96987L58.22 7.13357L59.1946 7.78095L54.314 8.97873C54.1919 9.00872 54.085 9.08248 54.0137 9.18604C53.9423 9.28959 53.9115 9.41573 53.927 9.54053L53.9378 9.59973L60.0564 34.531C60.0864 34.6531 60.1601 34.76 60.2637 34.8314C60.3673 34.9027 60.4934 34.9336 60.6182 34.9181L60.6774 34.9073L65.5579 33.7095L64.9938 34.7345C64.3657 35.8762 63.7598 36.8216 63.1747 37.5715C63.0501 37.7316 63.1809 37.948 63.697 38.1835C64.288 38.4524 64.9877 38.4815 65.2729 38.2736C65.5078 38.1023 65.7597 37.6788 66.0162 37.0137L66.1073 36.7688C66.1377 36.6836 66.1678 36.5954 66.1983 36.5038L66.2896 36.2192C66.3051 36.1692 66.3203 36.1191 66.3352 36.069L66.4268 35.7547L66.5181 35.4204L66.6089 35.0666L66.6997 34.6933L66.79 34.3011L66.8797 33.8889L66.99 33.358L69.4093 32.7643L69.5739 32.679C71.6435 31.5906 72.9312 30.5133 73.4492 29.4811L73.482 29.4122Z" fill="#FFD77B"/>
<path d="M14.538 21.3835L4.56544 23.831L5.19558 22.0904L13.1736 20.1324L14.538 21.3835ZM19.6776 42.3258L19.0475 44.0664L11.0694 46.0244L9.70508 44.7733L19.6776 42.3258ZM27.0036 18.3242L17.0311 20.7717L17.6612 19.0311L25.6392 17.0731L27.0036 18.3242ZM32.1432 39.2665L31.5131 41.0071L23.5351 42.9651L22.1707 41.714L32.1432 39.2665ZM39.9679 15.1426L29.9954 17.59L30.6255 15.8494L38.6035 13.8914L39.9679 15.1426ZM45.1075 36.0848L44.4774 37.8255L36.4994 39.7834L35.135 38.5323L45.1075 36.0848ZM52.4335 12.0833L42.461 14.5307L43.0911 12.7901L51.0692 10.8321L52.4335 12.0833ZM57.5732 33.0255L56.943 34.7662L48.965 36.7241L47.6006 35.473L57.5732 33.0255Z" fill="#F5F793"/>
<path d="M14.538 21.3835L4.56544 23.831L5.19558 22.0904L13.1736 20.1324L14.538 21.3835ZM19.6776 42.3258L19.0475 44.0664L11.0694 46.0244L9.70508 44.7733L19.6776 42.3258ZM13.4842 21.1135L13.0292 20.6965L5.58522 22.5234L5.375 23.1036L13.4842 21.1135ZM18.868 43.0532L10.7599 45.0431L11.2143 45.4602L18.6583 43.6333L18.868 43.0532ZM27.0036 18.3242L17.0311 20.7717L17.6612 19.0311L25.6392 17.0731L27.0036 18.3242ZM32.1432 39.2665L31.5131 41.0071L23.5351 42.9651L22.1707 41.714L32.1432 39.2665ZM25.9498 18.0542L25.4948 17.6372L18.0509 19.4641L17.8406 20.0443L25.9498 18.0542ZM31.3337 39.9939L23.2255 41.9837L23.68 42.4009L31.124 40.574L31.3337 39.9939ZM39.9679 15.1426L29.9954 17.59L30.6255 15.8494L38.6035 13.8914L39.9679 15.1426ZM45.1075 36.0848L44.4774 37.8255L36.4994 39.7834L35.135 38.5323L45.1075 36.0848ZM38.9141 14.8725L38.4591 14.4555L31.0151 16.2824L30.8049 16.8627L38.9141 14.8725ZM44.2979 36.8122L36.1898 38.8021L36.6443 39.2192L44.0882 37.3923L44.2979 36.8122ZM52.4335 12.0833L42.461 14.5307L43.0911 12.7901L51.0692 10.8321L52.4335 12.0833ZM57.5732 33.0255L56.943 34.7662L48.965 36.7241L47.6006 35.473L57.5732 33.0255ZM51.3797 11.8132L50.9248 11.3962L43.4808 13.2231L43.2706 13.8034L51.3797 11.8132ZM56.7636 33.7529L48.6554 35.7428L49.1099 36.1599L56.5539 34.333L56.7636 33.7529Z" fill="#FFBB56"/>
<path d="M52.8001 13.5792L4.93203 25.3269L4.80966 24.8283L52.6777 13.0806L52.8001 13.5792ZM53.6567 17.0696L5.78863 28.8173L5.66626 28.3187L53.5343 16.5709L53.6567 17.0696ZM54.6357 21.0586L6.76761 32.8063L6.64524 32.3077L54.5133 20.56L54.6357 21.0586ZM55.4923 24.549L7.62422 36.2967L7.50184 35.7981L55.3699 24.0503L55.4923 24.549ZM56.4713 28.538L8.60319 40.2857L8.48082 39.7871L56.3489 28.0393L56.4713 28.538ZM57.3279 32.0283L9.4598 43.7761L9.33743 43.2774L57.2055 31.5297L57.3279 32.0283Z" fill="#A85424"/>
<path d="M61.5693 9.48837C63.7469 12.8041 65.2741 16.2479 66.1505 19.819C67.0269 23.3902 67.2676 27.1496 66.8724 31.0968C66.8512 31.308 66.7652 31.5074 66.626 31.6676C66.4869 31.8279 66.3016 31.9411 66.0955 31.9917L61.8068 33.0442C61.6758 33.0763 61.5398 33.0823 61.4065 33.0619C61.2732 33.0415 61.1453 32.995 61.0299 32.9252C60.9146 32.8553 60.8142 32.7634 60.7344 32.6547C60.6545 32.546 60.5969 32.4226 60.5648 32.2917L55.4252 11.3494C55.393 11.2184 55.387 11.0824 55.4074 10.9491C55.4278 10.8158 55.4743 10.6879 55.5442 10.5725C55.6141 10.4572 55.706 10.3568 55.8147 10.277C55.9234 10.1972 56.0467 10.1395 56.1777 10.1074L60.4658 9.05499C60.672 9.0043 60.8888 9.01876 61.0864 9.09637C61.284 9.17398 61.4527 9.31093 61.5693 9.48837Z" fill="#A85424"/>
<path d="M63.7358 14.4591L58.1556 20.3217L58.8319 23.0776L64.7308 16.8783L63.7358 14.4591Z" fill="#FBFFFF"/>
<path d="M64.7312 16.8783L58.8324 23.0776L58.1562 20.3222L63.7363 14.4591L64.7319 16.8787L64.7312 16.8783ZM64.1299 16.7653L63.563 15.3861L58.7216 20.4721L59.1072 22.0432L64.1294 16.7654L64.1299 16.7653Z" fill="#D9D9D9"/>
<path d="M66.1505 19.8189C67.0269 23.39 67.2676 27.1495 66.8724 31.0967C66.8512 31.308 66.765 31.5076 66.6257 31.6679C66.4864 31.8282 66.3008 31.9413 66.0945 31.9918L61.8063 33.0442C61.6753 33.0763 61.5393 33.0823 61.406 33.0619C61.2727 33.0415 61.1448 32.995 61.0294 32.9252C60.9141 32.8553 60.8137 32.7634 60.7339 32.6547C60.654 32.546 60.5964 32.4226 60.5643 32.2917L55.4247 11.3494C55.3925 11.2184 55.3865 11.0824 55.4069 10.9491C55.4273 10.8158 55.4738 10.6879 55.5437 10.5725C55.6136 10.4572 55.7055 10.3568 55.8142 10.277C55.9229 10.1972 56.0462 10.1395 56.1772 10.1074L60.4653 9.05499C60.6715 9.0043 60.8883 9.01876 61.0859 9.09637C61.2835 9.17398 61.4522 9.31093 61.5688 9.48837C63.7464 12.8041 65.2736 16.2479 66.15 19.819L66.1505 19.8189ZM65.6519 19.9413C64.7896 16.4279 63.2863 13.0381 61.1399 9.77018C61.0876 9.69064 61.0143 9.6272 60.928 9.58694C60.8418 9.54668 60.7461 9.53119 60.6515 9.54219L60.5882 9.55349L56.2995 10.606C56.1774 10.636 56.0705 10.7098 55.9992 10.8133C55.9278 10.9169 55.897 11.043 55.9125 11.1678L55.9233 11.227L61.0629 32.1693C61.0929 32.2914 61.1667 32.3983 61.2702 32.4696C61.3738 32.541 61.4999 32.5719 61.6247 32.5564L61.6839 32.5456L65.9721 31.4932C66.0753 31.468 66.1682 31.4114 66.2379 31.3312C66.3076 31.2511 66.3507 31.1513 66.3613 31.0455C66.7509 27.1552 66.5141 23.4546 65.6519 19.9413Z" fill="#181818"/>
<path d="M70.6096 15.5525C69.0192 16.1701 67.8796 16.1363 67.1905 15.4501C66.5007 14.7634 65.6523 11.7373 64.6442 6.37144C66.9076 6.58992 68.264 7.07432 68.7128 7.82378L70.6096 15.5525ZM73.9748 29.2647C73.924 30.1368 72.9464 31.194 71.0408 32.4356C69.4503 27.2127 68.8012 24.1371 69.0948 23.2097C69.3879 22.2819 70.3823 21.7243 72.0781 21.536L73.9748 29.2647Z" fill="#FAFEFF"/>
<path d="M70.6096 15.5525C69.0192 16.1701 67.8796 16.1363 67.1905 15.4501C67.0714 15.3312 66.9477 15.1438 66.8195 14.8861L66.742 14.7233L66.663 14.5439L66.6236 14.4478L66.5428 14.2435L66.5024 14.135L66.4201 13.9051L66.337 13.6591L66.2523 13.396L66.1667 13.1162L66.0804 12.8202L65.9929 12.507L65.8589 12.0059L65.7225 11.4674L65.5832 10.8915L65.4422 10.278L65.2982 9.6266L65.1515 8.93834L65.0023 8.21209L64.7994 7.18501L64.6442 6.37144C66.8371 6.58289 68.1784 7.04406 68.6683 7.75435L68.7123 7.8239L70.6091 15.5526L70.6096 15.5525ZM73.9748 29.2647C73.924 30.1368 72.9464 31.194 71.0408 32.4356L70.8016 31.6421L70.5061 30.6383L70.3021 29.9255L70.1135 29.2475L69.9395 28.603L69.832 28.1932L69.6834 27.6069L69.5501 27.055L69.4697 26.7062L69.3953 26.3729L69.2976 25.9015L69.2405 25.6063L69.1903 25.3262L69.1466 25.0621L69.1097 24.8126L69.0793 24.579L69.0564 24.3605L69.0392 24.1569L69.0336 24.061L69.0264 23.8809C69.0214 23.5935 69.0437 23.3697 69.0943 23.2098C69.3879 22.2819 70.3823 21.7243 72.0776 21.5361L73.9743 29.2648L73.9748 29.2647ZM70.0007 15.2256L68.2351 8.03141L68.2047 7.99131C67.845 7.54458 66.8964 7.18634 65.3713 6.9733L65.2793 6.96045L65.3952 7.5553L65.587 8.50949L65.7753 9.40165L65.868 9.82456L66.0494 10.6238L66.2259 11.3602L66.3549 11.871L66.481 12.346L66.5629 12.6431L66.6836 13.0575L66.8014 13.4362L66.878 13.6685L66.9527 13.8844L67.0617 14.178L67.1332 14.3529L67.168 14.4342L67.2365 14.5844L67.3032 14.7182C67.3631 14.8387 67.4369 14.9517 67.5233 15.0549L67.5522 15.0864C67.9927 15.5244 68.7412 15.6082 69.8384 15.2771L70.0007 15.2256ZM73.4555 29.3028L71.6896 22.1071L71.6713 22.11C70.5 22.3071 69.8344 22.712 69.6101 23.291L69.5843 23.3644C69.551 23.4699 69.5338 23.6174 69.5336 23.8062L69.5364 23.9556L69.5452 24.1205L69.5603 24.3008C69.5627 24.3319 69.5664 24.3643 69.5701 24.3967L69.5941 24.6001L69.625 24.8183L69.6612 25.0521L69.7277 25.4307L69.8083 25.8433L69.8698 26.137L69.9731 26.6054L70.0909 27.1067L70.2221 27.6413L70.3176 28.0154L70.5269 28.8077L70.7 29.4398L70.8872 30.1039L71.1584 31.0386L71.331 31.619L71.4039 31.5673C72.6519 30.6768 73.3251 29.9237 73.4439 29.3654L73.4555 29.3028Z" fill="#FFD77B"/>
</svg>
