<svg width="87" height="94" viewBox="0 0 87 94" fill="none" xmlns="http://www.w3.org/2000/svg">
<ellipse cx="39.4861" cy="55.8432" rx="14.4404" ry="25.7416" transform="rotate(28.2681 39.4861 55.8432)" fill="#182576"/>
<g clip-path="url(#clip0)">
<path d="M45.4791 73.1707L46.7141 64.1321L50.3509 57.3688L57.2922 51.202L45.4791 73.1707ZM30.2776 71.7897C22.8163 67.7776 20.672 65.2436 20.672 65.2436L27.3237 59.0631L42.3468 67.1415L41.0353 76.1935C41.0353 76.1935 37.3589 75.5975 30.2776 71.7897ZM20.6183 59.8042L32.4322 37.8341L31.1166 47.026L27.4798 53.7893L20.6197 59.8049L20.6183 59.8042ZM47.834 39.1405C54.9153 42.9483 57.1008 46.3169 57.1008 46.3169L51.5273 53.0772L34.1697 43.7435L36.7388 35.3678C36.7388 35.3678 40.374 35.1291 47.8354 39.1413L47.834 39.1405ZM63.8327 39.5638C64.0979 38.9253 64.1165 38.211 63.8847 37.5596C63.653 36.9081 63.1875 36.366 62.5786 36.0384L42.2916 25.1295C41.0296 24.451 39.4596 24.84 38.659 26.0273L31.9298 36.0209L19.5338 59.0735L15.8343 67.9928C15.3597 69.144 15.3084 70.4262 15.6895 71.6116C16.0706 72.7971 16.8595 73.8091 17.916 74.4681L17.9008 74.4964L34.8458 83.6081L34.861 83.5799C35.9933 84.0979 37.2726 84.198 38.4717 83.8622C39.6708 83.5265 40.7121 82.7767 41.4108 81.7459L46.8103 73.7407L59.2063 50.6882L63.8341 39.5646L63.8327 39.5638Z" fill="#7389FF"/>
</g>
<path d="M57.7882 39.042C49.4499 32.2771 43.9918 30.6729 42.3051 30.7164L42.6753 8.81679C56.8605 7.89021 71.8105 20.9192 77.5123 27.5496L57.7882 39.042Z" fill="url(#paint0_linear)"/>
<defs>
<linearGradient id="paint0_linear" x1="61.5597" y1="16.12" x2="50.8761" y2="35.3252" gradientUnits="userSpaceOnUse">
<stop stop-color="#FEF98E" stop-opacity="0"/>
<stop offset="1" stop-color="#FFFCBD"/>
</linearGradient>
<clipPath id="clip0">
<rect width="57.7617" height="57.7617" fill="white" transform="translate(27.583 15.6716) rotate(28.2681)"/>
</clipPath>
</defs>
</svg>
