<svg width="12" height="16" viewBox="0 0 12 16" fill="none" xmlns="http://www.w3.org/2000/svg">
<path d="M6.66681 15.3349C6.66681 15.7022 6.3709 16 6.00014 16C5.63195 16 5.33348 15.6991 5.33348 15.3348V2.20914L1.41282 6.1298C1.15332 6.3893 0.733714 6.39042 0.471549 6.12826C0.211199 5.86791 0.212654 5.44434 0.471739 5.18526L5.42113 0.235866C5.54905 0.107952 5.80336 0 5.98391 0C6.19748 0 6.44856 0.105601 6.57882 0.235866L11.5282 5.18526C11.7887 5.44571 11.7906 5.86609 11.5284 6.12826C11.2681 6.38861 10.8453 6.38792 10.5872 6.12984L6.66681 2.20947V15.3349Z" fill="#E5615B"/>
</svg>
