<svg width="66" height="66" viewBox="0 0 66 66" fill="none" xmlns="http://www.w3.org/2000/svg">
<circle cx="33" cy="33" r="32" fill="#064F94"/>
<circle cx="33" cy="33" r="32" stroke="#1871C5" stroke-width="2"/>
<path d="M65 33C65 15.3269 50.6731 1 33 1M33 65C15.3269 65 1 50.6731 1 33" stroke="#00FFCF" stroke-dasharray="2 2"/>
<path d="M21.7377 26.6H24.6627L24.4377 26.375C23.5377 25.025 23.3127 23.225 23.7627 21.65C24.2127 19.85 25.3377 18.275 27.1377 17.375C28.2627 16.925 29.3877 16.475 30.5127 16.475C32.9877 16.475 35.2377 17.6 36.3627 19.625C37.4877 21.875 37.4877 24.125 36.3627 26.375H36.1377V26.6H39.0627V26.375C40.1877 24.125 40.1877 21.65 39.0627 19.4C38.1627 17.15 36.3627 15.35 34.1127 14.45C32.7627 14.225 31.4127 14 30.2877 14C26.4627 14 23.3127 16.25 21.7377 19.625C20.8377 21.875 20.8377 24.125 21.7377 26.6ZM45.1377 34.025C44.9127 32.9 44.0127 32 42.8877 32C42.2127 32 41.7627 32.225 41.3127 32.9V32.45C41.3127 31.1 40.1877 30.2 39.0627 30.2C37.9377 30.2 36.8127 31.325 36.8127 32.45V31.325C36.8127 29.975 35.6877 28.85 34.5627 28.85C33.4377 28.85 32.3127 29.975 32.3127 31.325V23.45C32.3127 22.1 31.1877 21.2 30.0627 21.2C28.9377 21.2 28.0377 22.325 28.0377 23.45V37.175C28.0377 37.85 27.5877 38.525 26.9127 38.525L23.7627 37.175C23.3127 36.95 23.0877 37.175 22.6377 36.95C21.5127 36.5 20.3877 38.075 20.3877 39.2C20.3877 39.875 21.2877 41 21.7377 41.45L30.2877 50H43.1127C43.5627 48.425 44.6877 42.575 45.1377 38.75C45.3627 36.95 45.3627 35.375 45.1377 34.025Z" fill="#00DDFF"/>
</svg>
