<svg width="80" height="80" viewBox="0 0 80 80" fill="none" xmlns="http://www.w3.org/2000/svg">
<path d="M40 34L80 57L40 80L0 57L40 34Z" fill="url(#paint0_linear)"/>
<path d="M40 67L80 44V46L40 69L0 46V44L40 67Z" fill="url(#paint1_linear)" fill-opacity="0.8"/>
<path d="M40 21L80 44L40 67L0 44L40 21Z" fill="url(#paint2_linear)"/>
<path fill-rule="evenodd" clip-rule="evenodd" d="M40.0003 19.8333L29.067 13L17.792 13L12.667 17.1V22.5667L40.0003 38.9667L67.3337 22.5667V17.1L62.2087 13H50.9337L40.0003 19.8333Z" fill="url(#paint3_linear)"/>
<path opacity="0.8" d="M67.334 38.3235V22.647L40.0007 39.0051V54L67.334 38.3235Z" fill="#00C7E2"/>
<path opacity="0.5" d="M12.667 38.3235V22.647L40.0003 39.0051V54L12.667 38.3235Z" fill="#00C7E2"/>
<defs>
<linearGradient id="paint0_linear" x1="40" y1="34" x2="40" y2="80" gradientUnits="userSpaceOnUse">
<stop stop-color="#0C57C7" stop-opacity="0.5"/>
<stop offset="1" stop-color="#0C57C7"/>
</linearGradient>
<linearGradient id="paint1_linear" x1="40" y1="44" x2="40" y2="69" gradientUnits="userSpaceOnUse">
<stop stop-color="#3BACFE" stop-opacity="0.5"/>
<stop offset="1" stop-color="#3BACFE"/>
</linearGradient>
<linearGradient id="paint2_linear" x1="40" y1="21" x2="40" y2="67" gradientUnits="userSpaceOnUse">
<stop stop-color="#1A43D2" stop-opacity="0.5"/>
<stop offset="1" stop-color="#1A43D2"/>
</linearGradient>
<linearGradient id="paint3_linear" x1="40.0003" y1="13" x2="40.0003" y2="38.9667" gradientUnits="userSpaceOnUse">
<stop stop-color="#2DA5FC"/>
<stop offset="0.722221" stop-color="#00DDFF"/>
</linearGradient>
</defs>
</svg>
