<svg width="80" height="80" viewBox="0 0 80 80" fill="none" xmlns="http://www.w3.org/2000/svg">
<mask id="path-1-inside-1" fill="white">
<path fill-rule="evenodd" clip-rule="evenodd" d="M61.4029 46.3067L80 57L73.4404 60.7718L53.3498 53.1568L61.4029 46.3067ZM57.9977 44.3487L40 34L25.224 42.4962L49.402 51.6604L57.9977 44.3487ZM46.1917 54.3912L21.0862 44.8754L0 57L25.7312 71.7954L46.1917 54.3912ZM29.1363 73.7534L40 80L69.3026 63.151L50.1395 55.8876L29.1363 73.7534Z"/>
</mask>
<path fill-rule="evenodd" clip-rule="evenodd" d="M61.4029 46.3067L80 57L73.4404 60.7718L53.3498 53.1568L61.4029 46.3067ZM57.9977 44.3487L40 34L25.224 42.4962L49.402 51.6604L57.9977 44.3487ZM46.1917 54.3912L21.0862 44.8754L0 57L25.7312 71.7954L46.1917 54.3912ZM29.1363 73.7534L40 80L69.3026 63.151L50.1395 55.8876L29.1363 73.7534Z" fill="#0C57C7"/>
<path d="M80 57L80.4985 57.8669L82.0061 57L80.4985 56.1331L80 57ZM61.4029 46.3067L61.9013 45.4397L61.2911 45.0889L60.755 45.545L61.4029 46.3067ZM73.4404 60.7718L73.086 61.7069L73.5286 61.8746L73.9389 61.6387L73.4404 60.7718ZM53.3498 53.1568L52.7019 52.3951L51.4125 53.4919L52.9954 54.0919L53.3498 53.1568ZM57.9977 44.3487L58.6457 45.1104L59.7278 44.1899L58.4962 43.4818L57.9977 44.3487ZM40 34L40.4985 33.1331L40 32.8465L39.5015 33.1331L40 34ZM25.224 42.4962L24.7255 41.6293L22.8939 42.6825L24.8696 43.4313L25.224 42.4962ZM49.402 51.6604L49.0476 52.5955L49.6 52.8049L50.0499 52.4221L49.402 51.6604ZM46.1917 54.3912L46.8396 55.1529L48.1291 54.0561L46.5461 53.4561L46.1917 54.3912ZM21.0862 44.8754L21.4406 43.9403L20.9981 43.7726L20.5878 44.0085L21.0862 44.8754ZM0 57L-0.498471 56.1331L-2.00613 57L-0.498471 57.8669L0 57ZM25.7312 71.7954L25.2327 72.6623L25.843 73.0132L26.3791 72.5571L25.7312 71.7954ZM29.1363 73.7534L28.4884 72.9917L27.4063 73.9122L28.6379 74.6203L29.1363 73.7534ZM40 80L39.5015 80.8669L40 81.1535L40.4985 80.8669L40 80ZM69.3026 63.151L69.8011 64.0179L71.6327 62.9647L69.657 62.2159L69.3026 63.151ZM50.1395 55.8876L50.4939 54.9525L49.9416 54.7431L49.4916 55.1259L50.1395 55.8876ZM80.4985 56.1331L61.9013 45.4397L60.9044 47.1736L79.5015 57.8669L80.4985 56.1331ZM73.9389 61.6387L80.4985 57.8669L79.5015 56.1331L72.9419 59.9049L73.9389 61.6387ZM52.9954 54.0919L73.086 61.7069L73.7948 59.8367L53.7043 52.2217L52.9954 54.0919ZM60.755 45.545L52.7019 52.3951L53.9978 53.9185L62.0508 47.0684L60.755 45.545ZM58.4962 43.4818L40.4985 33.1331L39.5015 34.8669L57.4993 45.2156L58.4962 43.4818ZM39.5015 33.1331L24.7255 41.6293L25.7225 43.3631L40.4985 34.8669L39.5015 33.1331ZM24.8696 43.4313L49.0476 52.5955L49.7564 50.7254L25.5784 41.5611L24.8696 43.4313ZM50.0499 52.4221L58.6457 45.1104L57.3498 43.587L48.7541 50.8987L50.0499 52.4221ZM46.5461 53.4561L21.4406 43.9403L20.7318 45.8105L45.8373 55.3263L46.5461 53.4561ZM20.5878 44.0085L-0.498471 56.1331L0.498471 57.8669L21.5847 45.7423L20.5878 44.0085ZM-0.498471 57.8669L25.2327 72.6623L26.2297 70.9285L0.498471 56.1331L-0.498471 57.8669ZM26.3791 72.5571L46.8396 55.1529L45.5438 53.6295L25.0833 71.0337L26.3791 72.5571ZM28.6379 74.6203L39.5015 80.8669L40.4985 79.1331L29.6348 72.8865L28.6379 74.6203ZM40.4985 80.8669L69.8011 64.0179L68.8041 62.2841L39.5015 79.1331L40.4985 80.8669ZM69.657 62.2159L50.4939 54.9525L49.7851 56.8226L68.9482 64.0861L69.657 62.2159ZM49.4916 55.1259L28.4884 72.9917L29.7843 74.5151L50.7874 56.6493L49.4916 55.1259Z" fill="#5498FF" mask="url(#path-1-inside-1)"/>
<mask id="path-3-inside-2" fill="white">
<path fill-rule="evenodd" clip-rule="evenodd" d="M46.1917 54.3912L21.0862 44.8754L0 57L25.7312 71.7955L46.1917 54.3912Z"/>
</mask>
<path fill-rule="evenodd" clip-rule="evenodd" d="M46.1917 54.3912L21.0862 44.8754L0 57L25.7312 71.7955L46.1917 54.3912Z" fill="#2DA5FC"/>
<path d="M46.1917 54.3912L46.8396 55.1529L48.1291 54.0561L46.5461 53.4561L46.1917 54.3912ZM21.0862 44.8754L21.4406 43.9403L20.9981 43.7726L20.5878 44.0085L21.0862 44.8754ZM0 57L-0.498471 56.1331L-2.00613 57L-0.498471 57.8669L0 57ZM25.7312 71.7955L25.2327 72.6624L25.843 73.0132L26.3791 72.5572L25.7312 71.7955ZM46.5461 53.4561L21.4406 43.9403L20.7318 45.8105L45.8373 55.3263L46.5461 53.4561ZM20.5878 44.0085L-0.498471 56.1331L0.498471 57.8669L21.5847 45.7423L20.5878 44.0085ZM-0.498471 57.8669L25.2327 72.6624L26.2297 70.9285L0.498471 56.1331L-0.498471 57.8669ZM26.3791 72.5572L46.8396 55.1529L45.5438 53.6295L25.0833 71.0337L26.3791 72.5572Z" fill="#8BDCFF" mask="url(#path-3-inside-2)"/>
<path d="M60.8698 16L33.8355 61.7502L30.9854 52.2639L60.8698 16Z" fill="#0C57C7"/>
<path d="M26.832 49.8907L33.8352 61.7502L30.985 52.2638L60.8695 16L26.832 49.8907Z" fill="#007EDA"/>
<path d="M12 42.7713L60.8696 16L26.8321 49.8907L12 42.7713Z" fill="#00DDFF"/>
<path d="M30.9854 52.2638L60.8698 16L50.9919 63.8298L30.9854 52.2638Z" fill="#00DDFF"/>
</svg>
