<svg width="80" height="80" viewBox="0 0 80 80" fill="none" xmlns="http://www.w3.org/2000/svg">
<path d="M40 34L80 57L40 80L0 57L40 34Z" fill="#0C57C7"/>
<path d="M19 19L40 31V68L19 56V19Z" fill="#2DA5FC"/>
<path d="M61 19L40 31V68L61 56V19Z" fill="#00DDFF"/>
<path d="M35 60.5L37 61.653V64L35 62.8469V60.5Z" fill="#00DDFF"/>
<path d="M35 56L37 57.153V59.5L35 58.3469V56Z" fill="#00DDFF"/>
<path d="M30 53L32 54.153V56.5L30 55.3469V53Z" fill="#00DDFF"/>
<path d="M35 51L37 52.153V54.5L35 53.3469V51Z" fill="#00DDFF"/>
<path d="M44 45.5L42 46.653V49L44 47.8469V45.5Z" fill="#B0F5FF"/>
<path d="M44 41L42 42.153V44.5L44 43.3469V41Z" fill="#B0F5FF"/>
<path d="M49 38L47 39.153V41.5L49 40.3469V38Z" fill="#B0F5FF"/>
<path d="M44 36L42 37.153V39.5L44 38.3469V36Z" fill="#B0F5FF"/>
<path d="M26 52V49V47L22 50L26 52Z" fill="#0C57C7"/>
<path d="M22 50L26 48V47L22 44.6683V50Z" fill="#007BD3"/>
<path d="M54 52V49V47L58 50L54 52Z" fill="#0C57C7"/>
<path d="M58 50L54 48V47L58 44.6683V50Z" fill="#007BD3"/>
<path d="M18.5556 48L22.1111 49.7778L18.5556 51.5556L15 49.7778L18.5556 48Z" fill="#B0F4FF"/>
<path d="M15 49.7778L18.5556 51.5555V56L15 54.2222V49.7778Z" fill="#00DDFF"/>
<path d="M22.1113 49.7778L18.5558 51.5555V56L22.1113 54.2222V49.7778Z" fill="#73ECFF"/>
<path d="M61.4444 48L57.8889 49.7778L61.4444 51.5556L65 49.7778L61.4444 48Z" fill="#B0F4FF"/>
<path d="M65 49.7778L61.4444 51.5555V56L65 54.2222V49.7778Z" fill="#00DDFF"/>
<path d="M57.8887 49.7778L61.4442 51.5555V56L57.8887 54.2222V49.7778Z" fill="#73ECFF"/>
<path d="M40 6V21V36L14 21L40 6Z" fill="#2A56F2"/>
<path d="M40 6V21V36L66 21L40 6Z" fill="#3D7FFF"/>
</svg>
