<svg width="80" height="80" viewBox="0 0 80 80" fill="none" xmlns="http://www.w3.org/2000/svg">
<path d="M40 0L74.641 20V60L40 40L40 20L40 0Z" fill="#1A43D2"/>
<path d="M40 0L5.35898 20V60L40 40L40 20L40 0Z" fill="#0C57C7"/>
<path d="M40.0004 40L74.6414 60L40.0004 80L5.35938 60L40.0004 40Z" fill="url(#paint0_linear)"/>
<path d="M9.5 54L12 55.44V58.56L9.5 60L7 58.56V55.44L9.5 54Z" fill="#00DDFF"/>
<path d="M9.5 25.56L12 27V56.56L9.5 58L7 56.56V27L9.5 25.56Z" fill="url(#paint1_linear)"/>
<path d="M70.5 54L73 55.44V58.56L70.5 60L68 58.56V55.44L70.5 54Z" fill="#00DDFF"/>
<path d="M70.5 25.56L73 27V56.56L70.5 58L68 56.56V27L70.5 25.56Z" fill="url(#paint2_linear)"/>
<g clip-path="url(#clip0)">
<path d="M50.3497 54.1464C50.3193 54.3816 50.289 54.6168 50.2435 54.852C50.2359 54.8823 50.2359 54.9127 50.2283 54.943C50.1752 55.201 50.1069 55.4589 50.0311 55.7093C50.0083 55.7776 49.9932 55.8383 49.9704 55.899C49.9021 56.1114 49.8263 56.3238 49.7429 56.5287C49.7277 56.5742 49.7125 56.6197 49.6898 56.6653C49.5912 56.908 49.4774 57.1432 49.356 57.3784C49.3257 57.4315 49.2954 57.4922 49.265 57.5453C49.1588 57.735 49.0526 57.9247 48.9389 58.1068C48.9085 58.1599 48.8782 58.2054 48.8478 58.2585C48.7037 58.4785 48.552 58.6909 48.4003 58.9034C48.37 58.9489 48.3321 58.9868 48.2941 59.0324C48.1576 59.2069 48.0211 59.3738 47.8694 59.5331C47.8239 59.5786 47.786 59.6317 47.7404 59.6772C47.566 59.8669 47.3764 60.0566 47.1868 60.2387C47.1564 60.269 47.1185 60.2994 47.0881 60.3297C46.9213 60.4814 46.7468 60.6256 46.5724 60.7697C46.5193 60.8153 46.4662 60.8532 46.4131 60.8987C46.2007 61.058 45.9883 61.2174 45.7684 61.3615C45.738 61.3843 45.7077 61.3995 45.6774 61.4146C45.4801 61.5436 45.2754 61.665 45.0706 61.7712C44.9947 61.8167 44.9113 61.8547 44.8354 61.8926C44.6913 61.9685 44.5472 62.0367 44.4031 62.0974C44.1831 62.1961 43.9632 62.2871 43.7356 62.3706C43.637 62.4085 43.5384 62.4464 43.4398 62.4844C43.2578 62.5451 43.0757 62.5906 42.9013 62.6361C42.7799 62.6665 42.6662 62.7044 42.5448 62.7347C42.4007 62.7651 42.2566 62.7878 42.12 62.8106C41.9456 62.841 41.7711 62.8789 41.5967 62.8941V67.9393C41.6422 67.9317 41.6877 67.9317 41.7256 67.9241C41.8546 67.909 41.9835 67.8786 42.12 67.8559C42.2641 67.8331 42.4083 67.8103 42.5448 67.78C42.5675 67.7724 42.5827 67.7724 42.6055 67.7724C42.7041 67.7496 42.8027 67.7117 42.9013 67.689C43.0833 67.6434 43.2654 67.5903 43.4398 67.5372C43.4702 67.5296 43.5005 67.522 43.5232 67.5145C43.5915 67.4917 43.6598 67.4538 43.7356 67.431C43.9632 67.3475 44.1831 67.2565 44.4031 67.1579C44.4562 67.1351 44.5017 67.1199 44.5548 67.0972C44.6534 67.0517 44.7444 66.9985 44.8354 66.953C44.9113 66.9151 44.9947 66.8772 45.0706 66.8316C45.2754 66.7178 45.4801 66.5964 45.6849 66.4675C45.7153 66.4523 45.7456 66.4295 45.776 66.4144C45.7835 66.4144 45.7835 66.4068 45.7911 66.4068C46.0035 66.2626 46.2159 66.1109 46.4207 65.9592C46.4738 65.9136 46.5269 65.8757 46.58 65.8302C46.7544 65.686 46.9289 65.5419 47.0957 65.3901C47.1261 65.3598 47.164 65.3294 47.1943 65.2991C47.384 65.117 47.5736 64.9349 47.748 64.7377C47.7935 64.6921 47.8315 64.639 47.877 64.5935C48.0211 64.4266 48.1652 64.2597 48.3017 64.0928C48.3397 64.0473 48.37 64.0093 48.4079 63.9638C48.5672 63.7514 48.7189 63.5389 48.8554 63.3189C48.8858 63.2734 48.9161 63.2203 48.9464 63.1672C49.0602 62.9851 49.174 62.7954 49.2726 62.6058C49.3029 62.5527 49.3333 62.492 49.3636 62.4389C49.485 62.2037 49.5912 61.9685 49.6974 61.7257C49.7125 61.6802 49.7277 61.6346 49.7504 61.5891C49.8339 61.3843 49.9097 61.1718 49.978 60.9594C50.0007 60.8987 50.0159 60.8304 50.0387 60.7697C50.1145 60.5194 50.1828 60.2614 50.2359 60.0035C50.2435 59.9731 50.2435 59.9428 50.2511 59.9124C50.2966 59.6772 50.3345 59.4496 50.3572 59.2069C50.3648 59.1386 50.3724 59.0703 50.38 58.9944C50.4027 58.7289 50.4179 58.4633 50.4179 58.1902V53.145C50.4179 53.4181 50.4027 53.6836 50.38 53.9492C50.3648 54.0023 50.3572 54.0781 50.3497 54.1464Z" fill="#00C7E2" fill-opacity="0.5"/>
<path d="M56.2661 22.1375C55.9931 22.2285 55.7276 22.3272 55.4773 22.4334C55.4621 22.441 55.4546 22.441 55.4394 22.4486C55.1663 22.5548 54.9009 22.6762 54.6506 22.79C54.5595 22.8279 54.4837 22.8734 54.4003 22.9189C54.3017 22.972 54.1955 23.0176 54.0969 23.0707C53.8314 23.2148 53.5735 23.359 53.3308 23.5107C53.2701 23.5486 53.2018 23.5866 53.1336 23.6245C53.1108 23.6397 53.0881 23.6549 53.0653 23.6624C52.7847 23.8445 52.5268 24.0342 52.2765 24.2315C52.2158 24.277 52.1627 24.3301 52.1096 24.3756C51.9048 24.5425 51.7076 24.717 51.518 24.8915C51.4346 24.9674 51.3587 25.0433 51.2829 25.1267C51.1312 25.2784 50.987 25.4378 50.8429 25.5895C50.7747 25.673 50.6988 25.7488 50.6306 25.8323C50.4864 26.0068 50.3575 26.1737 50.2286 26.3482C50.1831 26.4165 50.13 26.4848 50.0769 26.553C49.91 26.7958 49.7583 27.0386 49.6142 27.289C49.5914 27.3345 49.5687 27.3724 49.5459 27.4179C49.4321 27.6228 49.326 27.8352 49.2274 28.0401C49.1894 28.1235 49.1515 28.207 49.1136 28.2904C49.0377 28.4649 48.9695 28.6318 48.9012 28.8063C48.8709 28.8974 48.8329 28.9808 48.8026 29.0719C48.7419 29.2464 48.6812 29.4285 48.6281 29.603C48.6054 29.6788 48.5826 29.7547 48.5599 29.823C48.4916 30.0733 48.4309 30.3161 48.3778 30.5589C48.3703 30.5892 48.3703 30.612 48.3627 30.6348C48.3172 30.8548 48.2792 31.0672 48.2489 31.2796C48.2337 31.3555 48.2261 31.4314 48.2186 31.5148C48.1958 31.6742 48.1806 31.8335 48.1579 31.9928C48.1503 32.0763 48.1427 32.1521 48.1351 32.2356C48.12 32.3949 48.1124 32.5467 48.1048 32.6984C48.1048 32.7667 48.0972 32.835 48.0972 32.8956C48.0896 33.1081 48.082 33.3129 48.082 33.5102V38.5554C48.082 38.3582 48.0896 38.1533 48.0972 37.9409C48.0972 37.8726 48.1048 37.8043 48.1048 37.7436C48.1124 37.5919 48.12 37.4402 48.1351 37.2808C48.1427 37.1974 48.1503 37.1215 48.1579 37.0381C48.173 36.8787 48.1958 36.727 48.2186 36.5601C48.2261 36.4842 48.2413 36.4084 48.2489 36.3249C48.2792 36.1125 48.3172 35.9 48.3627 35.68C48.3703 35.6497 48.3703 35.6269 48.3778 35.5966C48.4309 35.3538 48.4916 35.111 48.5599 34.8606C48.5826 34.7848 48.6054 34.7089 48.6281 34.6406C48.6812 34.4661 48.7343 34.284 48.8026 34.1095C48.8329 34.0185 48.8633 33.935 48.9012 33.844C48.9695 33.6695 49.0377 33.5026 49.1136 33.3281C49.1515 33.2446 49.1894 33.1612 49.2274 33.0777C49.326 32.8729 49.4321 32.6605 49.5459 32.4556C49.5687 32.4101 49.5914 32.3646 49.6142 32.3266C49.7583 32.0763 49.91 31.8335 50.0769 31.5907C50.1224 31.5224 50.1755 31.4541 50.221 31.3934C50.3499 31.219 50.4789 31.0445 50.623 30.8775C50.6912 30.7941 50.7595 30.7106 50.8354 30.6348C50.9719 30.4754 51.1236 30.3237 51.2753 30.172C51.3511 30.0961 51.427 30.0202 51.5104 29.9368C51.6924 29.7623 51.8972 29.5878 52.102 29.4209C52.1627 29.3753 52.2082 29.3222 52.2689 29.2767C52.5344 29.0643 52.8226 28.8594 53.126 28.6698C53.1867 28.6318 53.2549 28.5939 53.3156 28.556C53.5583 28.4042 53.8162 28.2601 54.0817 28.1159C54.1803 28.0628 54.2789 28.0097 54.3851 27.9642C54.7188 27.7973 55.0601 27.638 55.4242 27.4938C55.4318 27.4862 55.447 27.4862 55.4546 27.4786C55.8717 27.3117 56.3041 27.16 56.7667 27.0158V21.9706C56.615 22.0237 56.4406 22.0768 56.2661 22.1375Z" fill="#00C7E2" fill-opacity="0.5"/>
<path d="M23.9162 29.4892C23.7949 29.5726 23.6811 29.6637 23.5597 29.7471C23.4611 29.8154 23.3625 29.8837 23.2639 29.9595C23.1046 30.0885 22.9454 30.2175 22.7937 30.3541C22.7178 30.4223 22.6344 30.483 22.5585 30.5513C22.3461 30.741 22.1489 30.9458 21.9517 31.1583C21.9366 31.1734 21.9214 31.1886 21.9062 31.2038C21.6938 31.4314 21.4966 31.6666 21.307 31.9018C21.2463 31.9852 21.1857 32.0687 21.125 32.1521C21.0036 32.319 20.8747 32.4784 20.7609 32.6529C20.6926 32.7515 20.6244 32.8577 20.5561 32.9639C20.4575 33.1233 20.3513 33.275 20.2527 33.4419C20.1845 33.5557 20.1238 33.6695 20.0555 33.7833C19.9645 33.9426 19.8811 34.0944 19.7976 34.2537C19.7369 34.3751 19.6763 34.4965 19.6156 34.6179C19.5397 34.7772 19.4639 34.9365 19.3956 35.0958C19.3425 35.2248 19.2894 35.3462 19.2363 35.4752C19.1681 35.6345 19.1074 35.8014 19.0467 35.9607C19.0012 36.0897 18.9557 36.2187 18.9102 36.3477C18.8571 36.5146 18.7964 36.6739 18.7509 36.8408C18.713 36.9698 18.6675 37.0988 18.6371 37.2277C18.5916 37.3947 18.5461 37.5616 18.5006 37.7285C18.4703 37.8575 18.4323 37.9864 18.4096 38.1154C18.3717 38.2899 18.3337 38.4568 18.3034 38.6313C18.2806 38.7527 18.2503 38.8817 18.2351 39.0031C18.2048 39.1776 18.182 39.3596 18.1593 39.5341C18.1441 39.6479 18.1214 39.7693 18.1138 39.8831C18.091 40.0804 18.0758 40.2701 18.0607 40.4597C18.0531 40.5584 18.0455 40.6494 18.0379 40.748C18.0076 41.0288 18 41.3095 18 41.5902V46.6354C18 46.3547 18.0076 46.074 18.0228 45.7933C18.0303 45.7023 18.0379 45.6036 18.0455 45.505C18.0607 45.3153 18.0758 45.1181 18.0986 44.9284C18.1138 44.8146 18.1289 44.6932 18.1441 44.5794C18.1669 44.4049 18.1896 44.2304 18.22 44.0483C18.2427 43.9269 18.2655 43.798 18.2882 43.6766C18.3186 43.5097 18.3565 43.3352 18.3944 43.1682C18.4248 43.0393 18.4551 42.9103 18.4854 42.7813C18.5309 42.6144 18.5689 42.4475 18.622 42.2806C18.6599 42.1516 18.6978 42.0226 18.7357 41.8937C18.7888 41.7267 18.8419 41.5674 18.895 41.4005C18.9405 41.2715 18.986 41.1426 19.0315 41.0136C19.0922 40.8543 19.1529 40.6873 19.2212 40.528C19.2743 40.399 19.3274 40.2777 19.3805 40.1487C19.4487 39.9894 19.5246 39.83 19.6004 39.6707C19.6611 39.5493 19.7142 39.4279 19.7825 39.3065C19.8659 39.1472 19.9493 38.9879 20.0403 38.8286C20.101 38.7148 20.1693 38.601 20.23 38.4872C20.3286 38.3278 20.4272 38.1685 20.5334 38.0092C20.6016 37.903 20.6623 37.8043 20.7306 37.6981C20.8519 37.5236 20.9733 37.3643 21.1022 37.1974C21.1629 37.1139 21.2236 37.0305 21.2843 36.9546C21.4739 36.7118 21.6787 36.4766 21.8835 36.249C21.8986 36.2339 21.9138 36.2263 21.9214 36.2111C22.1186 35.9987 22.3234 35.7938 22.5358 35.6042C22.6116 35.5359 22.6951 35.4752 22.7709 35.4069C22.9226 35.2703 23.0819 35.1414 23.2412 35.0124C23.3398 34.9365 23.4384 34.8682 23.537 34.8C23.6811 34.6937 23.8252 34.5875 23.9769 34.4965C24.2803 34.2992 24.5989 34.1171 24.925 33.9502V28.905C24.5989 29.0719 24.2803 29.254 23.9769 29.4512C23.9693 29.4588 23.9466 29.4664 23.9162 29.4892Z" fill="#00C7E2" fill-opacity="0.5"/>
<path d="M42.8941 11C42.4162 11.1897 41.9611 11.3869 41.5136 11.5918C41.4605 11.6145 41.3998 11.6373 41.3467 11.6676C41.2861 11.698 41.233 11.7283 41.1799 11.7587C40.8234 11.9332 40.4669 12.1153 40.1332 12.2974C40.0801 12.3277 40.027 12.3505 39.9815 12.3808C39.6022 12.5932 39.2381 12.8133 38.8892 13.0409C38.8513 13.0636 38.8134 13.0864 38.783 13.1091C38.7375 13.1395 38.6996 13.1698 38.6541 13.2002C38.2294 13.4809 37.8198 13.7768 37.4329 14.0803C37.4102 14.0954 37.395 14.1182 37.3723 14.1334C36.993 14.4368 36.6441 14.7403 36.3028 15.059C36.2573 15.1045 36.2042 15.1424 36.1587 15.1879C35.8249 15.5066 35.514 15.8328 35.2181 16.1666C35.1651 16.2273 35.1044 16.2956 35.0513 16.3563C34.7631 16.6901 34.49 17.024 34.2321 17.373C34.1942 17.4261 34.1563 17.4868 34.1108 17.5399C33.8529 17.8964 33.6026 18.2606 33.375 18.6248C33.3674 18.6324 33.3674 18.64 33.3598 18.6475C33.1323 19.0193 32.9199 19.3986 32.7227 19.7856C32.6924 19.8463 32.6545 19.907 32.6241 19.9677C32.4345 20.3394 32.2676 20.7112 32.1083 21.0829C32.078 21.1512 32.0477 21.2271 32.0173 21.2954C31.858 21.6747 31.7139 22.0616 31.5774 22.4486C31.5622 22.4941 31.5471 22.5472 31.5319 22.5927C31.4029 22.972 31.2816 23.359 31.1754 23.7459C31.1678 23.7838 31.1526 23.8142 31.1451 23.8521C31.0389 24.2466 30.9403 24.6487 30.8568 25.0433C30.8417 25.1115 30.8265 25.1874 30.8113 25.2557C30.7279 25.6426 30.652 26.0295 30.5914 26.4165C30.5762 26.4848 30.5686 26.553 30.561 26.6289C30.5003 27.0234 30.4397 27.4179 30.3942 27.8125C30.3942 27.8428 30.3866 27.8732 30.3866 27.9035C30.3411 28.2904 30.3031 28.6774 30.2728 29.0567C30.2652 29.1098 30.2652 29.1553 30.2576 29.2084C30.2273 29.5954 30.2045 29.9747 30.1818 30.3541C30.1818 30.4299 30.1742 30.4982 30.1742 30.5741C30.159 30.9458 30.1438 31.31 30.1363 31.6742C30.1363 31.7349 30.1363 31.7956 30.1363 31.8562C30.1287 32.2356 30.1211 32.6073 30.1211 32.9715V38.0168C30.1211 37.6526 30.1287 37.2808 30.1363 36.9015C30.1363 36.8408 30.1363 36.7801 30.1363 36.7194C30.1438 36.3553 30.159 35.9911 30.1742 35.6193C30.1742 35.551 30.1818 35.4752 30.1818 35.3993C30.2045 35.02 30.2273 34.6406 30.2576 34.2537C30.2652 34.2006 30.2652 34.1551 30.2728 34.102C30.3031 33.7226 30.3411 33.3357 30.3866 32.9488C30.3866 32.9184 30.3942 32.8881 30.3942 32.8577C30.4397 32.4632 30.5003 32.0687 30.561 31.6742C30.5686 31.6059 30.5838 31.5376 30.5914 31.4617C30.6596 31.0748 30.7279 30.6879 30.8113 30.3009C30.8265 30.2327 30.8417 30.1568 30.8568 30.0885C30.9478 29.694 31.0389 29.2919 31.1451 28.8974C31.1526 28.8594 31.1678 28.8291 31.1754 28.7912C31.2816 28.4042 31.4029 28.0249 31.5319 27.638C31.5471 27.5924 31.5622 27.5393 31.5774 27.4938C31.7139 27.1069 31.858 26.7275 32.0173 26.3406C32.0477 26.2723 32.078 26.1965 32.1083 26.1282C32.2676 25.7488 32.4421 25.3771 32.6241 25.0129C32.6545 24.9522 32.6924 24.8915 32.7227 24.8232C32.9199 24.4363 33.1323 24.057 33.3598 23.6852C33.3674 23.6776 33.3674 23.67 33.375 23.6625C33.6026 23.2907 33.8453 22.9341 34.1108 22.5775C34.1487 22.5244 34.1866 22.4637 34.2321 22.4106C34.49 22.0692 34.7631 21.7278 35.0513 21.394C35.1044 21.3333 35.1651 21.265 35.2181 21.2043C35.514 20.8705 35.8249 20.5443 36.1587 20.2332C36.2042 20.1877 36.2573 20.1422 36.3028 20.1042C36.6441 19.7856 36.993 19.4821 37.3723 19.1786C37.395 19.1634 37.4178 19.1407 37.4405 19.1255C37.8274 18.822 38.2369 18.5337 38.6617 18.2454C38.7375 18.1923 38.821 18.1392 38.8968 18.0861C39.2457 17.8585 39.6098 17.6385 39.989 17.4261C40.0421 17.3957 40.0952 17.373 40.1483 17.3426C40.4821 17.1605 40.8386 16.9784 41.195 16.8039C41.3088 16.7508 41.4226 16.6977 41.5364 16.6446C41.9839 16.4398 42.439 16.2349 42.9168 16.0528V11H42.8941Z" fill="#00C7E2" fill-opacity="0.5"/>
<path d="M39.1769 62.8258C39.0479 62.803 38.9266 62.7802 38.7976 62.7575C38.5398 62.7044 38.2819 62.6437 38.0316 62.5678C37.9178 62.5375 37.7964 62.4995 37.6827 62.4616C37.5082 62.4009 37.3413 62.3402 37.1669 62.2719C37.0379 62.2188 36.9014 62.1733 36.7725 62.1126C36.598 62.0367 36.4312 61.9457 36.2643 61.8622C36.1353 61.7939 36.014 61.7332 35.885 61.665C35.8092 61.6194 35.7333 61.5739 35.6575 61.5284C35.483 61.4222 35.3162 61.316 35.1493 61.2022C35.0659 61.1491 34.99 61.0884 34.9066 61.0277C34.7473 60.9063 34.588 60.7849 34.4287 60.6559C34.3605 60.6028 34.2922 60.5497 34.2239 60.489C34.0116 60.2993 33.7992 60.1097 33.602 59.9048C33.3593 59.662 33.1393 59.4041 32.9193 59.1385C32.8511 59.0551 32.7904 58.964 32.7297 58.8806C32.5856 58.6909 32.4491 58.5012 32.3201 58.304C32.2595 58.2129 32.2064 58.1219 32.1533 58.0309C31.9864 57.7502 31.8271 57.4694 31.683 57.1736C31.6375 57.0901 31.592 56.9991 31.5541 56.9156C31.4403 56.6652 31.3493 56.4149 31.2583 56.1645C31.2355 56.0962 31.2052 56.0279 31.1824 55.9597C31.1141 55.7624 31.0686 55.55 31.0155 55.3451C30.9928 55.2389 30.9549 55.1403 30.9321 55.0341C30.9093 54.9354 30.9018 54.8292 30.879 54.7306C30.8411 54.5257 30.8032 54.3285 30.7804 54.1161C30.7652 54.0098 30.7652 53.9036 30.7577 53.7974C30.7425 53.5774 30.7197 53.3574 30.7197 53.1298V58.175C30.7197 58.213 30.7197 58.2585 30.7197 58.2964C30.7197 58.4785 30.7425 58.6606 30.7577 58.8427C30.7652 58.9489 30.7652 59.0551 30.7804 59.1613C30.7804 59.1689 30.7804 59.1841 30.7804 59.1917C30.8032 59.3889 30.8411 59.5786 30.879 59.7683C30.8942 59.8669 30.9093 59.9731 30.9321 60.0717C30.9321 60.0793 30.9321 60.0793 30.9321 60.0869C30.9549 60.1855 30.9852 60.2842 31.0155 60.3828C31.0686 60.5876 31.1217 60.7925 31.1824 60.9973C31.1824 61.0049 31.19 61.0201 31.19 61.0277C31.2127 61.0884 31.2355 61.1415 31.2583 61.2022C31.3493 61.4601 31.4479 61.7105 31.5541 61.9533C31.5692 61.9836 31.5768 62.014 31.592 62.0443C31.6147 62.105 31.6527 62.1505 31.683 62.2112C31.8271 62.5071 31.9788 62.7878 32.1533 63.0685C32.1836 63.1216 32.2064 63.1823 32.2443 63.2354C32.267 63.2734 32.2974 63.3037 32.3201 63.3417C32.4491 63.5389 32.5856 63.7286 32.7297 63.9183C32.798 64.0017 32.8511 64.0928 32.9193 64.1762C33.1317 64.4418 33.3593 64.6997 33.602 64.9425C33.602 64.9425 33.602 64.9425 33.602 64.9501C33.7992 65.1549 34.0116 65.3446 34.2239 65.5343C34.2922 65.595 34.3605 65.6481 34.4287 65.7012C34.588 65.8301 34.7473 65.9515 34.9066 66.0729C34.99 66.1336 35.0659 66.1867 35.1493 66.2474C35.3162 66.3612 35.483 66.475 35.6575 66.5737C35.7333 66.6192 35.8092 66.6647 35.885 66.7102C35.9154 66.7254 35.9457 66.7482 35.9761 66.7633C36.0671 66.8164 36.1657 66.8544 36.2643 66.9075C36.4312 66.9909 36.598 67.082 36.7725 67.1578C36.9014 67.2185 37.0304 67.2641 37.1669 67.3172C37.3338 67.3855 37.5082 67.4537 37.6827 67.5068C37.7282 67.522 37.7737 67.5448 37.8192 67.56C37.8875 67.5827 37.9557 67.5903 38.0316 67.6131C38.2819 67.6889 38.5398 67.7496 38.7976 67.8027C38.8659 67.8179 38.9342 67.8407 39.01 67.8558C39.0631 67.8634 39.1238 67.871 39.1769 67.8786C39.3438 67.9089 39.5182 67.9241 39.6851 67.9393C39.7837 67.9469 39.8823 67.9696 39.9809 67.9772C40.0871 67.9848 40.1933 67.9924 40.2995 67.9924V62.9471C40.0947 62.9396 39.8899 62.9168 39.6851 62.894C39.5182 62.8713 39.3513 62.8561 39.1769 62.8258Z" fill="#00C7E2" fill-opacity="0.65"/>
<path d="M28.8995 39.1169C28.8615 39.0714 28.8236 39.0258 28.7857 38.9803C28.5581 38.6844 28.3382 38.3734 28.1334 38.0547C28.0575 37.9409 27.9893 37.8195 27.921 37.7057C27.8072 37.5085 27.6859 37.3188 27.5797 37.1215C27.5038 36.985 27.4432 36.856 27.3749 36.7194C27.2763 36.5298 27.1777 36.3401 27.0942 36.1504C27.0412 36.029 26.9881 35.9152 26.935 35.7938C26.8136 35.5207 26.6998 35.2476 26.5936 34.9821C26.5481 34.8683 26.5026 34.7544 26.4571 34.6406C26.3358 34.322 26.222 33.9958 26.1158 33.6847C26.1006 33.6392 26.0855 33.5937 26.0703 33.5481C26.0399 33.4571 26.0172 33.3661 25.9869 33.275C25.9262 33.0778 25.8655 32.8881 25.8048 32.6984C25.7745 32.5846 25.7441 32.4784 25.7138 32.3722C25.6683 32.2129 25.6228 32.0535 25.5849 31.8942C25.5545 31.7804 25.5318 31.6742 25.5014 31.568C25.4635 31.4238 25.4332 31.2873 25.3952 31.1507C25.3725 31.0445 25.3497 30.9458 25.327 30.8472C25.2966 30.7031 25.2587 30.5589 25.2359 30.4299C25.2284 30.3996 25.2208 30.3692 25.2208 30.3389C25.1829 30.1568 25.1525 29.9975 25.1222 29.8458C25.1146 29.823 25.1146 29.7926 25.107 29.7699C25.0767 29.6257 25.0539 29.4892 25.0387 29.3754C25.0387 29.3602 25.0312 29.345 25.0312 29.3299C25.016 29.2236 25.0008 29.125 24.9856 29.0567C24.9856 29.0491 24.9856 29.0416 24.9856 29.034C24.9781 28.9657 24.9705 28.9202 24.9629 28.8974V33.9427C24.9629 33.9654 24.9705 34.0185 24.9856 34.0792C24.9856 34.0868 24.9856 34.0944 24.9856 34.102C24.9932 34.1703 25.0084 34.2689 25.0312 34.3751C25.0312 34.3903 25.0387 34.4055 25.0387 34.4206C25.0615 34.5344 25.0842 34.6634 25.107 34.8151C25.1146 34.8379 25.1146 34.8683 25.1222 34.891C25.1525 35.0427 25.1829 35.2097 25.2208 35.3842C25.2284 35.4145 25.2359 35.4448 25.2435 35.4752C25.2587 35.5359 25.2663 35.5966 25.2815 35.6649C25.2966 35.7332 25.3194 35.8166 25.3346 35.8849C25.3573 35.9835 25.3801 36.0821 25.4028 36.1884C25.4332 36.3249 25.4711 36.4615 25.5014 36.5981C25.5318 36.7043 25.5545 36.8105 25.5849 36.9243C25.6228 37.076 25.6683 37.2353 25.7138 37.3947C25.7441 37.5085 25.7745 37.6147 25.8048 37.7209C25.8579 37.9106 25.9186 38.1002 25.9793 38.2975C26.0096 38.3885 26.0324 38.4796 26.0627 38.5706C26.0627 38.5782 26.0703 38.5934 26.0703 38.601C26.0855 38.6389 26.093 38.6693 26.1082 38.7072C26.2144 39.0183 26.3282 39.3445 26.4495 39.6631C26.495 39.7769 26.5405 39.8907 26.5861 40.0045C26.6922 40.2777 26.806 40.5432 26.9274 40.8163C26.9577 40.8922 26.9881 40.9681 27.026 41.0439C27.0487 41.0895 27.0715 41.1274 27.0867 41.1729C27.1777 41.3626 27.2763 41.5523 27.3673 41.7419C27.4356 41.8785 27.5038 42.0075 27.5721 42.144C27.6783 42.3413 27.7996 42.5386 27.9134 42.7282C27.9741 42.8269 28.0272 42.9331 28.0879 43.0317C28.0955 43.0469 28.1106 43.062 28.1182 43.0772C28.323 43.3959 28.543 43.7069 28.7705 44.0028C28.8084 44.0483 28.8464 44.0939 28.8843 44.1394C29.0815 44.3822 29.2863 44.6249 29.4987 44.845C29.5214 44.8677 29.5442 44.8981 29.5669 44.9208C29.749 45.1105 29.9386 45.285 30.1358 45.4519V40.437C29.9082 40.2473 29.7035 40.0349 29.4911 39.8225C29.3015 39.5949 29.0967 39.3597 28.8995 39.1169Z" fill="#00C7E2" fill-opacity="0.65"/>
<path d="M61.9921 41.4005C61.9921 41.2564 61.9693 41.1274 61.9617 40.9832C61.9466 40.7101 61.939 40.4294 61.9086 40.1639C61.9011 40.1183 61.9086 40.0728 61.9011 40.0273C61.8859 39.9059 61.8631 39.7997 61.8404 39.6783C61.8025 39.3976 61.7569 39.1245 61.7038 38.8513C61.6887 38.7906 61.6811 38.7148 61.6735 38.6541C61.6356 38.4872 61.5901 38.3203 61.5521 38.1609C61.5294 38.0775 61.5142 38.0016 61.4915 37.9182C61.408 37.6147 61.317 37.3112 61.2184 37.0077C61.2108 36.985 61.2032 36.9622 61.1957 36.9395C61.1502 36.8105 61.1046 36.6815 61.0591 36.5525C60.9833 36.3325 60.8998 36.1125 60.8164 35.9001C60.7633 35.7559 60.7026 35.6118 60.642 35.4676C60.5585 35.2703 60.4751 35.0655 60.3917 34.8682C60.3234 34.7165 60.2551 34.5572 60.1869 34.4054C60.0958 34.2006 60.0124 34.0033 59.9138 33.7985C59.8 33.5481 59.6863 33.2902 59.5649 33.0322C59.4815 32.8501 59.398 32.6605 59.3146 32.4784C59.2236 32.2735 59.125 32.0611 59.034 31.8487C58.9657 31.6894 58.8974 31.53 58.8292 31.3631C58.7382 31.1583 58.6547 30.9458 58.5713 30.7334C58.503 30.5741 58.4423 30.4148 58.3741 30.2479C58.2906 30.0278 58.2072 29.8002 58.1238 29.5726C58.0631 29.4133 58.0024 29.2464 57.9493 29.0871C57.8507 28.8064 57.7673 28.5105 57.6763 28.2222C57.6459 28.1159 57.608 28.0097 57.5777 27.9035C57.4639 27.4938 57.3577 27.0766 57.2667 26.6441C57.2515 26.5834 57.2439 26.5227 57.2288 26.4696C57.1529 26.113 57.0922 25.7413 57.0316 25.3619C57.0088 25.2329 56.9936 25.0964 56.9785 24.9674C56.9254 24.5956 56.8874 24.2163 56.8571 23.8294C56.8495 23.7383 56.8419 23.6549 56.8343 23.5638C56.7964 23.0479 56.7812 22.5169 56.7812 21.963V27.0083C56.7812 27.1221 56.7812 27.2283 56.7812 27.3345C56.7888 27.7745 56.804 28.1918 56.8343 28.6091C56.8419 28.7001 56.8495 28.7836 56.8571 28.8746C56.8799 29.125 56.895 29.383 56.9254 29.6257C56.9405 29.7547 56.9633 29.8837 56.9785 30.0127C56.9936 30.1416 57.0164 30.2782 57.0316 30.4072C57.0922 30.7865 57.1529 31.1583 57.2288 31.5149C57.2439 31.5756 57.2515 31.6362 57.2667 31.6894C57.2667 31.7045 57.2743 31.7197 57.2743 31.7349C57.3653 32.1522 57.4715 32.5543 57.5777 32.9488C57.608 33.055 57.6459 33.1612 57.6763 33.2674C57.7445 33.5102 57.8204 33.753 57.8962 33.9882C57.9114 34.0413 57.9342 34.0868 57.9493 34.1323C58.0024 34.2992 58.0631 34.4586 58.1238 34.6179C58.2072 34.8455 58.2831 35.0731 58.3741 35.2931C58.4348 35.46 58.503 35.6193 58.5713 35.7787C58.6547 35.9911 58.7457 36.2035 58.8292 36.4084C58.8974 36.5677 58.9657 36.7346 59.034 36.8939C59.125 37.1064 59.216 37.3112 59.3146 37.5236C59.398 37.7133 59.4815 37.8954 59.5649 38.0851C59.6787 38.343 59.8 38.601 59.9138 38.8513C60.0048 39.0562 60.0958 39.2534 60.1869 39.4583C60.2551 39.61 60.3234 39.7693 60.3917 39.9211C60.4751 40.1183 60.5585 40.3156 60.642 40.5204C60.7026 40.6646 60.7633 40.8087 60.8164 40.9529C60.8998 41.1653 60.9757 41.3853 61.0591 41.6054C61.1046 41.7343 61.1577 41.8633 61.1957 41.9923C61.3018 42.3109 61.4005 42.6372 61.4915 42.9634C61.5142 43.0469 61.5294 43.1227 61.5521 43.2062C61.6128 43.4338 61.6583 43.669 61.7114 43.8966C61.7645 44.1697 61.81 44.4428 61.848 44.7236C61.8707 44.8829 61.9011 45.0422 61.9162 45.2091C61.9466 45.4747 61.9541 45.7478 61.9693 46.0285C61.9769 46.2333 61.9997 46.423 61.9997 46.6279V41.5826C61.9997 41.5295 61.9921 41.4612 61.9921 41.4005Z" fill="#00C7E2" fill-opacity="0.65"/>
<path d="M46.8761 31.9701C46.6865 31.7121 46.4968 31.4466 46.33 31.181C46.1403 30.8927 45.9659 30.5968 45.799 30.3009C45.7611 30.2327 45.7156 30.1644 45.6777 30.0961C45.4729 29.7243 45.2908 29.3526 45.1164 28.9657C45.0785 28.8822 45.0481 28.7987 45.0102 28.7153C44.8813 28.427 44.7599 28.1311 44.6461 27.8352C44.6006 27.7062 44.5475 27.5773 44.502 27.4407C44.411 27.1903 44.3276 26.9324 44.2441 26.6744C44.1986 26.5151 44.1455 26.3634 44.1 26.204C44.0242 25.9461 43.9559 25.6806 43.8952 25.415C43.8573 25.2633 43.8194 25.1191 43.789 24.9674C43.7435 24.7625 43.7056 24.5577 43.6601 24.3529C43.607 24.0721 43.5463 23.799 43.5008 23.5183C43.4629 23.3059 43.4325 23.0934 43.4022 22.881C43.3643 22.6003 43.3188 22.3196 43.2884 22.0313C43.2581 21.8037 43.2353 21.5685 43.2126 21.3409C43.1822 21.0753 43.1595 20.8174 43.1367 20.5443C43.114 20.3015 43.0988 20.0587 43.0836 19.8159C43.0609 19.5428 43.0457 19.2697 43.0305 18.989C43.0154 18.7386 43.0078 18.4882 42.9926 18.2303C42.9774 17.9496 42.9699 17.6613 42.9623 17.373C42.9547 17.115 42.9471 16.8495 42.9395 16.5839C42.9319 16.3108 42.9319 16.0149 42.9243 15.7114C42.9168 15.4535 42.9168 15.1955 42.9168 14.9376C42.9092 14.4824 42.9092 14.0272 42.9092 13.5568C42.9092 13.3595 42.9092 13.1698 42.9092 12.9726C42.9092 12.3277 42.9092 11.6676 42.9092 11V16.0453C42.9092 16.7205 42.9092 17.373 42.9092 18.0178C42.9092 18.2151 42.9092 18.4124 42.9092 18.602C42.9092 19.0648 42.9168 19.5276 42.9168 19.9828C42.9168 20.1042 42.9168 20.2332 42.9168 20.3546C42.9168 20.4911 42.9243 20.6201 42.9243 20.7567C42.9319 21.0526 42.9319 21.356 42.9395 21.6444C42.9471 21.9099 42.9547 22.1754 42.9623 22.4334C42.9699 22.7217 42.985 23.01 42.9926 23.2907C43.0002 23.5411 43.0154 23.799 43.0305 24.0494C43.0457 24.3301 43.0609 24.6032 43.0836 24.8763C43.0988 25.1191 43.1216 25.3695 43.1367 25.6047C43.1595 25.8702 43.1822 26.1358 43.2126 26.4013C43.2277 26.5455 43.2353 26.6972 43.2581 26.8413C43.2657 26.9248 43.2808 27.0083 43.296 27.0917C43.3339 27.38 43.3719 27.6607 43.4098 27.9414C43.4401 28.1539 43.4705 28.3663 43.5084 28.5787C43.5539 28.8594 43.6146 29.1402 43.6677 29.4133C43.698 29.565 43.7208 29.7168 43.7511 29.8685C43.7663 29.9216 43.7814 29.9747 43.789 30.0278C43.827 30.1796 43.8649 30.3313 43.8952 30.4754C43.9635 30.741 44.0317 31.0065 44.1 31.2645C44.1455 31.4238 44.191 31.5755 44.2441 31.7349C44.282 31.8563 44.3124 31.9852 44.3579 32.1066C44.4034 32.2432 44.4565 32.3722 44.502 32.5087C44.5475 32.6377 44.593 32.7667 44.6461 32.8956C44.7599 33.1915 44.8813 33.4874 45.0102 33.7757C45.0481 33.8592 45.0785 33.9426 45.1164 34.0261C45.124 34.0489 45.1316 34.064 45.1391 34.0868C45.306 34.4434 45.488 34.7999 45.6777 35.1565C45.7156 35.2248 45.7611 35.2855 45.799 35.3538C45.9507 35.6193 46.1024 35.8849 46.2693 36.1504C46.2845 36.1808 46.3072 36.2035 46.33 36.2339C46.5044 36.4994 46.6865 36.7574 46.8761 37.0153C46.9747 37.1443 47.0581 37.2808 47.1567 37.4098C47.4525 37.7968 47.7711 38.1761 48.1048 38.5554V33.5102C47.7635 33.1308 47.4525 32.7515 47.1567 32.3646C47.0581 32.2356 46.9671 32.1066 46.8761 31.9701Z" fill="#00C7E2" fill-opacity="0.65"/>
<path d="M42.8936 16.0453C42.8936 25.8551 42.8936 32.7819 48.1045 38.5555C48.1045 35.0959 49.2574 29.3147 56.7892 27.0159C56.7892 36.2491 62 39.7163 62 46.6355C62 58.213 53.0119 67.1579 41.5966 67.9318C46.3827 67.3779 50.4179 63.0306 50.4179 58.1751C50.4179 55.8687 49.265 53.5623 47.5204 52.4015C47.4901 52.576 46.944 55.8687 45.207 57.5985C45.207 55.2845 46.9516 47.2045 39.4198 44.3215C39.4198 48.9419 31.3267 52.9857 30.7426 58.1751C30.7426 63.281 35.2101 67.8255 40.3148 67.9849C40.2162 67.9849 40.11 67.9925 40.0114 67.9925C27.8452 68 18 58.1751 18 46.6355C18 42.0227 20.3134 36.2415 24.9478 33.9351C25.0084 34.3372 26.1007 42.0151 30.1586 45.4747C30.735 39.7087 26.6847 22.3955 42.8936 16.0453Z" fill="url(#paint3_linear)"/>
</g>
<defs>
<linearGradient id="paint0_linear" x1="40.0004" y1="40" x2="40.0004" y2="80" gradientUnits="userSpaceOnUse">
<stop stop-color="#1A43D2" stop-opacity="0.5"/>
<stop offset="1" stop-color="#1A43D2"/>
</linearGradient>
<linearGradient id="paint1_linear" x1="9.5" y1="25.5599" x2="9.5" y2="58" gradientUnits="userSpaceOnUse">
<stop stop-color="#00DDFF" stop-opacity="0"/>
<stop offset="1" stop-color="#00DDFF" stop-opacity="0.5"/>
</linearGradient>
<linearGradient id="paint2_linear" x1="70.5" y1="25.5599" x2="70.5" y2="58" gradientUnits="userSpaceOnUse">
<stop stop-color="#00DDFF" stop-opacity="0"/>
<stop offset="1" stop-color="#00DDFF" stop-opacity="0.5"/>
</linearGradient>
<linearGradient id="paint3_linear" x1="40" y1="16.0453" x2="40" y2="67.9925" gradientUnits="userSpaceOnUse">
<stop stop-color="#2DE2FF"/>
<stop offset="1" stop-color="#00DDFF"/>
</linearGradient>
<clipPath id="clip0">
<rect width="44" height="57" fill="white" transform="translate(18 11)"/>
</clipPath>
</defs>
</svg>
