<svg width="946" height="1050" viewBox="0 0 946 1050" fill="none" xmlns="http://www.w3.org/2000/svg">
<path d="M23 -5.5L257.505 620.405C285.62 695.447 274.427 779.571 227.667 844.651L23 1129.5" stroke="url(#paint0_linear)" stroke-opacity="0.5" stroke-width="6"/>
<path d="M30.5 -5.5L265.005 620.405C293.12 695.447 281.927 779.571 235.167 844.651L30.5 1129.5" stroke="url(#paint1_linear)" stroke-opacity="0.7" stroke-width="6"/>
<path opacity="0.2" d="M123 -13L385.325 617.358C417.155 693.844 407.288 781.338 359.223 848.813L157.5 1132" stroke="url(#paint2_linear)" stroke-width="120"/>
<path d="M269.005 620.405L34.5 -5.5H946V1129.5H34.5L239.167 844.651C285.927 779.571 297.12 695.447 269.005 620.405Z" fill="url(#paint3_linear)"/>
<defs>
<linearGradient id="paint0_linear" x1="162.75" y1="-5.5" x2="162.75" y2="1129.5" gradientUnits="userSpaceOnUse">
<stop stop-color="#00DDFF" stop-opacity="0.12"/>
<stop offset="0.6875" stop-color="#00DDFF"/>
<stop offset="0.916667" stop-color="#00DDFF" stop-opacity="0"/>
</linearGradient>
<linearGradient id="paint1_linear" x1="170.25" y1="-5.5" x2="170.25" y2="1129.5" gradientUnits="userSpaceOnUse">
<stop stop-color="#00DDFF" stop-opacity="0.12"/>
<stop offset="0.6875" stop-color="#00DDFF"/>
<stop offset="0.916667" stop-color="#00DDFF" stop-opacity="0"/>
</linearGradient>
<linearGradient id="paint2_linear" x1="296.75" y1="-5.99695" x2="296.75" y2="1129.5" gradientUnits="userSpaceOnUse">
<stop stop-color="#00DDFF" stop-opacity="0.12"/>
<stop offset="0.6875" stop-color="#00DDFF"/>
<stop offset="0.916667" stop-color="#00DDFF" stop-opacity="0"/>
</linearGradient>
<linearGradient id="paint3_linear" x1="946" y1="588" x2="239" y2="588" gradientUnits="userSpaceOnUse">
<stop stop-color="#000462"/>
<stop offset="1" stop-color="#000462" stop-opacity="0.5"/>
</linearGradient>
</defs>
</svg>
