<svg width="72" height="72" viewBox="0 0 72 72" fill="none" xmlns="http://www.w3.org/2000/svg">
<circle cx="36" cy="36" r="32" fill="url(#paint0_linear)"/>
<circle cx="36" cy="36" r="34" stroke="url(#paint1_linear)" stroke-width="4"/>
<path d="M14.3438 51.2344C15.25 51.9792 16.3281 52.3568 17.5781 52.3672C19.0573 52.3464 19.8073 51.8177 19.8281 50.7812C19.8385 49.9323 19.3438 49.4219 18.3438 49.25C17.8854 49.1875 17.3828 49.1172 16.8359 49.0391C15.8568 48.8776 15.112 48.5156 14.6016 47.9531C14.0755 47.375 13.8125 46.6719 13.8125 45.8438C13.8125 44.849 14.1432 44.0469 14.8047 43.4375C15.4453 42.8333 16.3542 42.526 17.5312 42.5156C18.9479 42.5469 20.1797 42.9401 21.2266 43.6953L20.2656 45.1172C19.4115 44.5547 18.4714 44.263 17.4453 44.2422C16.9141 44.2422 16.4714 44.375 16.1172 44.6406C15.7474 44.9167 15.5573 45.3281 15.5469 45.875C15.5469 46.2031 15.6745 46.5 15.9297 46.7656C16.1849 47.0365 16.5938 47.224 17.1562 47.3281C17.4688 47.3802 17.8958 47.4401 18.4375 47.5078C19.5052 47.6536 20.2943 48.0365 20.8047 48.6562C21.3099 49.2656 21.5625 49.974 21.5625 50.7812C21.5052 52.9583 20.1719 54.0625 17.5625 54.0938C15.875 54.0938 14.4245 53.5729 13.2109 52.5312L14.3438 51.2344ZM25.3203 44.1484H22.2031V42.6094H30.1719V44.1484H27.0547V54H25.3203V44.1484ZM35.5469 49.9219L33.8984 44.9453H33.8672L32.2188 49.9219H35.5469ZM36.0391 51.4531H31.7188L30.8438 54H29.0156L33.1562 42.6094H34.6016L38.7422 54H36.9219L36.0391 51.4531ZM41.6953 47.6016H44.3047C44.9505 47.5911 45.4349 47.4036 45.7578 47.0391C46.0755 46.7005 46.2344 46.2839 46.2344 45.7891C46.224 45.1953 46.0339 44.7656 45.6641 44.5C45.3724 44.2656 44.9505 44.1484 44.3984 44.1484H41.6953V47.6016ZM39.9688 42.6094H44.4141C45.362 42.6094 46.1354 42.8594 46.7344 43.3594C47.4583 43.9271 47.8359 44.737 47.8672 45.7891C47.8464 47.3359 47.112 48.388 45.6641 48.9453L48.3047 54H46.25L43.8984 49.1328H41.6953V54H39.9688V42.6094ZM51.3672 44.1484H48.25V42.6094H56.2188V44.1484H53.1016V54H51.3672V44.1484Z" fill="#00FFCF"/>
<path d="M9.20312 25.6094H16.4766V27.2422H10.9297V30.4922H15.6641V32.0234H10.9297V35.3672H16.4766V37H9.20312V25.6094ZM18.1094 25.6094H19.7344L24.8906 33.7031H24.9219V25.6094H26.6484V37H25.0156L19.8672 28.9062H19.8359V37H18.1094V25.6094ZM32.7578 30.7266H36.8047V33.0469C36.7839 34.1875 36.3932 35.1432 35.6328 35.9141C34.8672 36.6797 33.9036 37.0729 32.7422 37.0938C31.8464 37.0729 31.099 36.8542 30.5 36.4375C29.8906 36.0365 29.4479 35.5729 29.1719 35.0469C29.0885 34.875 29.013 34.7109 28.9453 34.5547C28.8828 34.3932 28.8307 34.1901 28.7891 33.9453C28.7109 33.487 28.6719 32.6068 28.6719 31.3047C28.6719 29.9818 28.7109 29.0964 28.7891 28.6484C28.8724 28.2005 29 27.8385 29.1719 27.5625C29.4479 27.0365 29.8906 26.5677 30.5 26.1562C31.099 25.7396 31.8464 25.526 32.7422 25.5156C33.8411 25.526 34.737 25.8516 35.4297 26.4922C36.1224 27.138 36.5599 27.9375 36.7422 28.8906H34.9141C34.7734 28.4323 34.5182 28.0417 34.1484 27.7188C33.763 27.4115 33.2943 27.2526 32.7422 27.2422C32.3359 27.2526 31.987 27.3333 31.6953 27.4844C31.3984 27.6406 31.1589 27.8359 30.9766 28.0703C30.7526 28.3151 30.6042 28.6302 30.5312 29.0156C30.4479 29.4219 30.4062 30.1849 30.4062 31.3047C30.4062 32.4245 30.4479 33.1823 30.5312 33.5781C30.6042 33.974 30.7526 34.2943 30.9766 34.5391C31.1589 34.7734 31.3984 34.9635 31.6953 35.1094C31.987 35.2812 32.3359 35.3672 32.7422 35.3672C33.4141 35.3672 33.9688 35.138 34.4062 34.6797C34.8438 34.2422 35.0677 33.6667 35.0781 32.9531V32.3594H32.7578V30.7266ZM38.8281 25.6094H40.5547V37H38.8281V25.6094ZM42.9531 25.6094H44.5781L49.7344 33.7031H49.7656V25.6094H51.4922V37H49.8594L44.7109 28.9062H44.6797V37H42.9531V25.6094ZM53.9062 25.6094H61.1797V27.2422H55.6328V30.4922H60.3672V32.0234H55.6328V35.3672H61.1797V37H53.9062V25.6094Z" fill="#00FFCF"/>
<defs>
<linearGradient id="paint0_linear" x1="36" y1="4" x2="36" y2="68" gradientUnits="userSpaceOnUse">
<stop stop-color="#0057A9" stop-opacity="0"/>
<stop offset="1" stop-color="#0057A9"/>
</linearGradient>
<linearGradient id="paint1_linear" x1="36" y1="0" x2="36" y2="72" gradientUnits="userSpaceOnUse">
<stop offset="0.678178" stop-color="#00DDFF"/>
<stop offset="1" stop-color="#005585"/>
</linearGradient>
</defs>
</svg>
