<svg width="2275" height="161" viewBox="0 0 2275 161" fill="none" xmlns="http://www.w3.org/2000/svg">
<g clip-path="url(#clip0)">
<ellipse cx="1137.5" cy="-173.5" rx="1133.5" ry="330.5" stroke="url(#paint0_linear)" stroke-width="8"/>
<path d="M1483 126C1374.07 136.153 1257.98 141.634 1137.5 141.634C1017.02 141.634 900.928 136.153 792 126" stroke="url(#paint1_linear)" stroke-width="4" stroke-dasharray="4 4"/>
<g opacity="0.5" filter="url(#filter0_f)">
<ellipse cx="1137" cy="-6.5" rx="373" ry="123.5" fill="url(#paint2_linear)" fill-opacity="0.8"/>
</g>
<path d="M477 95.1221C565.066 113.564 662.573 128.416 767 138.941M1508 138.941C1612.43 128.416 1709.93 113.564 1798 95.1221" stroke="#00DDFF" stroke-opacity="0.8" stroke-width="8"/>
<path d="M1985 28C1784.21 86.7354 1674.83 100.673 1517.99 123.072L1510 139" stroke="url(#paint3_linear)" stroke-opacity="0.6" stroke-width="4"/>
<path d="M289 28C489.789 86.7354 599.174 100.673 756.008 123.072L764 139" stroke="url(#paint4_linear)" stroke-opacity="0.6" stroke-width="4"/>
<path d="M1642.42 88.098L1385.97 121.37L1405.78 89.0649L1642.54 64.9974L1642.55 64.9966L1642.56 64.9955L1908.36 29.1312C1909.67 28.9536 1910.55 30.4485 1909.76 31.5138L1901.68 42.3558C1901.45 42.6633 1901.12 42.8713 1900.74 42.9374L1642.43 88.0966L1642.42 88.098Z" fill="url(#paint5_linear)" fill-opacity="0.4" stroke="url(#paint6_linear)"/>
<path d="M1408.4 97.7555L1424.3 95.4564L1413.66 111.445L1397.76 113.744L1408.4 97.7555Z" fill="#048ED7"/>
<path opacity="0.8" d="M1430.25 95.4169L1446.15 93.1177L1435.51 108.106L1419.61 110.405L1430.25 95.4169Z" fill="#048ED7"/>
<path opacity="0.6" d="M1451.5 92.4998L1467.4 90.2006L1456.4 105.532L1440.5 107.831L1451.5 92.4998Z" fill="#048ED7"/>
<path opacity="0.4" d="M1473.5 89.9999L1489.4 87.7007L1479.25 102.138L1463.35 104.437L1473.5 89.9999Z" fill="#048ED7"/>
<path opacity="0.2" d="M1495 88L1510.9 85.7008L1502.1 98.7441L1486.2 101.043L1495 88Z" fill="#048ED7"/>
<path d="M631.583 88.098L888.027 121.37L868.223 89.0649L631.457 64.9974L631.449 64.9966L631.441 64.9955L365.644 29.1312C364.328 28.9536 363.447 30.4485 364.241 31.5138L372.317 42.3558C372.546 42.6633 372.884 42.8713 373.261 42.9374L631.572 88.0966L631.583 88.098Z" fill="url(#paint7_linear)" fill-opacity="0.4" stroke="url(#paint8_linear)"/>
<path d="M863.693 97.7555L847.796 95.4564L858.434 111.445L874.332 113.744L863.693 97.7555Z" fill="#048ED7"/>
<path opacity="0.8" d="M841.844 95.4169L825.946 93.1177L836.585 108.106L852.483 110.405L841.844 95.4169Z" fill="#048ED7"/>
<path opacity="0.6" d="M820.596 92.4998L804.698 90.2006L815.695 105.532L831.593 107.831L820.596 92.4998Z" fill="#048ED7"/>
<path opacity="0.4" d="M798.596 89.9999L782.698 87.7007L792.847 102.138L808.745 104.437L798.596 89.9999Z" fill="#048ED7"/>
<path opacity="0.2" d="M777.096 88L761.198 85.7008L769.999 98.7441L785.896 101.043L777.096 88Z" fill="#048ED7"/>
</g>
<defs>
<filter id="filter0_f" x="684" y="-210" width="906" height="407" filterUnits="userSpaceOnUse" color-interpolation-filters="sRGB">
<feFlood flood-opacity="0" result="BackgroundImageFix"/>
<feBlend mode="normal" in="SourceGraphic" in2="BackgroundImageFix" result="shape"/>
<feGaussianBlur stdDeviation="40" result="effect1_foregroundBlur"/>
</filter>
<linearGradient id="paint0_linear" x1="1137.5" y1="-504" x2="1137.5" y2="157" gradientUnits="userSpaceOnUse">
<stop offset="0.76167" stop-color="#1BE0FE" stop-opacity="0"/>
<stop offset="1" stop-color="#01DBFE" stop-opacity="0.55"/>
</linearGradient>
<linearGradient id="paint1_linear" x1="769.5" y1="141.634" x2="1483" y2="141.634" gradientUnits="userSpaceOnUse">
<stop stop-color="#01DBFE" stop-opacity="0.2"/>
<stop offset="0.519492" stop-color="#01DBFE" stop-opacity="0.8"/>
<stop offset="1" stop-color="#01DBFE" stop-opacity="0.2"/>
</linearGradient>
<linearGradient id="paint2_linear" x1="1137" y1="-3.03334" x2="1137" y2="117" gradientUnits="userSpaceOnUse">
<stop stop-color="#01CAF5" stop-opacity="0.5"/>
<stop offset="1" stop-color="#01CAF5" stop-opacity="0"/>
</linearGradient>
<linearGradient id="paint3_linear" x1="1748.21" y1="90.1108" x2="1980.65" y2="26.017" gradientUnits="userSpaceOnUse">
<stop stop-color="#2BE2FF"/>
<stop offset="1" stop-color="#2BE2FF" stop-opacity="0"/>
</linearGradient>
<linearGradient id="paint4_linear" x1="525.787" y1="90.1108" x2="293.346" y2="26.017" gradientUnits="userSpaceOnUse">
<stop stop-color="#2BE2FF"/>
<stop offset="1" stop-color="#2BE2FF" stop-opacity="0"/>
</linearGradient>
<linearGradient id="paint5_linear" x1="1385" y1="87.3155" x2="1764.99" y2="87.3154" gradientUnits="userSpaceOnUse">
<stop stop-color="#1B94D7"/>
<stop offset="1" stop-color="#1B94D7" stop-opacity="0"/>
</linearGradient>
<linearGradient id="paint6_linear" x1="1385" y1="87.5148" x2="1737.11" y2="87.5148" gradientUnits="userSpaceOnUse">
<stop stop-color="#01D6FB" stop-opacity="0.6"/>
<stop offset="1" stop-color="#01D6FB" stop-opacity="0"/>
</linearGradient>
<linearGradient id="paint7_linear" x1="889" y1="87.3155" x2="509.011" y2="87.3154" gradientUnits="userSpaceOnUse">
<stop stop-color="#1B94D7"/>
<stop offset="1" stop-color="#1B94D7" stop-opacity="0"/>
</linearGradient>
<linearGradient id="paint8_linear" x1="889" y1="87.5148" x2="536.886" y2="87.5148" gradientUnits="userSpaceOnUse">
<stop stop-color="#01D6FB" stop-opacity="0.6"/>
<stop offset="1" stop-color="#01D6FB" stop-opacity="0"/>
</linearGradient>
<clipPath id="clip0">
<rect width="2275" height="161" fill="white"/>
</clipPath>
</defs>
</svg>
