<svg width="56" height="56" viewBox="0 0 56 56" fill="none" xmlns="http://www.w3.org/2000/svg">
<rect width="56" height="56" fill="#064F94"/>
<path d="M28 12.1666C24.8685 12.1666 21.8073 13.0952 19.2035 14.835C16.5997 16.5748 14.5703 19.0476 13.372 21.9408C12.1736 24.834 11.86 28.0175 12.4709 31.0889C13.0819 34.1603 14.5899 36.9815 16.8042 39.1958C19.0185 41.4102 21.8397 42.9181 24.9111 43.5291C27.9825 44.14 31.166 43.8264 34.0592 42.6281C36.9524 41.4297 39.4252 39.4003 41.165 36.7965C42.9048 34.1927 43.8334 31.1315 43.8334 28C43.8334 25.9207 43.4238 23.8618 42.6281 21.9408C41.8324 20.0198 40.6662 18.2744 39.1959 16.8041C37.7256 15.3338 35.9802 14.1676 34.0592 13.3719C32.1382 12.5762 30.0793 12.1666 28 12.1666V12.1666ZM33.275 31.1666C33.695 31.1666 34.0977 31.3334 34.3946 31.6304C34.6916 31.9273 34.8584 32.33 34.8584 32.75C34.8584 33.1699 34.6916 33.5726 34.3946 33.8695C34.0977 34.1665 33.695 34.3333 33.275 34.3333H29.5834V36.4416C29.5834 36.8616 29.4166 37.2643 29.1196 37.5612C28.8227 37.8581 28.42 38.025 28 38.025C27.5801 38.025 27.1774 37.8581 26.8805 37.5612C26.5835 37.2643 26.4167 36.8616 26.4167 36.4416V34.3333H22.725C22.3051 34.3333 21.9024 34.1665 21.6055 33.8695C21.3085 33.5726 21.1417 33.1699 21.1417 32.75C21.1417 32.33 21.3085 31.9273 21.6055 31.6304C21.9024 31.3334 22.3051 31.1666 22.725 31.1666H26.4167V28.525H22.725C22.3051 28.525 21.9024 28.3581 21.6055 28.0612C21.3085 27.7643 21.1417 27.3616 21.1417 26.9416C21.1417 26.5217 21.3085 26.119 21.6055 25.822C21.9024 25.5251 22.3051 25.3583 22.725 25.3583H25.7334L21.625 21.25C21.3881 20.9466 21.2698 20.5673 21.2922 20.183C21.3147 19.7987 21.4763 19.4358 21.747 19.1621C22.0177 18.8884 22.3788 18.7226 22.7628 18.6958C23.1468 18.6691 23.5274 18.7831 23.8334 19.0166L28 23.1833L32.0667 19.1166C32.3551 18.8282 32.7463 18.6662 33.1542 18.6662C33.5621 18.6662 33.9533 18.8282 34.2417 19.1166C34.5301 19.4051 34.6922 19.7962 34.6922 20.2041C34.6922 20.612 34.5301 21.0032 34.2417 21.2916L30.15 25.3833H33.2584C33.6783 25.3833 34.081 25.5501 34.378 25.847C34.6749 26.144 34.8417 26.5467 34.8417 26.9666C34.8417 27.3866 34.6749 27.7893 34.378 28.0862C34.081 28.3831 33.6783 28.55 33.2584 28.55H29.5834V31.1666H33.275Z" fill="#00DDFF"/>
</svg>
