<svg width="32" height="33" viewBox="0 0 32 33" fill="none" xmlns="http://www.w3.org/2000/svg">
<path d="M31.8797 7.8317C31.8797 7.94042 31.8797 8.04915 31.8797 8.15788C31.8734 8.17083 31.8622 8.1835 31.8615 8.19673C31.8538 8.33927 31.8534 8.48246 31.8401 8.62444C31.8188 8.85304 31.8029 9.08345 31.7604 9.3085C31.6776 9.74736 31.5681 10.1799 31.4084 10.5989C31.2384 11.045 31.0364 11.4748 30.7856 11.881C30.4517 12.4219 30.0659 12.9215 29.5933 13.3492C29.3781 13.5439 29.1598 13.7363 28.931 13.9145C28.426 14.3079 27.8659 14.6092 27.275 14.851C26.8992 15.0048 26.51 15.1192 26.1123 15.2074C25.7266 15.293 25.3388 15.3499 24.9439 15.3525C24.573 15.3549 24.202 15.3587 23.8313 15.351C23.5805 15.3458 23.3781 15.4414 23.2073 15.6129C22.1263 16.6984 21.0493 17.7877 19.9664 18.8713C16.0043 22.8356 12.0404 26.7982 8.07671 30.761C7.96207 30.8756 7.84283 30.9858 7.72327 31.0953C7.42751 31.3663 7.09886 31.589 6.74114 31.7711C6.34489 31.9727 5.93173 32.1188 5.49015 32.1808C5.3771 32.1967 5.2649 32.2185 5.1523 32.2375C4.8517 32.2375 4.5511 32.2375 4.25051 32.2375C4.15837 32.2246 4.06539 32.2158 3.97417 32.198C3.5176 32.1086 3.07938 31.9692 2.67122 31.7388C2.1644 31.4528 1.7279 31.085 1.36898 30.629C1.01754 30.1825 0.752038 29.6875 0.586551 29.142C0.448884 28.6882 0.385207 28.2236 0.415746 27.7502C0.430856 27.5158 0.459197 27.2802 0.506765 27.0503C0.596704 26.6158 0.761152 26.208 0.982202 25.8216C1.18451 25.4679 1.41223 25.1314 1.69912 24.8442C6.75253 19.7857 11.8092 14.7303 16.8652 9.67433C16.8924 9.64719 16.9202 9.62072 16.9465 9.59282C17.1275 9.40075 17.1834 9.16871 17.1624 8.91252C17.1373 8.60737 17.1002 8.30262 17.0905 7.99694C17.0834 7.77302 17.1023 7.54689 17.1272 7.32372C17.1634 6.9995 17.1946 6.67244 17.2648 6.35478C17.4141 5.68043 17.6546 5.03783 17.9877 4.42972C18.3024 3.85515 18.6871 3.33263 19.1374 2.86007C19.3535 2.63322 19.5846 2.41617 19.8326 2.22538C20.1296 1.99681 20.4478 1.79471 20.7641 1.59261C21.1458 1.34881 21.5577 1.1621 21.987 1.02163C22.3425 0.905353 22.7025 0.794228 23.0687 0.721757C23.4408 0.648087 23.8218 0.608474 24.2008 0.583251C24.6216 0.55523 25.0406 0.616988 25.4569 0.676908C25.6959 0.711284 25.9193 0.795347 26.0972 0.966471C26.3847 1.24296 26.4353 1.62478 26.2982 1.99166C26.1922 2.27534 26.0061 2.50423 25.7983 2.71557C25.3915 3.12916 24.9789 3.53693 24.5687 3.94713C24.1323 4.38355 23.6951 4.81918 23.2598 5.25672C23.0682 5.44931 22.8848 5.64962 22.7461 5.88542C22.535 6.24425 22.4538 6.62412 22.5511 7.03736C22.6398 7.41458 22.8482 7.72285 23.112 7.99079C23.6564 8.54381 24.2145 9.08337 24.7651 9.6304C24.9463 9.81036 25.1549 9.9483 25.3856 10.0533C25.646 10.1719 25.924 10.2095 26.2023 10.1668C26.6059 10.105 26.9418 9.89666 27.2287 9.61265C27.7696 9.07725 28.3034 8.53466 28.8448 7.99974C29.2871 7.56276 29.7283 7.12426 30.1852 6.70282C30.4225 6.48389 30.7128 6.36461 31.05 6.43121C31.4186 6.504 31.714 6.7039 31.8008 7.12462C31.8412 7.32072 31.8414 7.52506 31.861 7.72557C31.8645 7.76126 31.8733 7.79636 31.8797 7.8317ZM4.6157 25.8291C3.38429 25.8139 2.45836 26.8429 2.38961 27.8905C2.29583 29.3192 3.43582 30.2957 4.57197 30.3154C5.86305 30.3379 6.84323 29.2967 6.85566 28.0901C6.86853 26.8419 5.8539 25.811 4.6157 25.8291Z" fill="#00DDFF"/>
</svg>
