<svg width="32" height="34" viewBox="0 0 32 34" fill="none" xmlns="http://www.w3.org/2000/svg">
<path d="M15 22.7156V23.7778C15 24.043 15.1054 24.2974 15.2929 24.4849C15.4805 24.6725 15.7348 24.7778 16 24.7778C16.2653 24.7778 16.5196 24.6725 16.7071 24.4849C16.8947 24.2974 17 24.043 17 23.7778V22.7156C18.7623 22.4929 20.4005 21.6903 21.6565 20.4343C22.9126 19.1783 23.7151 17.5401 23.9378 15.7778H25C25.2653 15.7778 25.5196 15.6725 25.7071 15.4849C25.8947 15.2974 26 15.043 26 14.7778C26 14.5126 25.8947 14.2582 25.7071 14.0707C25.5196 13.8832 25.2653 13.7778 25 13.7778H23.9378C23.7151 12.0155 22.9126 10.3774 21.6565 9.12133C20.4005 7.8653 18.7623 7.06274 17 6.84004V5.77782C17 5.5126 16.8947 5.25825 16.7071 5.07071C16.5196 4.88318 16.2653 4.77782 16 4.77782C15.7348 4.77782 15.4805 4.88318 15.2929 5.07071C15.1054 5.25825 15 5.5126 15 5.77782V6.84004C13.2378 7.06274 11.5996 7.8653 10.3436 9.12133C9.08752 10.3774 8.28496 12.0155 8.06226 13.7778H7.00004C6.73483 13.7778 6.48047 13.8832 6.29294 14.0707C6.1054 14.2582 6.00004 14.5126 6.00004 14.7778C6.00004 15.043 6.1054 15.2974 6.29294 15.4849C6.48047 15.6725 6.73483 15.7778 7.00004 15.7778H8.06226C8.28496 17.5401 9.08752 19.1783 10.3436 20.4343C11.5996 21.6903 13.2378 22.4929 15 22.7156ZM15 20.4689C13.8312 20.2628 12.7542 19.7021 11.915 18.8629C11.0757 18.0237 10.515 16.9466 10.3089 15.7778H11C11.2653 15.7778 11.5196 15.6725 11.7071 15.4849C11.8947 15.2974 12 15.043 12 14.7778C12 14.5126 11.8947 14.2582 11.7071 14.0707C11.5196 13.8832 11.2653 13.7778 11 13.7778H10.3089C10.515 12.609 11.0757 11.5319 11.915 10.6927C12.7542 9.85352 13.8312 9.29281 15 9.08671V9.77782C15 10.043 15.1054 10.2974 15.2929 10.4849C15.4805 10.6725 15.7348 10.7778 16 10.7778C16.2653 10.7778 16.5196 10.6725 16.7071 10.4849C16.8947 10.2974 17 10.043 17 9.77782V9.08671C18.1688 9.29281 19.2459 9.85352 20.0851 10.6927C20.9243 11.5319 21.485 12.609 21.6912 13.7778H21C20.7348 13.7778 20.4805 13.8832 20.2929 14.0707C20.1054 14.2582 20 14.5126 20 14.7778C20 15.043 20.1054 15.2974 20.2929 15.4849C20.4805 15.6725 20.7348 15.7778 21 15.7778H21.6912C21.485 16.9466 20.9243 18.0237 20.0851 18.8629C19.2459 19.7021 18.1688 20.2628 17 20.4689V19.7778C17 19.5126 16.8947 19.2582 16.7071 19.0707C16.5196 18.8832 16.2653 18.7778 16 18.7778C15.7348 18.7778 15.4805 18.8832 15.2929 19.0707C15.1054 19.2582 15 19.5126 15 19.7778V20.4689ZM3.77782 0.333374H28.2223C28.66 0.333374 29.0935 0.419593 29.4979 0.587109C29.9023 0.754625 30.2698 1.00016 30.5793 1.30968C30.8888 1.61921 31.1343 1.98668 31.3019 2.3911C31.4694 2.79551 31.5556 3.22897 31.5556 3.66671V30.3334C31.5556 30.7711 31.4694 31.2046 31.3019 31.609C31.1343 32.0134 30.8888 32.3809 30.5793 32.6904C30.2698 32.9999 29.9023 33.2455 29.4979 33.413C29.0935 33.5805 28.66 33.6667 28.2223 33.6667H3.77782C3.34008 33.6667 2.90663 33.5805 2.50221 33.413C2.09779 33.2455 1.73033 32.9999 1.4208 32.6904C1.11127 32.3809 0.865739 32.0134 0.698223 31.609C0.530708 31.2046 0.444489 30.7711 0.444489 30.3334V3.66671C0.444489 3.22897 0.530708 2.79551 0.698223 2.3911C0.865739 1.98668 1.11127 1.61921 1.4208 1.30968C1.73033 1.00016 2.09779 0.754625 2.50221 0.587109C2.90663 0.419593 3.34008 0.333374 3.77782 0.333374ZM3.77782 29.2223C3.48314 29.2223 3.20052 29.3393 2.99215 29.5477C2.78377 29.7561 2.66671 30.0387 2.66671 30.3334C2.66671 30.6281 2.78377 30.9107 2.99215 31.119C3.20052 31.3274 3.48314 31.4445 3.77782 31.4445H28.2223C28.5169 31.4445 28.7996 31.3274 29.0079 31.119C29.2163 30.9107 29.3334 30.6281 29.3334 30.3334C29.3334 30.0387 29.2163 29.7561 29.0079 29.5477C28.7996 29.3393 28.5169 29.2223 28.2223 29.2223H3.77782Z" fill="#00DDFF"/>
</svg>
