<svg width="39" height="28" viewBox="0 0 39 28" fill="none" xmlns="http://www.w3.org/2000/svg">
<path d="M3.44431 0.435913C1.03456 0.435913 0.96875 2.68535 0.96875 2.68535V12.1438C0.96875 14.1266 3.18444 14.6227 3.18444 14.6227H4.51925C6.09875 14.6227 5.93675 16.4435 5.93675 16.4435L3.85606 25.9189C3.38694 27.6232 4.44162 27.5642 4.44162 27.5642H12.7796C13.6604 27.5642 13.7769 25.9189 12.8386 25.0397C11.8987 24.1605 11.8751 23.175 11.8751 23.175L12.6598 20.3434H14.273C14.8889 20.3434 15.1589 19.5789 15.1589 19.5789V17.0561C15.1589 16.2917 14.273 16.1752 14.273 16.1752C14.3017 15.4108 16.0061 14.5907 16.0061 14.5907H19.4773C21.2474 14.5907 25.1051 12.0679 25.1051 12.0679V3.07854C23.3484 1.4366 19.2376 0.435913 19.2376 0.435913H3.44431ZM37.0779 6.15991H33.8328C33.2034 4.12648 31.0721 3.30129 31.0721 3.30129H27.5857C26.4719 3.30129 26.6171 4.3661 26.6171 4.3661V10.7584C26.6171 11.727 27.5857 11.6797 27.5857 11.6797H31.3623C33.1055 10.9052 33.8328 8.87173 33.8328 8.87173H37.0593C37.6398 8.87173 38.0938 8.29123 38.0938 7.36985C38.0938 6.44848 37.0779 6.15991 37.0779 6.15991Z" fill="#00DDFF"/>
</svg>
