<svg width="80" height="80" viewBox="0 0 80 80" fill="none" xmlns="http://www.w3.org/2000/svg">
<path d="M15.7453 67.1769C15.5099 66.6084 15.3887 65.9992 15.3887 65.3839C15.3887 64.7686 15.5099 64.1594 15.7453 63.591C15.9808 63.0225 16.3259 62.506 16.7609 62.071C17.196 61.6359 17.7125 61.2908 18.2809 61.0554C18.8493 60.8199 19.4586 60.6987 20.0739 60.6987C20.6891 60.6987 21.2984 60.8199 21.8668 61.0554C22.4352 61.2908 22.9517 61.6359 23.3868 62.071C23.8218 62.506 24.167 63.0225 24.4024 63.591C24.6379 64.1594 24.759 64.7686 24.759 65.3839C24.759 65.9992 24.6379 66.6084 24.4024 67.1769C24.167 67.7453 23.8218 68.2618 23.3868 68.6968C22.9517 69.1319 22.4352 69.477 21.8668 69.7125C21.2984 69.9479 20.6891 70.0691 20.0739 70.0691C19.4586 70.0691 18.8493 69.9479 18.2809 69.7125C17.7125 69.477 17.196 69.1319 16.7609 68.6968C16.3259 68.2618 15.9808 67.7453 15.7453 67.1769Z" fill="#0057A9" stroke="#00DDFF"/>
<path d="M58.132 68.6968C57.2534 67.8182 56.7598 66.6265 56.7598 65.3839C56.7598 64.1413 57.2534 62.9496 58.132 62.071C59.0107 61.1923 60.2024 60.6987 61.445 60.6987C62.6875 60.6987 63.8792 61.1923 64.7579 62.071C65.6365 62.9496 66.1301 64.1413 66.1301 65.3839C66.1301 66.6265 65.6365 67.8182 64.7579 68.6968C63.8792 69.5755 62.6875 70.0691 61.445 70.0691C60.2024 70.0691 59.0107 69.5755 58.132 68.6968Z" fill="#0057A9" stroke="#00DDFF"/>
<path d="M7.16657 62.9766V62.9765L7.16602 58.9295C7.16602 58.9295 7.16602 58.9295 7.16602 58.9295C7.16605 54.2945 10.92 50.5406 15.5549 50.5406H46.4808C47.1232 50.5406 47.6475 51.0649 47.6475 51.7073L47.6481 62.9766C47.6481 63.6189 47.1238 64.1432 46.4814 64.1432H27.8842C27.2892 60.3673 24.015 57.4766 20.074 57.4766C16.1329 57.4766 12.8587 60.3673 12.2638 64.1432H8.33324C7.69087 64.1432 7.16657 63.6189 7.16657 62.9766ZM68.1481 46.9951H68.6481V46.4951C68.6481 40.5153 63.7575 35.6247 57.7777 35.6247H54.8147H54.3147V36.1247V46.4951V46.9951H54.8147H68.1481ZM51.2592 32.5507H58.4814C66.3534 32.5507 72.7962 38.9935 72.7962 46.8655V62.9766C72.7962 63.6189 72.2719 64.1432 71.6296 64.1432H69.2546C68.6596 60.3673 65.3854 57.4766 61.4443 57.4766C57.5033 57.4766 54.2291 60.3673 53.6342 64.1432H51.2592C50.6168 64.1432 50.0925 63.6189 50.0925 62.9766V33.7173C50.0925 33.0749 50.6168 32.5507 51.2592 32.5507Z" fill="#0057A9" stroke="#00DDFF"/>
<path d="M31.2692 13.5285L31.2691 13.5286C29.0219 14.4806 26.9719 15.7802 25.1498 17.4007C24.8571 17.6609 24.4158 17.6485 24.1378 17.3705L22.4442 15.6769C22.1429 15.3756 22.157 14.8855 22.4706 14.6043L22.4711 14.6038C27.0906 10.4491 33.2105 7.91577 39.9153 7.91577C46.6818 7.91577 52.8426 10.4901 57.4786 14.7147C57.7915 15.0001 57.8014 15.4883 57.5038 15.7859L55.8144 17.4753C55.537 17.7528 55.0898 17.7651 54.7975 17.5003L54.7968 17.4996C52.9487 15.8316 50.8555 14.4976 48.5611 13.5284C45.8244 12.3702 42.916 11.7828 39.9153 11.7828C36.9146 11.7828 34.006 12.3703 31.2692 13.5285Z" fill="#0057A9" stroke="#00DDFF"/>
<path d="M49.4482 22.8708L49.4477 22.8703C46.7952 20.5868 43.4514 19.3453 39.9157 19.3453C36.4321 19.3453 33.1363 20.552 30.5014 22.77C30.2041 23.0192 29.7722 23.0004 29.4998 22.728L27.8062 21.0344C27.5019 20.7301 27.5201 20.2331 27.8419 19.9558C31.083 17.1638 35.3028 15.4783 39.9157 15.4783C44.5893 15.4783 48.8539 17.2082 52.1158 20.0615C52.4348 20.344 52.4504 20.8356 52.1468 21.1392L50.4532 22.8328L50.4516 22.8344C50.1813 23.1072 49.7416 23.124 49.4482 22.8708Z" fill="#0057A9" stroke="#00DDFF"/>
<path d="M44.0959 28.3145L44.0944 28.3134C42.8895 27.4243 41.4399 26.9413 39.9157 26.9413C38.4413 26.9413 37.0369 27.3927 35.8545 28.2276L35.8536 28.2283C35.5653 28.4327 35.1658 28.3981 34.9118 28.1442L33.2014 26.4338C32.8847 26.1171 32.9206 25.5943 33.2693 25.3272L33.2695 25.327C35.1096 23.9159 37.4139 23.0743 39.9157 23.0743C42.4729 23.0743 44.8249 23.9556 46.6892 25.4307C47.0346 25.7066 47.0638 26.2222 46.7516 26.5344L45.0538 28.2322L45.0521 28.2339C44.7914 28.4971 44.382 28.5272 44.0959 28.3145ZM37.6993 32.1197C37.6993 30.8951 38.6911 29.9032 39.9157 29.9032C41.1403 29.9032 42.1322 30.8951 42.1322 32.1197C42.1322 33.3443 41.1403 34.3362 39.9157 34.3362C38.6911 34.3362 37.6993 33.3443 37.6993 32.1197Z" fill="#0057A9" stroke="#00DDFF"/>
</svg>
