<svg width="20" height="40" viewBox="0 0 20 40" fill="none" xmlns="http://www.w3.org/2000/svg">
<rect width="20" height="40" fill="#0057A9" fill-opacity="0.5"/>
<g clip-path="url(#clip0)">
<path d="M15.561 19.9991C15.5611 20.1462 15.5322 20.2919 15.4759 20.4279C15.4196 20.5638 15.3371 20.6873 15.233 20.7912L8.3521 27.6716C8.14115 27.8778 7.85741 27.9925 7.56243 27.9908C7.26745 27.9891 6.98504 27.8712 6.77645 27.6626C6.56787 27.454 6.44994 27.1716 6.44826 26.8767C6.44658 26.5817 6.56127 26.2979 6.76746 26.087L12.8571 19.9973L6.76746 13.9077C6.56127 13.6967 6.44658 13.413 6.44826 13.118C6.44994 12.823 6.56787 12.5406 6.77645 12.332C6.98504 12.1235 7.26745 12.0055 7.56243 12.0038C7.85741 12.0022 8.14115 12.1169 8.3521 12.323L15.2339 19.2066C15.3379 19.3106 15.4203 19.4342 15.4765 19.5702C15.5326 19.7062 15.5613 19.852 15.561 19.9991Z" fill="white"/>
</g>
<defs>
<clipPath id="clip0">
<rect width="16" height="16" fill="white" transform="translate(2 28) rotate(-90)"/>
</clipPath>
</defs>
</svg>
