<svg width="56" height="56" viewBox="0 0 56 56" fill="none" xmlns="http://www.w3.org/2000/svg">
<rect width="56" height="56" fill="#064F94"/>
<path d="M32.4251 27.028C35.306 25.5341 36.888 22.7476 36.888 19.5268C36.8907 14.8252 32.9008 11 27.997 11C23.0905 11 19.1006 14.8252 19.1006 19.5268C19.1006 22.7502 20.5437 25.5341 23.4245 27.028C16.8798 28.8229 12 35.0447 12 41.9912C12 43.4328 12.1042 44.9687 15.3138 44.9922C18.1786 45.0131 34.7715 44.9844 40.6909 44.9922C43.3178 44.9948 43.9859 43.4956 43.9993 41.9912C44.0688 35.1075 38.9805 28.8229 32.4251 27.028Z" fill="#00DDFF"/>
</svg>
