<svg width="72" height="72" viewBox="0 0 72 72" fill="none" xmlns="http://www.w3.org/2000/svg">
<rect width="72" height="72" fill="#0057A9"/>
<path fill-rule="evenodd" clip-rule="evenodd" d="M4 0H1H0V1V4H1V1H4V0Z" fill="#00DDFF"/>
<path fill-rule="evenodd" clip-rule="evenodd" d="M68 0H71H72V1V4H71V1H68V0Z" fill="#00DDFF"/>
<path fill-rule="evenodd" clip-rule="evenodd" d="M4 72H1H0V71V68H1V71H4V72Z" fill="#00DDFF"/>
<path fill-rule="evenodd" clip-rule="evenodd" d="M68 72H71H72V71V68H71V71H68V72Z" fill="#00DDFF"/>
<path d="M45.0002 22.7416V21.1143C45.0002 20.7165 45.1582 20.3349 45.4395 20.0536C45.7208 19.7723 46.1024 19.6143 46.5002 19.6143H48.0002C48.398 19.6143 48.7795 19.7723 49.0608 20.0536C49.3421 20.3349 49.5002 20.7165 49.5002 21.1143V26.234L55.9787 31.262C57.1217 32.1492 57.3381 33.8067 56.4622 34.9643C55.9689 35.6165 55.2039 35.9988 54.3926 35.9988H50.5389V54.0933C50.5389 54.263 50.5055 54.431 50.4406 54.5878C50.3756 54.7446 50.2804 54.8871 50.1604 55.0071C50.0404 55.1271 49.8979 55.2223 49.7411 55.2872C49.5843 55.3521 49.4162 55.3856 49.2465 55.3855H22.7541C22.4113 55.3855 22.0826 55.2494 21.8403 55.007C21.598 54.7647 21.4618 54.436 21.4618 54.0933V35.999H17.6074C16.1674 35.999 15 34.8166 15 33.358C15 32.5366 15.3776 31.7618 16.0215 31.2622L34.0176 17.2951C34.5842 16.8539 35.2818 16.6143 35.9999 16.6143C36.718 16.6143 37.4156 16.8539 37.9822 17.2951L45.0002 22.7416ZM32.4463 44.1128C32.1036 44.1128 31.7749 44.249 31.5326 44.4913C31.2902 44.7337 31.1541 45.0624 31.1541 45.4051V55.3855H40.8463V45.4051C40.8463 45.0624 40.7102 44.7337 40.4678 44.4913C40.2255 44.249 39.8968 44.1128 39.5541 44.1128H32.4463Z" fill="url(#paint0_linear)"/>
<defs>
<linearGradient id="paint0_linear" x1="36.0001" y1="16.6143" x2="36.0001" y2="55.3855" gradientUnits="userSpaceOnUse">
<stop stop-color="white"/>
<stop offset="1" stop-color="white" stop-opacity="0.3"/>
</linearGradient>
</defs>
</svg>
