<svg width="146" height="146" viewBox="0 0 146 146" fill="none" xmlns="http://www.w3.org/2000/svg">
<circle cx="73" cy="73" r="70" stroke="#00FFCF" stroke-opacity="0.4" stroke-width="6" stroke-dasharray="2 2"/>
<path d="M30.9062 70.3808H70.5778V30.7094H30.9062V70.3808ZM40.8242 40.6272H60.6599V60.4629H40.8242V40.6272ZM75.5367 30.7094V70.3808H115.208V30.7094H75.5367ZM105.29 60.4629H85.4546V40.6272H105.29V60.4629ZM45.7831 55.504H55.7009V45.5861H45.7831V55.504ZM30.9062 115.011H70.5778V75.3397H30.9062V115.011ZM40.8242 85.2576H60.6599V105.093H40.8242V85.2576ZM100.331 45.5861H90.4135V55.5039H100.331V45.5861H100.331ZM75.5367 115.011H85.4546V105.093H75.5367V115.011ZM85.4546 85.2576V105.093H95.3724V85.2576H85.4546ZM105.29 105.093H95.3724V115.011H115.208V95.1754H105.29V105.093ZM105.29 85.2576H115.208V75.3397H105.29V85.2576ZM75.5367 75.3397V85.2576H85.4546V75.3397H75.5367ZM45.7831 100.134H55.7009V90.2166H45.7831V100.134Z" fill="#00DDFF" fill-opacity="0.5"/>
</svg>
