<svg width="80" height="80" viewBox="0 0 80 80" fill="none" xmlns="http://www.w3.org/2000/svg">
<circle cx="40" cy="40" r="39" fill="#0057A9" stroke="#00FFCF" stroke-width="2"/>
<g clip-path="url(#clip0)">
<path d="M52.2221 56.8354C49.1528 57.7679 44.2445 57.9334 38.9334 57.9334C28.7197 57.9334 21 56.7209 21 53.7949C21 48.2369 26.3304 43.3439 33.9921 41.8485C31.8341 40.8763 30.0746 39.1936 29.007 37.0811C27.9395 34.9686 27.6285 32.5539 28.1259 30.2398C28.6232 27.9258 29.8989 25.8521 31.7401 24.3648C33.5813 22.8774 35.8768 22.0662 38.2437 22.0665C40.5882 22.0655 42.8635 22.8607 44.6969 24.3219C46.5302 25.7831 47.813 27.8237 48.3349 30.1094C48.8569 32.395 48.5871 34.7901 47.5698 36.9023C46.5524 39.0146 44.8479 40.7186 42.7353 41.7354C43.9424 41.9644 45.1067 42.2968 46.2075 42.7203C45.654 43.2182 45.2115 43.8271 44.909 44.5074C44.6064 45.1876 44.4505 45.924 44.4514 46.6685C44.4514 51.8374 49.419 54.8806 52.2221 56.8354ZM51.1323 42.759C52.3325 42.759 53.3892 43.3246 54.1079 44.1867C54.8266 43.3259 55.8847 42.759 57.0821 42.759C59.241 42.759 61.0054 44.5371 61.0054 46.725C61.0054 51.2139 56.0088 53.5673 54.3231 54.9882L54.1079 55.1744L53.8927 54.9882C52.2042 53.5659 47.2104 51.2139 47.2104 46.725C47.2104 44.5385 48.9748 42.759 51.1337 42.759H51.1323Z" fill="url(#paint0_linear)"/>
</g>
<defs>
<linearGradient id="paint0_linear" x1="41.0027" y1="22.0665" x2="41.0027" y2="57.9334" gradientUnits="userSpaceOnUse">
<stop stop-color="white"/>
<stop offset="1" stop-color="#AAFAFF"/>
</linearGradient>
<clipPath id="clip0">
<rect width="40" height="40" fill="white" transform="translate(21 20)"/>
</clipPath>
</defs>
</svg>
