<svg width="64" height="64" viewBox="0 0 64 64" fill="none" xmlns="http://www.w3.org/2000/svg">
<circle cx="32" cy="32" r="32" fill="#0057A9" fill-opacity="0.5"/>
<path d="M50.957 44.4766C50.207 43.2344 35.457 19.2109 34.4688 17.5937C33.8867 16.6797 32.9219 15.7422 31.9531 15.7422C30.9844 15.7422 29.9453 16.5391 29.2227 17.7344C28.7344 18.4844 14.082 42.8633 13.1914 44.3125C12.707 45.0977 12.4844 45.7656 12.4531 46.3281C12.4492 46.3711 12.4492 46.4102 12.4492 46.4492C12.4492 46.4922 12.4492 46.5352 12.4531 46.5781C12.4688 46.8711 12.543 47.1367 12.6562 47.3789C12.9453 47.9414 13.9375 48.293 15.2656 48.293H48.7773C49.8672 48.293 50.8555 48.0586 51.2695 47.3086C51.6328 46.6328 51.6328 45.5781 50.957 44.4766ZM30.7539 28.9648C30.7539 28.1406 31.3477 27.4609 32.0742 27.4609C32.8047 27.4609 33.3945 28.0586 33.3945 28.8828V37.0586C33.3945 37.8828 32.8008 38.4414 32.0742 38.4414C31.3438 38.4414 30.7539 37.8945 30.7539 37.0742V28.9648ZM32.0977 42.7852C31.2891 42.7852 30.6367 42.1406 30.6367 41.3398C30.6367 40.543 31.2891 39.8945 32.0977 39.8945C32.9062 39.8945 33.5547 40.5391 33.5547 41.3398C33.5586 42.1406 32.9062 42.7852 32.0977 42.7852Z" fill="url(#paint0_linear)"/>
<defs>
<linearGradient id="paint0_linear" x1="31.9805" y1="15.7422" x2="31.9805" y2="48.293" gradientUnits="userSpaceOnUse">
<stop stop-color="white" stop-opacity="0.5"/>
<stop offset="1" stop-color="white" stop-opacity="0.2"/>
</linearGradient>
</defs>
</svg>
