<svg width="264" height="214" viewBox="0 0 264 214" fill="none" xmlns="http://www.w3.org/2000/svg">
<rect width="264" height="214" fill="url(#paint0_linear)"/>
<path fill-rule="evenodd" clip-rule="evenodd" d="M16 0H2H0V2V16H2V2H16V0Z" fill="#00DDFF"/>
<path fill-rule="evenodd" clip-rule="evenodd" d="M264 16L264 2L264 0L262 -8.74228e-08L248 -6.99382e-07L248 2L262 2L262 16L264 16Z" fill="#00DDFF"/>
<path fill-rule="evenodd" clip-rule="evenodd" d="M248 214L262 214L264 214L264 212L264 198L262 198L262 212L248 212L248 214Z" fill="#00DDFF"/>
<path fill-rule="evenodd" clip-rule="evenodd" d="M-6.99382e-07 198L-8.74228e-08 212L0 214L2 214L16 214L16 212L2 212L2 198L-6.99382e-07 198Z" fill="#00DDFF"/>
<defs>
<linearGradient id="paint0_linear" x1="132" y1="0" x2="132" y2="214" gradientUnits="userSpaceOnUse">
<stop stop-color="#0057A9" stop-opacity="0"/>
<stop offset="1" stop-color="#0057A9" stop-opacity="0.5"/>
</linearGradient>
</defs>
</svg>
