<svg width="20" height="40" viewBox="0 0 20 40" fill="none" xmlns="http://www.w3.org/2000/svg">
<rect width="20" height="40" transform="translate(20 40) rotate(-180)" fill="#0057A9" fill-opacity="0.5"/>
<g clip-path="url(#clip0)">
<path d="M4.439 20.0009C4.43886 19.8538 4.46777 19.7081 4.52406 19.5721C4.58036 19.4362 4.66293 19.3127 4.76704 19.2088L11.6479 12.3284C11.8589 12.1222 12.1426 12.0075 12.4376 12.0092C12.7325 12.0109 13.015 12.1288 13.2235 12.3374C13.4321 12.546 13.5501 12.8284 13.5517 13.1233C13.5534 13.4183 13.4387 13.7021 13.2325 13.913L7.14289 20.0027L13.2325 26.0923C13.4387 26.3033 13.5534 26.587 13.5517 26.882C13.5501 27.177 13.4321 27.4594 13.2235 27.668C13.015 27.8765 12.7325 27.9945 12.4376 27.9962C12.1426 27.9978 11.8588 27.8831 11.6479 27.677L4.76615 20.7934C4.66212 20.6894 4.57968 20.5658 4.52354 20.4298C4.46739 20.2938 4.43866 20.148 4.439 20.0009Z" fill="white"/>
</g>
<defs>
<clipPath id="clip0">
<rect width="16" height="16" fill="white" transform="translate(18 12) rotate(90)"/>
</clipPath>
</defs>
</svg>
