<svg width="22" height="24" viewBox="0 0 22 24" fill="none" xmlns="http://www.w3.org/2000/svg">
<path d="M9.80001 16.8H5.00001V18H9.80001V16.8ZM19.4 0H2.60001C1.96349 0 1.35304 0.252856 0.902956 0.702944C0.452869 1.15303 0.200012 1.76348 0.200012 2.4V21.6C0.200012 22.2365 0.452869 22.847 0.902956 23.2971C1.35304 23.7471 1.96349 24 2.60001 24H19.4C20.0365 24 20.647 23.7471 21.0971 23.2971C21.5472 22.847 21.8 22.2365 21.8 21.6V2.4C21.8 1.76348 21.5472 1.15303 21.0971 0.702944C20.647 0.252856 20.0365 0 19.4 0ZM13.4 21.6H3.52801C3.40404 21.5979 3.28169 21.5714 3.16796 21.5221C3.05422 21.4727 2.95133 21.4014 2.86515 21.3122C2.77897 21.2231 2.7112 21.1178 2.66571 21.0025C2.62022 20.8871 2.59789 20.764 2.60001 20.64V3.36C2.59789 3.23603 2.62022 3.11285 2.66571 2.99751C2.7112 2.88216 2.77897 2.77691 2.86515 2.68777C2.95133 2.59862 3.05422 2.52732 3.16796 2.47794C3.28169 2.42857 3.40404 2.40208 3.52801 2.4H13.4V21.6ZM19.4 20.64C19.4021 20.764 19.3798 20.8871 19.3343 21.0025C19.2888 21.1178 19.221 21.2231 19.1349 21.3122C19.0487 21.4014 18.9458 21.4727 18.8321 21.5221C18.7183 21.5714 18.596 21.5979 18.472 21.6H15.8V2.4H18.472C18.596 2.40208 18.7183 2.42857 18.8321 2.47794C18.9458 2.52732 19.0487 2.59862 19.1349 2.68777C19.221 2.77691 19.2888 2.88216 19.3343 2.99751C19.3798 3.11285 19.4021 3.23603 19.4 3.36V20.64ZM9.80001 13.2H5.00001V14.4H9.80001V13.2ZM9.80001 9.6H5.00001V10.8H9.80001V9.6ZM9.80001 6H5.00001V7.2H9.80001V6Z" fill="#00DDFF"/>
</svg>
