<svg width="56" height="56" viewBox="0 0 56 56" fill="none" xmlns="http://www.w3.org/2000/svg">
<rect width="56" height="56" fill="#064F94"/>
<path d="M27 33.7156V34.7778C27 35.043 27.1054 35.2974 27.2929 35.4849C27.4805 35.6725 27.7348 35.7778 28 35.7778C28.2653 35.7778 28.5196 35.6725 28.7071 35.4849C28.8947 35.2974 29 35.043 29 34.7778V33.7156C30.7623 33.4929 32.4005 32.6903 33.6565 31.4343C34.9126 30.1783 35.7151 28.5401 35.9378 26.7778H37C37.2653 26.7778 37.5196 26.6725 37.7071 26.4849C37.8947 26.2974 38 26.043 38 25.7778C38 25.5126 37.8947 25.2582 37.7071 25.0707C37.5196 24.8832 37.2653 24.7778 37 24.7778H35.9378C35.7151 23.0155 34.9126 21.3774 33.6565 20.1213C32.4005 18.8653 30.7623 18.0627 29 17.84V16.7778C29 16.5126 28.8947 16.2582 28.7071 16.0707C28.5196 15.8832 28.2653 15.7778 28 15.7778C27.7348 15.7778 27.4805 15.8832 27.2929 16.0707C27.1054 16.2582 27 16.5126 27 16.7778V17.84C25.2378 18.0627 23.5996 18.8653 22.3436 20.1213C21.0875 21.3774 20.285 23.0155 20.0623 24.7778H19C18.7348 24.7778 18.4805 24.8832 18.2929 25.0707C18.1054 25.2582 18 25.5126 18 25.7778C18 26.043 18.1054 26.2974 18.2929 26.4849C18.4805 26.6725 18.7348 26.7778 19 26.7778H20.0623C20.285 28.5401 21.0875 30.1783 22.3436 31.4343C23.5996 32.6903 25.2378 33.4929 27 33.7156ZM27 31.4689C25.8312 31.2628 24.7542 30.7021 23.915 29.8629C23.0757 29.0237 22.515 27.9466 22.3089 26.7778H23C23.2653 26.7778 23.5196 26.6725 23.7071 26.4849C23.8947 26.2974 24 26.043 24 25.7778C24 25.5126 23.8947 25.2582 23.7071 25.0707C23.5196 24.8832 23.2653 24.7778 23 24.7778H22.3089C22.515 23.609 23.0757 22.5319 23.915 21.6927C24.7542 20.8535 25.8312 20.2928 27 20.0867V20.7778C27 21.043 27.1054 21.2974 27.2929 21.4849C27.4805 21.6725 27.7348 21.7778 28 21.7778C28.2653 21.7778 28.5196 21.6725 28.7071 21.4849C28.8947 21.2974 29 21.043 29 20.7778V20.0867C30.1688 20.2928 31.2459 20.8535 32.0851 21.6927C32.9243 22.5319 33.485 23.609 33.6912 24.7778H33C32.7348 24.7778 32.4805 24.8832 32.2929 25.0707C32.1054 25.2582 32 25.5126 32 25.7778C32 26.043 32.1054 26.2974 32.2929 26.4849C32.4805 26.6725 32.7348 26.7778 33 26.7778H33.6912C33.485 27.9466 32.9243 29.0237 32.0851 29.8629C31.2459 30.7021 30.1688 31.2628 29 31.4689V30.7778C29 30.5126 28.8947 30.2582 28.7071 30.0707C28.5196 29.8832 28.2653 29.7778 28 29.7778C27.7348 29.7778 27.4805 29.8832 27.2929 30.0707C27.1054 30.2582 27 30.5126 27 30.7778V31.4689ZM15.7778 11.3334H40.2223C40.66 11.3334 41.0935 11.4196 41.4979 11.5871C41.9023 11.7546 42.2698 12.0002 42.5793 12.3097C42.8888 12.6192 43.1343 12.9867 43.3019 13.3911C43.4694 13.7955 43.5556 14.229 43.5556 14.6667V41.3334C43.5556 41.7711 43.4694 42.2046 43.3019 42.609C43.1343 43.0134 42.8888 43.3809 42.5793 43.6904C42.2698 43.9999 41.9023 44.2455 41.4979 44.413C41.0935 44.5805 40.66 44.6667 40.2223 44.6667H15.7778C15.3401 44.6667 14.9066 44.5805 14.5022 44.413C14.0978 44.2455 13.7303 43.9999 13.4208 43.6904C13.1113 43.3809 12.8657 43.0134 12.6982 42.609C12.5307 42.2046 12.4445 41.7711 12.4445 41.3334V14.6667C12.4445 14.229 12.5307 13.7955 12.6982 13.3911C12.8657 12.9867 13.1113 12.6192 13.4208 12.3097C13.7303 12.0002 14.0978 11.7546 14.5022 11.5871C14.9066 11.4196 15.3401 11.3334 15.7778 11.3334ZM15.7778 40.2223C15.4831 40.2223 15.2005 40.3393 14.9921 40.5477C14.7838 40.7561 14.6667 41.0387 14.6667 41.3334C14.6667 41.6281 14.7838 41.9107 14.9921 42.119C15.2005 42.3274 15.4831 42.4445 15.7778 42.4445H40.2223C40.5169 42.4445 40.7996 42.3274 41.0079 42.119C41.2163 41.9107 41.3334 41.6281 41.3334 41.3334C41.3334 41.0387 41.2163 40.7561 41.0079 40.5477C40.7996 40.3393 40.5169 40.2223 40.2223 40.2223H15.7778Z" fill="#00DDFF"/>
</svg>
