<svg width="32" height="32" viewBox="0 0 32 32" fill="none" xmlns="http://www.w3.org/2000/svg">
<path d="M0 1.48943V24.5425C0 25.6684 0.846545 26.8756 1.88655 27.248L15.3338 32V4.87852L1.88655 0.126516C0.846545 -0.247302 0 0.363607 0 1.48943ZM30.1004 0.0988798L25.3338 2.16725V25.2204C25.3338 26.3447 24.5876 27.7629 23.6669 28.3796L20 30.8684L30.1004 27.2204C31.1535 26.8611 32 25.6669 32 24.5425V1.48943C32 0.363607 31.1535 -0.253121 30.1004 0.0988798ZM24 24.5425V1.48943C24 0.365062 23.2538 -0.0363931 22.3331 0.580335L16.6662 4.87998V32L22.3331 27.7018C23.2538 27.0836 24 25.6669 24 24.5425Z" fill="#00DDFF"/>
</svg>
