<svg width="56" height="56" viewBox="0 0 56 56" fill="none" xmlns="http://www.w3.org/2000/svg">
<rect width="56" height="56" fill="#064F94"/>
<path d="M13 12.4894V35.5425C13 36.6684 13.8465 37.8756 14.8865 38.248L28.3338 43V15.8785L14.8865 11.1265C13.8465 10.7527 13 11.3636 13 12.4894ZM43.1004 11.0989L38.3338 13.1672V36.2204C38.3338 37.3447 37.5876 38.7629 36.6669 39.3796L33 41.8684L43.1004 38.2204C44.1535 37.8611 45 36.6669 45 35.5425V12.4894C45 11.3636 44.1535 10.7469 43.1004 11.0989ZM37 35.5425V12.4894C37 11.3651 36.2538 10.9636 35.3331 11.5803L29.6662 15.88V43L35.3331 38.7018C36.2538 38.0836 37 36.6669 37 35.5425Z" fill="#00DDFF"/>
</svg>
