<svg width="112" height="112" viewBox="0 0 112 112" fill="none" xmlns="http://www.w3.org/2000/svg">
<rect opacity="0.01" x="33" y="35" width="48" height="47.0204" fill="black"/>
<path opacity="0.2" fill-rule="evenodd" clip-rule="evenodd" d="M111.991 57.0034L103.992 56.8628C103.997 56.5759 104 56.2883 104 56C104 55.7117 103.997 55.4241 103.992 55.1372L111.991 54.9966C111.997 55.3304 112 55.6648 112 56C112 56.3352 111.997 56.6696 111.991 57.0034ZM111.921 53.0016L103.932 53.4231C103.902 52.8488 103.862 52.2776 103.811 51.7094L111.78 51.005C111.839 51.6673 111.886 52.3329 111.921 53.0016ZM111.569 49.0164L103.63 50.004C103.559 49.4357 103.479 48.8707 103.388 48.309L111.287 47.0387C111.392 47.6942 111.486 48.3535 111.569 49.0164ZM110.934 45.0709L103.086 46.6235C102.975 46.0618 102.854 45.5036 102.724 44.9493L110.511 43.1158C110.663 43.7632 110.804 44.415 110.934 45.0709ZM110.018 41.1787L102.302 43.291C102.151 42.7399 101.99 42.1928 101.82 41.6499L109.456 39.2616C109.654 39.8958 109.841 40.535 110.018 41.1787ZM108.824 37.3634L101.28 40.0251C101.09 39.486 100.89 38.9513 100.681 38.4213L108.125 35.49C108.369 36.1092 108.602 36.7337 108.824 37.3634ZM107.359 33.6437L100.026 36.8404C99.7975 36.3167 99.5601 35.7978 99.3138 35.2839L106.528 31.8262C106.816 32.4262 107.093 33.0321 107.359 33.6437ZM105.631 30.0384L98.5458 33.7524C98.2804 33.2461 98.0062 32.7451 97.7234 32.2496L104.672 28.2845C105.002 28.8627 105.322 29.4474 105.631 30.0384ZM103.65 26.5663L96.8478 30.777C96.5469 30.2909 96.2376 29.8105 95.9199 29.3361L102.568 24.8855C102.938 25.4389 103.299 25.9992 103.65 26.5663ZM101.426 23.244L94.9408 27.9285C94.6059 27.4649 94.263 27.0075 93.9121 26.5565L100.226 21.6444C100.636 22.1702 101.035 22.7035 101.426 23.244ZM98.9712 20.0886L92.8353 25.2219C92.4683 24.7832 92.0936 24.3512 91.7114 23.926L97.6612 18.5781C98.1067 19.0737 98.5434 19.5773 98.9712 20.0886ZM96.2985 17.1151L90.5422 22.6707C90.1451 22.2593 89.7407 21.8549 89.3293 21.4578L94.8849 15.7014C95.3644 16.1643 95.8357 16.6356 96.2985 17.1151ZM93.4219 14.3387L88.074 20.2885C87.6488 19.9064 87.2168 19.5317 86.7781 19.1647L91.9114 13.0288C92.4227 13.4566 92.9263 13.8933 93.4219 14.3387ZM90.3556 11.7735L85.4435 18.0879C84.9925 17.737 84.5351 17.3941 84.0715 17.0592L88.756 10.5742C89.2965 10.9646 89.8298 11.3645 90.3556 11.7735ZM87.1145 9.43233L82.6639 16.0801C82.1894 15.7624 81.7091 15.4531 81.223 15.1522L85.4337 8.34995C86.0007 8.70098 86.5611 9.06186 87.1145 9.43233ZM83.7155 7.32835L79.7504 14.2766C79.2549 13.9938 78.7538 13.7196 78.2476 13.4542L81.9616 6.36862C82.5525 6.67837 83.1373 6.99835 83.7155 7.32835ZM80.1738 5.47198L76.7161 12.6862C76.2022 12.4399 75.6833 12.2025 75.1596 11.9742L78.3563 4.6406C78.9679 4.9072 79.5738 5.1844 80.1738 5.47198ZM76.51 3.87496L73.5787 11.3186C73.0486 11.1099 72.514 10.9103 71.9749 10.7201L74.6366 3.17587C75.2663 3.39804 75.8908 3.63114 76.51 3.87496ZM72.7384 2.54438L70.3501 10.1796C69.8072 10.0097 69.2601 9.8493 68.709 9.69844L70.8213 1.98234C71.465 2.15856 72.1041 2.34598 72.7384 2.54438ZM68.8842 1.48932L67.0507 9.27637C66.4963 9.14585 65.9382 9.02493 65.3765 8.91381L66.9291 1.0659C67.585 1.19566 68.2368 1.33687 68.8842 1.48932ZM64.9613 0.713152L63.6909 8.61165C63.1293 8.52132 62.5643 8.44071 61.996 8.37002L62.9836 0.431208C63.6465 0.513673 64.3058 0.607723 64.9613 0.713152ZM60.995 0.219729L60.2906 8.18866C59.7224 8.13844 59.1511 8.09808 58.5769 8.06779L58.9984 0.0789004C59.6671 0.11418 60.3327 0.16119 60.995 0.219729ZM57.0034 0.00880812L56.8628 8.00757C56.5759 8.00253 56.2883 8 56 8C55.7117 8 55.4241 8.00253 55.1372 8.00757L54.9966 0.00880849C55.3304 0.00294432 55.6648 0 56 0C56.3352 0 56.6696 0.00294419 57.0034 0.00880812ZM53.0016 0.0789013L53.4231 8.06779C52.8488 8.09809 52.2776 8.13844 51.7094 8.18866L51.005 0.219731C51.6673 0.161192 52.3329 0.114181 53.0016 0.0789013ZM49.0164 0.431211L50.004 8.37002C49.4357 8.44071 48.8707 8.52132 48.309 8.61165L47.0387 0.713156C47.6942 0.607727 48.3535 0.513676 49.0164 0.431211ZM45.0709 1.06591L46.6235 8.91381C46.0618 9.02494 45.5036 9.14585 44.9493 9.27638L43.1158 1.48933C43.7632 1.33688 44.415 1.19567 45.0709 1.06591ZM41.1787 1.98234L43.291 9.69845C42.7399 9.8493 42.1928 10.0097 41.6499 10.1796L39.2616 2.54439C39.8958 2.34599 40.535 2.15857 41.1787 1.98234ZM37.3634 3.17588L40.0251 10.7201C39.486 10.9103 38.9513 11.1099 38.4213 11.3186L35.49 3.87497C36.1092 3.63115 36.7337 3.39804 37.3634 3.17588ZM33.6437 4.64061L36.8404 11.9742C36.3167 12.2025 35.7978 12.4399 35.2839 12.6862L31.8262 5.47199C32.4262 5.18441 33.0321 4.90721 33.6437 4.64061ZM30.0384 6.36863L33.7524 13.4542C33.2461 13.7196 32.7451 13.9938 32.2496 14.2766L28.2845 7.32836C28.8627 6.99836 29.4474 6.67838 30.0384 6.36863ZM26.5663 8.34995L30.777 15.1522C30.2909 15.4531 29.8105 15.7624 29.3361 16.0801L24.8855 9.43234C25.4389 9.06186 25.9992 8.70099 26.5663 8.34995ZM23.244 10.5742L27.9285 17.0592C27.4649 17.3941 27.0075 17.737 26.5565 18.0879L21.6444 11.7735C22.1702 11.3645 22.7035 10.9646 23.244 10.5742ZM20.0886 13.0288L25.2219 19.1647C24.7832 19.5317 24.3512 19.9064 23.926 20.2886L18.5781 14.3388C19.0737 13.8933 19.5773 13.4566 20.0886 13.0288ZM17.1151 15.7015L22.6707 21.4578C22.2593 21.8549 21.8549 22.2593 21.4578 22.6707L15.7014 17.1151C16.1643 16.6356 16.6356 16.1643 17.1151 15.7015ZM14.3387 18.5781L20.2885 23.926C19.9064 24.3512 19.5317 24.7832 19.1647 25.2219L13.0288 20.0886C13.4566 19.5773 13.8933 19.0737 14.3387 18.5781ZM11.7735 21.6444L18.0879 26.5565C17.737 27.0075 17.3941 27.4649 17.0592 27.9285L10.5742 23.244C10.9646 22.7035 11.3645 22.1702 11.7735 21.6444ZM9.43233 24.8855L16.0801 29.3361C15.7624 29.8106 15.4531 30.2909 15.1522 30.777L8.34994 26.5663C8.70098 25.9993 9.06185 25.4389 9.43233 24.8855ZM7.32835 28.2845L14.2766 32.2496C13.9938 32.7451 13.7196 33.2462 13.4542 33.7524L6.36862 30.0384C6.67837 29.4475 6.99836 28.8627 7.32835 28.2845ZM5.47198 31.8262L12.6862 35.2839C12.4399 35.7978 12.2025 36.3167 11.9742 36.8404L4.6406 33.6437C4.9072 33.0321 5.1844 32.4262 5.47198 31.8262ZM3.87496 35.49L11.3186 38.4213C11.1099 38.9514 10.9103 39.486 10.7201 40.0251L3.17587 37.3635C3.39804 36.7337 3.63114 36.1092 3.87496 35.49ZM2.54438 39.2616L10.1796 41.6499C10.0097 42.1928 9.8493 42.7399 9.69844 43.291L1.98234 41.1787C2.15856 40.535 2.34599 39.8959 2.54438 39.2616ZM1.48932 43.1158L9.27637 44.9493C9.14585 45.5037 9.02493 46.0618 8.91381 46.6235L1.0659 45.0709C1.19566 44.415 1.33687 43.7632 1.48932 43.1158ZM0.713152 47.0387L8.61165 48.3091C8.52132 48.8707 8.44071 49.4357 8.37002 50.004L0.431208 49.0164C0.513673 48.3535 0.607724 47.6942 0.713152 47.0387ZM0.219729 51.005L8.18866 51.7094C8.13844 52.2776 8.09808 52.8489 8.06779 53.4231L0.0789004 53.0016C0.11418 52.3329 0.16119 51.6673 0.219729 51.005ZM0.00880813 54.9966C0.00294419 55.3304 0 55.6648 0 56C0 56.3352 0.00294432 56.6696 0.00880849 57.0034L8.00757 56.8628C8.00253 56.5759 8 56.2883 8 56C8 55.7117 8.00253 55.4241 8.00757 55.1372L0.00880813 54.9966ZM0.0789013 58.9984L8.06779 58.5769C8.09809 59.1512 8.13844 59.7224 8.18866 60.2906L0.219731 60.995C0.161192 60.3327 0.114181 59.6671 0.0789013 58.9984ZM0.431211 62.9836L8.37002 61.996C8.44071 62.5643 8.52132 63.1293 8.61165 63.691L0.713155 64.9613C0.607727 64.3058 0.513676 63.6465 0.431211 62.9836ZM1.06591 66.9291L8.91381 65.3765C9.02494 65.9382 9.14585 66.4964 9.27638 67.0507L1.48933 68.8842C1.33688 68.2368 1.19566 67.585 1.06591 66.9291ZM1.98234 70.8213L9.69845 68.709C9.8493 69.2601 10.0097 69.8072 10.1796 70.3501L2.54439 72.7384C2.34599 72.1042 2.15857 71.465 1.98234 70.8213ZM3.17588 74.6366L10.7201 71.9749C10.9103 72.514 11.1099 73.0487 11.3186 73.5788L3.87497 76.51C3.63115 75.8908 3.39804 75.2663 3.17588 74.6366ZM4.64061 78.3563L11.9742 75.1596C12.2025 75.6833 12.4399 76.2022 12.6862 76.7161L5.47199 80.1738C5.18441 79.5738 4.90721 78.9679 4.64061 78.3563ZM6.36863 81.9616L13.4542 78.2476C13.7196 78.7539 13.9938 79.2549 14.2766 79.7504L7.32836 83.7155C6.99836 83.1373 6.67837 82.5526 6.36863 81.9616ZM8.34995 85.4337L15.1522 81.223C15.4531 81.7091 15.7624 82.1895 16.0801 82.6639L9.43234 87.1145C9.06186 86.5611 8.70099 86.0008 8.34995 85.4337ZM10.5742 88.756L17.0592 84.0715C17.3941 84.5351 17.737 84.9925 18.0879 85.4435L11.7735 90.3556C11.3645 89.8298 10.9646 89.2965 10.5742 88.756ZM13.0288 91.9114L19.1647 86.7781C19.5317 87.2168 19.9064 87.6488 20.2886 88.074L14.3388 93.4219C13.8933 92.9263 13.4566 92.4227 13.0288 91.9114ZM15.7015 94.8849L21.4578 89.3293C21.8549 89.7407 22.2593 90.1451 22.6707 90.5422L17.1151 96.2986C16.6356 95.8357 16.1643 95.3644 15.7015 94.8849ZM18.5781 97.6613L23.926 91.7114C24.3512 92.0936 24.7832 92.4683 25.2219 92.8353L20.0886 98.9712C19.5773 98.5434 19.0737 98.1067 18.5781 97.6613ZM21.6444 100.227L26.5565 93.9121C27.0075 94.263 27.4649 94.6059 27.9285 94.9408L23.244 101.426C22.7035 101.035 22.1702 100.636 21.6444 100.227ZM24.8855 102.568L29.3361 95.9199C29.8106 96.2376 30.2909 96.5469 30.777 96.8478L26.5663 103.65C25.9993 103.299 25.4389 102.938 24.8855 102.568ZM28.2845 104.672L32.2496 97.7234C32.7451 98.0062 33.2462 98.2804 33.7524 98.5458L30.0384 105.631C29.4475 105.322 28.8627 105.002 28.2845 104.672ZM31.8262 106.528L35.2839 99.3138C35.7978 99.5602 36.3167 99.7975 36.8404 100.026L33.6437 107.359C33.0321 107.093 32.4262 106.816 31.8262 106.528ZM35.49 108.125L38.4213 100.681C38.9514 100.89 39.486 101.09 40.0251 101.28L37.3634 108.824C36.7337 108.602 36.1092 108.369 35.49 108.125ZM39.2616 109.456L41.6499 101.82C42.1928 101.99 42.7399 102.151 43.291 102.302L41.1787 110.018C40.535 109.841 39.8959 109.654 39.2616 109.456ZM43.1158 110.511L44.9493 102.724C45.5037 102.854 46.0618 102.975 46.6235 103.086L45.0709 110.934C44.415 110.804 43.7632 110.663 43.1158 110.511ZM47.0387 111.287L48.3091 103.388C48.8707 103.479 49.4357 103.559 50.004 103.63L49.0164 111.569C48.3535 111.486 47.6942 111.392 47.0387 111.287ZM51.005 111.78L51.7094 103.811C52.2776 103.862 52.8489 103.902 53.4231 103.932L53.0016 111.921C52.3329 111.886 51.6673 111.839 51.005 111.78ZM54.9966 111.991L55.1372 103.992C55.4241 103.997 55.7117 104 56 104C56.2883 104 56.5759 103.997 56.8628 103.992L57.0034 111.991C56.6696 111.997 56.3352 112 56 112C55.6648 112 55.3304 111.997 54.9966 111.991ZM58.9984 111.921L58.5769 103.932C59.1512 103.902 59.7224 103.862 60.2906 103.811L60.995 111.78C60.3327 111.839 59.6671 111.886 58.9984 111.921ZM62.9836 111.569L61.996 103.63C62.5643 103.559 63.1293 103.479 63.691 103.388L64.9613 111.287C64.3058 111.392 63.6465 111.486 62.9836 111.569ZM66.9291 110.934L65.3765 103.086C65.9382 102.975 66.4964 102.854 67.0507 102.724L68.8842 110.511C68.2368 110.663 67.585 110.804 66.9291 110.934ZM70.8213 110.018L68.709 102.302C69.2601 102.151 69.8072 101.99 70.3501 101.82L72.7384 109.456C72.1042 109.654 71.465 109.841 70.8213 110.018ZM74.6366 108.824L71.9749 101.28C72.514 101.09 73.0487 100.89 73.5788 100.681L76.51 108.125C75.8908 108.369 75.2663 108.602 74.6366 108.824ZM78.3563 107.359L75.1596 100.026C75.6833 99.7975 76.2022 99.5601 76.7161 99.3138L80.1738 106.528C79.5738 106.816 78.9679 107.093 78.3563 107.359ZM81.9616 105.631L78.2476 98.5458C78.7539 98.2804 79.2549 98.0062 79.7504 97.7234L83.7155 104.672C83.1373 105.002 82.5526 105.322 81.9616 105.631ZM85.4337 103.65L81.223 96.8478C81.7091 96.5469 82.1895 96.2376 82.6639 95.9199L87.1145 102.568C86.5611 102.938 86.0008 103.299 85.4337 103.65ZM88.756 101.426L84.0715 94.9408C84.5351 94.6059 84.9925 94.263 85.4435 93.9121L90.3556 100.226C89.8298 100.636 89.2965 101.035 88.756 101.426ZM91.9114 98.9712L86.7781 92.8353C87.2168 92.4683 87.6488 92.0936 88.074 91.7114L93.4219 97.6612C92.9263 98.1067 92.4227 98.5434 91.9114 98.9712ZM94.8849 96.2985L89.3293 90.5422C89.7407 90.1451 90.1451 89.7407 90.5422 89.3293L96.2986 94.8849C95.8357 95.3644 95.3644 95.8357 94.8849 96.2985ZM97.6613 93.4219L91.7114 88.074C92.0936 87.6488 92.4683 87.2168 92.8353 86.7781L98.9712 91.9114C98.5434 92.4227 98.1067 92.9263 97.6613 93.4219ZM100.227 90.3556L93.9121 85.4435C94.263 84.9925 94.6059 84.5351 94.9408 84.0715L101.426 88.756C101.035 89.2965 100.636 89.8298 100.227 90.3556ZM102.568 87.1145L95.9199 82.6639C96.2376 82.1894 96.5469 81.7091 96.8478 81.223L103.65 85.4337C103.299 86.0007 102.938 86.5611 102.568 87.1145ZM104.672 83.7155C105.002 83.1373 105.322 82.5525 105.631 81.9616L98.5458 78.2476C98.2804 78.7538 98.0062 79.2549 97.7234 79.7504L104.672 83.7155ZM106.528 80.1738L99.3138 76.7161C99.5602 76.2022 99.7975 75.6833 100.026 75.1596L107.359 78.3563C107.093 78.9679 106.816 79.5738 106.528 80.1738ZM108.125 76.51L100.681 73.5787C100.89 73.0486 101.09 72.514 101.28 71.9749L108.824 74.6366C108.602 75.2663 108.369 75.8908 108.125 76.51ZM109.456 72.7384L101.82 70.3501C101.99 69.8072 102.151 69.2601 102.302 68.709L110.018 70.8213C109.841 71.465 109.654 72.1041 109.456 72.7384ZM110.511 68.8842L102.724 67.0507C102.854 66.4963 102.975 65.9382 103.086 65.3765L110.934 66.9291C110.804 67.585 110.663 68.2368 110.511 68.8842ZM111.287 64.9613L103.388 63.6909C103.479 63.1293 103.559 62.5643 103.63 61.996L111.569 62.9836C111.486 63.6465 111.392 64.3058 111.287 64.9613ZM111.78 60.995L103.811 60.2906C103.862 59.7224 103.902 59.1511 103.932 58.5769L111.921 58.9984C111.886 59.6671 111.839 60.3327 111.78 60.995Z" fill="white"/>
<path opacity="0.6" d="M69.1557 48.9923L68.9156 48.9318C69.2502 50.5126 69.1481 52.1356 68.6062 53.8001C67.7946 56.2911 67.2969 56.2911 66.4349 59.0003C66.2566 58.7607 65.1148 57.0601 66.0896 53.7971C66.8388 50.0217 64.9113 46.2293 62.2346 42.3385C59.6418 38.5632 55.8164 35.7164 52.2091 35H52.0302L52.0926 35.1767C53.2671 40.938 49.925 43.9401 45.9831 47.2917C42.0412 50.6465 37.7319 54.5098 37.0735 62.0244C36.226 71.9095 42.9063 78.8629 46.9434 82.0697C47.1834 82.2463 47.4273 82.3062 47.6957 82.3062C48.1179 82.3062 48.4455 82.1302 48.6888 81.8306C48.9141 81.5043 48.9378 81.0847 48.7505 80.7364C45.5616 72.6571 52.0926 67.4575 54.1694 66.0356C52.453 75.8718 60.8824 83.6046 62.762 82.9627C70.4858 80.3415 75.4749 75.046 76.7118 67.9062C78.0325 60.2498 74.6936 51.7829 69.1557 48.9923Z" fill="url(#paint0_linear)"/>
<defs>
<linearGradient id="paint0_linear" x1="57" y1="35" x2="57" y2="83" gradientUnits="userSpaceOnUse">
<stop stop-color="white"/>
<stop offset="1" stop-color="white" stop-opacity="0"/>
</linearGradient>
</defs>
</svg>
