<svg width="326" height="56" viewBox="0 0 326 56" fill="none" xmlns="http://www.w3.org/2000/svg">
<path d="M0 55H3.41416C16.8337 55 28.6786 46.2338 32.6 33.4V33.4C38.4822 14.1493 56.2495 1 76.3788 1H249.621C269.751 1 287.518 14.1493 293.4 33.4V33.4C297.321 46.2338 309.166 55 322.586 55H326" stroke="url(#paint0_linear)" stroke-width="2"/>
<mask id="mask0" mask-type="alpha" maskUnits="userSpaceOnUse" x="26" y="1" width="275" height="54">
<path d="M26 55H198H243H300L293.881 34.9735C287.713 14.7879 269.083 1 247.976 1H78.0241C56.9172 1 38.287 14.7879 32.1192 34.9735L26 55Z" fill="#00DDFF"/>
</mask>
<g mask="url(#mask0)">
<g filter="url(#filter0_f)">
<ellipse cx="163" cy="1" rx="106" ry="16" fill="#00DDFF" fill-opacity="0.6"/>
</g>
</g>
<defs>
<filter id="filter0_f" x="25" y="-47" width="276" height="96" filterUnits="userSpaceOnUse" color-interpolation-filters="sRGB">
<feFlood flood-opacity="0" result="BackgroundImageFix"/>
<feBlend mode="normal" in="SourceGraphic" in2="BackgroundImageFix" result="shape"/>
<feGaussianBlur stdDeviation="16" result="effect1_foregroundBlur"/>
</filter>
<linearGradient id="paint0_linear" x1="183.5" y1="1" x2="183.5" y2="55" gradientUnits="userSpaceOnUse">
<stop stop-color="#C4F7FF"/>
<stop offset="1" stop-color="#00DDFF"/>
</linearGradient>
</defs>
</svg>
