<svg width="200" height="200" viewBox="0 0 200 200" fill="none" xmlns="http://www.w3.org/2000/svg">
<g opacity="0.2">
<g filter="url(#filter0_i)">
<circle cx="100" cy="100" r="98" fill="#002761"/>
</g>
<circle cx="100" cy="100" r="98" stroke="#0057A9" stroke-width="4"/>
</g>
<g opacity="0.2" filter="url(#filter1_i)">
<path d="M198 100C198 45.8761 154.124 2 100 2M100 198C45.8761 198 2 154.124 2 100" stroke="#0057A9" stroke-width="4"/>
</g>
<g filter="url(#filter2_f)">
<circle cx="100" cy="100" r="42" fill="#00FFCF" fill-opacity="0.2"/>
</g>
<path d="M64.9219 97.8173H97.9815V64.7578H64.9219V97.8173ZM73.1868 73.0227H89.7166V89.5524H73.1868V73.0227ZM102.114 64.7578V97.8174H135.174V64.7578H102.114ZM126.909 89.5524H110.379V73.0227H126.909V89.5524ZM77.3192 85.42H85.5841V77.1551H77.3192V85.42ZM64.9219 135.009H97.9815V101.95H64.9219V135.009ZM73.1868 110.215H89.7166V126.744H73.1868V110.215ZM122.776 77.1551H114.511V85.42H122.776V77.1551H122.776ZM102.114 135.009H110.379V126.745H102.114V135.009ZM110.379 110.215V126.744H118.644V110.215H110.379ZM126.909 126.745H118.644V135.009H135.173V118.48H126.909V126.745ZM126.909 110.215H135.173V101.95H126.909V110.215ZM102.114 101.95V110.215H110.379V101.95H102.114ZM77.3192 122.612H85.5841V114.347H77.3192V122.612Z" fill="#00FFCF" fill-opacity="0.2"/>
<g filter="url(#filter3_i)">
<circle cx="100" cy="100" r="67" stroke="white" stroke-opacity="0.2" stroke-width="2" stroke-dasharray="1 1"/>
</g>
<defs>
<filter id="filter0_i" x="0" y="0" width="200" height="200" filterUnits="userSpaceOnUse" color-interpolation-filters="sRGB">
<feFlood flood-opacity="0" result="BackgroundImageFix"/>
<feBlend mode="normal" in="SourceGraphic" in2="BackgroundImageFix" result="shape"/>
<feColorMatrix in="SourceAlpha" type="matrix" values="0 0 0 0 0 0 0 0 0 0 0 0 0 0 0 0 0 0 127 0" result="hardAlpha"/>
<feOffset/>
<feGaussianBlur stdDeviation="6"/>
<feComposite in2="hardAlpha" operator="arithmetic" k2="-1" k3="1"/>
<feColorMatrix type="matrix" values="0 0 0 0 0 0 0 0 0 0.618667 0 0 0 0 0.966667 0 0 0 0.4 0"/>
<feBlend mode="normal" in2="shape" result="effect1_innerShadow"/>
</filter>
<filter id="filter1_i" x="0" y="0" width="200" height="200" filterUnits="userSpaceOnUse" color-interpolation-filters="sRGB">
<feFlood flood-opacity="0" result="BackgroundImageFix"/>
<feBlend mode="normal" in="SourceGraphic" in2="BackgroundImageFix" result="shape"/>
<feColorMatrix in="SourceAlpha" type="matrix" values="0 0 0 0 0 0 0 0 0 0 0 0 0 0 0 0 0 0 127 0" result="hardAlpha"/>
<feOffset/>
<feGaussianBlur stdDeviation="6"/>
<feComposite in2="hardAlpha" operator="arithmetic" k2="-1" k3="1"/>
<feColorMatrix type="matrix" values="0 0 0 0 0 0 0 0 0 0.618667 0 0 0 0 0.966667 0 0 0 0.4 0"/>
<feBlend mode="normal" in2="shape" result="effect1_innerShadow"/>
</filter>
<filter id="filter2_f" x="26" y="26" width="148" height="148" filterUnits="userSpaceOnUse" color-interpolation-filters="sRGB">
<feFlood flood-opacity="0" result="BackgroundImageFix"/>
<feBlend mode="normal" in="SourceGraphic" in2="BackgroundImageFix" result="shape"/>
<feGaussianBlur stdDeviation="16" result="effect1_foregroundBlur"/>
</filter>
<filter id="filter3_i" x="32" y="32" width="136" height="136" filterUnits="userSpaceOnUse" color-interpolation-filters="sRGB">
<feFlood flood-opacity="0" result="BackgroundImageFix"/>
<feBlend mode="normal" in="SourceGraphic" in2="BackgroundImageFix" result="shape"/>
<feColorMatrix in="SourceAlpha" type="matrix" values="0 0 0 0 0 0 0 0 0 0 0 0 0 0 0 0 0 0 127 0" result="hardAlpha"/>
<feOffset/>
<feGaussianBlur stdDeviation="8"/>
<feComposite in2="hardAlpha" operator="arithmetic" k2="-1" k3="1"/>
<feColorMatrix type="matrix" values="0 0 0 0 0.363368 0 0 0 0 0.479167 0 0 0 0 0.479167 0 0 0 0.25 0"/>
<feBlend mode="normal" in2="shape" result="effect1_innerShadow"/>
</filter>
</defs>
</svg>
