<svg width="118" height="187" viewBox="0 0 118 187" fill="none" xmlns="http://www.w3.org/2000/svg">
<rect width="118" height="187" fill="url(#paint0_linear)"/>
<g opacity="0.3" clip-path="url(#clip0)">
<circle opacity="0.4" cx="59" cy="202" r="17" stroke="#00DDFF" stroke-width="6"/>
<circle opacity="0.3" cx="59" cy="202" r="29" stroke="#00DDFF" stroke-width="6"/>
<circle opacity="0.2" cx="59" cy="202" r="42" stroke="#00DDFF" stroke-width="6"/>
<circle opacity="0.1" cx="59" cy="202" r="56" stroke="#00DDFF" stroke-width="6"/>
</g>
<path d="M12 187L0 187L-1.04907e-06 175L2 175L2 185L12 185L12 187Z" fill="#00DDFF"/>
<path d="M106 0L118 2.09815e-06L118 12L116 12L116 2L106 2L106 0Z" fill="#00DDFF"/>
<path fill-rule="evenodd" clip-rule="evenodd" d="M48.6254 165.028C45.8739 162.276 44.3281 158.544 44.3281 154.653C44.3281 150.762 45.8739 147.03 48.6254 144.279C51.3769 141.527 55.1088 139.981 59 139.981C62.8912 139.981 66.6231 141.527 69.3746 144.279C72.1261 147.03 73.6719 150.762 73.6719 154.653C73.6719 158.544 72.1261 162.276 69.3746 165.028C66.6231 167.779 62.8912 169.325 59 169.325C55.1088 169.325 51.3769 167.779 48.6254 165.028ZM59 147.981C59.7063 147.981 60.2812 148.553 60.2812 149.263V153.974L67.2128 157.975C67.8253 158.328 68.0346 159.113 67.6815 159.725C67.3284 160.338 66.544 160.547 65.9346 160.194L58.3815 155.831C58.0941 155.666 57.8955 155.405 57.802 155.112C57.7482 154.97 57.7188 154.817 57.7188 154.656V149.259C57.7188 148.553 58.2937 147.981 59 147.981Z" fill="#00DDFF"/>
<defs>
<linearGradient id="paint0_linear" x1="59" y1="0" x2="59" y2="187" gradientUnits="userSpaceOnUse">
<stop stop-color="#0057A9" stop-opacity="0"/>
<stop offset="1" stop-color="#0057A9" stop-opacity="0.5"/>
</linearGradient>
<clipPath id="clip0">
<rect width="118" height="63" fill="white" transform="translate(0 124)"/>
</clipPath>
</defs>
</svg>
